<?xml version="1.0" encoding="utf-8"?>
<!-- Generator: Adobe Illustrator 21.0.0, SVG Export Plug-In . SVG Version: 6.00 Build 0)  -->
<svg version="1.1" id="Capa_1" xmlns="http://www.w3.org/2000/svg" xmlns:xlink="http://www.w3.org/1999/xlink" x="0px" y="0px"
	 viewBox="0 0 38.2 9.1" style="enable-background:new 0 0 38.2 9.1;" xml:space="preserve">
<style type="text/css">
	.st0{fill:#FFFFFF;}
</style>
<g>
	<path class="st0" d="M5.2,1.3L3.5,9H1.8L3.5,1H3.4C2.1,1,1.1,1.5,1.1,3.5c0,0.6,0.2,0.7,0.2,0.8C0.5,4.3,0,4,0,3.1
		C0,1.5,1.1,0,4.1,0C5.5,0,6,0.3,7.2,0.3c0.6,0,1.1-0.1,1.4-0.3c0,1-0.5,1.5-1.5,1.5C6.5,1.5,5.8,1.4,5.2,1.3z"/>
	<path class="st0" d="M8.2,8c0.9,0,1.5-0.5,2.1-1.2h0.4C10,7.9,9,9.1,7.4,9.1c-1.1,0-1.9-0.6-1.9-1.9c0-1.4,0.8-4.3,3.2-4.3
		c1.1,0,1.3,0.6,1.3,1.2c0,1.4-1.3,2.4-2.8,2.5c0,0.2,0,0.3,0,0.5C7.3,7.9,7.6,8,8.2,8z M8.9,3.5C8.3,3.5,7.7,4.8,7.4,6
		c0.9-0.1,1.7-1,1.7-2C9.2,3.7,9.1,3.5,8.9,3.5z"/>
	<path class="st0" d="M16.1,3l-0.9,4.1c0,0.2,0,0.3,0,0.4c0,0.3,0.2,0.5,0.5,0.5c0.5,0,0.8-0.5,1-1.1h0.5c-0.7,2-1.8,2.2-2.4,2.2
		c-0.7,0-1.1-0.4-1.2-1.1c-0.4,0.6-0.9,1.1-1.8,1.1c-0.8,0-1.6-0.5-1.6-1.9c0-1.6,1-4.2,3.1-4.2c0.7,0,1,0.3,1,0.6v0.1L14.3,3H16.1z
		 M11.9,7c0,0.9,0.4,0.9,0.6,0.9c0.3,0,0.9-0.4,1-1.1l0.6-2.7c0-0.1-0.1-0.5-0.5-0.5C12.6,3.7,11.9,5.8,11.9,7z"/>
	<path class="st0" d="M20.1,4c0-0.3-0.1-0.5-0.3-0.5c-0.8,0-1.5,2.2-1.5,3.5c0,0.8,0.3,1,0.9,1c0.9,0,1.5-0.5,2.1-1.2h0.4
		c-0.7,1.1-1.7,2.2-3.3,2.2c-1.1,0-1.9-0.6-1.9-1.9c0-1.4,0.8-4.3,3.2-4.3C20.8,2.9,21,3.4,21,4c0,0.6-0.3,0.9-0.6,0.9
		c-0.1,0-0.3,0-0.4-0.1C20.1,4.4,20.1,4.2,20.1,4z"/>
	<path class="st0" d="M24.2,4c-0.5,0-0.8,0.7-0.9,1.1L22.5,9h-1.7l1.7-8.2l1.8-0.2l-0.6,3c0.5-0.6,1-0.7,1.4-0.7
		c0.8,0,1.3,0.4,1.3,1.4c0,1-0.6,2.4-0.6,3.1c0,0.3,0.1,0.5,0.5,0.5c0.5,0,0.7-0.4,1-1.1h0.5c-0.7,2-1.6,2.2-2.2,2.2
		c-1,0-1.4-0.7-1.4-1.4c0-0.8,0.5-2.3,0.5-3.1C24.7,4.2,24.5,4,24.2,4z"/>
	<path class="st0" d="M32.8,3l-0.9,4.1c0,0.2,0,0.3,0,0.4c0,0.3,0.2,0.4,0.5,0.4c0.5,0,0.8-0.5,1-1.1h0.5c-0.7,2-1.8,2.2-2.4,2.2
		c-0.7,0-1.1-0.4-1.2-1.1c-0.6,1-1.3,1.1-1.8,1.1c-0.7,0-1.3-0.4-1.3-1.4c0-0.2,0-0.5,0.1-0.8L28.1,3h1.7L29,7.1c0,0.1,0,0.2,0,0.3
		c0,0.3,0.1,0.5,0.4,0.5c0.5,0,0.8-0.5,1-1.1L31.1,3H32.8z"/>
	<path class="st0" d="M34.6,0.8l1.8-0.2l-0.6,2.7C36.3,3,36.6,3,36.8,3c0.8,0,1.4,0.5,1.4,2.1c0,1.4-0.7,4.1-3.3,4.1
		c-1.1,0-1.7-0.6-1.7-1.5c0-0.2,0-0.4,0.1-0.7L34.6,0.8z M36.4,3.8c-0.2,0-0.6,0.1-0.7,0.2l-0.7,3c0,0.1,0,0.2,0,0.3
		c0,0.3,0.2,0.6,0.6,0.6C36.4,7.9,37,6.2,37,5C37,4.4,36.8,3.8,36.4,3.8z"/>
</g>
</svg>
