<?xml version="1.0" encoding="UTF-8" standalone="no"?>
<!DOCTYPE svg PUBLIC "-//W3C//DTD SVG 1.1//EN"
 "http://www.w3.org/Graphics/SVG/1.1/DTD/svg11.dtd">
<!-- Generated by graphviz version 2.38.0 (20140413.2041)
 -->
<!-- Title: controllers_diagram Pages: 1 -->
<svg width="723pt" height="681pt"
 viewBox="0.00 0.00 722.50 681.00" xmlns="http://www.w3.org/2000/svg" xmlns:xlink="http://www.w3.org/1999/xlink">
<g id="graph0" class="graph" transform="scale(1 1) rotate(0) translate(276.5 405.5)">
<title>controllers_diagram</title>
<polygon fill="none" stroke="none" points="-276.5,275.5 -276.5,-405.5 446,-405.5 446,275.5 -276.5,275.5"/>
<!-- _diagram_info -->
<g id="node1" class="node"><title>_diagram_info</title>
<text text-anchor="start" x="93" y="140.4" font-family="Times,serif" font-size="13.00">Controllers diagram</text>
<text text-anchor="start" x="93" y="154.4" font-family="Times,serif" font-size="13.00">Date: Mar 18 2017 &#45; 22:31</text>
<text text-anchor="start" x="93" y="168.4" font-family="Times,serif" font-size="13.00">Migration version: 20170319010214</text>
<text text-anchor="start" x="93" y="182.4" font-family="Times,serif" font-size="13.00">Generated by RailRoady 1.5.2</text>
<text text-anchor="start" x="93" y="196.4" font-family="Times,serif" font-size="13.00">http://railroady.prestonlee.com</text>
</g>
<!-- NetworksController -->
<g id="node2" class="node"><title>NetworksController</title>
<path fill="none" stroke="black" d="M96.5,84.5C96.5,84.5 197.5,84.5 197.5,84.5 203.5,84.5 209.5,78.5 209.5,72.5 209.5,72.5 209.5,-116.5 209.5,-116.5 209.5,-122.5 203.5,-128.5 197.5,-128.5 197.5,-128.5 96.5,-128.5 96.5,-128.5 90.5,-128.5 84.5,-122.5 84.5,-116.5 84.5,-116.5 84.5,72.5 84.5,72.5 84.5,78.5 90.5,84.5 96.5,84.5"/>
<text text-anchor="middle" x="147" y="-113.3" font-family="Times,serif" font-size="14.00">NetworksController</text>
<polyline fill="none" stroke="black" points="84.5,-105.5 209.5,-105.5 "/>
<text text-anchor="start" x="92.5" y="-90.3" font-family="Times,serif" font-size="14.00">create</text>
<text text-anchor="start" x="92.5" y="-75.3" font-family="Times,serif" font-size="14.00">destroy</text>
<text text-anchor="start" x="92.5" y="-60.3" font-family="Times,serif" font-size="14.00">edit</text>
<text text-anchor="start" x="92.5" y="-45.3" font-family="Times,serif" font-size="14.00">index</text>
<text text-anchor="start" x="92.5" y="-30.3" font-family="Times,serif" font-size="14.00">new</text>
<text text-anchor="start" x="92.5" y="-15.3" font-family="Times,serif" font-size="14.00">show</text>
<text text-anchor="start" x="92.5" y="-0.3" font-family="Times,serif" font-size="14.00">update</text>
<polyline fill="none" stroke="black" points="84.5,7.5 209.5,7.5 "/>
<polyline fill="none" stroke="black" points="84.5,31.5 209.5,31.5 "/>
<text text-anchor="start" x="92.5" y="46.7" font-family="Times,serif" font-size="14.00">_layout</text>
<text text-anchor="start" x="92.5" y="61.7" font-family="Times,serif" font-size="14.00">network_params</text>
<text text-anchor="start" x="92.5" y="76.7" font-family="Times,serif" font-size="14.00">set_network</text>
</g>
<!-- QuestionsController -->
<g id="node3" class="node"><title>QuestionsController</title>
<path fill="none" stroke="black" d="M-56,-153.5C-56,-153.5 46,-153.5 46,-153.5 52,-153.5 58,-159.5 58,-165.5 58,-165.5 58,-354.5 58,-354.5 58,-360.5 52,-366.5 46,-366.5 46,-366.5 -56,-366.5 -56,-366.5 -62,-366.5 -68,-360.5 -68,-354.5 -68,-354.5 -68,-165.5 -68,-165.5 -68,-159.5 -62,-153.5 -56,-153.5"/>
<text text-anchor="middle" x="-5" y="-351.3" font-family="Times,serif" font-size="14.00">QuestionsController</text>
<polyline fill="none" stroke="black" points="-68,-343.5 58,-343.5 "/>
<text text-anchor="start" x="-60" y="-328.3" font-family="Times,serif" font-size="14.00">create</text>
<text text-anchor="start" x="-60" y="-313.3" font-family="Times,serif" font-size="14.00">destroy</text>
<text text-anchor="start" x="-60" y="-298.3" font-family="Times,serif" font-size="14.00">edit</text>
<text text-anchor="start" x="-60" y="-283.3" font-family="Times,serif" font-size="14.00">index</text>
<text text-anchor="start" x="-60" y="-268.3" font-family="Times,serif" font-size="14.00">new</text>
<text text-anchor="start" x="-60" y="-253.3" font-family="Times,serif" font-size="14.00">show</text>
<text text-anchor="start" x="-60" y="-238.3" font-family="Times,serif" font-size="14.00">update</text>
<polyline fill="none" stroke="black" points="-68,-230.5 58,-230.5 "/>
<polyline fill="none" stroke="black" points="-68,-206.5 58,-206.5 "/>
<text text-anchor="start" x="-60" y="-191.3" font-family="Times,serif" font-size="14.00">_layout</text>
<text text-anchor="start" x="-60" y="-176.3" font-family="Times,serif" font-size="14.00">question_params</text>
<text text-anchor="start" x="-60" y="-161.3" font-family="Times,serif" font-size="14.00">set_question</text>
</g>
<!-- Users::OmniauthCallbacksController -->
<g id="node4" class="node"><title>Users::OmniauthCallbacksController</title>
<path fill="none" stroke="black" d="M182,-171C182,-171 376,-171 376,-171 382,-171 388,-177 388,-183 388,-183 388,-253 388,-253 388,-259 382,-265 376,-265 376,-265 182,-265 182,-265 176,-265 170,-259 170,-253 170,-253 170,-183 170,-183 170,-177 176,-171 182,-171"/>
<text text-anchor="middle" x="279" y="-249.8" font-family="Times,serif" font-size="14.00">Users::OmniauthCallbacksController</text>
<polyline fill="none" stroke="black" points="170,-242 388,-242 "/>
<polyline fill="none" stroke="black" points="170,-218 388,-218 "/>
<polyline fill="none" stroke="black" points="170,-194 388,-194 "/>
<text text-anchor="start" x="178" y="-178.8" font-family="Times,serif" font-size="14.00">_layout</text>
</g>
<!-- Users::RegistrationsController -->
<g id="node5" class="node"><title>Users::RegistrationsController</title>
<path fill="none" stroke="black" d="M-260,271C-260,271 -102,271 -102,271 -96,271 -90,265 -90,259 -90,259 -90,189 -90,189 -90,183 -96,177 -102,177 -102,177 -260,177 -260,177 -266,177 -272,183 -272,189 -272,189 -272,259 -272,259 -272,265 -266,271 -260,271"/>
<text text-anchor="middle" x="-181" y="192.2" font-family="Times,serif" font-size="14.00">Users::RegistrationsController</text>
<polyline fill="none" stroke="black" points="-272,200 -90,200 "/>
<polyline fill="none" stroke="black" points="-272,224 -90,224 "/>
<polyline fill="none" stroke="black" points="-272,248 -90,248 "/>
<text text-anchor="start" x="-264" y="263.2" font-family="Times,serif" font-size="14.00">_layout</text>
</g>
<!-- Users::UnlocksController -->
<g id="node6" class="node"><title>Users::UnlocksController</title>
<path fill="none" stroke="black" d="M-242.5,-256C-242.5,-256 -111.5,-256 -111.5,-256 -105.5,-256 -99.5,-262 -99.5,-268 -99.5,-268 -99.5,-338 -99.5,-338 -99.5,-344 -105.5,-350 -111.5,-350 -111.5,-350 -242.5,-350 -242.5,-350 -248.5,-350 -254.5,-344 -254.5,-338 -254.5,-338 -254.5,-268 -254.5,-268 -254.5,-262 -248.5,-256 -242.5,-256"/>
<text text-anchor="middle" x="-177" y="-334.8" font-family="Times,serif" font-size="14.00">Users::UnlocksController</text>
<polyline fill="none" stroke="black" points="-254.5,-327 -99.5,-327 "/>
<polyline fill="none" stroke="black" points="-254.5,-303 -99.5,-303 "/>
<polyline fill="none" stroke="black" points="-254.5,-279 -99.5,-279 "/>
<text text-anchor="start" x="-246.5" y="-263.8" font-family="Times,serif" font-size="14.00">_layout</text>
</g>
<!-- Users::ConfirmationsController -->
<g id="node7" class="node"><title>Users::ConfirmationsController</title>
<path fill="none" stroke="black" d="M250.5,84C250.5,84 415.5,84 415.5,84 421.5,84 427.5,78 427.5,72 427.5,72 427.5,2 427.5,2 427.5,-4 421.5,-10 415.5,-10 415.5,-10 250.5,-10 250.5,-10 244.5,-10 238.5,-4 238.5,2 238.5,2 238.5,72 238.5,72 238.5,78 244.5,84 250.5,84"/>
<text text-anchor="middle" x="333" y="5.2" font-family="Times,serif" font-size="14.00">Users::ConfirmationsController</text>
<polyline fill="none" stroke="black" points="238.5,13 427.5,13 "/>
<polyline fill="none" stroke="black" points="238.5,37 427.5,37 "/>
<polyline fill="none" stroke="black" points="238.5,61 427.5,61 "/>
<text text-anchor="start" x="246.5" y="76.2" font-family="Times,serif" font-size="14.00">_layout</text>
</g>
<!-- Users::SessionsController -->
<g id="node8" class="node"><title>Users::SessionsController</title>
<path fill="none" stroke="black" d="M-242.5,-120C-242.5,-120 -109.5,-120 -109.5,-120 -103.5,-120 -97.5,-126 -97.5,-132 -97.5,-132 -97.5,-202 -97.5,-202 -97.5,-208 -103.5,-214 -109.5,-214 -109.5,-214 -242.5,-214 -242.5,-214 -248.5,-214 -254.5,-208 -254.5,-202 -254.5,-202 -254.5,-132 -254.5,-132 -254.5,-126 -248.5,-120 -242.5,-120"/>
<text text-anchor="middle" x="-176" y="-198.8" font-family="Times,serif" font-size="14.00">Users::SessionsController</text>
<polyline fill="none" stroke="black" points="-254.5,-191 -97.5,-191 "/>
<polyline fill="none" stroke="black" points="-254.5,-167 -97.5,-167 "/>
<polyline fill="none" stroke="black" points="-254.5,-143 -97.5,-143 "/>
<text text-anchor="start" x="-246.5" y="-127.8" font-family="Times,serif" font-size="14.00">_layout</text>
</g>
<!-- Users::PasswordsController -->
<g id="node9" class="node"><title>Users::PasswordsController</title>
<path fill="none" stroke="black" d="M-260.5,16C-260.5,16 -117.5,16 -117.5,16 -111.5,16 -105.5,10 -105.5,4 -105.5,4 -105.5,-66 -105.5,-66 -105.5,-72 -111.5,-78 -117.5,-78 -117.5,-78 -260.5,-78 -260.5,-78 -266.5,-78 -272.5,-72 -272.5,-66 -272.5,-66 -272.5,4 -272.5,4 -272.5,10 -266.5,16 -260.5,16"/>
<text text-anchor="middle" x="-189" y="-62.8" font-family="Times,serif" font-size="14.00">Users::PasswordsController</text>
<polyline fill="none" stroke="black" points="-272.5,-55 -105.5,-55 "/>
<polyline fill="none" stroke="black" points="-272.5,-31 -105.5,-31 "/>
<polyline fill="none" stroke="black" points="-272.5,-7 -105.5,-7 "/>
<text text-anchor="start" x="-264.5" y="8.2" font-family="Times,serif" font-size="14.00">_layout</text>
</g>
<!-- ApplicationController -->
<g id="node10" class="node"><title>ApplicationController</title>
<path fill="none" stroke="black" d="M318,-307C318,-307 430,-307 430,-307 436,-307 442,-313 442,-319 442,-319 442,-389 442,-389 442,-395 436,-401 430,-401 430,-401 318,-401 318,-401 312,-401 306,-395 306,-389 306,-389 306,-319 306,-319 306,-313 312,-307 318,-307"/>
<text text-anchor="middle" x="374" y="-385.8" font-family="Times,serif" font-size="14.00">ApplicationController</text>
<polyline fill="none" stroke="black" points="306,-378 442,-378 "/>
<polyline fill="none" stroke="black" points="306,-354 442,-354 "/>
<polyline fill="none" stroke="black" points="306,-330 442,-330 "/>
<text text-anchor="start" x="314" y="-314.8" font-family="Times,serif" font-size="14.00">_layout</text>
</g>
<!-- MaterialsController -->
<g id="node11" class="node"><title>MaterialsController</title>
<path fill="none" stroke="black" d="M-56,135C-56,135 46,135 46,135 52,135 58,129 58,123 58,123 58,-111 58,-111 58,-117 52,-123 46,-123 46,-123 -56,-123 -56,-123 -62,-123 -68,-117 -68,-111 -68,-111 -68,123 -68,123 -68,129 -62,135 -56,135"/>
<text text-anchor="middle" x="-5" y="-107.8" font-family="Times,serif" font-size="14.00">MaterialsController</text>
<polyline fill="none" stroke="black" points="-68,-100 58,-100 "/>
<text text-anchor="start" x="-60" y="-84.8" font-family="Times,serif" font-size="14.00">create</text>
<text text-anchor="start" x="-60" y="-69.8" font-family="Times,serif" font-size="14.00">destroy</text>
<text text-anchor="start" x="-60" y="-54.8" font-family="Times,serif" font-size="14.00">edit</text>
<text text-anchor="start" x="-60" y="-39.8" font-family="Times,serif" font-size="14.00">index</text>
<text text-anchor="start" x="-60" y="-24.8" font-family="Times,serif" font-size="14.00">new</text>
<text text-anchor="start" x="-60" y="-9.8" font-family="Times,serif" font-size="14.00">show</text>
<text text-anchor="start" x="-60" y="5.2" font-family="Times,serif" font-size="14.00">update</text>
<polyline fill="none" stroke="black" points="-68,13 58,13 "/>
<polyline fill="none" stroke="black" points="-68,37 58,37 "/>
<text text-anchor="start" x="-60" y="52.2" font-family="Times,serif" font-size="14.00">_layout</text>
<text text-anchor="start" x="-60" y="67.2" font-family="Times,serif" font-size="14.00">material_params</text>
<text text-anchor="start" x="-60" y="82.2" font-family="Times,serif" font-size="14.00">set_material</text>
<text text-anchor="start" x="-60" y="97.2" font-family="Times,serif" font-size="14.00">validate_owner</text>
<text text-anchor="start" x="-60" y="112.2" font-family="Times,serif" font-size="14.00">validate_permission</text>
<text text-anchor="start" x="-60" y="127.2" font-family="Times,serif" font-size="14.00">validate_public</text>
</g>
</g>
</svg>
