<?xml version="1.0" encoding="UTF-8" standalone="no"?>
<!DOCTYPE svg PUBLIC "-//W3C//DTD SVG 1.1//EN"
 "http://www.w3.org/Graphics/SVG/1.1/DTD/svg11.dtd">
<!-- Generated by graphviz version 2.38.0 (20140413.2041)
 -->
<!-- Title: controllers_diagram Pages: 1 -->
<svg width="749pt" height="664pt"
 viewBox="0.00 0.00 748.50 663.50" xmlns="http://www.w3.org/2000/svg" xmlns:xlink="http://www.w3.org/1999/xlink">
<g id="graph0" class="graph" transform="scale(1 1) rotate(0) translate(292.5 371)">
<title>controllers_diagram</title>
<polygon fill="none" stroke="none" points="-292.5,292.5 -292.5,-371 456,-371 456,292.5 -292.5,292.5"/>
<!-- _diagram_info -->
<g id="node1" class="node"><title>_diagram_info</title>
<text text-anchor="start" x="246" y="21.4" font-family="Times,serif" font-size="13.00">Controllers diagram</text>
<text text-anchor="start" x="246" y="35.4" font-family="Times,serif" font-size="13.00">Date: Mar 19 2017 &#45; 21:39</text>
<text text-anchor="start" x="246" y="49.4" font-family="Times,serif" font-size="13.00">Migration version: 20170320003322</text>
<text text-anchor="start" x="246" y="63.4" font-family="Times,serif" font-size="13.00">Generated by RailRoady 1.5.2</text>
<text text-anchor="start" x="246" y="77.4" font-family="Times,serif" font-size="13.00">http://railroady.prestonlee.com</text>
</g>
<!-- NetworksController -->
<g id="node2" class="node"><title>NetworksController</title>
<path fill="none" stroke="black" d="M96.5,84.5C96.5,84.5 197.5,84.5 197.5,84.5 203.5,84.5 209.5,78.5 209.5,72.5 209.5,72.5 209.5,-116.5 209.5,-116.5 209.5,-122.5 203.5,-128.5 197.5,-128.5 197.5,-128.5 96.5,-128.5 96.5,-128.5 90.5,-128.5 84.5,-122.5 84.5,-116.5 84.5,-116.5 84.5,72.5 84.5,72.5 84.5,78.5 90.5,84.5 96.5,84.5"/>
<text text-anchor="middle" x="147" y="-113.3" font-family="Times,serif" font-size="14.00">NetworksController</text>
<polyline fill="none" stroke="black" points="84.5,-105.5 209.5,-105.5 "/>
<text text-anchor="start" x="92.5" y="-90.3" font-family="Times,serif" font-size="14.00">create</text>
<text text-anchor="start" x="92.5" y="-75.3" font-family="Times,serif" font-size="14.00">destroy</text>
<text text-anchor="start" x="92.5" y="-60.3" font-family="Times,serif" font-size="14.00">edit</text>
<text text-anchor="start" x="92.5" y="-45.3" font-family="Times,serif" font-size="14.00">index</text>
<text text-anchor="start" x="92.5" y="-30.3" font-family="Times,serif" font-size="14.00">new</text>
<text text-anchor="start" x="92.5" y="-15.3" font-family="Times,serif" font-size="14.00">show</text>
<text text-anchor="start" x="92.5" y="-0.3" font-family="Times,serif" font-size="14.00">update</text>
<polyline fill="none" stroke="black" points="84.5,7.5 209.5,7.5 "/>
<polyline fill="none" stroke="black" points="84.5,31.5 209.5,31.5 "/>
<text text-anchor="start" x="92.5" y="46.7" font-family="Times,serif" font-size="14.00">_layout</text>
<text text-anchor="start" x="92.5" y="61.7" font-family="Times,serif" font-size="14.00">network_params</text>
<text text-anchor="start" x="92.5" y="76.7" font-family="Times,serif" font-size="14.00">set_network</text>
</g>
<!-- QuestionsController -->
<g id="node3" class="node"><title>QuestionsController</title>
<path fill="none" stroke="black" d="M-56,-153.5C-56,-153.5 46,-153.5 46,-153.5 52,-153.5 58,-159.5 58,-165.5 58,-165.5 58,-354.5 58,-354.5 58,-360.5 52,-366.5 46,-366.5 46,-366.5 -56,-366.5 -56,-366.5 -62,-366.5 -68,-360.5 -68,-354.5 -68,-354.5 -68,-165.5 -68,-165.5 -68,-159.5 -62,-153.5 -56,-153.5"/>
<text text-anchor="middle" x="-5" y="-351.3" font-family="Times,serif" font-size="14.00">QuestionsController</text>
<polyline fill="none" stroke="black" points="-68,-343.5 58,-343.5 "/>
<text text-anchor="start" x="-60" y="-328.3" font-family="Times,serif" font-size="14.00">create</text>
<text text-anchor="start" x="-60" y="-313.3" font-family="Times,serif" font-size="14.00">destroy</text>
<text text-anchor="start" x="-60" y="-298.3" font-family="Times,serif" font-size="14.00">edit</text>
<text text-anchor="start" x="-60" y="-283.3" font-family="Times,serif" font-size="14.00">index</text>
<text text-anchor="start" x="-60" y="-268.3" font-family="Times,serif" font-size="14.00">new</text>
<text text-anchor="start" x="-60" y="-253.3" font-family="Times,serif" font-size="14.00">show</text>
<text text-anchor="start" x="-60" y="-238.3" font-family="Times,serif" font-size="14.00">update</text>
<polyline fill="none" stroke="black" points="-68,-230.5 58,-230.5 "/>
<polyline fill="none" stroke="black" points="-68,-206.5 58,-206.5 "/>
<text text-anchor="start" x="-60" y="-191.3" font-family="Times,serif" font-size="14.00">_layout</text>
<text text-anchor="start" x="-60" y="-176.3" font-family="Times,serif" font-size="14.00">question_params</text>
<text text-anchor="start" x="-60" y="-161.3" font-family="Times,serif" font-size="14.00">set_question</text>
</g>
<!-- Users::OmniauthCallbacksController -->
<g id="node4" class="node"><title>Users::OmniauthCallbacksController</title>
<path fill="none" stroke="black" d="M97,220C97,220 291,220 291,220 297,220 303,214 303,208 303,208 303,138 303,138 303,132 297,126 291,126 291,126 97,126 97,126 91,126 85,132 85,138 85,138 85,208 85,208 85,214 91,220 97,220"/>
<text text-anchor="middle" x="194" y="141.2" font-family="Times,serif" font-size="14.00">Users::OmniauthCallbacksController</text>
<polyline fill="none" stroke="black" points="85,149 303,149 "/>
<polyline fill="none" stroke="black" points="85,173 303,173 "/>
<polyline fill="none" stroke="black" points="85,197 303,197 "/>
<text text-anchor="start" x="93" y="212.2" font-family="Times,serif" font-size="14.00">_layout</text>
</g>
<!-- Users::RegistrationsController -->
<g id="node5" class="node"><title>Users::RegistrationsController</title>
<path fill="none" stroke="black" d="M182,-171C182,-171 364,-171 364,-171 370,-171 376,-177 376,-183 376,-183 376,-267 376,-267 376,-273 370,-279 364,-279 364,-279 182,-279 182,-279 176,-279 170,-273 170,-267 170,-267 170,-183 170,-183 170,-177 176,-171 182,-171"/>
<text text-anchor="middle" x="273" y="-263.8" font-family="Times,serif" font-size="14.00">Users::RegistrationsController</text>
<polyline fill="none" stroke="black" points="170,-256 376,-256 "/>
<polyline fill="none" stroke="black" points="170,-232 376,-232 "/>
<text text-anchor="start" x="178" y="-216.8" font-family="Times,serif" font-size="14.00">configure_account_update_params</text>
<text text-anchor="start" x="178" y="-201.8" font-family="Times,serif" font-size="14.00">configure_sign_up_params</text>
<polyline fill="none" stroke="black" points="170,-194 376,-194 "/>
<text text-anchor="start" x="178" y="-178.8" font-family="Times,serif" font-size="14.00">_layout</text>
</g>
<!-- Users::UnlocksController -->
<g id="node6" class="node"><title>Users::UnlocksController</title>
<path fill="none" stroke="black" d="M-242.5,-256C-242.5,-256 -111.5,-256 -111.5,-256 -105.5,-256 -99.5,-262 -99.5,-268 -99.5,-268 -99.5,-338 -99.5,-338 -99.5,-344 -105.5,-350 -111.5,-350 -111.5,-350 -242.5,-350 -242.5,-350 -248.5,-350 -254.5,-344 -254.5,-338 -254.5,-338 -254.5,-268 -254.5,-268 -254.5,-262 -248.5,-256 -242.5,-256"/>
<text text-anchor="middle" x="-177" y="-334.8" font-family="Times,serif" font-size="14.00">Users::UnlocksController</text>
<polyline fill="none" stroke="black" points="-254.5,-327 -99.5,-327 "/>
<polyline fill="none" stroke="black" points="-254.5,-303 -99.5,-303 "/>
<polyline fill="none" stroke="black" points="-254.5,-279 -99.5,-279 "/>
<text text-anchor="start" x="-246.5" y="-263.8" font-family="Times,serif" font-size="14.00">_layout</text>
</g>
<!-- Users::ConfirmationsController -->
<g id="node7" class="node"><title>Users::ConfirmationsController</title>
<path fill="none" stroke="black" d="M250.5,-35C250.5,-35 415.5,-35 415.5,-35 421.5,-35 427.5,-41 427.5,-47 427.5,-47 427.5,-117 427.5,-117 427.5,-123 421.5,-129 415.5,-129 415.5,-129 250.5,-129 250.5,-129 244.5,-129 238.5,-123 238.5,-117 238.5,-117 238.5,-47 238.5,-47 238.5,-41 244.5,-35 250.5,-35"/>
<text text-anchor="middle" x="333" y="-113.8" font-family="Times,serif" font-size="14.00">Users::ConfirmationsController</text>
<polyline fill="none" stroke="black" points="238.5,-106 427.5,-106 "/>
<polyline fill="none" stroke="black" points="238.5,-82 427.5,-82 "/>
<polyline fill="none" stroke="black" points="238.5,-58 427.5,-58 "/>
<text text-anchor="start" x="246.5" y="-42.8" font-family="Times,serif" font-size="14.00">_layout</text>
</g>
<!-- Users::SessionsController -->
<g id="node8" class="node"><title>Users::SessionsController</title>
<path fill="none" stroke="black" d="M-242.5,-120C-242.5,-120 -109.5,-120 -109.5,-120 -103.5,-120 -97.5,-126 -97.5,-132 -97.5,-132 -97.5,-202 -97.5,-202 -97.5,-208 -103.5,-214 -109.5,-214 -109.5,-214 -242.5,-214 -242.5,-214 -248.5,-214 -254.5,-208 -254.5,-202 -254.5,-202 -254.5,-132 -254.5,-132 -254.5,-126 -248.5,-120 -242.5,-120"/>
<text text-anchor="middle" x="-176" y="-198.8" font-family="Times,serif" font-size="14.00">Users::SessionsController</text>
<polyline fill="none" stroke="black" points="-254.5,-191 -97.5,-191 "/>
<polyline fill="none" stroke="black" points="-254.5,-167 -97.5,-167 "/>
<polyline fill="none" stroke="black" points="-254.5,-143 -97.5,-143 "/>
<text text-anchor="start" x="-246.5" y="-127.8" font-family="Times,serif" font-size="14.00">_layout</text>
</g>
<!-- Users::PasswordsController -->
<g id="node9" class="node"><title>Users::PasswordsController</title>
<path fill="none" stroke="black" d="M-260.5,16C-260.5,16 -117.5,16 -117.5,16 -111.5,16 -105.5,10 -105.5,4 -105.5,4 -105.5,-66 -105.5,-66 -105.5,-72 -111.5,-78 -117.5,-78 -117.5,-78 -260.5,-78 -260.5,-78 -266.5,-78 -272.5,-72 -272.5,-66 -272.5,-66 -272.5,4 -272.5,4 -272.5,10 -266.5,16 -260.5,16"/>
<text text-anchor="middle" x="-189" y="-62.8" font-family="Times,serif" font-size="14.00">Users::PasswordsController</text>
<polyline fill="none" stroke="black" points="-272.5,-55 -105.5,-55 "/>
<polyline fill="none" stroke="black" points="-272.5,-31 -105.5,-31 "/>
<polyline fill="none" stroke="black" points="-272.5,-7 -105.5,-7 "/>
<text text-anchor="start" x="-264.5" y="8.2" font-family="Times,serif" font-size="14.00">_layout</text>
</g>
<!-- ApplicationController -->
<g id="node10" class="node"><title>ApplicationController</title>
<path fill="none" stroke="black" d="M-226,152C-226,152 -114,152 -114,152 -108,152 -102,146 -102,140 -102,140 -102,70 -102,70 -102,64 -108,58 -114,58 -114,58 -226,58 -226,58 -232,58 -238,64 -238,70 -238,70 -238,140 -238,140 -238,146 -232,152 -226,152"/>
<text text-anchor="middle" x="-170" y="73.2" font-family="Times,serif" font-size="14.00">ApplicationController</text>
<polyline fill="none" stroke="black" points="-238,81 -102,81 "/>
<polyline fill="none" stroke="black" points="-238,105 -102,105 "/>
<polyline fill="none" stroke="black" points="-238,129 -102,129 "/>
<text text-anchor="start" x="-230" y="144.2" font-family="Times,serif" font-size="14.00">_layout</text>
</g>
<!-- UsersController -->
<g id="node11" class="node"><title>UsersController</title>
<path fill="none" stroke="black" d="M-276.5,288C-276.5,288 -197.5,288 -197.5,288 -191.5,288 -185.5,282 -185.5,276 -185.5,276 -185.5,192 -185.5,192 -185.5,186 -191.5,180 -197.5,180 -197.5,180 -276.5,180 -276.5,180 -282.5,180 -288.5,186 -288.5,192 -288.5,192 -288.5,276 -288.5,276 -288.5,282 -282.5,288 -276.5,288"/>
<text text-anchor="middle" x="-237" y="195.2" font-family="Times,serif" font-size="14.00">UsersController</text>
<polyline fill="none" stroke="black" points="-288.5,203 -185.5,203 "/>
<text text-anchor="start" x="-280.5" y="218.2" font-family="Times,serif" font-size="14.00">index</text>
<polyline fill="none" stroke="black" points="-288.5,226 -185.5,226 "/>
<polyline fill="none" stroke="black" points="-288.5,250 -185.5,250 "/>
<text text-anchor="start" x="-280.5" y="265.2" font-family="Times,serif" font-size="14.00">_layout</text>
<text text-anchor="start" x="-280.5" y="280.2" font-family="Times,serif" font-size="14.00">user_params</text>
</g>
<!-- MaterialsController -->
<g id="node12" class="node"><title>MaterialsController</title>
<path fill="none" stroke="black" d="M-56,152.5C-56,152.5 46,152.5 46,152.5 52,152.5 58,146.5 58,140.5 58,140.5 58,-108.5 58,-108.5 58,-114.5 52,-120.5 46,-120.5 46,-120.5 -56,-120.5 -56,-120.5 -62,-120.5 -68,-114.5 -68,-108.5 -68,-108.5 -68,140.5 -68,140.5 -68,146.5 -62,152.5 -56,152.5"/>
<text text-anchor="middle" x="-5" y="-105.3" font-family="Times,serif" font-size="14.00">MaterialsController</text>
<polyline fill="none" stroke="black" points="-68,-97.5 58,-97.5 "/>
<text text-anchor="start" x="-60" y="-82.3" font-family="Times,serif" font-size="14.00">all</text>
<text text-anchor="start" x="-60" y="-67.3" font-family="Times,serif" font-size="14.00">create</text>
<text text-anchor="start" x="-60" y="-52.3" font-family="Times,serif" font-size="14.00">destroy</text>
<text text-anchor="start" x="-60" y="-37.3" font-family="Times,serif" font-size="14.00">edit</text>
<text text-anchor="start" x="-60" y="-22.3" font-family="Times,serif" font-size="14.00">index</text>
<text text-anchor="start" x="-60" y="-7.3" font-family="Times,serif" font-size="14.00">new</text>
<text text-anchor="start" x="-60" y="7.7" font-family="Times,serif" font-size="14.00">show</text>
<text text-anchor="start" x="-60" y="22.7" font-family="Times,serif" font-size="14.00">update</text>
<polyline fill="none" stroke="black" points="-68,30.5 58,30.5 "/>
<polyline fill="none" stroke="black" points="-68,54.5 58,54.5 "/>
<text text-anchor="start" x="-60" y="69.7" font-family="Times,serif" font-size="14.00">_layout</text>
<text text-anchor="start" x="-60" y="84.7" font-family="Times,serif" font-size="14.00">material_params</text>
<text text-anchor="start" x="-60" y="99.7" font-family="Times,serif" font-size="14.00">set_material</text>
<text text-anchor="start" x="-60" y="114.7" font-family="Times,serif" font-size="14.00">validate_owner</text>
<text text-anchor="start" x="-60" y="129.7" font-family="Times,serif" font-size="14.00">validate_permission</text>
<text text-anchor="start" x="-60" y="144.7" font-family="Times,serif" font-size="14.00">validate_public</text>
</g>
</g>
</svg>
