<?xml version="1.0" encoding="UTF-8" standalone="no"?>
<!DOCTYPE svg PUBLIC "-//W3C//DTD SVG 1.1//EN"
 "http://www.w3.org/Graphics/SVG/1.1/DTD/svg11.dtd">
<!-- Generated by graphviz version 2.38.0 (20140413.2041)
 -->
<!-- Title: controllers_diagram Pages: 1 -->
<svg width="671pt" height="599pt"
 viewBox="0.00 0.00 670.50 599.00" xmlns="http://www.w3.org/2000/svg" xmlns:xlink="http://www.w3.org/1999/xlink">
<g id="graph0" class="graph" transform="scale(1 1) rotate(0) translate(244 355.5)">
<title>controllers_diagram</title>
<polygon fill="none" stroke="none" points="-244,243.5 -244,-355.5 426.5,-355.5 426.5,243.5 -244,243.5"/>
<!-- _diagram_info -->
<g id="node1" class="node"><title>_diagram_info</title>
<text text-anchor="start" x="-88" y="-207.6" font-family="Times,serif" font-size="13.00">Controllers diagram</text>
<text text-anchor="start" x="-88" y="-193.6" font-family="Times,serif" font-size="13.00">Date: Mar 10 2017 &#45; 17:54</text>
<text text-anchor="start" x="-88" y="-179.6" font-family="Times,serif" font-size="13.00">Migration version: 20170310205314</text>
<text text-anchor="start" x="-88" y="-165.6" font-family="Times,serif" font-size="13.00">Generated by RailRoady 1.5.2</text>
<text text-anchor="start" x="-88" y="-151.6" font-family="Times,serif" font-size="13.00">http://railroady.prestonlee.com</text>
</g>
<!-- MaterialsController -->
<g id="node2" class="node"><title>MaterialsController</title>
<path fill="none" stroke="black" d="M-52,111.5C-52,111.5 48,111.5 48,111.5 54,111.5 60,105.5 60,99.5 60,99.5 60,-89.5 60,-89.5 60,-95.5 54,-101.5 48,-101.5 48,-101.5 -52,-101.5 -52,-101.5 -58,-101.5 -64,-95.5 -64,-89.5 -64,-89.5 -64,99.5 -64,99.5 -64,105.5 -58,111.5 -52,111.5"/>
<text text-anchor="middle" x="-2" y="-86.3" font-family="Times,serif" font-size="14.00">MaterialsController</text>
<polyline fill="none" stroke="black" points="-64,-78.5 60,-78.5 "/>
<text text-anchor="start" x="-56" y="-63.3" font-family="Times,serif" font-size="14.00">create</text>
<text text-anchor="start" x="-56" y="-48.3" font-family="Times,serif" font-size="14.00">destroy</text>
<text text-anchor="start" x="-56" y="-33.3" font-family="Times,serif" font-size="14.00">edit</text>
<text text-anchor="start" x="-56" y="-18.3" font-family="Times,serif" font-size="14.00">index</text>
<text text-anchor="start" x="-56" y="-3.3" font-family="Times,serif" font-size="14.00">new</text>
<text text-anchor="start" x="-56" y="11.7" font-family="Times,serif" font-size="14.00">show</text>
<text text-anchor="start" x="-56" y="26.7" font-family="Times,serif" font-size="14.00">update</text>
<polyline fill="none" stroke="black" points="-64,34.5 60,34.5 "/>
<polyline fill="none" stroke="black" points="-64,58.5 60,58.5 "/>
<text text-anchor="start" x="-56" y="73.7" font-family="Times,serif" font-size="14.00">_layout</text>
<text text-anchor="start" x="-56" y="88.7" font-family="Times,serif" font-size="14.00">material_params</text>
<text text-anchor="start" x="-56" y="103.7" font-family="Times,serif" font-size="14.00">set_material</text>
</g>
<!-- ApplicationController -->
<g id="node3" class="node"><title>ApplicationController</title>
<path fill="none" stroke="black" d="M-228,-17C-228,-17 -116,-17 -116,-17 -110,-17 -104,-23 -104,-29 -104,-29 -104,-99 -104,-99 -104,-105 -110,-111 -116,-111 -116,-111 -228,-111 -228,-111 -234,-111 -240,-105 -240,-99 -240,-99 -240,-29 -240,-29 -240,-23 -234,-17 -228,-17"/>
<text text-anchor="middle" x="-172" y="-95.8" font-family="Times,serif" font-size="14.00">ApplicationController</text>
<polyline fill="none" stroke="black" points="-240,-88 -104,-88 "/>
<polyline fill="none" stroke="black" points="-240,-64 -104,-64 "/>
<polyline fill="none" stroke="black" points="-240,-40 -104,-40 "/>
<text text-anchor="start" x="-232" y="-24.8" font-family="Times,serif" font-size="14.00">_layout</text>
</g>
<!-- Users::OmniauthCallbacksController -->
<g id="node4" class="node"><title>Users::OmniauthCallbacksController</title>
<path fill="none" stroke="black" d="M156,-145C156,-145 350,-145 350,-145 356,-145 362,-151 362,-157 362,-157 362,-227 362,-227 362,-233 356,-239 350,-239 350,-239 156,-239 156,-239 150,-239 144,-233 144,-227 144,-227 144,-157 144,-157 144,-151 150,-145 156,-145"/>
<text text-anchor="middle" x="253" y="-223.8" font-family="Times,serif" font-size="14.00">Users::OmniauthCallbacksController</text>
<polyline fill="none" stroke="black" points="144,-216 362,-216 "/>
<polyline fill="none" stroke="black" points="144,-192 362,-192 "/>
<polyline fill="none" stroke="black" points="144,-168 362,-168 "/>
<text text-anchor="start" x="152" y="-152.8" font-family="Times,serif" font-size="14.00">_layout</text>
</g>
<!-- Users::UnlocksController -->
<g id="node5" class="node"><title>Users::UnlocksController</title>
<path fill="none" stroke="black" d="M-35.5,-257C-35.5,-257 95.5,-257 95.5,-257 101.5,-257 107.5,-263 107.5,-269 107.5,-269 107.5,-339 107.5,-339 107.5,-345 101.5,-351 95.5,-351 95.5,-351 -35.5,-351 -35.5,-351 -41.5,-351 -47.5,-345 -47.5,-339 -47.5,-339 -47.5,-269 -47.5,-269 -47.5,-263 -41.5,-257 -35.5,-257"/>
<text text-anchor="middle" x="30" y="-335.8" font-family="Times,serif" font-size="14.00">Users::UnlocksController</text>
<polyline fill="none" stroke="black" points="-47.5,-328 107.5,-328 "/>
<polyline fill="none" stroke="black" points="-47.5,-304 107.5,-304 "/>
<polyline fill="none" stroke="black" points="-47.5,-280 107.5,-280 "/>
<text text-anchor="start" x="-39.5" y="-264.8" font-family="Times,serif" font-size="14.00">_layout</text>
</g>
<!-- Users::RegistrationsController -->
<g id="node6" class="node"><title>Users::RegistrationsController</title>
<path fill="none" stroke="black" d="M108,223C108,223 266,223 266,223 272,223 278,217 278,211 278,211 278,141 278,141 278,135 272,129 266,129 266,129 108,129 108,129 102,129 96,135 96,141 96,141 96,211 96,211 96,217 102,223 108,223"/>
<text text-anchor="middle" x="187" y="144.2" font-family="Times,serif" font-size="14.00">Users::RegistrationsController</text>
<polyline fill="none" stroke="black" points="96,152 278,152 "/>
<polyline fill="none" stroke="black" points="96,176 278,176 "/>
<polyline fill="none" stroke="black" points="96,200 278,200 "/>
<text text-anchor="start" x="104" y="215.2" font-family="Times,serif" font-size="14.00">_layout</text>
</g>
<!-- Users::SessionsController -->
<g id="node7" class="node"><title>Users::SessionsController</title>
<path fill="none" stroke="black" d="M-227.5,-257C-227.5,-257 -94.5,-257 -94.5,-257 -88.5,-257 -82.5,-263 -82.5,-269 -82.5,-269 -82.5,-339 -82.5,-339 -82.5,-345 -88.5,-351 -94.5,-351 -94.5,-351 -227.5,-351 -227.5,-351 -233.5,-351 -239.5,-345 -239.5,-339 -239.5,-339 -239.5,-269 -239.5,-269 -239.5,-263 -233.5,-257 -227.5,-257"/>
<text text-anchor="middle" x="-161" y="-335.8" font-family="Times,serif" font-size="14.00">Users::SessionsController</text>
<polyline fill="none" stroke="black" points="-239.5,-328 -82.5,-328 "/>
<polyline fill="none" stroke="black" points="-239.5,-304 -82.5,-304 "/>
<polyline fill="none" stroke="black" points="-239.5,-280 -82.5,-280 "/>
<text text-anchor="start" x="-231.5" y="-264.8" font-family="Times,serif" font-size="14.00">_layout</text>
</g>
<!-- Users::ConfirmationsController -->
<g id="node8" class="node"><title>Users::ConfirmationsController</title>
<path fill="none" stroke="black" d="M-227.5,239C-227.5,239 -62.5,239 -62.5,239 -56.5,239 -50.5,233 -50.5,227 -50.5,227 -50.5,157 -50.5,157 -50.5,151 -56.5,145 -62.5,145 -62.5,145 -227.5,145 -227.5,145 -233.5,145 -239.5,151 -239.5,157 -239.5,157 -239.5,227 -239.5,227 -239.5,233 -233.5,239 -227.5,239"/>
<text text-anchor="middle" x="-145" y="160.2" font-family="Times,serif" font-size="14.00">Users::ConfirmationsController</text>
<polyline fill="none" stroke="black" points="-239.5,168 -50.5,168 "/>
<polyline fill="none" stroke="black" points="-239.5,192 -50.5,192 "/>
<polyline fill="none" stroke="black" points="-239.5,216 -50.5,216 "/>
<text text-anchor="start" x="-231.5" y="231.2" font-family="Times,serif" font-size="14.00">_layout</text>
</g>
<!-- Users::PasswordsController -->
<g id="node9" class="node"><title>Users::PasswordsController</title>
<path fill="none" stroke="black" d="M267.5,95C267.5,95 410.5,95 410.5,95 416.5,95 422.5,89 422.5,83 422.5,83 422.5,13 422.5,13 422.5,7 416.5,1 410.5,1 410.5,1 267.5,1 267.5,1 261.5,1 255.5,7 255.5,13 255.5,13 255.5,83 255.5,83 255.5,89 261.5,95 267.5,95"/>
<text text-anchor="middle" x="339" y="16.2" font-family="Times,serif" font-size="14.00">Users::PasswordsController</text>
<polyline fill="none" stroke="black" points="255.5,24 422.5,24 "/>
<polyline fill="none" stroke="black" points="255.5,48 422.5,48 "/>
<polyline fill="none" stroke="black" points="255.5,72 422.5,72 "/>
<text text-anchor="start" x="263.5" y="87.2" font-family="Times,serif" font-size="14.00">_layout</text>
</g>
<!-- NetworksController -->
<g id="node10" class="node"><title>NetworksController</title>
<path fill="none" stroke="black" d="M107.5,95.5C107.5,95.5 208.5,95.5 208.5,95.5 214.5,95.5 220.5,89.5 220.5,83.5 220.5,83.5 220.5,-105.5 220.5,-105.5 220.5,-111.5 214.5,-117.5 208.5,-117.5 208.5,-117.5 107.5,-117.5 107.5,-117.5 101.5,-117.5 95.5,-111.5 95.5,-105.5 95.5,-105.5 95.5,83.5 95.5,83.5 95.5,89.5 101.5,95.5 107.5,95.5"/>
<text text-anchor="middle" x="158" y="-102.3" font-family="Times,serif" font-size="14.00">NetworksController</text>
<polyline fill="none" stroke="black" points="95.5,-94.5 220.5,-94.5 "/>
<text text-anchor="start" x="103.5" y="-79.3" font-family="Times,serif" font-size="14.00">create</text>
<text text-anchor="start" x="103.5" y="-64.3" font-family="Times,serif" font-size="14.00">destroy</text>
<text text-anchor="start" x="103.5" y="-49.3" font-family="Times,serif" font-size="14.00">edit</text>
<text text-anchor="start" x="103.5" y="-34.3" font-family="Times,serif" font-size="14.00">index</text>
<text text-anchor="start" x="103.5" y="-19.3" font-family="Times,serif" font-size="14.00">new</text>
<text text-anchor="start" x="103.5" y="-4.3" font-family="Times,serif" font-size="14.00">show</text>
<text text-anchor="start" x="103.5" y="10.7" font-family="Times,serif" font-size="14.00">update</text>
<polyline fill="none" stroke="black" points="95.5,18.5 220.5,18.5 "/>
<polyline fill="none" stroke="black" points="95.5,42.5 220.5,42.5 "/>
<text text-anchor="start" x="103.5" y="57.7" font-family="Times,serif" font-size="14.00">_layout</text>
<text text-anchor="start" x="103.5" y="72.7" font-family="Times,serif" font-size="14.00">network_params</text>
<text text-anchor="start" x="103.5" y="87.7" font-family="Times,serif" font-size="14.00">set_network</text>
</g>
</g>
</svg>
