<?xml version="1.0" encoding="UTF-8" standalone="no"?>
<!DOCTYPE svg PUBLIC "-//W3C//DTD SVG 1.1//EN"
 "http://www.w3.org/Graphics/SVG/1.1/DTD/svg11.dtd">
<!-- Generated by graphviz version 2.38.0 (20140413.2041)
 -->
<!-- Title: models_diagram Pages: 1 -->
<svg width="1180pt" height="957pt"
 viewBox="0.00 0.00 1180.34 957.00" xmlns="http://www.w3.org/2000/svg" xmlns:xlink="http://www.w3.org/1999/xlink">
<g id="graph0" class="graph" transform="scale(1 1) rotate(0) translate(4 953)">
<title>models_diagram</title>
<polygon fill="none" stroke="none" points="-4,4 -4,-953 1176.34,-953 1176.34,4 -4,4"/>
<!-- _diagram_info -->
<g id="node1" class="node"><title>_diagram_info</title>
<text text-anchor="start" x="8" y="-920.1" font-family="Times,serif" font-size="13.00">Models diagram</text>
<text text-anchor="start" x="8" y="-906.1" font-family="Times,serif" font-size="13.00">Date: Mar 19 2017 &#45; 21:39</text>
<text text-anchor="start" x="8" y="-892.1" font-family="Times,serif" font-size="13.00">Migration version: 20170320003322</text>
<text text-anchor="start" x="8" y="-878.1" font-family="Times,serif" font-size="13.00">Generated by RailRoady 1.5.2</text>
<text text-anchor="start" x="8" y="-864.1" font-family="Times,serif" font-size="13.00">http://railroady.prestonlee.com</text>
</g>
<!-- UserNetwork -->
<g id="node2" class="node"><title>UserNetwork</title>
<path fill="none" stroke="black" d="M290,-331.5C290,-331.5 510,-331.5 510,-331.5 516,-331.5 522,-337.5 522,-343.5 522,-343.5 522,-425.5 522,-425.5 522,-431.5 516,-437.5 510,-437.5 510,-437.5 290,-437.5 290,-437.5 284,-437.5 278,-431.5 278,-425.5 278,-425.5 278,-343.5 278,-343.5 278,-337.5 284,-331.5 290,-331.5"/>
<text text-anchor="middle" x="400" y="-422.3" font-family="Times,serif" font-size="14.00">UserNetwork</text>
<polyline fill="none" stroke="black" points="278,-414.5 522,-414.5 "/>
<text text-anchor="start" x="286" y="-399.3" font-family="Times,serif" font-size="14.00">id :integer</text>
<text text-anchor="start" x="286" y="-384.3" font-family="Times,serif" font-size="14.00">user_id :integer</text>
<text text-anchor="start" x="286" y="-369.3" font-family="Times,serif" font-size="14.00">network_id :integer</text>
<text text-anchor="start" x="286" y="-354.3" font-family="Times,serif" font-size="14.00">created_at :timestamp without time zone</text>
<text text-anchor="start" x="286" y="-339.3" font-family="Times,serif" font-size="14.00">updated_at :timestamp without time zone</text>
</g>
<!-- Level -->
<g id="node3" class="node"><title>Level</title>
<path fill="none" stroke="black" d="M506,-850C506,-850 726,-850 726,-850 732,-850 738,-856 738,-862 738,-862 738,-929 738,-929 738,-935 732,-941 726,-941 726,-941 506,-941 506,-941 500,-941 494,-935 494,-929 494,-929 494,-862 494,-862 494,-856 500,-850 506,-850"/>
<text text-anchor="middle" x="616" y="-925.8" font-family="Times,serif" font-size="14.00">Level</text>
<polyline fill="none" stroke="black" points="494,-918 738,-918 "/>
<text text-anchor="start" x="502" y="-902.8" font-family="Times,serif" font-size="14.00">id :integer</text>
<text text-anchor="start" x="502" y="-887.8" font-family="Times,serif" font-size="14.00">name :character varying</text>
<text text-anchor="start" x="502" y="-872.8" font-family="Times,serif" font-size="14.00">created_at :timestamp without time zone</text>
<text text-anchor="start" x="502" y="-857.8" font-family="Times,serif" font-size="14.00">updated_at :timestamp without time zone</text>
</g>
<!-- User -->
<g id="node8" class="node"><title>User</title>
<path fill="none" stroke="black" d="M437.5,-504.5C437.5,-504.5 726.5,-504.5 726.5,-504.5 732.5,-504.5 738.5,-510.5 738.5,-516.5 738.5,-516.5 738.5,-793.5 738.5,-793.5 738.5,-799.5 732.5,-805.5 726.5,-805.5 726.5,-805.5 437.5,-805.5 437.5,-805.5 431.5,-805.5 425.5,-799.5 425.5,-793.5 425.5,-793.5 425.5,-516.5 425.5,-516.5 425.5,-510.5 431.5,-504.5 437.5,-504.5"/>
<text text-anchor="middle" x="582" y="-790.3" font-family="Times,serif" font-size="14.00">User</text>
<polyline fill="none" stroke="black" points="425.5,-782.5 738.5,-782.5 "/>
<text text-anchor="start" x="433.5" y="-767.3" font-family="Times,serif" font-size="14.00">id :integer</text>
<text text-anchor="start" x="433.5" y="-752.3" font-family="Times,serif" font-size="14.00">email :character varying</text>
<text text-anchor="start" x="433.5" y="-737.3" font-family="Times,serif" font-size="14.00">encrypted_password :character varying</text>
<text text-anchor="start" x="433.5" y="-722.3" font-family="Times,serif" font-size="14.00">reset_password_token :character varying</text>
<text text-anchor="start" x="433.5" y="-707.3" font-family="Times,serif" font-size="14.00">reset_password_sent_at :timestamp without time zone</text>
<text text-anchor="start" x="433.5" y="-692.3" font-family="Times,serif" font-size="14.00">remember_created_at :timestamp without time zone</text>
<text text-anchor="start" x="433.5" y="-677.3" font-family="Times,serif" font-size="14.00">sign_in_count :integer</text>
<text text-anchor="start" x="433.5" y="-662.3" font-family="Times,serif" font-size="14.00">current_sign_in_at :timestamp without time zone</text>
<text text-anchor="start" x="433.5" y="-647.3" font-family="Times,serif" font-size="14.00">last_sign_in_at :timestamp without time zone</text>
<text text-anchor="start" x="433.5" y="-632.3" font-family="Times,serif" font-size="14.00">current_sign_in_ip :inet</text>
<text text-anchor="start" x="433.5" y="-617.3" font-family="Times,serif" font-size="14.00">last_sign_in_ip :inet</text>
<text text-anchor="start" x="433.5" y="-602.3" font-family="Times,serif" font-size="14.00">created_at :timestamp without time zone</text>
<text text-anchor="start" x="433.5" y="-587.3" font-family="Times,serif" font-size="14.00">updated_at :timestamp without time zone</text>
<text text-anchor="start" x="433.5" y="-572.3" font-family="Times,serif" font-size="14.00">first_name :character varying</text>
<text text-anchor="start" x="433.5" y="-557.3" font-family="Times,serif" font-size="14.00">last_name :character varying</text>
<text text-anchor="start" x="433.5" y="-542.3" font-family="Times,serif" font-size="14.00">photo :character varying</text>
<text text-anchor="start" x="433.5" y="-527.3" font-family="Times,serif" font-size="14.00">level_id :integer</text>
<text text-anchor="start" x="433.5" y="-512.3" font-family="Times,serif" font-size="14.00">subject_id :integer</text>
</g>
<!-- Level&#45;&gt;User -->
<g id="edge1" class="edge"><title>Level&#45;&gt;User</title>
<path fill="none" stroke="#7c14d6" d="M608.475,-841.712C607.32,-833.612 606.08,-824.911 604.788,-815.854"/>
<ellipse fill="none" stroke="#7c14d6" cx="609.08" cy="-845.96" rx="4.00001" ry="4.00001"/>
<polygon fill="#7c14d6" stroke="#7c14d6" points="604.781,-815.8 607.824,-805.265 604.075,-810.85 603.369,-805.9 603.369,-805.9 603.369,-805.9 604.075,-810.85 598.914,-806.535 604.781,-815.8 604.781,-815.8"/>
</g>
<!-- Material -->
<g id="node10" class="node"><title>Material</title>
<path fill="none" stroke="black" d="M657,-301.5C657,-301.5 877,-301.5 877,-301.5 883,-301.5 889,-307.5 889,-313.5 889,-313.5 889,-455.5 889,-455.5 889,-461.5 883,-467.5 877,-467.5 877,-467.5 657,-467.5 657,-467.5 651,-467.5 645,-461.5 645,-455.5 645,-455.5 645,-313.5 645,-313.5 645,-307.5 651,-301.5 657,-301.5"/>
<text text-anchor="middle" x="767" y="-452.3" font-family="Times,serif" font-size="14.00">Material</text>
<polyline fill="none" stroke="black" points="645,-444.5 889,-444.5 "/>
<text text-anchor="start" x="653" y="-429.3" font-family="Times,serif" font-size="14.00">id :integer</text>
<text text-anchor="start" x="653" y="-414.3" font-family="Times,serif" font-size="14.00">title :character varying</text>
<text text-anchor="start" x="653" y="-399.3" font-family="Times,serif" font-size="14.00">description :text</text>
<text text-anchor="start" x="653" y="-384.3" font-family="Times,serif" font-size="14.00">created_at :timestamp without time zone</text>
<text text-anchor="start" x="653" y="-369.3" font-family="Times,serif" font-size="14.00">updated_at :timestamp without time zone</text>
<text text-anchor="start" x="653" y="-354.3" font-family="Times,serif" font-size="14.00">updated_by :integer</text>
<text text-anchor="start" x="653" y="-339.3" font-family="Times,serif" font-size="14.00">public_level :integer</text>
<text text-anchor="start" x="653" y="-324.3" font-family="Times,serif" font-size="14.00">subject_id :integer</text>
<text text-anchor="start" x="653" y="-309.3" font-family="Times,serif" font-size="14.00">level_id :integer</text>
</g>
<!-- Level&#45;&gt;Material -->
<g id="edge2" class="edge"><title>Level&#45;&gt;Material</title>
<path fill="none" stroke="#829b47" d="M713.782,-844.973C727.37,-833.966 739.55,-821.012 748,-806 778.471,-751.864 776.849,-584.168 772.322,-477.625"/>
<ellipse fill="none" stroke="#829b47" cx="710.607" cy="-847.439" rx="4.00002" ry="4.00002"/>
<polygon fill="#829b47" stroke="#829b47" points="772.317,-477.502 776.372,-467.313 772.096,-472.507 771.876,-467.512 771.876,-467.512 771.876,-467.512 772.096,-472.507 767.38,-467.71 772.317,-477.502 772.317,-477.502"/>
</g>
<!-- Comment -->
<g id="node4" class="node"><title>Comment</title>
<path fill="none" stroke="black" d="M472,-0.5C472,-0.5 692,-0.5 692,-0.5 698,-0.5 704,-6.5 704,-12.5 704,-12.5 704,-94.5 704,-94.5 704,-100.5 698,-106.5 692,-106.5 692,-106.5 472,-106.5 472,-106.5 466,-106.5 460,-100.5 460,-94.5 460,-94.5 460,-12.5 460,-12.5 460,-6.5 466,-0.5 472,-0.5"/>
<text text-anchor="middle" x="582" y="-91.3" font-family="Times,serif" font-size="14.00">Comment</text>
<polyline fill="none" stroke="black" points="460,-83.5 704,-83.5 "/>
<text text-anchor="start" x="468" y="-68.3" font-family="Times,serif" font-size="14.00">id :integer</text>
<text text-anchor="start" x="468" y="-53.3" font-family="Times,serif" font-size="14.00">content :text</text>
<text text-anchor="start" x="468" y="-38.3" font-family="Times,serif" font-size="14.00">user_material_id :integer</text>
<text text-anchor="start" x="468" y="-23.3" font-family="Times,serif" font-size="14.00">created_at :timestamp without time zone</text>
<text text-anchor="start" x="468" y="-8.3" font-family="Times,serif" font-size="14.00">updated_at :timestamp without time zone</text>
</g>
<!-- ApplicationRecord -->
<g id="node5" class="node"><title>ApplicationRecord</title>
<ellipse fill="none" stroke="black" cx="1095" cy="-895.5" rx="77.1866" ry="18"/>
<text text-anchor="middle" x="1095" y="-891.8" font-family="Times,serif" font-size="14.00">ApplicationRecord</text>
</g>
<!-- UserMaterial -->
<g id="node6" class="node"><title>UserMaterial</title>
<path fill="none" stroke="black" d="M472,-143.5C472,-143.5 692,-143.5 692,-143.5 698,-143.5 704,-149.5 704,-155.5 704,-155.5 704,-252.5 704,-252.5 704,-258.5 698,-264.5 692,-264.5 692,-264.5 472,-264.5 472,-264.5 466,-264.5 460,-258.5 460,-252.5 460,-252.5 460,-155.5 460,-155.5 460,-149.5 466,-143.5 472,-143.5"/>
<text text-anchor="middle" x="582" y="-249.3" font-family="Times,serif" font-size="14.00">UserMaterial</text>
<polyline fill="none" stroke="black" points="460,-241.5 704,-241.5 "/>
<text text-anchor="start" x="468" y="-226.3" font-family="Times,serif" font-size="14.00">id :integer</text>
<text text-anchor="start" x="468" y="-211.3" font-family="Times,serif" font-size="14.00">material_id :integer</text>
<text text-anchor="start" x="468" y="-196.3" font-family="Times,serif" font-size="14.00">user_id :integer</text>
<text text-anchor="start" x="468" y="-181.3" font-family="Times,serif" font-size="14.00">created_at :timestamp without time zone</text>
<text text-anchor="start" x="468" y="-166.3" font-family="Times,serif" font-size="14.00">updated_at :timestamp without time zone</text>
<text text-anchor="start" x="468" y="-151.3" font-family="Times,serif" font-size="14.00">role :integer</text>
</g>
<!-- UserMaterial&#45;&gt;Comment -->
<g id="edge3" class="edge"><title>UserMaterial&#45;&gt;Comment</title>
<path fill="none" stroke="#d836f5" d="M582,-135.448C582,-129.304 582,-123.098 582,-117.001"/>
<ellipse fill="none" stroke="#d836f5" cx="582" cy="-139.455" rx="4" ry="4"/>
<polygon fill="#d836f5" stroke="#d836f5" points="582,-116.872 586.5,-106.872 582,-111.872 582,-106.872 582,-106.872 582,-106.872 582,-111.872 577.5,-106.872 582,-116.872 582,-116.872"/>
</g>
<!-- Network -->
<g id="node7" class="node"><title>Network</title>
<path fill="none" stroke="black" d="M244,-842.5C244,-842.5 464,-842.5 464,-842.5 470,-842.5 476,-848.5 476,-854.5 476,-854.5 476,-936.5 476,-936.5 476,-942.5 470,-948.5 464,-948.5 464,-948.5 244,-948.5 244,-948.5 238,-948.5 232,-942.5 232,-936.5 232,-936.5 232,-854.5 232,-854.5 232,-848.5 238,-842.5 244,-842.5"/>
<text text-anchor="middle" x="354" y="-933.3" font-family="Times,serif" font-size="14.00">Network</text>
<polyline fill="none" stroke="black" points="232,-925.5 476,-925.5 "/>
<text text-anchor="start" x="240" y="-910.3" font-family="Times,serif" font-size="14.00">id :integer</text>
<text text-anchor="start" x="240" y="-895.3" font-family="Times,serif" font-size="14.00">name :character varying</text>
<text text-anchor="start" x="240" y="-880.3" font-family="Times,serif" font-size="14.00">description :character varying</text>
<text text-anchor="start" x="240" y="-865.3" font-family="Times,serif" font-size="14.00">created_at :timestamp without time zone</text>
<text text-anchor="start" x="240" y="-850.3" font-family="Times,serif" font-size="14.00">updated_at :timestamp without time zone</text>
</g>
<!-- Network&#45;&gt;UserNetwork -->
<g id="edge4" class="edge"><title>Network&#45;&gt;UserNetwork</title>
<path fill="none" stroke="#3b82c2" d="M359.453,-834.161C368.251,-736.81 385.488,-546.073 394.387,-447.606"/>
<ellipse fill="none" stroke="#3b82c2" cx="359.067" cy="-838.436" rx="4" ry="4"/>
<polygon fill="#3b82c2" stroke="#3b82c2" points="394.4,-447.466 399.782,-437.911 394.85,-442.486 395.3,-437.506 395.3,-437.506 395.3,-437.506 394.85,-442.486 390.818,-437.101 394.4,-447.466 394.4,-447.466"/>
</g>
<!-- Network&#45;&gt;User -->
<g id="edge5" class="edge"><title>Network&#45;&gt;User</title>
<path fill="none" stroke="#7e509f" d="M410.698,-835.191C417.322,-828.262 424.295,-820.968 431.484,-813.448"/>
<polygon fill="#7e509f" stroke="#7e509f" points="410.664,-835.226 400.501,-839.345 407.209,-838.841 403.754,-842.455 403.754,-842.455 403.754,-842.455 407.209,-838.841 407.007,-845.564 410.664,-835.226 410.664,-835.226"/>
<polygon fill="#7e509f" stroke="#7e509f" points="431.83,-813.085 441.993,-808.967 435.285,-809.471 438.741,-805.857 438.741,-805.857 438.741,-805.857 435.285,-809.471 435.488,-802.747 431.83,-813.085 431.83,-813.085"/>
</g>
<!-- User&#45;&gt;UserNetwork -->
<g id="edge6" class="edge"><title>User&#45;&gt;UserNetwork</title>
<path fill="none" stroke="#f0bbc0" d="M476.068,-497.721C463.726,-479.514 451.761,-461.862 441.115,-446.155"/>
<ellipse fill="none" stroke="#f0bbc0" cx="478.378" cy="-501.13" rx="4.00002" ry="4.00002"/>
<polygon fill="#f0bbc0" stroke="#f0bbc0" points="440.952,-445.916 439.066,-435.113 438.147,-441.777 435.341,-437.638 435.341,-437.638 435.341,-437.638 438.147,-441.777 431.616,-440.163 440.952,-445.916 440.952,-445.916"/>
</g>
<!-- User&#45;&gt;UserMaterial -->
<g id="edge7" class="edge"><title>User&#45;&gt;UserMaterial</title>
<path fill="none" stroke="#9f21cf" d="M582,-496.285C582,-420.739 582,-334.094 582,-275.074"/>
<ellipse fill="none" stroke="#9f21cf" cx="582" cy="-500.49" rx="4" ry="4"/>
<polygon fill="#9f21cf" stroke="#9f21cf" points="582,-274.751 586.5,-264.751 582,-269.751 582,-264.751 582,-264.751 582,-264.751 582,-269.751 577.5,-264.751 582,-274.751 582,-274.751"/>
</g>
<!-- User&#45;&gt;Material -->
<g id="edge8" class="edge"><title>User&#45;&gt;Material</title>
<path fill="none" stroke="#d3952e" d="M690.744,-496.174C695.491,-489.285 700.178,-482.482 704.755,-475.839"/>
<polygon fill="#d3952e" stroke="#d3952e" points="690.722,-496.206 681.343,-501.887 687.885,-500.323 685.048,-504.441 685.048,-504.441 685.048,-504.441 687.885,-500.323 688.754,-506.994 690.722,-496.206 690.722,-496.206"/>
<polygon fill="#d3952e" stroke="#d3952e" points="704.815,-475.752 714.195,-470.07 707.652,-471.634 710.489,-467.517 710.489,-467.517 710.489,-467.517 707.652,-471.634 706.784,-464.964 704.815,-475.752 704.815,-475.752"/>
</g>
<!-- Alternative -->
<g id="node9" class="node"><title>Alternative</title>
<path fill="none" stroke="black" d="M734,-0.5C734,-0.5 954,-0.5 954,-0.5 960,-0.5 966,-6.5 966,-12.5 966,-12.5 966,-94.5 966,-94.5 966,-100.5 960,-106.5 954,-106.5 954,-106.5 734,-106.5 734,-106.5 728,-106.5 722,-100.5 722,-94.5 722,-94.5 722,-12.5 722,-12.5 722,-6.5 728,-0.5 734,-0.5"/>
<text text-anchor="middle" x="844" y="-91.3" font-family="Times,serif" font-size="14.00">Alternative</text>
<polyline fill="none" stroke="black" points="722,-83.5 966,-83.5 "/>
<text text-anchor="start" x="730" y="-68.3" font-family="Times,serif" font-size="14.00">id :integer</text>
<text text-anchor="start" x="730" y="-53.3" font-family="Times,serif" font-size="14.00">content :text</text>
<text text-anchor="start" x="730" y="-38.3" font-family="Times,serif" font-size="14.00">question_id :integer</text>
<text text-anchor="start" x="730" y="-23.3" font-family="Times,serif" font-size="14.00">created_at :timestamp without time zone</text>
<text text-anchor="start" x="730" y="-8.3" font-family="Times,serif" font-size="14.00">updated_at :timestamp without time zone</text>
</g>
<!-- Material&#45;&gt;UserMaterial -->
<g id="edge9" class="edge"><title>Material&#45;&gt;UserMaterial</title>
<path fill="none" stroke="#afd030" d="M675.799,-295.503C667.507,-287.502 659.2,-279.488 651.146,-271.717"/>
<ellipse fill="none" stroke="#afd030" cx="678.932" cy="-298.526" rx="4.00002" ry="4.00002"/>
<polygon fill="#afd030" stroke="#afd030" points="651.025,-271.6 646.953,-261.418 647.427,-268.128 643.829,-264.657 643.829,-264.657 643.829,-264.657 647.427,-268.128 640.704,-267.895 651.025,-271.6 651.025,-271.6"/>
</g>
<!-- Question -->
<g id="node11" class="node"><title>Question</title>
<path fill="none" stroke="black" d="M734,-143.5C734,-143.5 954,-143.5 954,-143.5 960,-143.5 966,-149.5 966,-155.5 966,-155.5 966,-252.5 966,-252.5 966,-258.5 960,-264.5 954,-264.5 954,-264.5 734,-264.5 734,-264.5 728,-264.5 722,-258.5 722,-252.5 722,-252.5 722,-155.5 722,-155.5 722,-149.5 728,-143.5 734,-143.5"/>
<text text-anchor="middle" x="844" y="-249.3" font-family="Times,serif" font-size="14.00">Question</text>
<polyline fill="none" stroke="black" points="722,-241.5 966,-241.5 "/>
<text text-anchor="start" x="730" y="-226.3" font-family="Times,serif" font-size="14.00">id :integer</text>
<text text-anchor="start" x="730" y="-211.3" font-family="Times,serif" font-size="14.00">type :character varying</text>
<text text-anchor="start" x="730" y="-196.3" font-family="Times,serif" font-size="14.00">content :text</text>
<text text-anchor="start" x="730" y="-181.3" font-family="Times,serif" font-size="14.00">material_id :integer</text>
<text text-anchor="start" x="730" y="-166.3" font-family="Times,serif" font-size="14.00">created_at :timestamp without time zone</text>
<text text-anchor="start" x="730" y="-151.3" font-family="Times,serif" font-size="14.00">updated_at :timestamp without time zone</text>
</g>
<!-- Material&#45;&gt;Question -->
<g id="edge10" class="edge"><title>Material&#45;&gt;Question</title>
<path fill="none" stroke="#af880d" d="M805.711,-293.762C808.571,-287.13 811.431,-280.502 814.225,-274.023"/>
<ellipse fill="none" stroke="#af880d" cx="804.042" cy="-297.63" rx="4.00002" ry="4.00002"/>
<polygon fill="#af880d" stroke="#af880d" points="814.305,-273.839 822.398,-266.439 816.285,-269.248 818.266,-264.657 818.266,-264.657 818.266,-264.657 816.285,-269.248 814.134,-262.874 814.305,-273.839 814.305,-273.839"/>
</g>
<!-- Question&#45;&gt;Alternative -->
<g id="edge11" class="edge"><title>Question&#45;&gt;Alternative</title>
<path fill="none" stroke="#57edb6" d="M844,-135.448C844,-129.304 844,-123.098 844,-117.001"/>
<ellipse fill="none" stroke="#57edb6" cx="844" cy="-139.455" rx="4" ry="4"/>
<polygon fill="#57edb6" stroke="#57edb6" points="844,-116.872 848.5,-106.872 844,-111.872 844,-106.872 844,-106.872 844,-106.872 844,-111.872 839.5,-106.872 844,-116.872 844,-116.872"/>
</g>
<!-- Subject -->
<g id="node12" class="node"><title>Subject</title>
<path fill="none" stroke="black" d="M768,-850C768,-850 988,-850 988,-850 994,-850 1000,-856 1000,-862 1000,-862 1000,-929 1000,-929 1000,-935 994,-941 988,-941 988,-941 768,-941 768,-941 762,-941 756,-935 756,-929 756,-929 756,-862 756,-862 756,-856 762,-850 768,-850"/>
<text text-anchor="middle" x="878" y="-925.8" font-family="Times,serif" font-size="14.00">Subject</text>
<polyline fill="none" stroke="black" points="756,-918 1000,-918 "/>
<text text-anchor="start" x="764" y="-902.8" font-family="Times,serif" font-size="14.00">id :integer</text>
<text text-anchor="start" x="764" y="-887.8" font-family="Times,serif" font-size="14.00">name :character varying</text>
<text text-anchor="start" x="764" y="-872.8" font-family="Times,serif" font-size="14.00">created_at :timestamp without time zone</text>
<text text-anchor="start" x="764" y="-857.8" font-family="Times,serif" font-size="14.00">updated_at :timestamp without time zone</text>
</g>
<!-- Subject&#45;&gt;User -->
<g id="edge12" class="edge"><title>Subject&#45;&gt;User</title>
<path fill="none" stroke="#4c606b" d="M816.319,-844.801C795.624,-828.126 771.467,-808.662 746.678,-788.688"/>
<ellipse fill="none" stroke="#4c606b" cx="819.557" cy="-847.41" rx="4.00002" ry="4.00002"/>
<polygon fill="#4c606b" stroke="#4c606b" points="746.398,-788.463 741.435,-778.684 742.505,-785.326 738.611,-782.188 738.611,-782.188 738.611,-782.188 742.505,-785.326 735.788,-785.693 746.398,-788.463 746.398,-788.463"/>
</g>
<!-- Subject&#45;&gt;Material -->
<g id="edge13" class="edge"><title>Subject&#45;&gt;Material</title>
<path fill="none" stroke="#b2af3b" d="M866.493,-841.733C847.72,-755.65 810.275,-583.943 787.058,-477.477"/>
<ellipse fill="none" stroke="#b2af3b" cx="867.394" cy="-845.868" rx="4.00001" ry="4.00001"/>
<polygon fill="#b2af3b" stroke="#b2af3b" points="787.057,-477.471 789.323,-466.742 785.991,-472.586 784.926,-467.701 784.926,-467.701 784.926,-467.701 785.991,-472.586 780.529,-468.66 787.057,-477.471 787.057,-477.471"/>
</g>
</g>
</svg>
