<?xml version="1.0" encoding="UTF-8" standalone="no"?>
<!DOCTYPE svg PUBLIC "-//W3C//DTD SVG 1.1//EN"
 "http://www.w3.org/Graphics/SVG/1.1/DTD/svg11.dtd">
<!-- Generated by graphviz version 2.38.0 (20140413.2041)
 -->
<!-- Title: models_diagram Pages: 1 -->
<svg width="920pt" height="754pt"
 viewBox="0.00 0.00 920.00 754.00" xmlns="http://www.w3.org/2000/svg" xmlns:xlink="http://www.w3.org/1999/xlink">
<g id="graph0" class="graph" transform="scale(1 1) rotate(0) translate(4 750)">
<title>models_diagram</title>
<polygon fill="none" stroke="none" points="-4,4 -4,-750 916,-750 916,4 -4,4"/>
<!-- _diagram_info -->
<g id="node1" class="node"><title>_diagram_info</title>
<text text-anchor="start" x="8" y="-709.6" font-family="Times,serif" font-size="13.00">Models diagram</text>
<text text-anchor="start" x="8" y="-695.6" font-family="Times,serif" font-size="13.00">Date: Mar 12 2017 &#45; 00:31</text>
<text text-anchor="start" x="8" y="-681.6" font-family="Times,serif" font-size="13.00">Migration version: 20170312033133</text>
<text text-anchor="start" x="8" y="-667.6" font-family="Times,serif" font-size="13.00">Generated by RailRoady 1.5.2</text>
<text text-anchor="start" x="8" y="-653.6" font-family="Times,serif" font-size="13.00">http://railroady.prestonlee.com</text>
</g>
<!-- UserNetwork -->
<g id="node2" class="node"><title>UserNetwork</title>
<path fill="none" stroke="black" d="M80,-143.5C80,-143.5 300,-143.5 300,-143.5 306,-143.5 312,-149.5 312,-155.5 312,-155.5 312,-237.5 312,-237.5 312,-243.5 306,-249.5 300,-249.5 300,-249.5 80,-249.5 80,-249.5 74,-249.5 68,-243.5 68,-237.5 68,-237.5 68,-155.5 68,-155.5 68,-149.5 74,-143.5 80,-143.5"/>
<text text-anchor="middle" x="190" y="-234.3" font-family="Times,serif" font-size="14.00">UserNetwork</text>
<polyline fill="none" stroke="black" points="68,-226.5 312,-226.5 "/>
<text text-anchor="start" x="76" y="-211.3" font-family="Times,serif" font-size="14.00">id :integer</text>
<text text-anchor="start" x="76" y="-196.3" font-family="Times,serif" font-size="14.00">user_id :integer</text>
<text text-anchor="start" x="76" y="-181.3" font-family="Times,serif" font-size="14.00">network_id :integer</text>
<text text-anchor="start" x="76" y="-166.3" font-family="Times,serif" font-size="14.00">created_at :timestamp without time zone</text>
<text text-anchor="start" x="76" y="-151.3" font-family="Times,serif" font-size="14.00">updated_at :timestamp without time zone</text>
</g>
<!-- UserLevel -->
<g id="node3" class="node"><title>UserLevel</title>
<path fill="none" stroke="black" d="M249,-0.5C249,-0.5 469,-0.5 469,-0.5 475,-0.5 481,-6.5 481,-12.5 481,-12.5 481,-94.5 481,-94.5 481,-100.5 475,-106.5 469,-106.5 469,-106.5 249,-106.5 249,-106.5 243,-106.5 237,-100.5 237,-94.5 237,-94.5 237,-12.5 237,-12.5 237,-6.5 243,-0.5 249,-0.5"/>
<text text-anchor="middle" x="359" y="-91.3" font-family="Times,serif" font-size="14.00">UserLevel</text>
<polyline fill="none" stroke="black" points="237,-83.5 481,-83.5 "/>
<text text-anchor="start" x="245" y="-68.3" font-family="Times,serif" font-size="14.00">id :integer</text>
<text text-anchor="start" x="245" y="-53.3" font-family="Times,serif" font-size="14.00">user_id :integer</text>
<text text-anchor="start" x="245" y="-38.3" font-family="Times,serif" font-size="14.00">level_id :integer</text>
<text text-anchor="start" x="245" y="-23.3" font-family="Times,serif" font-size="14.00">created_at :timestamp without time zone</text>
<text text-anchor="start" x="245" y="-8.3" font-family="Times,serif" font-size="14.00">updated_at :timestamp without time zone</text>
</g>
<!-- Level -->
<g id="node4" class="node"><title>Level</title>
<path fill="none" stroke="black" d="M380,-151C380,-151 600,-151 600,-151 606,-151 612,-157 612,-163 612,-163 612,-230 612,-230 612,-236 606,-242 600,-242 600,-242 380,-242 380,-242 374,-242 368,-236 368,-230 368,-230 368,-163 368,-163 368,-157 374,-151 380,-151"/>
<text text-anchor="middle" x="490" y="-226.8" font-family="Times,serif" font-size="14.00">Level</text>
<polyline fill="none" stroke="black" points="368,-219 612,-219 "/>
<text text-anchor="start" x="376" y="-203.8" font-family="Times,serif" font-size="14.00">id :integer</text>
<text text-anchor="start" x="376" y="-188.8" font-family="Times,serif" font-size="14.00">name :character varying</text>
<text text-anchor="start" x="376" y="-173.8" font-family="Times,serif" font-size="14.00">created_at :timestamp without time zone</text>
<text text-anchor="start" x="376" y="-158.8" font-family="Times,serif" font-size="14.00">updated_at :timestamp without time zone</text>
</g>
<!-- Level&#45;&gt;UserLevel -->
<g id="edge1" class="edge"><title>Level&#45;&gt;UserLevel</title>
<path fill="none" stroke="#a323d0" d="M442.968,-144.877C433.695,-134.897 423.885,-124.338 414.367,-114.094"/>
<ellipse fill="none" stroke="#a323d0" cx="445.828" cy="-147.956" rx="4.00002" ry="4.00002"/>
<polygon fill="#a323d0" stroke="#a323d0" points="414.307,-114.029 410.797,-103.64 410.904,-110.366 407.5,-106.703 407.5,-106.703 407.5,-106.703 410.904,-110.366 404.204,-109.766 414.307,-114.029 414.307,-114.029"/>
</g>
<!-- ApplicationRecord -->
<g id="node5" class="node"><title>ApplicationRecord</title>
<ellipse fill="none" stroke="black" cx="571" cy="-685" rx="77.1866" ry="18"/>
<text text-anchor="middle" x="571" y="-681.3" font-family="Times,serif" font-size="14.00">ApplicationRecord</text>
</g>
<!-- Network -->
<g id="node6" class="node"><title>Network</title>
<path fill="none" stroke="black" d="M244,-632C244,-632 464,-632 464,-632 470,-632 476,-638 476,-644 476,-644 476,-726 476,-726 476,-732 470,-738 464,-738 464,-738 244,-738 244,-738 238,-738 232,-732 232,-726 232,-726 232,-644 232,-644 232,-638 238,-632 244,-632"/>
<text text-anchor="middle" x="354" y="-722.8" font-family="Times,serif" font-size="14.00">Network</text>
<polyline fill="none" stroke="black" points="232,-715 476,-715 "/>
<text text-anchor="start" x="240" y="-699.8" font-family="Times,serif" font-size="14.00">id :integer</text>
<text text-anchor="start" x="240" y="-684.8" font-family="Times,serif" font-size="14.00">name :character varying</text>
<text text-anchor="start" x="240" y="-669.8" font-family="Times,serif" font-size="14.00">description :character varying</text>
<text text-anchor="start" x="240" y="-654.8" font-family="Times,serif" font-size="14.00">created_at :timestamp without time zone</text>
<text text-anchor="start" x="240" y="-639.8" font-family="Times,serif" font-size="14.00">updated_at :timestamp without time zone</text>
</g>
<!-- Network&#45;&gt;UserNetwork -->
<g id="edge2" class="edge"><title>Network&#45;&gt;UserNetwork</title>
<path fill="none" stroke="#c8b71d" d="M314.819,-624.919C307.928,-613.008 301.282,-600.347 296,-588 248.4,-476.741 216.863,-338.394 201.325,-259.795"/>
<ellipse fill="none" stroke="#c8b71d" cx="316.865" cy="-628.39" rx="4.00002" ry="4.00002"/>
<polygon fill="#c8b71d" stroke="#c8b71d" points="201.246,-259.391 203.746,-248.714 200.288,-254.484 199.329,-249.577 199.329,-249.577 199.329,-249.577 200.288,-254.484 194.913,-250.44 201.246,-259.391 201.246,-259.391"/>
</g>
<!-- User -->
<g id="node7" class="node"><title>User</title>
<path fill="none" stroke="black" d="M316.5,-286.5C316.5,-286.5 605.5,-286.5 605.5,-286.5 611.5,-286.5 617.5,-292.5 617.5,-298.5 617.5,-298.5 617.5,-575.5 617.5,-575.5 617.5,-581.5 611.5,-587.5 605.5,-587.5 605.5,-587.5 316.5,-587.5 316.5,-587.5 310.5,-587.5 304.5,-581.5 304.5,-575.5 304.5,-575.5 304.5,-298.5 304.5,-298.5 304.5,-292.5 310.5,-286.5 316.5,-286.5"/>
<text text-anchor="middle" x="461" y="-572.3" font-family="Times,serif" font-size="14.00">User</text>
<polyline fill="none" stroke="black" points="304.5,-564.5 617.5,-564.5 "/>
<text text-anchor="start" x="312.5" y="-549.3" font-family="Times,serif" font-size="14.00">id :integer</text>
<text text-anchor="start" x="312.5" y="-534.3" font-family="Times,serif" font-size="14.00">email :character varying</text>
<text text-anchor="start" x="312.5" y="-519.3" font-family="Times,serif" font-size="14.00">encrypted_password :character varying</text>
<text text-anchor="start" x="312.5" y="-504.3" font-family="Times,serif" font-size="14.00">reset_password_token :character varying</text>
<text text-anchor="start" x="312.5" y="-489.3" font-family="Times,serif" font-size="14.00">reset_password_sent_at :timestamp without time zone</text>
<text text-anchor="start" x="312.5" y="-474.3" font-family="Times,serif" font-size="14.00">remember_created_at :timestamp without time zone</text>
<text text-anchor="start" x="312.5" y="-459.3" font-family="Times,serif" font-size="14.00">sign_in_count :integer</text>
<text text-anchor="start" x="312.5" y="-444.3" font-family="Times,serif" font-size="14.00">current_sign_in_at :timestamp without time zone</text>
<text text-anchor="start" x="312.5" y="-429.3" font-family="Times,serif" font-size="14.00">last_sign_in_at :timestamp without time zone</text>
<text text-anchor="start" x="312.5" y="-414.3" font-family="Times,serif" font-size="14.00">current_sign_in_ip :inet</text>
<text text-anchor="start" x="312.5" y="-399.3" font-family="Times,serif" font-size="14.00">last_sign_in_ip :inet</text>
<text text-anchor="start" x="312.5" y="-384.3" font-family="Times,serif" font-size="14.00">created_at :timestamp without time zone</text>
<text text-anchor="start" x="312.5" y="-369.3" font-family="Times,serif" font-size="14.00">updated_at :timestamp without time zone</text>
<text text-anchor="start" x="312.5" y="-354.3" font-family="Times,serif" font-size="14.00">photo :character varying</text>
<text text-anchor="start" x="312.5" y="-339.3" font-family="Times,serif" font-size="14.00">biography :character varying</text>
<text text-anchor="start" x="312.5" y="-324.3" font-family="Times,serif" font-size="14.00">city :character varying</text>
<text text-anchor="start" x="312.5" y="-309.3" font-family="Times,serif" font-size="14.00">first_name :character varying</text>
<text text-anchor="start" x="312.5" y="-294.3" font-family="Times,serif" font-size="14.00">last_name :character varying</text>
</g>
<!-- Network&#45;&gt;User -->
<g id="edge3" class="edge"><title>Network&#45;&gt;User</title>
<path fill="none" stroke="#6d3d0f" d="M380.761,-622.474C384.285,-614.372 388.017,-605.792 391.868,-596.939"/>
<polygon fill="#6d3d0f" stroke="#6d3d0f" points="380.681,-622.66 372.565,-630.035 378.686,-627.245 376.692,-631.83 376.692,-631.83 376.692,-631.83 378.686,-627.245 380.819,-633.625 380.681,-622.66 380.681,-622.66"/>
<polygon fill="#6d3d0f" stroke="#6d3d0f" points="391.931,-596.794 400.046,-589.419 393.925,-592.209 395.92,-587.624 395.92,-587.624 395.92,-587.624 393.925,-592.209 391.793,-585.829 391.931,-596.794 391.931,-596.794"/>
</g>
<!-- User&#45;&gt;UserNetwork -->
<g id="edge6" class="edge"><title>User&#45;&gt;UserNetwork</title>
<path fill="none" stroke="#626490" d="M297.791,-292.364C283.572,-279.85 269.777,-267.71 257.072,-256.528"/>
<ellipse fill="none" stroke="#626490" cx="301.14" cy="-295.312" rx="4.00002" ry="4.00002"/>
<polygon fill="#626490" stroke="#626490" points="256.814,-256.301 252.28,-246.317 253.061,-252.998 249.307,-249.695 249.307,-249.695 249.307,-249.695 253.061,-252.998 246.334,-253.073 256.814,-256.301 256.814,-256.301"/>
</g>
<!-- User&#45;&gt;UserLevel -->
<g id="edge5" class="edge"><title>User&#45;&gt;UserLevel</title>
<path fill="none" stroke="#24ef0f" d="M368.021,-278.711C364.511,-269.179 361.452,-259.571 359,-250 347.865,-206.538 348.229,-155.835 351.186,-116.956"/>
<ellipse fill="none" stroke="#24ef0f" cx="369.505" cy="-282.6" rx="4.00001" ry="4.00001"/>
<polygon fill="#24ef0f" stroke="#24ef0f" points="351.2,-116.796 356.519,-107.206 351.617,-111.813 352.035,-106.83 352.035,-106.83 352.035,-106.83 351.617,-111.813 347.551,-106.455 351.2,-116.796 351.2,-116.796"/>
</g>
<!-- User&#45;&gt;Level -->
<g id="edge8" class="edge"><title>User&#45;&gt;Level</title>
<path fill="none" stroke="#090b44" d="M480.412,-276.355C481.436,-267.932 482.423,-259.813 483.349,-252.197"/>
<polygon fill="#090b44" stroke="#090b44" points="480.409,-276.382 474.734,-285.765 479.805,-281.345 479.201,-286.309 479.201,-286.309 479.201,-286.309 479.805,-281.345 483.669,-286.852 480.409,-276.382 480.409,-276.382"/>
<polygon fill="#090b44" stroke="#090b44" points="483.365,-252.068 489.039,-242.685 483.968,-247.105 484.572,-242.141 484.572,-242.141 484.572,-242.141 483.968,-247.105 480.105,-241.598 483.365,-252.068 483.365,-252.068"/>
</g>
<!-- UserSubject -->
<g id="node9" class="node"><title>UserSubject</title>
<path fill="none" stroke="black" d="M605,-0.5C605,-0.5 825,-0.5 825,-0.5 831,-0.5 837,-6.5 837,-12.5 837,-12.5 837,-94.5 837,-94.5 837,-100.5 831,-106.5 825,-106.5 825,-106.5 605,-106.5 605,-106.5 599,-106.5 593,-100.5 593,-94.5 593,-94.5 593,-12.5 593,-12.5 593,-6.5 599,-0.5 605,-0.5"/>
<text text-anchor="middle" x="715" y="-91.3" font-family="Times,serif" font-size="14.00">UserSubject</text>
<polyline fill="none" stroke="black" points="593,-83.5 837,-83.5 "/>
<text text-anchor="start" x="601" y="-68.3" font-family="Times,serif" font-size="14.00">id :integer</text>
<text text-anchor="start" x="601" y="-53.3" font-family="Times,serif" font-size="14.00">user_id :integer</text>
<text text-anchor="start" x="601" y="-38.3" font-family="Times,serif" font-size="14.00">subject_id :integer</text>
<text text-anchor="start" x="601" y="-23.3" font-family="Times,serif" font-size="14.00">created_at :timestamp without time zone</text>
<text text-anchor="start" x="601" y="-8.3" font-family="Times,serif" font-size="14.00">updated_at :timestamp without time zone</text>
</g>
<!-- User&#45;&gt;UserSubject -->
<g id="edge4" class="edge"><title>User&#45;&gt;UserSubject</title>
<path fill="none" stroke="#e4953b" d="M602.167,-279.666C608.886,-269.876 615.224,-259.953 621,-250 646.33,-206.352 636.926,-188.382 659,-143 663.46,-133.831 668.653,-124.432 674.044,-115.344"/>
<ellipse fill="none" stroke="#e4953b" cx="599.745" cy="-283.14" rx="4.00002" ry="4.00002"/>
<polygon fill="#e4953b" stroke="#e4953b" points="674.073,-115.296 683.104,-109.077 676.665,-111.02 679.256,-106.744 679.256,-106.744 679.256,-106.744 676.665,-111.02 675.408,-104.412 674.073,-115.296 674.073,-115.296"/>
</g>
<!-- Subject -->
<g id="node10" class="node"><title>Subject</title>
<path fill="none" stroke="black" d="M680,-151C680,-151 900,-151 900,-151 906,-151 912,-157 912,-163 912,-163 912,-230 912,-230 912,-236 906,-242 900,-242 900,-242 680,-242 680,-242 674,-242 668,-236 668,-230 668,-230 668,-163 668,-163 668,-157 674,-151 680,-151"/>
<text text-anchor="middle" x="790" y="-226.8" font-family="Times,serif" font-size="14.00">Subject</text>
<polyline fill="none" stroke="black" points="668,-219 912,-219 "/>
<text text-anchor="start" x="676" y="-203.8" font-family="Times,serif" font-size="14.00">id :integer</text>
<text text-anchor="start" x="676" y="-188.8" font-family="Times,serif" font-size="14.00">name :character varying</text>
<text text-anchor="start" x="676" y="-173.8" font-family="Times,serif" font-size="14.00">created_at :timestamp without time zone</text>
<text text-anchor="start" x="676" y="-158.8" font-family="Times,serif" font-size="14.00">updated_at :timestamp without time zone</text>
</g>
<!-- User&#45;&gt;Subject -->
<g id="edge7" class="edge"><title>User&#45;&gt;Subject</title>
<path fill="none" stroke="#7d746a" d="M626.071,-316.336C659.151,-292.356 692.2,-268.398 719.867,-248.341"/>
<polygon fill="#7d746a" stroke="#7d746a" points="625.888,-316.469 615.15,-318.695 621.84,-319.403 617.792,-322.338 617.792,-322.338 617.792,-322.338 621.84,-319.403 620.433,-325.981 625.888,-316.469 625.888,-316.469"/>
<polygon fill="#7d746a" stroke="#7d746a" points="720.178,-248.116 730.916,-245.89 724.226,-245.181 728.275,-242.246 728.275,-242.246 728.275,-242.246 724.226,-245.181 725.633,-238.603 720.178,-248.116 720.178,-248.116"/>
</g>
<!-- Material -->
<g id="node8" class="node"><title>Material</title>
<path fill="none" stroke="black" d="M678,-624.5C678,-624.5 898,-624.5 898,-624.5 904,-624.5 910,-630.5 910,-636.5 910,-636.5 910,-733.5 910,-733.5 910,-739.5 904,-745.5 898,-745.5 898,-745.5 678,-745.5 678,-745.5 672,-745.5 666,-739.5 666,-733.5 666,-733.5 666,-636.5 666,-636.5 666,-630.5 672,-624.5 678,-624.5"/>
<text text-anchor="middle" x="788" y="-730.3" font-family="Times,serif" font-size="14.00">Material</text>
<polyline fill="none" stroke="black" points="666,-722.5 910,-722.5 "/>
<text text-anchor="start" x="674" y="-707.3" font-family="Times,serif" font-size="14.00">id :integer</text>
<text text-anchor="start" x="674" y="-692.3" font-family="Times,serif" font-size="14.00">created_at :timestamp without time zone</text>
<text text-anchor="start" x="674" y="-677.3" font-family="Times,serif" font-size="14.00">updated_at :timestamp without time zone</text>
<text text-anchor="start" x="674" y="-662.3" font-family="Times,serif" font-size="14.00">title :character varying</text>
<text text-anchor="start" x="674" y="-647.3" font-family="Times,serif" font-size="14.00">description :text</text>
<text text-anchor="start" x="674" y="-632.3" font-family="Times,serif" font-size="14.00">user_id :integer</text>
</g>
<!-- Subject&#45;&gt;UserSubject -->
<g id="edge9" class="edge"><title>Subject&#45;&gt;UserSubject</title>
<path fill="none" stroke="#3ab673" d="M762.352,-143.521C757.51,-134.418 752.432,-124.872 747.473,-115.55"/>
<ellipse fill="none" stroke="#3ab673" cx="764.391" cy="-147.355" rx="4.00002" ry="4.00002"/>
<polygon fill="#3ab673" stroke="#3ab673" points="747.464,-115.531 746.74,-104.589 745.115,-111.117 742.767,-106.703 742.767,-106.703 742.767,-106.703 745.115,-111.117 738.794,-108.816 747.464,-115.531 747.464,-115.531"/>
</g>
</g>
</svg>
