<?xml version="1.0" encoding="UTF-8" standalone="no"?>
<!DOCTYPE svg PUBLIC "-//W3C//DTD SVG 1.1//EN"
 "http://www.w3.org/Graphics/SVG/1.1/DTD/svg11.dtd">
<!-- Generated by graphviz version 2.38.0 (20140413.2041)
 -->
<!-- Title: models_diagram Pages: 1 -->
<svg width="598pt" height="446pt"
 viewBox="0.00 0.00 597.95 446.00" xmlns="http://www.w3.org/2000/svg" xmlns:xlink="http://www.w3.org/1999/xlink">
<g id="graph0" class="graph" transform="scale(1 1) rotate(0) translate(4 442)">
<title>models_diagram</title>
<polygon fill="none" stroke="none" points="-4,4 -4,-442 593.945,-442 593.945,4 -4,4"/>
<!-- _diagram_info -->
<g id="node1" class="node"><title>_diagram_info</title>
<text text-anchor="start" x="8" y="-423.6" font-family="Times,serif" font-size="13.00">Models diagram</text>
<text text-anchor="start" x="8" y="-409.6" font-family="Times,serif" font-size="13.00">Date: Mar 17 2017 &#45; 16:32</text>
<text text-anchor="start" x="8" y="-395.6" font-family="Times,serif" font-size="13.00">Migration version: 20170316184620</text>
<text text-anchor="start" x="8" y="-381.6" font-family="Times,serif" font-size="13.00">Generated by RailRoady 1.5.2</text>
<text text-anchor="start" x="8" y="-367.6" font-family="Times,serif" font-size="13.00">http://railroady.prestonlee.com</text>
</g>
<!-- UserNetwork -->
<g id="node2" class="node"><title>UserNetwork</title>
<ellipse fill="none" stroke="black" cx="150" cy="-234" rx="57.6901" ry="18"/>
<text text-anchor="middle" x="150" y="-230.3" font-family="Times,serif" font-size="14.00">UserNetwork</text>
</g>
<!-- UserLevel -->
<g id="node3" class="node"><title>UserLevel</title>
<ellipse fill="none" stroke="black" cx="257" cy="-162" rx="47.3916" ry="18"/>
<text text-anchor="middle" x="257" y="-158.3" font-family="Times,serif" font-size="14.00">UserLevel</text>
</g>
<!-- Level -->
<g id="node4" class="node"><title>Level</title>
<ellipse fill="none" stroke="black" cx="295" cy="-234" rx="30.5947" ry="18"/>
<text text-anchor="middle" x="295" y="-230.3" font-family="Times,serif" font-size="14.00">Level</text>
</g>
<!-- Level&#45;&gt;UserLevel -->
<g id="edge1" class="edge"><title>Level&#45;&gt;UserLevel</title>
<path fill="none" stroke="#b93f34" d="M282.348,-209.694C278.742,-203.05 274.79,-195.772 271.103,-188.979"/>
<ellipse fill="none" stroke="#b93f34" cx="284.278" cy="-213.249" rx="4.00002" ry="4.00002"/>
<polygon fill="#b93f34" stroke="#b93f34" points="271.067,-188.912 270.251,-177.977 268.681,-184.518 266.296,-180.124 266.296,-180.124 266.296,-180.124 268.681,-184.518 262.341,-182.271 271.067,-188.912 271.067,-188.912"/>
</g>
<!-- Material -->
<g id="node11" class="node"><title>Material</title>
<ellipse fill="none" stroke="black" cx="423" cy="-162" rx="40.8928" ry="18"/>
<text text-anchor="middle" x="423" y="-158.3" font-family="Times,serif" font-size="14.00">Material</text>
</g>
<!-- Level&#45;&gt;Material -->
<g id="edge2" class="edge"><title>Level&#45;&gt;Material</title>
<path fill="none" stroke="#8dbd25" d="M323.947,-217.169C343.318,-206.576 368.883,-192.595 389.188,-181.491"/>
<ellipse fill="none" stroke="#8dbd25" cx="320.223" cy="-219.206" rx="4.00002" ry="4.00002"/>
<polygon fill="#8dbd25" stroke="#8dbd25" points="389.333,-181.412 400.266,-180.562 393.72,-179.013 398.107,-176.613 398.107,-176.613 398.107,-176.613 393.72,-179.013 395.948,-172.665 389.333,-181.412 389.333,-181.412"/>
</g>
<!-- Comment -->
<g id="node5" class="node"><title>Comment</title>
<ellipse fill="none" stroke="black" cx="354" cy="-18" rx="46.2923" ry="18"/>
<text text-anchor="middle" x="354" y="-14.3" font-family="Times,serif" font-size="14.00">Comment</text>
</g>
<!-- ApplicationRecord -->
<g id="node6" class="node"><title>ApplicationRecord</title>
<ellipse fill="none" stroke="black" cx="411" cy="-399" rx="77.1866" ry="18"/>
<text text-anchor="middle" x="411" y="-395.3" font-family="Times,serif" font-size="14.00">ApplicationRecord</text>
</g>
<!-- UserMaterial -->
<g id="node7" class="node"><title>UserMaterial</title>
<ellipse fill="none" stroke="black" cx="354" cy="-90" rx="57.6901" ry="18"/>
<text text-anchor="middle" x="354" y="-86.3" font-family="Times,serif" font-size="14.00">UserMaterial</text>
</g>
<!-- UserMaterial&#45;&gt;Comment -->
<g id="edge3" class="edge"><title>UserMaterial&#45;&gt;Comment</title>
<path fill="none" stroke="#7b0f3c" d="M354,-63.6398C354,-58.0629 354,-52.1319 354,-46.4761"/>
<ellipse fill="none" stroke="#7b0f3c" cx="354" cy="-67.6966" rx="4" ry="4"/>
<polygon fill="#7b0f3c" stroke="#7b0f3c" points="354,-46.1043 358.5,-36.1043 354,-41.1043 354,-36.1043 354,-36.1043 354,-36.1043 354,-41.1043 349.5,-36.1044 354,-46.1043 354,-46.1043"/>
</g>
<!-- Network -->
<g id="node8" class="node"><title>Network</title>
<ellipse fill="none" stroke="black" cx="274" cy="-399" rx="41.6928" ry="18"/>
<text text-anchor="middle" x="274" y="-395.3" font-family="Times,serif" font-size="14.00">Network</text>
</g>
<!-- Network&#45;&gt;UserNetwork -->
<g id="edge4" class="edge"><title>Network&#45;&gt;UserNetwork</title>
<path fill="none" stroke="#e124ee" d="M256.595,-375.12C233.473,-344.726 192.777,-291.231 168.917,-259.867"/>
<ellipse fill="none" stroke="#e124ee" cx="259.235" cy="-378.591" rx="4.00002" ry="4.00002"/>
<polygon fill="#e124ee" stroke="#e124ee" points="168.717,-259.603 166.244,-248.92 165.689,-255.624 162.662,-251.645 162.662,-251.645 162.662,-251.645 165.689,-255.624 159.081,-254.369 168.717,-259.603 168.717,-259.603"/>
</g>
<!-- User -->
<g id="node9" class="node"><title>User</title>
<ellipse fill="none" stroke="black" cx="324" cy="-306" rx="27.0966" ry="18"/>
<text text-anchor="middle" x="324" y="-302.3" font-family="Times,serif" font-size="14.00">User</text>
</g>
<!-- Network&#45;&gt;User -->
<g id="edge5" class="edge"><title>Network&#45;&gt;User</title>
<path fill="none" stroke="#677637" d="M288.222,-372.115C295.1,-359.598 303.324,-344.631 310.152,-332.204"/>
<polygon fill="#677637" stroke="#677637" points="287.986,-372.545 279.227,-379.142 285.579,-376.927 283.171,-381.309 283.171,-381.309 283.171,-381.309 285.579,-376.927 287.115,-383.476 287.986,-372.545 287.986,-372.545"/>
<polygon fill="#677637" stroke="#677637" points="310.24,-332.043 318.999,-325.446 312.648,-327.661 315.056,-323.279 315.056,-323.279 315.056,-323.279 312.648,-327.661 311.112,-321.112 310.24,-332.043 310.24,-332.043"/>
</g>
<!-- User&#45;&gt;UserNetwork -->
<g id="edge8" class="edge"><title>User&#45;&gt;UserNetwork</title>
<path fill="none" stroke="#8910cf" d="M293.47,-292.718C265.758,-281.569 224.586,-265.006 193.446,-252.478"/>
<ellipse fill="none" stroke="#8910cf" cx="297.542" cy="-294.356" rx="4.00001" ry="4.00001"/>
<polygon fill="#8910cf" stroke="#8910cf" points="193.408,-252.463 185.81,-244.556 188.769,-250.597 184.13,-248.731 184.13,-248.731 184.13,-248.731 188.769,-250.597 182.451,-252.905 193.408,-252.463 193.408,-252.463"/>
</g>
<!-- User&#45;&gt;UserLevel -->
<g id="edge7" class="edge"><title>User&#45;&gt;UserLevel</title>
<path fill="none" stroke="#94fe71" d="M295.011,-290.973C280.118,-282.067 263.378,-269 255,-252 245.532,-232.789 246.9,-208.298 250.148,-189.872"/>
<ellipse fill="none" stroke="#94fe71" cx="298.65" cy="-293.037" rx="4.00002" ry="4.00002"/>
<polygon fill="#94fe71" stroke="#94fe71" points="250.148,-189.869 256.557,-180.972 251.148,-184.97 252.148,-180.071 252.148,-180.071 252.148,-180.071 251.148,-184.97 247.739,-179.171 250.148,-189.869 250.148,-189.869"/>
</g>
<!-- User&#45;&gt;Level -->
<g id="edge11" class="edge"><title>User&#45;&gt;Level</title>
<path fill="none" stroke="#158dfa" d="M313.252,-279.056C310.85,-273.258 308.3,-267.104 305.892,-261.291"/>
<polygon fill="#158dfa" stroke="#158dfa" points="313.3,-279.172 312.97,-290.133 315.214,-283.792 317.127,-288.411 317.127,-288.411 317.127,-288.411 315.214,-283.792 321.285,-286.689 313.3,-279.172 313.3,-279.172"/>
<polygon fill="#158dfa" stroke="#158dfa" points="305.852,-261.195 306.182,-250.234 303.938,-256.575 302.025,-251.956 302.025,-251.956 302.025,-251.956 303.938,-256.575 297.867,-253.679 305.852,-261.195 305.852,-261.195"/>
</g>
<!-- User&#45;&gt;UserMaterial -->
<g id="edge9" class="edge"><title>User&#45;&gt;UserMaterial</title>
<path fill="none" stroke="#4ef73c" d="M329.681,-279.88C331.544,-271.092 333.515,-261.138 335,-252 342.583,-205.326 348.396,-150.571 351.497,-118.445"/>
<ellipse fill="none" stroke="#4ef73c" cx="328.794" cy="-283.975" rx="4.00001" ry="4.00001"/>
<polygon fill="#4ef73c" stroke="#4ef73c" points="351.499,-118.417 356.923,-108.886 351.971,-113.439 352.443,-108.461 352.443,-108.461 352.443,-108.461 351.971,-113.439 347.963,-108.037 351.499,-118.417 351.499,-118.417"/>
</g>
<!-- User&#45;&gt;Material -->
<g id="edge12" class="edge"><title>User&#45;&gt;Material</title>
<path fill="none" stroke="#177bb9" d="M343.834,-282.528C351.664,-273.3 360.55,-262.365 368,-252 382.805,-231.402 397.825,-206.791 408.42,-188.675"/>
<polygon fill="#177bb9" stroke="#177bb9" points="343.808,-282.559 333.876,-287.207 340.548,-286.35 337.288,-290.141 337.288,-290.141 337.288,-290.141 340.548,-286.35 340.7,-293.075 343.808,-282.559 343.808,-282.559"/>
<polygon fill="#177bb9" stroke="#177bb9" points="408.519,-188.503 417.426,-182.105 411.026,-184.176 413.532,-179.85 413.532,-179.85 413.532,-179.85 411.026,-184.176 409.638,-177.594 408.519,-188.503 408.519,-188.503"/>
</g>
<!-- UserSubject -->
<g id="node12" class="node"><title>UserSubject</title>
<ellipse fill="none" stroke="black" cx="536" cy="-162" rx="53.8905" ry="18"/>
<text text-anchor="middle" x="536" y="-158.3" font-family="Times,serif" font-size="14.00">UserSubject</text>
</g>
<!-- User&#45;&gt;UserSubject -->
<g id="edge6" class="edge"><title>User&#45;&gt;UserSubject</title>
<path fill="none" stroke="#e5637a" d="M359.445,-303.647C399.249,-300.271 463.437,-288.99 503,-252 520.244,-235.877 528.523,-209.93 532.47,-190.201"/>
<ellipse fill="none" stroke="#e5637a" cx="355.328" cy="-303.955" rx="4" ry="4"/>
<polygon fill="#e5637a" stroke="#e5637a" points="532.486,-190.111 538.638,-181.034 533.345,-185.186 534.205,-180.26 534.205,-180.26 534.205,-180.26 533.345,-185.186 529.772,-179.486 532.486,-190.111 532.486,-190.111"/>
</g>
<!-- Subject -->
<g id="node14" class="node"><title>Subject</title>
<ellipse fill="none" stroke="black" cx="457" cy="-234" rx="37.0935" ry="18"/>
<text text-anchor="middle" x="457" y="-230.3" font-family="Times,serif" font-size="14.00">Subject</text>
</g>
<!-- User&#45;&gt;Subject -->
<g id="edge10" class="edge"><title>User&#45;&gt;Subject</title>
<path fill="none" stroke="#9c144f" d="M353.733,-289.351C374.476,-278.434 402.18,-263.853 423.67,-252.542"/>
<polygon fill="#9c144f" stroke="#9c144f" points="353.63,-289.405 342.685,-290.08 349.206,-291.734 344.781,-294.062 344.781,-294.062 344.781,-294.062 349.206,-291.734 346.877,-298.045 353.63,-289.405 353.63,-289.405"/>
<polygon fill="#9c144f" stroke="#9c144f" points="423.911,-252.415 434.856,-251.74 428.336,-250.086 432.76,-247.758 432.76,-247.758 432.76,-247.758 428.336,-250.086 430.665,-243.776 423.911,-252.415 423.911,-252.415"/>
</g>
<!-- Alternative -->
<g id="node10" class="node"><title>Alternative</title>
<ellipse fill="none" stroke="black" cx="472" cy="-18" rx="50.0912" ry="18"/>
<text text-anchor="middle" x="472" y="-14.3" font-family="Times,serif" font-size="14.00">Alternative</text>
</g>
<!-- Material&#45;&gt;UserMaterial -->
<g id="edge13" class="edge"><title>Material&#45;&gt;UserMaterial</title>
<path fill="none" stroke="#4a09d4" d="M401.591,-139.281C393.96,-131.539 385.326,-122.78 377.527,-114.868"/>
<ellipse fill="none" stroke="#4a09d4" cx="404.535" cy="-142.267" rx="4.00002" ry="4.00002"/>
<polygon fill="#4a09d4" stroke="#4a09d4" points="377.094,-114.429 373.279,-104.148 373.584,-110.868 370.074,-107.307 370.074,-107.307 370.074,-107.307 373.584,-110.868 366.869,-110.466 377.094,-114.429 377.094,-114.429"/>
</g>
<!-- Question -->
<g id="node13" class="node"><title>Question</title>
<ellipse fill="none" stroke="black" cx="472" cy="-90" rx="42.4939" ry="18"/>
<text text-anchor="middle" x="472" y="-86.3" font-family="Times,serif" font-size="14.00">Question</text>
</g>
<!-- Material&#45;&gt;Question -->
<g id="edge14" class="edge"><title>Material&#45;&gt;Question</title>
<path fill="none" stroke="#6f9a41" d="M439.231,-137.812C444.119,-130.831 449.503,-123.138 454.471,-116.042"/>
<ellipse fill="none" stroke="#6f9a41" cx="436.906" cy="-141.134" rx="4.00002" ry="4.00002"/>
<polygon fill="#6f9a41" stroke="#6f9a41" points="454.736,-115.662 464.158,-110.051 457.604,-111.566 460.471,-107.47 460.471,-107.47 460.471,-107.47 457.604,-111.566 456.784,-104.889 454.736,-115.662 454.736,-115.662"/>
</g>
<!-- Question&#45;&gt;Alternative -->
<g id="edge15" class="edge"><title>Question&#45;&gt;Alternative</title>
<path fill="none" stroke="#152211" d="M472,-63.6398C472,-58.0629 472,-52.1319 472,-46.4761"/>
<ellipse fill="none" stroke="#152211" cx="472" cy="-67.6966" rx="4" ry="4"/>
<polygon fill="#152211" stroke="#152211" points="472,-46.1043 476.5,-36.1043 472,-41.1043 472,-36.1043 472,-36.1043 472,-36.1043 472,-41.1043 467.5,-36.1044 472,-46.1043 472,-46.1043"/>
</g>
<!-- Subject&#45;&gt;Material -->
<g id="edge17" class="edge"><title>Subject&#45;&gt;Material</title>
<path fill="none" stroke="#452e9e" d="M445.373,-209.062C442.25,-202.632 438.857,-195.647 435.68,-189.106"/>
<ellipse fill="none" stroke="#452e9e" cx="447.195" cy="-212.813" rx="4.00002" ry="4.00002"/>
<polygon fill="#452e9e" stroke="#452e9e" points="435.605,-188.951 435.284,-177.99 433.42,-184.454 431.236,-179.956 431.236,-179.956 431.236,-179.956 433.42,-184.454 427.188,-181.922 435.605,-188.951 435.605,-188.951"/>
</g>
<!-- Subject&#45;&gt;UserSubject -->
<g id="edge16" class="edge"><title>Subject&#45;&gt;UserSubject</title>
<path fill="none" stroke="#d40ac0" d="M480.164,-212.475C489.538,-204.169 500.402,-194.542 510.042,-186.001"/>
<ellipse fill="none" stroke="#d40ac0" cx="477.136" cy="-215.158" rx="4.00002" ry="4.00002"/>
<polygon fill="#d40ac0" stroke="#d40ac0" points="510.308,-185.765 520.776,-182.502 514.05,-182.45 517.792,-179.134 517.792,-179.134 517.792,-179.134 514.05,-182.45 514.808,-175.766 510.308,-185.765 510.308,-185.765"/>
</g>
</g>
</svg>
