<?xml version="1.0" encoding="UTF-8" standalone="no"?>
<!DOCTYPE svg PUBLIC "-//W3C//DTD SVG 1.1//EN"
 "http://www.w3.org/Graphics/SVG/1.1/DTD/svg11.dtd">
<!-- Generated by graphviz version 2.38.0 (20140413.2041)
 -->
<!-- Title: models_diagram Pages: 1 -->
<svg width="1300pt" height="754pt"
 viewBox="0.00 0.00 1300.00 754.00" xmlns="http://www.w3.org/2000/svg" xmlns:xlink="http://www.w3.org/1999/xlink">
<g id="graph0" class="graph" transform="scale(1 1) rotate(0) translate(4 750)">
<title>models_diagram</title>
<polygon fill="none" stroke="none" points="-4,4 -4,-750 1296,-750 1296,4 -4,4"/>
<!-- _diagram_info -->
<g id="node1" class="node"><title>_diagram_info</title>
<text text-anchor="start" x="264" y="-642.1" font-family="Times,serif" font-size="13.00">Models diagram</text>
<text text-anchor="start" x="264" y="-628.1" font-family="Times,serif" font-size="13.00">Date: Mar 12 2017 &#45; 01:58</text>
<text text-anchor="start" x="264" y="-614.1" font-family="Times,serif" font-size="13.00">Migration version: 20170312040125</text>
<text text-anchor="start" x="264" y="-600.1" font-family="Times,serif" font-size="13.00">Generated by RailRoady 1.5.2</text>
<text text-anchor="start" x="264" y="-586.1" font-family="Times,serif" font-size="13.00">http://railroady.prestonlee.com</text>
</g>
<!-- Comment -->
<g id="node2" class="node"><title>Comment</title>
<path fill="none" stroke="black" d="M274,-0.5C274,-0.5 494,-0.5 494,-0.5 500,-0.5 506,-6.5 506,-12.5 506,-12.5 506,-94.5 506,-94.5 506,-100.5 500,-106.5 494,-106.5 494,-106.5 274,-106.5 274,-106.5 268,-106.5 262,-100.5 262,-94.5 262,-94.5 262,-12.5 262,-12.5 262,-6.5 268,-0.5 274,-0.5"/>
<text text-anchor="middle" x="384" y="-91.3" font-family="Times,serif" font-size="14.00">Comment</text>
<polyline fill="none" stroke="black" points="262,-83.5 506,-83.5 "/>
<text text-anchor="start" x="270" y="-68.3" font-family="Times,serif" font-size="14.00">id :integer</text>
<text text-anchor="start" x="270" y="-53.3" font-family="Times,serif" font-size="14.00">content :text</text>
<text text-anchor="start" x="270" y="-38.3" font-family="Times,serif" font-size="14.00">user_material_id :integer</text>
<text text-anchor="start" x="270" y="-23.3" font-family="Times,serif" font-size="14.00">created_at :timestamp without time zone</text>
<text text-anchor="start" x="270" y="-8.3" font-family="Times,serif" font-size="14.00">updated_at :timestamp without time zone</text>
</g>
<!-- ApplicationRecord -->
<g id="node3" class="node"><title>ApplicationRecord</title>
<ellipse fill="none" stroke="black" cx="897" cy="-617.5" rx="77.1866" ry="18"/>
<text text-anchor="middle" x="897" y="-613.8" font-family="Times,serif" font-size="14.00">ApplicationRecord</text>
</g>
<!-- User -->
<g id="node4" class="node"><title>User</title>
<path fill="none" stroke="black" d="M500.5,-489.5C500.5,-489.5 789.5,-489.5 789.5,-489.5 795.5,-489.5 801.5,-495.5 801.5,-501.5 801.5,-501.5 801.5,-733.5 801.5,-733.5 801.5,-739.5 795.5,-745.5 789.5,-745.5 789.5,-745.5 500.5,-745.5 500.5,-745.5 494.5,-745.5 488.5,-739.5 488.5,-733.5 488.5,-733.5 488.5,-501.5 488.5,-501.5 488.5,-495.5 494.5,-489.5 500.5,-489.5"/>
<text text-anchor="middle" x="645" y="-730.3" font-family="Times,serif" font-size="14.00">User</text>
<polyline fill="none" stroke="black" points="488.5,-722.5 801.5,-722.5 "/>
<text text-anchor="start" x="496.5" y="-707.3" font-family="Times,serif" font-size="14.00">id :integer</text>
<text text-anchor="start" x="496.5" y="-692.3" font-family="Times,serif" font-size="14.00">email :character varying</text>
<text text-anchor="start" x="496.5" y="-677.3" font-family="Times,serif" font-size="14.00">encrypted_password :character varying</text>
<text text-anchor="start" x="496.5" y="-662.3" font-family="Times,serif" font-size="14.00">reset_password_token :character varying</text>
<text text-anchor="start" x="496.5" y="-647.3" font-family="Times,serif" font-size="14.00">reset_password_sent_at :timestamp without time zone</text>
<text text-anchor="start" x="496.5" y="-632.3" font-family="Times,serif" font-size="14.00">remember_created_at :timestamp without time zone</text>
<text text-anchor="start" x="496.5" y="-617.3" font-family="Times,serif" font-size="14.00">sign_in_count :integer</text>
<text text-anchor="start" x="496.5" y="-602.3" font-family="Times,serif" font-size="14.00">current_sign_in_at :timestamp without time zone</text>
<text text-anchor="start" x="496.5" y="-587.3" font-family="Times,serif" font-size="14.00">last_sign_in_at :timestamp without time zone</text>
<text text-anchor="start" x="496.5" y="-572.3" font-family="Times,serif" font-size="14.00">current_sign_in_ip :inet</text>
<text text-anchor="start" x="496.5" y="-557.3" font-family="Times,serif" font-size="14.00">last_sign_in_ip :inet</text>
<text text-anchor="start" x="496.5" y="-542.3" font-family="Times,serif" font-size="14.00">created_at :timestamp without time zone</text>
<text text-anchor="start" x="496.5" y="-527.3" font-family="Times,serif" font-size="14.00">updated_at :timestamp without time zone</text>
<text text-anchor="start" x="496.5" y="-512.3" font-family="Times,serif" font-size="14.00">first_name :character varying</text>
<text text-anchor="start" x="496.5" y="-497.3" font-family="Times,serif" font-size="14.00">last_name :character varying</text>
</g>
<!-- UserMaterial -->
<g id="node6" class="node"><title>UserMaterial</title>
<path fill="none" stroke="black" d="M274,-143.5C274,-143.5 494,-143.5 494,-143.5 500,-143.5 506,-149.5 506,-155.5 506,-155.5 506,-252.5 506,-252.5 506,-258.5 500,-264.5 494,-264.5 494,-264.5 274,-264.5 274,-264.5 268,-264.5 262,-258.5 262,-252.5 262,-252.5 262,-155.5 262,-155.5 262,-149.5 268,-143.5 274,-143.5"/>
<text text-anchor="middle" x="384" y="-249.3" font-family="Times,serif" font-size="14.00">UserMaterial</text>
<polyline fill="none" stroke="black" points="262,-241.5 506,-241.5 "/>
<text text-anchor="start" x="270" y="-226.3" font-family="Times,serif" font-size="14.00">id :integer</text>
<text text-anchor="start" x="270" y="-211.3" font-family="Times,serif" font-size="14.00">role :character varying</text>
<text text-anchor="start" x="270" y="-196.3" font-family="Times,serif" font-size="14.00">material_id :integer</text>
<text text-anchor="start" x="270" y="-181.3" font-family="Times,serif" font-size="14.00">user_id :integer</text>
<text text-anchor="start" x="270" y="-166.3" font-family="Times,serif" font-size="14.00">created_at :timestamp without time zone</text>
<text text-anchor="start" x="270" y="-151.3" font-family="Times,serif" font-size="14.00">updated_at :timestamp without time zone</text>
</g>
<!-- User&#45;&gt;UserMaterial -->
<g id="edge4" class="edge"><title>User&#45;&gt;UserMaterial</title>
<path fill="none" stroke="#518b35" d="M481.93,-489.79C458.347,-470.873 441.175,-456.476 439,-453 405.283,-399.11 392.098,-327.284 387.014,-274.803"/>
<ellipse fill="none" stroke="#518b35" cx="485.276" cy="-492.466" rx="4.00002" ry="4.00002"/>
<polygon fill="#518b35" stroke="#518b35" points="386.99,-274.536 390.583,-264.176 386.545,-269.556 386.101,-264.576 386.101,-264.576 386.101,-264.576 386.545,-269.556 381.619,-264.976 386.99,-274.536 386.99,-274.536"/>
</g>
<!-- Subject -->
<g id="node7" class="node"><title>Subject</title>
<path fill="none" stroke="black" d="M30,-331.5C30,-331.5 250,-331.5 250,-331.5 256,-331.5 262,-337.5 262,-343.5 262,-343.5 262,-410.5 262,-410.5 262,-416.5 256,-422.5 250,-422.5 250,-422.5 30,-422.5 30,-422.5 24,-422.5 18,-416.5 18,-410.5 18,-410.5 18,-343.5 18,-343.5 18,-337.5 24,-331.5 30,-331.5"/>
<text text-anchor="middle" x="140" y="-407.3" font-family="Times,serif" font-size="14.00">Subject</text>
<polyline fill="none" stroke="black" points="18,-399.5 262,-399.5 "/>
<text text-anchor="start" x="26" y="-384.3" font-family="Times,serif" font-size="14.00">id :integer</text>
<text text-anchor="start" x="26" y="-369.3" font-family="Times,serif" font-size="14.00">name :character varying</text>
<text text-anchor="start" x="26" y="-354.3" font-family="Times,serif" font-size="14.00">created_at :timestamp without time zone</text>
<text text-anchor="start" x="26" y="-339.3" font-family="Times,serif" font-size="14.00">updated_at :timestamp without time zone</text>
</g>
<!-- User&#45;&gt;Subject -->
<g id="edge5" class="edge"><title>User&#45;&gt;Subject</title>
<path fill="none" stroke="#d639ed" d="M479.294,-489.136C479.196,-489.091 479.098,-489.045 479,-489 410.514,-457.237 384.864,-476.124 313,-453 289.994,-445.597 265.869,-436.226 243.183,-426.638"/>
<polygon fill="#d639ed" stroke="#d639ed" points="479.386,-489.181 486.412,-497.601 483.883,-491.368 488.38,-493.554 488.38,-493.554 488.38,-493.554 483.883,-491.368 490.347,-489.507 479.386,-489.181 479.386,-489.181"/>
<polygon fill="#d639ed" stroke="#d639ed" points="243.091,-426.599 235.665,-418.53 238.493,-424.633 233.896,-422.668 233.896,-422.668 233.896,-422.668 238.493,-424.633 232.127,-426.805 243.091,-426.599 243.091,-426.599"/>
</g>
<!-- UserSubject -->
<g id="node9" class="node"><title>UserSubject</title>
<path fill="none" stroke="black" d="M12,-151C12,-151 232,-151 232,-151 238,-151 244,-157 244,-163 244,-163 244,-245 244,-245 244,-251 238,-257 232,-257 232,-257 12,-257 12,-257 6,-257 0,-251 0,-245 0,-245 0,-163 0,-163 0,-157 6,-151 12,-151"/>
<text text-anchor="middle" x="122" y="-241.8" font-family="Times,serif" font-size="14.00">UserSubject</text>
<polyline fill="none" stroke="black" points="0,-234 244,-234 "/>
<text text-anchor="start" x="8" y="-218.8" font-family="Times,serif" font-size="14.00">id :integer</text>
<text text-anchor="start" x="8" y="-203.8" font-family="Times,serif" font-size="14.00">user_id :integer</text>
<text text-anchor="start" x="8" y="-188.8" font-family="Times,serif" font-size="14.00">subject_id :integer</text>
<text text-anchor="start" x="8" y="-173.8" font-family="Times,serif" font-size="14.00">created_at :timestamp without time zone</text>
<text text-anchor="start" x="8" y="-158.8" font-family="Times,serif" font-size="14.00">updated_at :timestamp without time zone</text>
</g>
<!-- User&#45;&gt;UserSubject -->
<g id="edge1" class="edge"><title>User&#45;&gt;UserSubject</title>
<path fill="none" stroke="#edbca0" d="M480.974,-490.121C480.315,-489.745 479.658,-489.371 479,-489 440.765,-467.413 422.061,-479.431 387,-453 319.141,-401.845 333.431,-358.655 271,-301 256.235,-287.365 239.305,-274.438 222.277,-262.746"/>
<ellipse fill="none" stroke="#edbca0" cx="484.575" cy="-492.22" rx="4.00002" ry="4.00002"/>
<polygon fill="#edbca0" stroke="#edbca0" points="222.209,-262.7 216.435,-253.377 218.064,-259.904 213.918,-257.108 213.918,-257.108 213.918,-257.108 218.064,-259.904 211.402,-260.839 222.209,-262.7 222.209,-262.7"/>
</g>
<!-- UserLevel -->
<g id="node10" class="node"><title>UserLevel</title>
<path fill="none" stroke="black" d="M798,-151C798,-151 1018,-151 1018,-151 1024,-151 1030,-157 1030,-163 1030,-163 1030,-245 1030,-245 1030,-251 1024,-257 1018,-257 1018,-257 798,-257 798,-257 792,-257 786,-251 786,-245 786,-245 786,-163 786,-163 786,-157 792,-151 798,-151"/>
<text text-anchor="middle" x="908" y="-241.8" font-family="Times,serif" font-size="14.00">UserLevel</text>
<polyline fill="none" stroke="black" points="786,-234 1030,-234 "/>
<text text-anchor="start" x="794" y="-218.8" font-family="Times,serif" font-size="14.00">id :integer</text>
<text text-anchor="start" x="794" y="-203.8" font-family="Times,serif" font-size="14.00">user_id :integer</text>
<text text-anchor="start" x="794" y="-188.8" font-family="Times,serif" font-size="14.00">level_id :integer</text>
<text text-anchor="start" x="794" y="-173.8" font-family="Times,serif" font-size="14.00">created_at :timestamp without time zone</text>
<text text-anchor="start" x="794" y="-158.8" font-family="Times,serif" font-size="14.00">updated_at :timestamp without time zone</text>
</g>
<!-- User&#45;&gt;UserLevel -->
<g id="edge2" class="edge"><title>User&#45;&gt;UserLevel</title>
<path fill="none" stroke="#6fa37d" d="M692.241,-481.487C695.297,-471.875 698.248,-462.308 701,-453 720.744,-386.223 696.881,-356.452 739,-301 747.407,-289.931 767.905,-276.045 791.841,-262.301"/>
<ellipse fill="none" stroke="#6fa37d" cx="690.991" cy="-485.391" rx="4.00001" ry="4.00001"/>
<polygon fill="#6fa37d" stroke="#6fa37d" points="792.089,-262.161 803.01,-261.168 796.444,-259.705 800.799,-257.249 800.799,-257.249 800.799,-257.249 796.444,-259.705 798.589,-253.329 792.089,-262.161 792.089,-262.161"/>
</g>
<!-- Material -->
<g id="node11" class="node"><title>Material</title>
<path fill="none" stroke="black" d="M460,-301.5C460,-301.5 680,-301.5 680,-301.5 686,-301.5 692,-307.5 692,-313.5 692,-313.5 692,-440.5 692,-440.5 692,-446.5 686,-452.5 680,-452.5 680,-452.5 460,-452.5 460,-452.5 454,-452.5 448,-446.5 448,-440.5 448,-440.5 448,-313.5 448,-313.5 448,-307.5 454,-301.5 460,-301.5"/>
<text text-anchor="middle" x="570" y="-437.3" font-family="Times,serif" font-size="14.00">Material</text>
<polyline fill="none" stroke="black" points="448,-429.5 692,-429.5 "/>
<text text-anchor="start" x="456" y="-414.3" font-family="Times,serif" font-size="14.00">id :integer</text>
<text text-anchor="start" x="456" y="-399.3" font-family="Times,serif" font-size="14.00">title :character varying</text>
<text text-anchor="start" x="456" y="-384.3" font-family="Times,serif" font-size="14.00">description :text</text>
<text text-anchor="start" x="456" y="-369.3" font-family="Times,serif" font-size="14.00">created_at :timestamp without time zone</text>
<text text-anchor="start" x="456" y="-354.3" font-family="Times,serif" font-size="14.00">updated_at :timestamp without time zone</text>
<text text-anchor="start" x="456" y="-339.3" font-family="Times,serif" font-size="14.00">updated_by :integer</text>
<text text-anchor="start" x="456" y="-324.3" font-family="Times,serif" font-size="14.00">public_level :integer</text>
<text text-anchor="start" x="456" y="-309.3" font-family="Times,serif" font-size="14.00">owner :integer</text>
</g>
<!-- User&#45;&gt;Material -->
<g id="edge8" class="edge"><title>User&#45;&gt;Material</title>
<path fill="none" stroke="#23e70e" d="M601.935,-479.552C600.119,-473.78 598.322,-468.064 596.56,-462.46"/>
<polygon fill="#23e70e" stroke="#23e70e" points="601.975,-479.681 600.682,-490.57 603.475,-484.45 604.975,-489.22 604.975,-489.22 604.975,-489.22 603.475,-484.45 609.268,-487.87 601.975,-479.681 601.975,-479.681"/>
<polygon fill="#23e70e" stroke="#23e70e" points="596.43,-462.046 597.723,-451.157 594.93,-457.276 593.43,-452.507 593.43,-452.507 593.43,-452.507 594.93,-457.276 589.137,-453.857 596.43,-462.046 596.43,-462.046"/>
</g>
<!-- UserNetwork -->
<g id="node12" class="node"><title>UserNetwork</title>
<path fill="none" stroke="black" d="M1060,-151C1060,-151 1280,-151 1280,-151 1286,-151 1292,-157 1292,-163 1292,-163 1292,-245 1292,-245 1292,-251 1286,-257 1280,-257 1280,-257 1060,-257 1060,-257 1054,-257 1048,-251 1048,-245 1048,-245 1048,-163 1048,-163 1048,-157 1054,-151 1060,-151"/>
<text text-anchor="middle" x="1170" y="-241.8" font-family="Times,serif" font-size="14.00">UserNetwork</text>
<polyline fill="none" stroke="black" points="1048,-234 1292,-234 "/>
<text text-anchor="start" x="1056" y="-218.8" font-family="Times,serif" font-size="14.00">id :integer</text>
<text text-anchor="start" x="1056" y="-203.8" font-family="Times,serif" font-size="14.00">user_id :integer</text>
<text text-anchor="start" x="1056" y="-188.8" font-family="Times,serif" font-size="14.00">network_id :integer</text>
<text text-anchor="start" x="1056" y="-173.8" font-family="Times,serif" font-size="14.00">created_at :timestamp without time zone</text>
<text text-anchor="start" x="1056" y="-158.8" font-family="Times,serif" font-size="14.00">updated_at :timestamp without time zone</text>
</g>
<!-- User&#45;&gt;UserNetwork -->
<g id="edge3" class="edge"><title>User&#45;&gt;UserNetwork</title>
<path fill="none" stroke="#ec2880" d="M808.933,-489.936C809.622,-489.621 810.311,-489.309 811,-489 889.438,-453.867 938.498,-511.994 1001,-453 1051.64,-405.202 1000.16,-358.797 1039,-301 1048.18,-287.337 1059.99,-274.912 1072.75,-263.873"/>
<ellipse fill="none" stroke="#ec2880" cx="805.18" cy="-491.721" rx="4.00002" ry="4.00002"/>
<polygon fill="#ec2880" stroke="#ec2880" points="1073.11,-263.572 1083.67,-260.639 1076.95,-260.376 1080.8,-257.179 1080.8,-257.179 1080.8,-257.179 1076.95,-260.376 1077.92,-253.719 1073.11,-263.572 1073.11,-263.572"/>
</g>
<!-- Network -->
<g id="node13" class="node"><title>Network</title>
<path fill="none" stroke="black" d="M1060,-324C1060,-324 1280,-324 1280,-324 1286,-324 1292,-330 1292,-336 1292,-336 1292,-418 1292,-418 1292,-424 1286,-430 1280,-430 1280,-430 1060,-430 1060,-430 1054,-430 1048,-424 1048,-418 1048,-418 1048,-336 1048,-336 1048,-330 1054,-324 1060,-324"/>
<text text-anchor="middle" x="1170" y="-414.8" font-family="Times,serif" font-size="14.00">Network</text>
<polyline fill="none" stroke="black" points="1048,-407 1292,-407 "/>
<text text-anchor="start" x="1056" y="-391.8" font-family="Times,serif" font-size="14.00">id :integer</text>
<text text-anchor="start" x="1056" y="-376.8" font-family="Times,serif" font-size="14.00">name :character varying</text>
<text text-anchor="start" x="1056" y="-361.8" font-family="Times,serif" font-size="14.00">description :character varying</text>
<text text-anchor="start" x="1056" y="-346.8" font-family="Times,serif" font-size="14.00">created_at :timestamp without time zone</text>
<text text-anchor="start" x="1056" y="-331.8" font-family="Times,serif" font-size="14.00">updated_at :timestamp without time zone</text>
</g>
<!-- User&#45;&gt;Network -->
<g id="edge7" class="edge"><title>User&#45;&gt;Network</title>
<path fill="none" stroke="#3d1b62" d="M810.703,-489.128C810.802,-489.086 810.901,-489.043 811,-489 903.173,-449.211 939.088,-485.723 1034,-453 1048.32,-448.062 1062.91,-441.678 1076.96,-434.721"/>
<polygon fill="#3d1b62" stroke="#3d1b62" points="810.613,-489.169 799.648,-489.225 806.064,-491.244 801.515,-493.319 801.515,-493.319 801.515,-493.319 806.064,-491.244 803.383,-497.414 810.613,-489.169 810.613,-489.169"/>
<polygon fill="#3d1b62" stroke="#3d1b62" points="1077.19,-434.605 1088.14,-434.088 1081.64,-432.34 1086.1,-430.076 1086.1,-430.076 1086.1,-430.076 1081.64,-432.34 1084.06,-426.064 1077.19,-434.605 1077.19,-434.605"/>
</g>
<!-- Level -->
<g id="node14" class="node"><title>Level</title>
<path fill="none" stroke="black" d="M760,-331.5C760,-331.5 980,-331.5 980,-331.5 986,-331.5 992,-337.5 992,-343.5 992,-343.5 992,-410.5 992,-410.5 992,-416.5 986,-422.5 980,-422.5 980,-422.5 760,-422.5 760,-422.5 754,-422.5 748,-416.5 748,-410.5 748,-410.5 748,-343.5 748,-343.5 748,-337.5 754,-331.5 760,-331.5"/>
<text text-anchor="middle" x="870" y="-407.3" font-family="Times,serif" font-size="14.00">Level</text>
<polyline fill="none" stroke="black" points="748,-399.5 992,-399.5 "/>
<text text-anchor="start" x="756" y="-384.3" font-family="Times,serif" font-size="14.00">id :integer</text>
<text text-anchor="start" x="756" y="-369.3" font-family="Times,serif" font-size="14.00">name :character varying</text>
<text text-anchor="start" x="756" y="-354.3" font-family="Times,serif" font-size="14.00">created_at :timestamp without time zone</text>
<text text-anchor="start" x="756" y="-339.3" font-family="Times,serif" font-size="14.00">updated_at :timestamp without time zone</text>
</g>
<!-- User&#45;&gt;Level -->
<g id="edge6" class="edge"><title>User&#45;&gt;Level</title>
<path fill="none" stroke="#da5560" d="M772.181,-481.688C789.392,-463.445 806.136,-445.696 820.765,-430.189"/>
<polygon fill="#da5560" stroke="#da5560" points="771.938,-481.946 761.802,-486.132 768.507,-485.583 765.075,-489.22 765.075,-489.22 765.075,-489.22 768.507,-485.583 768.349,-492.308 771.938,-481.946 771.938,-481.946"/>
<polygon fill="#da5560" stroke="#da5560" points="820.907,-430.038 831.043,-425.852 824.338,-426.401 827.77,-422.764 827.77,-422.764 827.77,-422.764 824.338,-426.401 824.496,-419.676 820.907,-430.038 820.907,-430.038"/>
</g>
<!-- Question -->
<g id="node5" class="node"><title>Question</title>
<path fill="none" stroke="black" d="M536,-143.5C536,-143.5 756,-143.5 756,-143.5 762,-143.5 768,-149.5 768,-155.5 768,-155.5 768,-252.5 768,-252.5 768,-258.5 762,-264.5 756,-264.5 756,-264.5 536,-264.5 536,-264.5 530,-264.5 524,-258.5 524,-252.5 524,-252.5 524,-155.5 524,-155.5 524,-149.5 530,-143.5 536,-143.5"/>
<text text-anchor="middle" x="646" y="-249.3" font-family="Times,serif" font-size="14.00">Question</text>
<polyline fill="none" stroke="black" points="524,-241.5 768,-241.5 "/>
<text text-anchor="start" x="532" y="-226.3" font-family="Times,serif" font-size="14.00">id :integer</text>
<text text-anchor="start" x="532" y="-211.3" font-family="Times,serif" font-size="14.00">type :character varying</text>
<text text-anchor="start" x="532" y="-196.3" font-family="Times,serif" font-size="14.00">content :text</text>
<text text-anchor="start" x="532" y="-181.3" font-family="Times,serif" font-size="14.00">material_id :integer</text>
<text text-anchor="start" x="532" y="-166.3" font-family="Times,serif" font-size="14.00">created_at :timestamp without time zone</text>
<text text-anchor="start" x="532" y="-151.3" font-family="Times,serif" font-size="14.00">updated_at :timestamp without time zone</text>
</g>
<!-- Alternative -->
<g id="node8" class="node"><title>Alternative</title>
<path fill="none" stroke="black" d="M536,-0.5C536,-0.5 756,-0.5 756,-0.5 762,-0.5 768,-6.5 768,-12.5 768,-12.5 768,-94.5 768,-94.5 768,-100.5 762,-106.5 756,-106.5 756,-106.5 536,-106.5 536,-106.5 530,-106.5 524,-100.5 524,-94.5 524,-94.5 524,-12.5 524,-12.5 524,-6.5 530,-0.5 536,-0.5"/>
<text text-anchor="middle" x="646" y="-91.3" font-family="Times,serif" font-size="14.00">Alternative</text>
<polyline fill="none" stroke="black" points="524,-83.5 768,-83.5 "/>
<text text-anchor="start" x="532" y="-68.3" font-family="Times,serif" font-size="14.00">id :integer</text>
<text text-anchor="start" x="532" y="-53.3" font-family="Times,serif" font-size="14.00">content :text</text>
<text text-anchor="start" x="532" y="-38.3" font-family="Times,serif" font-size="14.00">question_id :integer</text>
<text text-anchor="start" x="532" y="-23.3" font-family="Times,serif" font-size="14.00">created_at :timestamp without time zone</text>
<text text-anchor="start" x="532" y="-8.3" font-family="Times,serif" font-size="14.00">updated_at :timestamp without time zone</text>
</g>
<!-- Question&#45;&gt;Alternative -->
<g id="edge9" class="edge"><title>Question&#45;&gt;Alternative</title>
<path fill="none" stroke="#5c4c2e" d="M646,-135.448C646,-129.304 646,-123.098 646,-117.001"/>
<ellipse fill="none" stroke="#5c4c2e" cx="646" cy="-139.455" rx="4" ry="4"/>
<polygon fill="#5c4c2e" stroke="#5c4c2e" points="646,-116.872 650.5,-106.872 646,-111.872 646,-106.872 646,-106.872 646,-106.872 646,-111.872 641.5,-106.872 646,-116.872 646,-116.872"/>
</g>
<!-- UserMaterial&#45;&gt;Comment -->
<g id="edge10" class="edge"><title>UserMaterial&#45;&gt;Comment</title>
<path fill="none" stroke="#5efede" d="M384,-135.448C384,-129.304 384,-123.098 384,-117.001"/>
<ellipse fill="none" stroke="#5efede" cx="384" cy="-139.455" rx="4" ry="4"/>
<polygon fill="#5efede" stroke="#5efede" points="384,-116.872 388.5,-106.872 384,-111.872 384,-106.872 384,-106.872 384,-106.872 384,-111.872 379.5,-106.872 384,-116.872 384,-116.872"/>
</g>
<!-- Subject&#45;&gt;UserSubject -->
<g id="edge11" class="edge"><title>Subject&#45;&gt;UserSubject</title>
<path fill="none" stroke="#abc9bf" d="M134.412,-322.916C132.554,-305.264 130.468,-285.449 128.545,-267.173"/>
<ellipse fill="none" stroke="#abc9bf" cx="134.852" cy="-327.094" rx="4" ry="4"/>
<polygon fill="#abc9bf" stroke="#abc9bf" points="128.542,-267.147 131.97,-256.731 128.018,-262.175 127.495,-257.202 127.495,-257.202 127.495,-257.202 128.018,-262.175 123.02,-257.673 128.542,-267.147 128.542,-267.147"/>
</g>
<!-- Material&#45;&gt;Question -->
<g id="edge13" class="edge"><title>Material&#45;&gt;Question</title>
<path fill="none" stroke="#aad20c" d="M606.466,-293.951C609.42,-287.305 612.386,-280.631 615.293,-274.091"/>
<ellipse fill="none" stroke="#aad20c" cx="604.738" cy="-297.839" rx="4.00002" ry="4.00002"/>
<polygon fill="#aad20c" stroke="#aad20c" points="615.44,-273.76 623.614,-266.449 617.471,-269.191 619.501,-264.622 619.501,-264.622 619.501,-264.622 617.471,-269.191 615.389,-262.794 615.44,-273.76 615.44,-273.76"/>
</g>
<!-- Material&#45;&gt;UserMaterial -->
<g id="edge12" class="edge"><title>Material&#45;&gt;UserMaterial</title>
<path fill="none" stroke="#fc08a2" d="M482.968,-295.986C474.085,-287.82 465.129,-279.586 456.426,-271.585"/>
<ellipse fill="none" stroke="#fc08a2" cx="486.014" cy="-298.787" rx="4.00002" ry="4.00002"/>
<polygon fill="#fc08a2" stroke="#fc08a2" points="456.214,-271.39 451.897,-261.309 452.533,-268.006 448.852,-264.622 448.852,-264.622 448.852,-264.622 452.533,-268.006 445.806,-267.935 456.214,-271.39 456.214,-271.39"/>
</g>
<!-- Network&#45;&gt;UserNetwork -->
<g id="edge14" class="edge"><title>Network&#45;&gt;UserNetwork</title>
<path fill="none" stroke="#7682ce" d="M1170,-315.709C1170,-300.048 1170,-283.148 1170,-267.382"/>
<ellipse fill="none" stroke="#7682ce" cx="1170" cy="-319.765" rx="4" ry="4"/>
<polygon fill="#7682ce" stroke="#7682ce" points="1170,-267.209 1174.5,-257.209 1170,-262.209 1170,-257.209 1170,-257.209 1170,-257.209 1170,-262.209 1165.5,-257.209 1170,-267.209 1170,-267.209"/>
</g>
<!-- Level&#45;&gt;UserLevel -->
<g id="edge15" class="edge"><title>Level&#45;&gt;UserLevel</title>
<path fill="none" stroke="#476033" d="M881.735,-323.193C885.67,-305.486 890.094,-285.577 894.174,-267.218"/>
<ellipse fill="none" stroke="#476033" cx="880.852" cy="-327.167" rx="4.00001" ry="4.00001"/>
<polygon fill="#476033" stroke="#476033" points="894.23,-266.964 900.792,-258.178 895.315,-262.083 896.4,-257.202 896.4,-257.202 896.4,-257.202 895.315,-262.083 892.007,-256.226 894.23,-266.964 894.23,-266.964"/>
</g>
</g>
</svg>
