<?xml version="1.0" encoding="UTF-8" standalone="no"?>
<!DOCTYPE svg PUBLIC "-//W3C//DTD SVG 1.1//EN"
 "http://www.w3.org/Graphics/SVG/1.1/DTD/svg11.dtd">
<!-- Generated by graphviz version 2.38.0 (20140413.2041)
 -->
<!-- Title: models_diagram Pages: 1 -->
<svg width="1188pt" height="942pt"
 viewBox="0.00 0.00 1188.00 942.00" xmlns="http://www.w3.org/2000/svg" xmlns:xlink="http://www.w3.org/1999/xlink">
<g id="graph0" class="graph" transform="scale(1 1) rotate(0) translate(4 938)">
<title>models_diagram</title>
<polygon fill="none" stroke="none" points="-4,4 -4,-938 1184,-938 1184,4 -4,4"/>
<!-- _diagram_info -->
<g id="node1" class="node"><title>_diagram_info</title>
<text text-anchor="start" x="30" y="-905.1" font-family="Times,serif" font-size="13.00">Models diagram</text>
<text text-anchor="start" x="30" y="-891.1" font-family="Times,serif" font-size="13.00">Date: Mar 12 2017 &#45; 01:09</text>
<text text-anchor="start" x="30" y="-877.1" font-family="Times,serif" font-size="13.00">Migration version: 20170312040125</text>
<text text-anchor="start" x="30" y="-863.1" font-family="Times,serif" font-size="13.00">Generated by RailRoady 1.5.2</text>
<text text-anchor="start" x="30" y="-849.1" font-family="Times,serif" font-size="13.00">http://railroady.prestonlee.com</text>
</g>
<!-- UserNetwork -->
<g id="node2" class="node"><title>UserNetwork</title>
<path fill="none" stroke="black" d="M12,-324C12,-324 232,-324 232,-324 238,-324 244,-330 244,-336 244,-336 244,-418 244,-418 244,-424 238,-430 232,-430 232,-430 12,-430 12,-430 6,-430 0,-424 0,-418 0,-418 0,-336 0,-336 0,-330 6,-324 12,-324"/>
<text text-anchor="middle" x="122" y="-414.8" font-family="Times,serif" font-size="14.00">UserNetwork</text>
<polyline fill="none" stroke="black" points="0,-407 244,-407 "/>
<text text-anchor="start" x="8" y="-391.8" font-family="Times,serif" font-size="14.00">id :integer</text>
<text text-anchor="start" x="8" y="-376.8" font-family="Times,serif" font-size="14.00">user_id :integer</text>
<text text-anchor="start" x="8" y="-361.8" font-family="Times,serif" font-size="14.00">network_id :integer</text>
<text text-anchor="start" x="8" y="-346.8" font-family="Times,serif" font-size="14.00">created_at :timestamp without time zone</text>
<text text-anchor="start" x="8" y="-331.8" font-family="Times,serif" font-size="14.00">updated_at :timestamp without time zone</text>
</g>
<!-- UserLevel -->
<g id="node3" class="node"><title>UserLevel</title>
<path fill="none" stroke="black" d="M162,-151C162,-151 382,-151 382,-151 388,-151 394,-157 394,-163 394,-163 394,-245 394,-245 394,-251 388,-257 382,-257 382,-257 162,-257 162,-257 156,-257 150,-251 150,-245 150,-245 150,-163 150,-163 150,-157 156,-151 162,-151"/>
<text text-anchor="middle" x="272" y="-241.8" font-family="Times,serif" font-size="14.00">UserLevel</text>
<polyline fill="none" stroke="black" points="150,-234 394,-234 "/>
<text text-anchor="start" x="158" y="-218.8" font-family="Times,serif" font-size="14.00">id :integer</text>
<text text-anchor="start" x="158" y="-203.8" font-family="Times,serif" font-size="14.00">user_id :integer</text>
<text text-anchor="start" x="158" y="-188.8" font-family="Times,serif" font-size="14.00">level_id :integer</text>
<text text-anchor="start" x="158" y="-173.8" font-family="Times,serif" font-size="14.00">created_at :timestamp without time zone</text>
<text text-anchor="start" x="158" y="-158.8" font-family="Times,serif" font-size="14.00">updated_at :timestamp without time zone</text>
</g>
<!-- Level -->
<g id="node4" class="node"><title>Level</title>
<path fill="none" stroke="black" d="M312,-331.5C312,-331.5 532,-331.5 532,-331.5 538,-331.5 544,-337.5 544,-343.5 544,-343.5 544,-410.5 544,-410.5 544,-416.5 538,-422.5 532,-422.5 532,-422.5 312,-422.5 312,-422.5 306,-422.5 300,-416.5 300,-410.5 300,-410.5 300,-343.5 300,-343.5 300,-337.5 306,-331.5 312,-331.5"/>
<text text-anchor="middle" x="422" y="-407.3" font-family="Times,serif" font-size="14.00">Level</text>
<polyline fill="none" stroke="black" points="300,-399.5 544,-399.5 "/>
<text text-anchor="start" x="308" y="-384.3" font-family="Times,serif" font-size="14.00">id :integer</text>
<text text-anchor="start" x="308" y="-369.3" font-family="Times,serif" font-size="14.00">name :character varying</text>
<text text-anchor="start" x="308" y="-354.3" font-family="Times,serif" font-size="14.00">created_at :timestamp without time zone</text>
<text text-anchor="start" x="308" y="-339.3" font-family="Times,serif" font-size="14.00">updated_at :timestamp without time zone</text>
</g>
<!-- Level&#45;&gt;UserLevel -->
<g id="edge1" class="edge"><title>Level&#45;&gt;UserLevel</title>
<path fill="none" stroke="#0568e4" d="M377.132,-324.851C360.585,-305.987 341.69,-284.447 324.526,-264.879"/>
<ellipse fill="none" stroke="#0568e4" cx="379.951" cy="-328.065" rx="4.00002" ry="4.00002"/>
<polygon fill="#0568e4" stroke="#0568e4" points="324.386,-264.72 321.174,-254.235 321.088,-260.961 317.791,-257.202 317.791,-257.202 317.791,-257.202 321.088,-260.961 314.408,-260.17 324.386,-264.72 324.386,-264.72"/>
</g>
<!-- Comment -->
<g id="node5" class="node"><title>Comment</title>
<path fill="none" stroke="black" d="M424,-0.5C424,-0.5 644,-0.5 644,-0.5 650,-0.5 656,-6.5 656,-12.5 656,-12.5 656,-94.5 656,-94.5 656,-100.5 650,-106.5 644,-106.5 644,-106.5 424,-106.5 424,-106.5 418,-106.5 412,-100.5 412,-94.5 412,-94.5 412,-12.5 412,-12.5 412,-6.5 418,-0.5 424,-0.5"/>
<text text-anchor="middle" x="534" y="-91.3" font-family="Times,serif" font-size="14.00">Comment</text>
<polyline fill="none" stroke="black" points="412,-83.5 656,-83.5 "/>
<text text-anchor="start" x="420" y="-68.3" font-family="Times,serif" font-size="14.00">id :integer</text>
<text text-anchor="start" x="420" y="-53.3" font-family="Times,serif" font-size="14.00">content :text</text>
<text text-anchor="start" x="420" y="-38.3" font-family="Times,serif" font-size="14.00">user_material_id :integer</text>
<text text-anchor="start" x="420" y="-23.3" font-family="Times,serif" font-size="14.00">created_at :timestamp without time zone</text>
<text text-anchor="start" x="420" y="-8.3" font-family="Times,serif" font-size="14.00">updated_at :timestamp without time zone</text>
</g>
<!-- ApplicationRecord -->
<g id="node6" class="node"><title>ApplicationRecord</title>
<ellipse fill="none" stroke="black" cx="593" cy="-880.5" rx="77.1866" ry="18"/>
<text text-anchor="middle" x="593" y="-876.8" font-family="Times,serif" font-size="14.00">ApplicationRecord</text>
</g>
<!-- UserMaterial -->
<g id="node7" class="node"><title>UserMaterial</title>
<path fill="none" stroke="black" d="M424,-143.5C424,-143.5 644,-143.5 644,-143.5 650,-143.5 656,-149.5 656,-155.5 656,-155.5 656,-252.5 656,-252.5 656,-258.5 650,-264.5 644,-264.5 644,-264.5 424,-264.5 424,-264.5 418,-264.5 412,-258.5 412,-252.5 412,-252.5 412,-155.5 412,-155.5 412,-149.5 418,-143.5 424,-143.5"/>
<text text-anchor="middle" x="534" y="-249.3" font-family="Times,serif" font-size="14.00">UserMaterial</text>
<polyline fill="none" stroke="black" points="412,-241.5 656,-241.5 "/>
<text text-anchor="start" x="420" y="-226.3" font-family="Times,serif" font-size="14.00">id :integer</text>
<text text-anchor="start" x="420" y="-211.3" font-family="Times,serif" font-size="14.00">role :character varying</text>
<text text-anchor="start" x="420" y="-196.3" font-family="Times,serif" font-size="14.00">material_id :integer</text>
<text text-anchor="start" x="420" y="-181.3" font-family="Times,serif" font-size="14.00">user_id :integer</text>
<text text-anchor="start" x="420" y="-166.3" font-family="Times,serif" font-size="14.00">created_at :timestamp without time zone</text>
<text text-anchor="start" x="420" y="-151.3" font-family="Times,serif" font-size="14.00">updated_at :timestamp without time zone</text>
</g>
<!-- UserMaterial&#45;&gt;Comment -->
<g id="edge2" class="edge"><title>UserMaterial&#45;&gt;Comment</title>
<path fill="none" stroke="#c17850" d="M534,-135.448C534,-129.304 534,-123.098 534,-117.001"/>
<ellipse fill="none" stroke="#c17850" cx="534" cy="-139.455" rx="4" ry="4"/>
<polygon fill="#c17850" stroke="#c17850" points="534,-116.872 538.5,-106.872 534,-111.872 534,-106.872 534,-106.872 534,-106.872 534,-111.872 529.5,-106.872 534,-116.872 534,-116.872"/>
</g>
<!-- Network -->
<g id="node8" class="node"><title>Network</title>
<path fill="none" stroke="black" d="M266,-827.5C266,-827.5 486,-827.5 486,-827.5 492,-827.5 498,-833.5 498,-839.5 498,-839.5 498,-921.5 498,-921.5 498,-927.5 492,-933.5 486,-933.5 486,-933.5 266,-933.5 266,-933.5 260,-933.5 254,-927.5 254,-921.5 254,-921.5 254,-839.5 254,-839.5 254,-833.5 260,-827.5 266,-827.5"/>
<text text-anchor="middle" x="376" y="-918.3" font-family="Times,serif" font-size="14.00">Network</text>
<polyline fill="none" stroke="black" points="254,-910.5 498,-910.5 "/>
<text text-anchor="start" x="262" y="-895.3" font-family="Times,serif" font-size="14.00">id :integer</text>
<text text-anchor="start" x="262" y="-880.3" font-family="Times,serif" font-size="14.00">name :character varying</text>
<text text-anchor="start" x="262" y="-865.3" font-family="Times,serif" font-size="14.00">description :character varying</text>
<text text-anchor="start" x="262" y="-850.3" font-family="Times,serif" font-size="14.00">created_at :timestamp without time zone</text>
<text text-anchor="start" x="262" y="-835.3" font-family="Times,serif" font-size="14.00">updated_at :timestamp without time zone</text>
</g>
<!-- Network&#45;&gt;UserNetwork -->
<g id="edge3" class="edge"><title>Network&#45;&gt;UserNetwork</title>
<path fill="none" stroke="#41afe0" d="M345.866,-820.004C297.286,-724.087 202.148,-536.244 153.012,-439.231"/>
<ellipse fill="none" stroke="#41afe0" cx="347.729" cy="-823.682" rx="4.00002" ry="4.00002"/>
<polygon fill="#41afe0" stroke="#41afe0" points="152.922,-439.054 152.419,-428.099 150.663,-434.593 148.404,-430.132 148.404,-430.132 148.404,-430.132 150.663,-434.593 144.39,-432.166 152.922,-439.054 152.922,-439.054"/>
</g>
<!-- User -->
<g id="node9" class="node"><title>User</title>
<path fill="none" stroke="black" d="M352.5,-489.5C352.5,-489.5 641.5,-489.5 641.5,-489.5 647.5,-489.5 653.5,-495.5 653.5,-501.5 653.5,-501.5 653.5,-778.5 653.5,-778.5 653.5,-784.5 647.5,-790.5 641.5,-790.5 641.5,-790.5 352.5,-790.5 352.5,-790.5 346.5,-790.5 340.5,-784.5 340.5,-778.5 340.5,-778.5 340.5,-501.5 340.5,-501.5 340.5,-495.5 346.5,-489.5 352.5,-489.5"/>
<text text-anchor="middle" x="497" y="-775.3" font-family="Times,serif" font-size="14.00">User</text>
<polyline fill="none" stroke="black" points="340.5,-767.5 653.5,-767.5 "/>
<text text-anchor="start" x="348.5" y="-752.3" font-family="Times,serif" font-size="14.00">id :integer</text>
<text text-anchor="start" x="348.5" y="-737.3" font-family="Times,serif" font-size="14.00">email :character varying</text>
<text text-anchor="start" x="348.5" y="-722.3" font-family="Times,serif" font-size="14.00">encrypted_password :character varying</text>
<text text-anchor="start" x="348.5" y="-707.3" font-family="Times,serif" font-size="14.00">reset_password_token :character varying</text>
<text text-anchor="start" x="348.5" y="-692.3" font-family="Times,serif" font-size="14.00">reset_password_sent_at :timestamp without time zone</text>
<text text-anchor="start" x="348.5" y="-677.3" font-family="Times,serif" font-size="14.00">remember_created_at :timestamp without time zone</text>
<text text-anchor="start" x="348.5" y="-662.3" font-family="Times,serif" font-size="14.00">sign_in_count :integer</text>
<text text-anchor="start" x="348.5" y="-647.3" font-family="Times,serif" font-size="14.00">current_sign_in_at :timestamp without time zone</text>
<text text-anchor="start" x="348.5" y="-632.3" font-family="Times,serif" font-size="14.00">last_sign_in_at :timestamp without time zone</text>
<text text-anchor="start" x="348.5" y="-617.3" font-family="Times,serif" font-size="14.00">current_sign_in_ip :inet</text>
<text text-anchor="start" x="348.5" y="-602.3" font-family="Times,serif" font-size="14.00">last_sign_in_ip :inet</text>
<text text-anchor="start" x="348.5" y="-587.3" font-family="Times,serif" font-size="14.00">created_at :timestamp without time zone</text>
<text text-anchor="start" x="348.5" y="-572.3" font-family="Times,serif" font-size="14.00">updated_at :timestamp without time zone</text>
<text text-anchor="start" x="348.5" y="-557.3" font-family="Times,serif" font-size="14.00">photo :character varying</text>
<text text-anchor="start" x="348.5" y="-542.3" font-family="Times,serif" font-size="14.00">biography :character varying</text>
<text text-anchor="start" x="348.5" y="-527.3" font-family="Times,serif" font-size="14.00">city :character varying</text>
<text text-anchor="start" x="348.5" y="-512.3" font-family="Times,serif" font-size="14.00">first_name :character varying</text>
<text text-anchor="start" x="348.5" y="-497.3" font-family="Times,serif" font-size="14.00">last_name :character varying</text>
</g>
<!-- Network&#45;&gt;User -->
<g id="edge4" class="edge"><title>Network&#45;&gt;User</title>
<path fill="none" stroke="#cae366" d="M407.069,-818.261C410.028,-812.429 413.111,-806.352 416.277,-800.11"/>
<polygon fill="#cae366" stroke="#cae366" points="406.929,-818.537 398.391,-825.419 404.667,-822.996 402.404,-827.455 402.404,-827.455 402.404,-827.455 404.667,-822.996 406.418,-829.491 406.929,-818.537 406.929,-818.537"/>
<polygon fill="#cae366" stroke="#cae366" points="416.447,-799.775 424.985,-792.893 418.71,-795.316 420.972,-790.857 420.972,-790.857 420.972,-790.857 418.71,-795.316 416.959,-788.821 416.447,-799.775 416.447,-799.775"/>
</g>
<!-- User&#45;&gt;UserNetwork -->
<g id="edge7" class="edge"><title>User&#45;&gt;UserNetwork</title>
<path fill="none" stroke="#294b05" d="M333.695,-525.34C289.347,-494.474 243.163,-462.33 205.291,-435.971"/>
<ellipse fill="none" stroke="#294b05" cx="337.127" cy="-527.729" rx="4.00002" ry="4.00002"/>
<polygon fill="#294b05" stroke="#294b05" points="205.053,-435.805 199.416,-426.399 200.949,-432.949 196.845,-430.092 196.845,-430.092 196.845,-430.092 200.949,-432.949 194.275,-433.786 205.053,-435.805 205.053,-435.805"/>
</g>
<!-- User&#45;&gt;UserLevel -->
<g id="edge6" class="edge"><title>User&#45;&gt;UserLevel</title>
<path fill="none" stroke="#356dd5" d="M334.858,-516.626C317.557,-497.158 302.211,-475.833 291,-453 262.452,-394.858 260.836,-319.707 264.392,-267.441"/>
<ellipse fill="none" stroke="#356dd5" cx="337.599" cy="-519.646" rx="4.00002" ry="4.00002"/>
<polygon fill="#356dd5" stroke="#356dd5" points="264.404,-267.276 269.652,-257.647 264.785,-262.29 265.165,-257.305 265.165,-257.305 265.165,-257.305 264.785,-262.29 260.678,-256.962 264.404,-267.276 264.404,-267.276"/>
</g>
<!-- User&#45;&gt;Level -->
<g id="edge10" class="edge"><title>User&#45;&gt;Level</title>
<path fill="none" stroke="#70cba9" d="M451.25,-479.789C446.376,-462.828 441.698,-446.548 437.567,-432.173"/>
<polygon fill="#70cba9" stroke="#70cba9" points="451.262,-479.833 449.699,-490.687 452.643,-484.639 454.024,-489.445 454.024,-489.445 454.024,-489.445 452.643,-484.639 458.349,-488.202 451.262,-479.833 451.262,-479.833"/>
<polygon fill="#70cba9" stroke="#70cba9" points="437.561,-432.152 439.124,-421.298 436.18,-427.346 434.799,-422.541 434.799,-422.541 434.799,-422.541 436.18,-427.346 430.474,-423.784 437.561,-432.152 437.561,-432.152"/>
</g>
<!-- User&#45;&gt;UserMaterial -->
<g id="edge8" class="edge"><title>User&#45;&gt;UserMaterial</title>
<path fill="none" stroke="#e45a96" d="M547.878,-481.347C549.888,-471.817 551.628,-462.318 553,-453 562.843,-386.165 559.589,-368.233 553,-301 552.157,-292.4 550.899,-283.428 549.425,-274.572"/>
<ellipse fill="none" stroke="#e45a96" cx="546.982" cy="-485.447" rx="4.00001" ry="4.00001"/>
<polygon fill="#e45a96" stroke="#e45a96" points="549.411,-274.496 552.11,-263.867 548.545,-269.572 547.678,-264.647 547.678,-264.647 547.678,-264.647 548.545,-269.572 543.246,-265.427 549.411,-274.496 549.411,-274.496"/>
</g>
<!-- Material -->
<g id="node11" class="node"><title>Material</title>
<path fill="none" stroke="black" d="M612,-301.5C612,-301.5 832,-301.5 832,-301.5 838,-301.5 844,-307.5 844,-313.5 844,-313.5 844,-440.5 844,-440.5 844,-446.5 838,-452.5 832,-452.5 832,-452.5 612,-452.5 612,-452.5 606,-452.5 600,-446.5 600,-440.5 600,-440.5 600,-313.5 600,-313.5 600,-307.5 606,-301.5 612,-301.5"/>
<text text-anchor="middle" x="722" y="-437.3" font-family="Times,serif" font-size="14.00">Material</text>
<polyline fill="none" stroke="black" points="600,-429.5 844,-429.5 "/>
<text text-anchor="start" x="608" y="-414.3" font-family="Times,serif" font-size="14.00">id :integer</text>
<text text-anchor="start" x="608" y="-399.3" font-family="Times,serif" font-size="14.00">title :character varying</text>
<text text-anchor="start" x="608" y="-384.3" font-family="Times,serif" font-size="14.00">description :text</text>
<text text-anchor="start" x="608" y="-369.3" font-family="Times,serif" font-size="14.00">created_at :timestamp without time zone</text>
<text text-anchor="start" x="608" y="-354.3" font-family="Times,serif" font-size="14.00">updated_at :timestamp without time zone</text>
<text text-anchor="start" x="608" y="-339.3" font-family="Times,serif" font-size="14.00">updated_by :integer</text>
<text text-anchor="start" x="608" y="-324.3" font-family="Times,serif" font-size="14.00">public_level :integer</text>
<text text-anchor="start" x="608" y="-309.3" font-family="Times,serif" font-size="14.00">owner :integer</text>
</g>
<!-- User&#45;&gt;Material -->
<g id="edge11" class="edge"><title>User&#45;&gt;Material</title>
<path fill="none" stroke="#4577d8" d="M632.539,-481.775C638.723,-474.602 644.809,-467.541 650.72,-460.685"/>
<polygon fill="#4577d8" stroke="#4577d8" points="632.457,-481.87 622.519,-486.506 629.192,-485.657 625.927,-489.445 625.927,-489.445 625.927,-489.445 629.192,-485.657 629.335,-492.383 632.457,-481.87 632.457,-481.87"/>
<polygon fill="#4577d8" stroke="#4577d8" points="651.043,-460.31 660.981,-455.674 654.308,-456.523 657.572,-452.736 657.572,-452.736 657.572,-452.736 654.308,-456.523 654.164,-449.798 651.043,-460.31 651.043,-460.31"/>
</g>
<!-- UserSubject -->
<g id="node12" class="node"><title>UserSubject</title>
<path fill="none" stroke="black" d="M948,-151C948,-151 1168,-151 1168,-151 1174,-151 1180,-157 1180,-163 1180,-163 1180,-245 1180,-245 1180,-251 1174,-257 1168,-257 1168,-257 948,-257 948,-257 942,-257 936,-251 936,-245 936,-245 936,-163 936,-163 936,-157 942,-151 948,-151"/>
<text text-anchor="middle" x="1058" y="-241.8" font-family="Times,serif" font-size="14.00">UserSubject</text>
<polyline fill="none" stroke="black" points="936,-234 1180,-234 "/>
<text text-anchor="start" x="944" y="-218.8" font-family="Times,serif" font-size="14.00">id :integer</text>
<text text-anchor="start" x="944" y="-203.8" font-family="Times,serif" font-size="14.00">user_id :integer</text>
<text text-anchor="start" x="944" y="-188.8" font-family="Times,serif" font-size="14.00">subject_id :integer</text>
<text text-anchor="start" x="944" y="-173.8" font-family="Times,serif" font-size="14.00">created_at :timestamp without time zone</text>
<text text-anchor="start" x="944" y="-158.8" font-family="Times,serif" font-size="14.00">updated_at :timestamp without time zone</text>
</g>
<!-- User&#45;&gt;UserSubject -->
<g id="edge5" class="edge"><title>User&#45;&gt;UserSubject</title>
<path fill="none" stroke="#1a0210" d="M661.442,-581.453C727.83,-551.563 800.894,-509.302 853,-453 902.905,-399.076 871.407,-357.81 918,-301 929.354,-287.157 943.203,-274.478 957.723,-263.189"/>
<ellipse fill="none" stroke="#1a0210" cx="657.452" cy="-583.228" rx="4.00002" ry="4.00002"/>
<polygon fill="#1a0210" stroke="#1a0210" points="957.863,-263.084 968.557,-260.656 961.856,-260.073 965.848,-257.063 965.848,-257.063 965.848,-257.063 961.856,-260.073 963.138,-253.47 957.863,-263.084 957.863,-263.084"/>
</g>
<!-- Subject -->
<g id="node14" class="node"><title>Subject</title>
<path fill="none" stroke="black" d="M939,-331.5C939,-331.5 1159,-331.5 1159,-331.5 1165,-331.5 1171,-337.5 1171,-343.5 1171,-343.5 1171,-410.5 1171,-410.5 1171,-416.5 1165,-422.5 1159,-422.5 1159,-422.5 939,-422.5 939,-422.5 933,-422.5 927,-416.5 927,-410.5 927,-410.5 927,-343.5 927,-343.5 927,-337.5 933,-331.5 939,-331.5"/>
<text text-anchor="middle" x="1049" y="-407.3" font-family="Times,serif" font-size="14.00">Subject</text>
<polyline fill="none" stroke="black" points="927,-399.5 1171,-399.5 "/>
<text text-anchor="start" x="935" y="-384.3" font-family="Times,serif" font-size="14.00">id :integer</text>
<text text-anchor="start" x="935" y="-369.3" font-family="Times,serif" font-size="14.00">name :character varying</text>
<text text-anchor="start" x="935" y="-354.3" font-family="Times,serif" font-size="14.00">created_at :timestamp without time zone</text>
<text text-anchor="start" x="935" y="-339.3" font-family="Times,serif" font-size="14.00">updated_at :timestamp without time zone</text>
</g>
<!-- User&#45;&gt;Subject -->
<g id="edge9" class="edge"><title>User&#45;&gt;Subject</title>
<path fill="none" stroke="#55b2a1" d="M662.798,-562.239C734.349,-528.926 818.92,-489.301 895,-453 912.37,-444.712 930.8,-435.821 948.644,-427.162"/>
<polygon fill="#55b2a1" stroke="#55b2a1" points="662.757,-562.258 651.792,-562.398 658.224,-564.368 653.691,-566.478 653.691,-566.478 653.691,-566.478 658.224,-564.368 655.59,-570.557 662.757,-562.258 662.757,-562.258"/>
<polygon fill="#55b2a1" stroke="#55b2a1" points="948.918,-427.029 959.879,-426.707 953.416,-424.844 957.913,-422.659 957.913,-422.659 957.913,-422.659 953.416,-424.844 955.947,-418.612 948.918,-427.029 948.918,-427.029"/>
</g>
<!-- Alternative -->
<g id="node10" class="node"><title>Alternative</title>
<path fill="none" stroke="black" d="M686,-0.5C686,-0.5 906,-0.5 906,-0.5 912,-0.5 918,-6.5 918,-12.5 918,-12.5 918,-94.5 918,-94.5 918,-100.5 912,-106.5 906,-106.5 906,-106.5 686,-106.5 686,-106.5 680,-106.5 674,-100.5 674,-94.5 674,-94.5 674,-12.5 674,-12.5 674,-6.5 680,-0.5 686,-0.5"/>
<text text-anchor="middle" x="796" y="-91.3" font-family="Times,serif" font-size="14.00">Alternative</text>
<polyline fill="none" stroke="black" points="674,-83.5 918,-83.5 "/>
<text text-anchor="start" x="682" y="-68.3" font-family="Times,serif" font-size="14.00">id :integer</text>
<text text-anchor="start" x="682" y="-53.3" font-family="Times,serif" font-size="14.00">content :text</text>
<text text-anchor="start" x="682" y="-38.3" font-family="Times,serif" font-size="14.00">question_id :integer</text>
<text text-anchor="start" x="682" y="-23.3" font-family="Times,serif" font-size="14.00">created_at :timestamp without time zone</text>
<text text-anchor="start" x="682" y="-8.3" font-family="Times,serif" font-size="14.00">updated_at :timestamp without time zone</text>
</g>
<!-- Material&#45;&gt;UserMaterial -->
<g id="edge12" class="edge"><title>Material&#45;&gt;UserMaterial</title>
<path fill="none" stroke="#f093c6" d="M634.032,-295.986C625.054,-287.82 616.001,-279.586 607.205,-271.585"/>
<ellipse fill="none" stroke="#f093c6" cx="637.128" cy="-298.803" rx="4.00002" ry="4.00002"/>
<polygon fill="#f093c6" stroke="#f093c6" points="606.947,-271.351 602.577,-261.293 603.248,-267.986 599.549,-264.622 599.549,-264.622 599.549,-264.622 603.248,-267.986 596.521,-267.951 606.947,-271.351 606.947,-271.351"/>
</g>
<!-- Question -->
<g id="node13" class="node"><title>Question</title>
<path fill="none" stroke="black" d="M686,-143.5C686,-143.5 906,-143.5 906,-143.5 912,-143.5 918,-149.5 918,-155.5 918,-155.5 918,-252.5 918,-252.5 918,-258.5 912,-264.5 906,-264.5 906,-264.5 686,-264.5 686,-264.5 680,-264.5 674,-258.5 674,-252.5 674,-252.5 674,-155.5 674,-155.5 674,-149.5 680,-143.5 686,-143.5"/>
<text text-anchor="middle" x="796" y="-249.3" font-family="Times,serif" font-size="14.00">Question</text>
<polyline fill="none" stroke="black" points="674,-241.5 918,-241.5 "/>
<text text-anchor="start" x="682" y="-226.3" font-family="Times,serif" font-size="14.00">id :integer</text>
<text text-anchor="start" x="682" y="-211.3" font-family="Times,serif" font-size="14.00">type :character varying</text>
<text text-anchor="start" x="682" y="-196.3" font-family="Times,serif" font-size="14.00">content :text</text>
<text text-anchor="start" x="682" y="-181.3" font-family="Times,serif" font-size="14.00">material_id :integer</text>
<text text-anchor="start" x="682" y="-166.3" font-family="Times,serif" font-size="14.00">created_at :timestamp without time zone</text>
<text text-anchor="start" x="682" y="-151.3" font-family="Times,serif" font-size="14.00">updated_at :timestamp without time zone</text>
</g>
<!-- Material&#45;&gt;Question -->
<g id="edge13" class="edge"><title>Material&#45;&gt;Question</title>
<path fill="none" stroke="#cb0112" d="M757.507,-293.951C760.383,-287.305 763.271,-280.631 766.101,-274.091"/>
<ellipse fill="none" stroke="#cb0112" cx="755.831" cy="-297.823" rx="4.00002" ry="4.00002"/>
<polygon fill="#cb0112" stroke="#cb0112" points="766.227,-273.799 774.329,-266.409 768.213,-269.211 770.199,-264.622 770.199,-264.622 770.199,-264.622 768.213,-269.211 766.069,-262.835 766.227,-273.799 766.227,-273.799"/>
</g>
<!-- Question&#45;&gt;Alternative -->
<g id="edge14" class="edge"><title>Question&#45;&gt;Alternative</title>
<path fill="none" stroke="#0ab752" d="M796,-135.448C796,-129.304 796,-123.098 796,-117.001"/>
<ellipse fill="none" stroke="#0ab752" cx="796" cy="-139.455" rx="4" ry="4"/>
<polygon fill="#0ab752" stroke="#0ab752" points="796,-116.872 800.5,-106.872 796,-111.872 796,-106.872 796,-106.872 796,-106.872 796,-111.872 791.5,-106.872 796,-116.872 796,-116.872"/>
</g>
<!-- Subject&#45;&gt;UserSubject -->
<g id="edge15" class="edge"><title>Subject&#45;&gt;UserSubject</title>
<path fill="none" stroke="#59dd68" d="M1051.79,-322.916C1052.72,-305.346 1053.76,-285.632 1054.71,-267.427"/>
<ellipse fill="none" stroke="#59dd68" cx="1051.57" cy="-327.077" rx="4" ry="4"/>
<polygon fill="#59dd68" stroke="#59dd68" points="1054.73,-267.188 1059.75,-257.439 1054.99,-262.195 1055.25,-257.202 1055.25,-257.202 1055.25,-257.202 1054.99,-262.195 1050.76,-256.966 1054.73,-267.188 1054.73,-267.188"/>
</g>
</g>
</svg>
