<?xml version="1.0" encoding="UTF-8" standalone="no"?>
<!DOCTYPE svg PUBLIC "-//W3C//DTD SVG 1.1//EN"
 "http://www.w3.org/Graphics/SVG/1.1/DTD/svg11.dtd">
<!-- Generated by graphviz version 2.38.0 (20140413.2041)
 -->
<!-- Title: models_diagram Pages: 1 -->
<svg width="1113pt" height="927pt"
 viewBox="0.00 0.00 1113.00 927.00" xmlns="http://www.w3.org/2000/svg" xmlns:xlink="http://www.w3.org/1999/xlink">
<g id="graph0" class="graph" transform="scale(1 1) rotate(0) translate(4 923)">
<title>models_diagram</title>
<polygon fill="none" stroke="none" points="-4,4 -4,-923 1109,-923 1109,4 -4,4"/>
<!-- _diagram_info -->
<g id="node1" class="node"><title>_diagram_info</title>
<text text-anchor="start" x="157" y="-815.1" font-family="Times,serif" font-size="13.00">Models diagram</text>
<text text-anchor="start" x="157" y="-801.1" font-family="Times,serif" font-size="13.00">Date: Mar 18 2017 &#45; 17:12</text>
<text text-anchor="start" x="157" y="-787.1" font-family="Times,serif" font-size="13.00">Migration version: 20170318010345</text>
<text text-anchor="start" x="157" y="-773.1" font-family="Times,serif" font-size="13.00">Generated by RailRoady 1.5.2</text>
<text text-anchor="start" x="157" y="-759.1" font-family="Times,serif" font-size="13.00">http://railroady.prestonlee.com</text>
</g>
<!-- Comment -->
<g id="node2" class="node"><title>Comment</title>
<path fill="none" stroke="black" d="M12,-0.5C12,-0.5 232,-0.5 232,-0.5 238,-0.5 244,-6.5 244,-12.5 244,-12.5 244,-94.5 244,-94.5 244,-100.5 238,-106.5 232,-106.5 232,-106.5 12,-106.5 12,-106.5 6,-106.5 0,-100.5 0,-94.5 0,-94.5 0,-12.5 0,-12.5 0,-6.5 6,-0.5 12,-0.5"/>
<text text-anchor="middle" x="122" y="-91.3" font-family="Times,serif" font-size="14.00">Comment</text>
<polyline fill="none" stroke="black" points="0,-83.5 244,-83.5 "/>
<text text-anchor="start" x="8" y="-68.3" font-family="Times,serif" font-size="14.00">id :integer</text>
<text text-anchor="start" x="8" y="-53.3" font-family="Times,serif" font-size="14.00">content :text</text>
<text text-anchor="start" x="8" y="-38.3" font-family="Times,serif" font-size="14.00">user_material_id :integer</text>
<text text-anchor="start" x="8" y="-23.3" font-family="Times,serif" font-size="14.00">created_at :timestamp without time zone</text>
<text text-anchor="start" x="8" y="-8.3" font-family="Times,serif" font-size="14.00">updated_at :timestamp without time zone</text>
</g>
<!-- ApplicationRecord -->
<g id="node3" class="node"><title>ApplicationRecord</title>
<ellipse fill="none" stroke="black" cx="790" cy="-790.5" rx="77.1866" ry="18"/>
<text text-anchor="middle" x="790" y="-786.8" font-family="Times,serif" font-size="14.00">ApplicationRecord</text>
</g>
<!-- User -->
<g id="node4" class="node"><title>User</title>
<path fill="none" stroke="black" d="M393.5,-662.5C393.5,-662.5 682.5,-662.5 682.5,-662.5 688.5,-662.5 694.5,-668.5 694.5,-674.5 694.5,-674.5 694.5,-906.5 694.5,-906.5 694.5,-912.5 688.5,-918.5 682.5,-918.5 682.5,-918.5 393.5,-918.5 393.5,-918.5 387.5,-918.5 381.5,-912.5 381.5,-906.5 381.5,-906.5 381.5,-674.5 381.5,-674.5 381.5,-668.5 387.5,-662.5 393.5,-662.5"/>
<text text-anchor="middle" x="538" y="-903.3" font-family="Times,serif" font-size="14.00">User</text>
<polyline fill="none" stroke="black" points="381.5,-895.5 694.5,-895.5 "/>
<text text-anchor="start" x="389.5" y="-880.3" font-family="Times,serif" font-size="14.00">id :integer</text>
<text text-anchor="start" x="389.5" y="-865.3" font-family="Times,serif" font-size="14.00">email :character varying</text>
<text text-anchor="start" x="389.5" y="-850.3" font-family="Times,serif" font-size="14.00">encrypted_password :character varying</text>
<text text-anchor="start" x="389.5" y="-835.3" font-family="Times,serif" font-size="14.00">reset_password_token :character varying</text>
<text text-anchor="start" x="389.5" y="-820.3" font-family="Times,serif" font-size="14.00">reset_password_sent_at :timestamp without time zone</text>
<text text-anchor="start" x="389.5" y="-805.3" font-family="Times,serif" font-size="14.00">remember_created_at :timestamp without time zone</text>
<text text-anchor="start" x="389.5" y="-790.3" font-family="Times,serif" font-size="14.00">sign_in_count :integer</text>
<text text-anchor="start" x="389.5" y="-775.3" font-family="Times,serif" font-size="14.00">current_sign_in_at :timestamp without time zone</text>
<text text-anchor="start" x="389.5" y="-760.3" font-family="Times,serif" font-size="14.00">last_sign_in_at :timestamp without time zone</text>
<text text-anchor="start" x="389.5" y="-745.3" font-family="Times,serif" font-size="14.00">current_sign_in_ip :inet</text>
<text text-anchor="start" x="389.5" y="-730.3" font-family="Times,serif" font-size="14.00">last_sign_in_ip :inet</text>
<text text-anchor="start" x="389.5" y="-715.3" font-family="Times,serif" font-size="14.00">created_at :timestamp without time zone</text>
<text text-anchor="start" x="389.5" y="-700.3" font-family="Times,serif" font-size="14.00">updated_at :timestamp without time zone</text>
<text text-anchor="start" x="389.5" y="-685.3" font-family="Times,serif" font-size="14.00">first_name :character varying</text>
<text text-anchor="start" x="389.5" y="-670.3" font-family="Times,serif" font-size="14.00">last_name :character varying</text>
</g>
<!-- UserMaterial -->
<g id="node6" class="node"><title>UserMaterial</title>
<path fill="none" stroke="black" d="M12,-143.5C12,-143.5 232,-143.5 232,-143.5 238,-143.5 244,-149.5 244,-155.5 244,-155.5 244,-252.5 244,-252.5 244,-258.5 238,-264.5 232,-264.5 232,-264.5 12,-264.5 12,-264.5 6,-264.5 0,-258.5 0,-252.5 0,-252.5 0,-155.5 0,-155.5 0,-149.5 6,-143.5 12,-143.5"/>
<text text-anchor="middle" x="122" y="-249.3" font-family="Times,serif" font-size="14.00">UserMaterial</text>
<polyline fill="none" stroke="black" points="0,-241.5 244,-241.5 "/>
<text text-anchor="start" x="8" y="-226.3" font-family="Times,serif" font-size="14.00">id :integer</text>
<text text-anchor="start" x="8" y="-211.3" font-family="Times,serif" font-size="14.00">material_id :integer</text>
<text text-anchor="start" x="8" y="-196.3" font-family="Times,serif" font-size="14.00">user_id :integer</text>
<text text-anchor="start" x="8" y="-181.3" font-family="Times,serif" font-size="14.00">created_at :timestamp without time zone</text>
<text text-anchor="start" x="8" y="-166.3" font-family="Times,serif" font-size="14.00">updated_at :timestamp without time zone</text>
<text text-anchor="start" x="8" y="-151.3" font-family="Times,serif" font-size="14.00">role :integer</text>
</g>
<!-- User&#45;&gt;UserMaterial -->
<g id="edge4" class="edge"><title>User&#45;&gt;UserMaterial</title>
<path fill="none" stroke="#032551" d="M374.078,-662.911C373.385,-662.604 372.693,-662.3 372,-662 281.494,-622.777 234.767,-681.172 153,-626 29.0476,-542.363 26.9756,-445.348 66,-301 68.4854,-291.807 72.0939,-282.59 76.3002,-273.701"/>
<ellipse fill="none" stroke="#032551" cx="377.848" cy="-664.654" rx="4.00002" ry="4.00002"/>
<polygon fill="#032551" stroke="#032551" points="76.3959,-273.51 84.9006,-266.587 78.6369,-269.04 80.8779,-264.57 80.8779,-264.57 80.8779,-264.57 78.6369,-269.04 76.8551,-262.553 76.3959,-273.51 76.3959,-273.51"/>
</g>
<!-- Subject -->
<g id="node8" class="node"><title>Subject</title>
<path fill="none" stroke="black" d="M203,-527C203,-527 423,-527 423,-527 429,-527 435,-533 435,-539 435,-539 435,-606 435,-606 435,-612 429,-618 423,-618 423,-618 203,-618 203,-618 197,-618 191,-612 191,-606 191,-606 191,-539 191,-539 191,-533 197,-527 203,-527"/>
<text text-anchor="middle" x="313" y="-602.8" font-family="Times,serif" font-size="14.00">Subject</text>
<polyline fill="none" stroke="black" points="191,-595 435,-595 "/>
<text text-anchor="start" x="199" y="-579.8" font-family="Times,serif" font-size="14.00">id :integer</text>
<text text-anchor="start" x="199" y="-564.8" font-family="Times,serif" font-size="14.00">name :character varying</text>
<text text-anchor="start" x="199" y="-549.8" font-family="Times,serif" font-size="14.00">created_at :timestamp without time zone</text>
<text text-anchor="start" x="199" y="-534.8" font-family="Times,serif" font-size="14.00">updated_at :timestamp without time zone</text>
</g>
<!-- User&#45;&gt;Subject -->
<g id="edge5" class="edge"><title>User&#45;&gt;Subject</title>
<path fill="none" stroke="#e7e20d" d="M398.227,-655.318C387.232,-644.762 376.607,-634.562 366.807,-625.155"/>
<polygon fill="#e7e20d" stroke="#e7e20d" points="398.276,-655.365 402.374,-665.537 401.883,-658.828 405.49,-662.291 405.49,-662.291 405.49,-662.291 401.883,-658.828 408.607,-659.044 398.276,-655.365 398.276,-655.365"/>
<polygon fill="#e7e20d" stroke="#e7e20d" points="366.695,-625.048 362.598,-614.876 363.088,-621.585 359.482,-618.122 359.482,-618.122 359.482,-618.122 363.088,-621.585 356.365,-621.369 366.695,-625.048 366.695,-625.048"/>
</g>
<!-- UserSubject -->
<g id="node10" class="node"><title>UserSubject</title>
<path fill="none" stroke="black" d="M87,-339C87,-339 307,-339 307,-339 313,-339 319,-345 319,-351 319,-351 319,-433 319,-433 319,-439 313,-445 307,-445 307,-445 87,-445 87,-445 81,-445 75,-439 75,-433 75,-433 75,-351 75,-351 75,-345 81,-339 87,-339"/>
<text text-anchor="middle" x="197" y="-429.8" font-family="Times,serif" font-size="14.00">UserSubject</text>
<polyline fill="none" stroke="black" points="75,-422 319,-422 "/>
<text text-anchor="start" x="83" y="-406.8" font-family="Times,serif" font-size="14.00">id :integer</text>
<text text-anchor="start" x="83" y="-391.8" font-family="Times,serif" font-size="14.00">user_id :integer</text>
<text text-anchor="start" x="83" y="-376.8" font-family="Times,serif" font-size="14.00">subject_id :integer</text>
<text text-anchor="start" x="83" y="-361.8" font-family="Times,serif" font-size="14.00">created_at :timestamp without time zone</text>
<text text-anchor="start" x="83" y="-346.8" font-family="Times,serif" font-size="14.00">updated_at :timestamp without time zone</text>
</g>
<!-- User&#45;&gt;UserSubject -->
<g id="edge1" class="edge"><title>User&#45;&gt;UserSubject</title>
<path fill="none" stroke="#a5957a" d="M374.067,-662.936C373.378,-662.621 372.689,-662.309 372,-662 293.562,-626.867 236.826,-692.189 182,-626 143.012,-578.931 155.155,-506.478 171.723,-454.872"/>
<ellipse fill="none" stroke="#a5957a" cx="377.82" cy="-664.721" rx="4.00002" ry="4.00002"/>
<polygon fill="#a5957a" stroke="#a5957a" points="171.797,-454.649 179.236,-446.593 173.383,-449.908 174.969,-445.166 174.969,-445.166 174.969,-445.166 173.383,-449.908 170.701,-443.738 171.797,-454.649 171.797,-454.649"/>
</g>
<!-- UserLevel -->
<g id="node11" class="node"><title>UserLevel</title>
<path fill="none" stroke="black" d="M611,-339C611,-339 831,-339 831,-339 837,-339 843,-345 843,-351 843,-351 843,-433 843,-433 843,-439 837,-445 831,-445 831,-445 611,-445 611,-445 605,-445 599,-439 599,-433 599,-433 599,-351 599,-351 599,-345 605,-339 611,-339"/>
<text text-anchor="middle" x="721" y="-429.8" font-family="Times,serif" font-size="14.00">UserLevel</text>
<polyline fill="none" stroke="black" points="599,-422 843,-422 "/>
<text text-anchor="start" x="607" y="-406.8" font-family="Times,serif" font-size="14.00">id :integer</text>
<text text-anchor="start" x="607" y="-391.8" font-family="Times,serif" font-size="14.00">user_id :integer</text>
<text text-anchor="start" x="607" y="-376.8" font-family="Times,serif" font-size="14.00">level_id :integer</text>
<text text-anchor="start" x="607" y="-361.8" font-family="Times,serif" font-size="14.00">created_at :timestamp without time zone</text>
<text text-anchor="start" x="607" y="-346.8" font-family="Times,serif" font-size="14.00">updated_at :timestamp without time zone</text>
</g>
<!-- User&#45;&gt;UserLevel -->
<g id="edge2" class="edge"><title>User&#45;&gt;UserLevel</title>
<path fill="none" stroke="#ed5c92" d="M701.225,-663.489C724.998,-644.37 742.206,-629.715 744,-626 769.884,-572.41 758.637,-503.905 744.265,-455.074"/>
<ellipse fill="none" stroke="#ed5c92" cx="697.823" cy="-666.216" rx="4.00002" ry="4.00002"/>
<polygon fill="#ed5c92" stroke="#ed5c92" points="744.192,-454.835 745.564,-443.955 742.727,-450.054 741.261,-445.274 741.261,-445.274 741.261,-445.274 742.727,-450.054 736.959,-446.592 744.192,-454.835 744.192,-454.835"/>
</g>
<!-- Material -->
<g id="node12" class="node"><title>Material</title>
<path fill="none" stroke="black" d="M349,-301.5C349,-301.5 569,-301.5 569,-301.5 575,-301.5 581,-307.5 581,-313.5 581,-313.5 581,-470.5 581,-470.5 581,-476.5 575,-482.5 569,-482.5 569,-482.5 349,-482.5 349,-482.5 343,-482.5 337,-476.5 337,-470.5 337,-470.5 337,-313.5 337,-313.5 337,-307.5 343,-301.5 349,-301.5"/>
<text text-anchor="middle" x="459" y="-467.3" font-family="Times,serif" font-size="14.00">Material</text>
<polyline fill="none" stroke="black" points="337,-459.5 581,-459.5 "/>
<text text-anchor="start" x="345" y="-444.3" font-family="Times,serif" font-size="14.00">id :integer</text>
<text text-anchor="start" x="345" y="-429.3" font-family="Times,serif" font-size="14.00">title :character varying</text>
<text text-anchor="start" x="345" y="-414.3" font-family="Times,serif" font-size="14.00">description :text</text>
<text text-anchor="start" x="345" y="-399.3" font-family="Times,serif" font-size="14.00">created_at :timestamp without time zone</text>
<text text-anchor="start" x="345" y="-384.3" font-family="Times,serif" font-size="14.00">updated_at :timestamp without time zone</text>
<text text-anchor="start" x="345" y="-369.3" font-family="Times,serif" font-size="14.00">updated_by :integer</text>
<text text-anchor="start" x="345" y="-354.3" font-family="Times,serif" font-size="14.00">public_level :integer</text>
<text text-anchor="start" x="345" y="-339.3" font-family="Times,serif" font-size="14.00">owner :integer</text>
<text text-anchor="start" x="345" y="-324.3" font-family="Times,serif" font-size="14.00">subject_id :integer</text>
<text text-anchor="start" x="345" y="-309.3" font-family="Times,serif" font-size="14.00">level_id :integer</text>
</g>
<!-- User&#45;&gt;Material -->
<g id="edge8" class="edge"><title>User&#45;&gt;Material</title>
<path fill="none" stroke="#6112b1" d="M488.537,-652.542C486.109,-643.621 483.897,-634.72 482,-626 472.601,-582.793 467.037,-534.235 463.746,-492.675"/>
<polygon fill="#6112b1" stroke="#6112b1" points="488.552,-652.596 486.919,-663.439 489.902,-657.41 491.252,-662.224 491.252,-662.224 491.252,-662.224 489.902,-657.41 495.585,-661.009 488.552,-652.596 488.552,-652.596"/>
<polygon fill="#6112b1" stroke="#6112b1" points="463.734,-492.515 467.464,-482.204 463.356,-487.53 462.977,-482.544 462.977,-482.544 462.977,-482.544 463.356,-487.53 458.49,-482.885 463.734,-492.515 463.734,-492.515"/>
</g>
<!-- UserNetwork -->
<g id="node13" class="node"><title>UserNetwork</title>
<path fill="none" stroke="black" d="M873,-339C873,-339 1093,-339 1093,-339 1099,-339 1105,-345 1105,-351 1105,-351 1105,-433 1105,-433 1105,-439 1099,-445 1093,-445 1093,-445 873,-445 873,-445 867,-445 861,-439 861,-433 861,-433 861,-351 861,-351 861,-345 867,-339 873,-339"/>
<text text-anchor="middle" x="983" y="-429.8" font-family="Times,serif" font-size="14.00">UserNetwork</text>
<polyline fill="none" stroke="black" points="861,-422 1105,-422 "/>
<text text-anchor="start" x="869" y="-406.8" font-family="Times,serif" font-size="14.00">id :integer</text>
<text text-anchor="start" x="869" y="-391.8" font-family="Times,serif" font-size="14.00">user_id :integer</text>
<text text-anchor="start" x="869" y="-376.8" font-family="Times,serif" font-size="14.00">network_id :integer</text>
<text text-anchor="start" x="869" y="-361.8" font-family="Times,serif" font-size="14.00">created_at :timestamp without time zone</text>
<text text-anchor="start" x="869" y="-346.8" font-family="Times,serif" font-size="14.00">updated_at :timestamp without time zone</text>
</g>
<!-- User&#45;&gt;UserNetwork -->
<g id="edge3" class="edge"><title>User&#45;&gt;UserNetwork</title>
<path fill="none" stroke="#4ff39f" d="M701.738,-663.532C702.493,-663.019 703.247,-662.509 704,-662 730.087,-644.379 741.438,-646.877 765,-626 809.845,-586.267 806.657,-563.297 847,-519 867.932,-496.016 892.427,-472.441 914.818,-451.991"/>
<ellipse fill="none" stroke="#4ff39f" cx="698.218" cy="-665.943" rx="4.00002" ry="4.00002"/>
<polygon fill="#4ff39f" stroke="#4ff39f" points="914.917,-451.901 925.347,-448.514 918.62,-448.541 922.323,-445.181 922.323,-445.181 922.323,-445.181 918.62,-448.541 919.299,-441.849 914.917,-451.901 914.917,-451.901"/>
</g>
<!-- Network -->
<g id="node14" class="node"><title>Network</title>
<path fill="none" stroke="black" d="M868,-519.5C868,-519.5 1088,-519.5 1088,-519.5 1094,-519.5 1100,-525.5 1100,-531.5 1100,-531.5 1100,-613.5 1100,-613.5 1100,-619.5 1094,-625.5 1088,-625.5 1088,-625.5 868,-625.5 868,-625.5 862,-625.5 856,-619.5 856,-613.5 856,-613.5 856,-531.5 856,-531.5 856,-525.5 862,-519.5 868,-519.5"/>
<text text-anchor="middle" x="978" y="-610.3" font-family="Times,serif" font-size="14.00">Network</text>
<polyline fill="none" stroke="black" points="856,-602.5 1100,-602.5 "/>
<text text-anchor="start" x="864" y="-587.3" font-family="Times,serif" font-size="14.00">id :integer</text>
<text text-anchor="start" x="864" y="-572.3" font-family="Times,serif" font-size="14.00">name :character varying</text>
<text text-anchor="start" x="864" y="-557.3" font-family="Times,serif" font-size="14.00">description :character varying</text>
<text text-anchor="start" x="864" y="-542.3" font-family="Times,serif" font-size="14.00">created_at :timestamp without time zone</text>
<text text-anchor="start" x="864" y="-527.3" font-family="Times,serif" font-size="14.00">updated_at :timestamp without time zone</text>
</g>
<!-- User&#45;&gt;Network -->
<g id="edge7" class="edge"><title>User&#45;&gt;Network</title>
<path fill="none" stroke="#cea45f" d="M703.712,-662.148C703.808,-662.098 703.904,-662.049 704,-662 753.563,-636.623 770.973,-642.986 824,-626 831.282,-623.667 838.746,-621.241 846.272,-618.767"/>
<polygon fill="#cea45f" stroke="#cea45f" points="703.616,-662.199 692.673,-662.916 699.2,-664.544 694.784,-666.89 694.784,-666.89 694.784,-666.89 699.2,-664.544 696.895,-670.864 703.616,-662.199 703.616,-662.199"/>
<polygon fill="#cea45f" stroke="#cea45f" points="846.333,-618.746 857.24,-619.884 851.081,-617.179 855.829,-615.611 855.829,-615.611 855.829,-615.611 851.081,-617.179 854.418,-611.338 846.333,-618.746 846.333,-618.746"/>
</g>
<!-- Level -->
<g id="node15" class="node"><title>Level</title>
<path fill="none" stroke="black" d="M503,-527C503,-527 723,-527 723,-527 729,-527 735,-533 735,-539 735,-539 735,-606 735,-606 735,-612 729,-618 723,-618 723,-618 503,-618 503,-618 497,-618 491,-612 491,-606 491,-606 491,-539 491,-539 491,-533 497,-527 503,-527"/>
<text text-anchor="middle" x="613" y="-602.8" font-family="Times,serif" font-size="14.00">Level</text>
<polyline fill="none" stroke="black" points="491,-595 735,-595 "/>
<text text-anchor="start" x="499" y="-579.8" font-family="Times,serif" font-size="14.00">id :integer</text>
<text text-anchor="start" x="499" y="-564.8" font-family="Times,serif" font-size="14.00">name :character varying</text>
<text text-anchor="start" x="499" y="-549.8" font-family="Times,serif" font-size="14.00">created_at :timestamp without time zone</text>
<text text-anchor="start" x="499" y="-534.8" font-family="Times,serif" font-size="14.00">updated_at :timestamp without time zone</text>
</g>
<!-- User&#45;&gt;Level -->
<g id="edge6" class="edge"><title>User&#45;&gt;Level</title>
<path fill="none" stroke="#83e432" d="M585.475,-652.773C588.484,-644.107 591.4,-635.708 594.139,-627.82"/>
<polygon fill="#83e432" stroke="#83e432" points="585.45,-652.844 577.919,-660.814 583.81,-657.567 582.17,-662.291 582.17,-662.291 582.17,-662.291 583.81,-657.567 586.421,-663.767 585.45,-652.844 585.45,-652.844"/>
<polygon fill="#83e432" stroke="#83e432" points="594.226,-627.569 601.757,-619.598 595.866,-622.846 597.506,-618.122 597.506,-618.122 597.506,-618.122 595.866,-622.846 593.255,-616.646 594.226,-627.569 594.226,-627.569"/>
</g>
<!-- Question -->
<g id="node5" class="node"><title>Question</title>
<path fill="none" stroke="black" d="M349,-143.5C349,-143.5 569,-143.5 569,-143.5 575,-143.5 581,-149.5 581,-155.5 581,-155.5 581,-252.5 581,-252.5 581,-258.5 575,-264.5 569,-264.5 569,-264.5 349,-264.5 349,-264.5 343,-264.5 337,-258.5 337,-252.5 337,-252.5 337,-155.5 337,-155.5 337,-149.5 343,-143.5 349,-143.5"/>
<text text-anchor="middle" x="459" y="-249.3" font-family="Times,serif" font-size="14.00">Question</text>
<polyline fill="none" stroke="black" points="337,-241.5 581,-241.5 "/>
<text text-anchor="start" x="345" y="-226.3" font-family="Times,serif" font-size="14.00">id :integer</text>
<text text-anchor="start" x="345" y="-211.3" font-family="Times,serif" font-size="14.00">type :character varying</text>
<text text-anchor="start" x="345" y="-196.3" font-family="Times,serif" font-size="14.00">content :text</text>
<text text-anchor="start" x="345" y="-181.3" font-family="Times,serif" font-size="14.00">material_id :integer</text>
<text text-anchor="start" x="345" y="-166.3" font-family="Times,serif" font-size="14.00">created_at :timestamp without time zone</text>
<text text-anchor="start" x="345" y="-151.3" font-family="Times,serif" font-size="14.00">updated_at :timestamp without time zone</text>
</g>
<!-- Alternative -->
<g id="node9" class="node"><title>Alternative</title>
<path fill="none" stroke="black" d="M349,-0.5C349,-0.5 569,-0.5 569,-0.5 575,-0.5 581,-6.5 581,-12.5 581,-12.5 581,-94.5 581,-94.5 581,-100.5 575,-106.5 569,-106.5 569,-106.5 349,-106.5 349,-106.5 343,-106.5 337,-100.5 337,-94.5 337,-94.5 337,-12.5 337,-12.5 337,-6.5 343,-0.5 349,-0.5"/>
<text text-anchor="middle" x="459" y="-91.3" font-family="Times,serif" font-size="14.00">Alternative</text>
<polyline fill="none" stroke="black" points="337,-83.5 581,-83.5 "/>
<text text-anchor="start" x="345" y="-68.3" font-family="Times,serif" font-size="14.00">id :integer</text>
<text text-anchor="start" x="345" y="-53.3" font-family="Times,serif" font-size="14.00">content :text</text>
<text text-anchor="start" x="345" y="-38.3" font-family="Times,serif" font-size="14.00">question_id :integer</text>
<text text-anchor="start" x="345" y="-23.3" font-family="Times,serif" font-size="14.00">created_at :timestamp without time zone</text>
<text text-anchor="start" x="345" y="-8.3" font-family="Times,serif" font-size="14.00">updated_at :timestamp without time zone</text>
</g>
<!-- Question&#45;&gt;Alternative -->
<g id="edge9" class="edge"><title>Question&#45;&gt;Alternative</title>
<path fill="none" stroke="#db31a4" d="M459,-135.448C459,-129.304 459,-123.098 459,-117.001"/>
<ellipse fill="none" stroke="#db31a4" cx="459" cy="-139.455" rx="4" ry="4"/>
<polygon fill="#db31a4" stroke="#db31a4" points="459,-116.872 463.5,-106.872 459,-111.872 459,-106.872 459,-106.872 459,-106.872 459,-111.872 454.5,-106.872 459,-116.872 459,-116.872"/>
</g>
<!-- UserMaterial&#45;&gt;Comment -->
<g id="edge10" class="edge"><title>UserMaterial&#45;&gt;Comment</title>
<path fill="none" stroke="#be71e2" d="M122,-135.448C122,-129.304 122,-123.098 122,-117.001"/>
<ellipse fill="none" stroke="#be71e2" cx="122" cy="-139.455" rx="4" ry="4"/>
<polygon fill="#be71e2" stroke="#be71e2" points="122,-116.872 126.5,-106.872 122,-111.872 122,-106.872 122,-106.872 122,-106.872 122,-111.872 117.5,-106.872 122,-116.872 122,-116.872"/>
</g>
<!-- Ability -->
<g id="node7" class="node"><title>Ability</title>
<polygon fill="none" stroke="black" points="885.5,-767.5 885.5,-813.5 940.5,-813.5 940.5,-767.5 885.5,-767.5"/>
<text text-anchor="middle" x="913" y="-798.3" font-family="Times,serif" font-size="14.00">Ability</text>
<polyline fill="none" stroke="black" points="885.5,-790.5 940.5,-790.5 "/>
<text text-anchor="middle" x="913" y="-775.3" font-family="Times,serif" font-size="14.00"> </text>
</g>
<!-- Subject&#45;&gt;UserSubject -->
<g id="edge11" class="edge"><title>Subject&#45;&gt;UserSubject</title>
<path fill="none" stroke="#f1eba8" d="M279.594,-520.096C266.12,-499.362 250.473,-475.283 236.444,-453.696"/>
<ellipse fill="none" stroke="#f1eba8" cx="281.848" cy="-523.563" rx="4.00002" ry="4.00002"/>
<polygon fill="#f1eba8" stroke="#f1eba8" points="236.401,-453.63 234.725,-442.793 233.676,-449.437 230.952,-445.245 230.952,-445.245 230.952,-445.245 233.676,-449.437 227.178,-447.697 236.401,-453.63 236.401,-453.63"/>
</g>
<!-- Subject&#45;&gt;Material -->
<g id="edge12" class="edge"><title>Subject&#45;&gt;Material</title>
<path fill="none" stroke="#5965ab" d="M354.757,-520.448C362.488,-510.995 370.796,-500.838 379.226,-490.532"/>
<ellipse fill="none" stroke="#5965ab" cx="351.998" cy="-523.821" rx="4.00002" ry="4.00002"/>
<polygon fill="#5965ab" stroke="#5965ab" points="379.357,-490.372 389.172,-485.48 382.523,-486.501 385.688,-482.631 385.688,-482.631 385.688,-482.631 382.523,-486.501 382.205,-479.782 379.357,-490.372 379.357,-490.372"/>
</g>
<!-- Material&#45;&gt;Question -->
<g id="edge14" class="edge"><title>Material&#45;&gt;Question</title>
<path fill="none" stroke="#6e25b6" d="M459,-293.098C459,-286.872 459,-280.675 459,-274.62"/>
<ellipse fill="none" stroke="#6e25b6" cx="459" cy="-297.269" rx="4" ry="4"/>
<polygon fill="#6e25b6" stroke="#6e25b6" points="459,-274.583 463.5,-264.583 459,-269.583 459,-264.583 459,-264.583 459,-264.583 459,-269.583 454.5,-264.583 459,-274.583 459,-274.583"/>
</g>
<!-- Material&#45;&gt;UserMaterial -->
<g id="edge13" class="edge"><title>Material&#45;&gt;UserMaterial</title>
<path fill="none" stroke="#6dd249" d="M329.619,-301.928C329.079,-301.617 328.539,-301.308 328,-301 304.352,-287.491 278.481,-274.287 253.304,-262.207"/>
<ellipse fill="none" stroke="#6dd249" cx="333.219" cy="-304.032" rx="4.00002" ry="4.00002"/>
<polygon fill="#6dd249" stroke="#6dd249" points="253.095,-262.107 246,-253.746 248.58,-259.958 244.066,-257.809 244.066,-257.809 244.066,-257.809 248.58,-259.958 242.131,-261.872 253.095,-262.107 253.095,-262.107"/>
</g>
<!-- Network&#45;&gt;UserNetwork -->
<g id="edge15" class="edge"><title>Network&#45;&gt;UserNetwork</title>
<path fill="none" stroke="#0a88a6" d="M979.686,-511.305C980.191,-493.291 980.745,-473.505 981.253,-455.355"/>
<ellipse fill="none" stroke="#0a88a6" cx="979.572" cy="-515.392" rx="4" ry="4"/>
<polygon fill="#0a88a6" stroke="#0a88a6" points="981.258,-455.17 986.037,-445.3 981.398,-450.172 981.539,-445.174 981.539,-445.174 981.539,-445.174 981.398,-450.172 977.04,-445.048 981.258,-455.17 981.258,-455.17"/>
</g>
<!-- Level&#45;&gt;UserLevel -->
<g id="edge16" class="edge"><title>Level&#45;&gt;UserLevel</title>
<path fill="none" stroke="#df8805" d="M644.285,-519.793C656.74,-499.207 671.167,-475.363 684.126,-453.945"/>
<ellipse fill="none" stroke="#df8805" cx="642.045" cy="-523.495" rx="4.00002" ry="4.00002"/>
<polygon fill="#df8805" stroke="#df8805" points="684.213,-453.8 693.24,-447.574 686.801,-449.523 689.39,-445.245 689.39,-445.245 689.39,-445.245 686.801,-449.523 685.54,-442.915 684.213,-453.8 684.213,-453.8"/>
</g>
<!-- Level&#45;&gt;Material -->
<g id="edge17" class="edge"><title>Level&#45;&gt;Material</title>
<path fill="none" stroke="#bc9b18" d="M569.239,-520.778C560.942,-511.16 552.008,-500.805 542.944,-490.299"/>
<ellipse fill="none" stroke="#bc9b18" cx="571.924" cy="-523.889" rx="4.00002" ry="4.00002"/>
<polygon fill="#bc9b18" stroke="#bc9b18" points="542.861,-490.203 539.736,-479.691 539.595,-486.417 536.329,-482.631 536.329,-482.631 536.329,-482.631 539.595,-486.417 532.921,-485.571 542.861,-490.203 542.861,-490.203"/>
</g>
</g>
</svg>
