<?xml version="1.0" encoding="UTF-8" standalone="no"?>
<!DOCTYPE svg PUBLIC "-//W3C//DTD SVG 1.1//EN"
 "http://www.w3.org/Graphics/SVG/1.1/DTD/svg11.dtd">
<!-- Generated by graphviz version 2.38.0 (20140413.2041)
 -->
<!-- Title: models_diagram Pages: 1 -->
<svg width="564pt" height="374pt"
 viewBox="0.00 0.00 564.44 374.00" xmlns="http://www.w3.org/2000/svg" xmlns:xlink="http://www.w3.org/1999/xlink">
<g id="graph0" class="graph" transform="scale(1 1) rotate(0) translate(4 370)">
<title>models_diagram</title>
<polygon fill="none" stroke="none" points="-4,4 -4,-370 560.441,-370 560.441,4 -4,4"/>
<!-- _diagram_info -->
<g id="node1" class="node"><title>_diagram_info</title>
<text text-anchor="start" x="43.8449" y="-351.6" font-family="Times,serif" font-size="13.00">Models diagram</text>
<text text-anchor="start" x="43.8449" y="-337.6" font-family="Times,serif" font-size="13.00">Date: Mar 18 2017 &#45; 22:28</text>
<text text-anchor="start" x="43.8449" y="-323.6" font-family="Times,serif" font-size="13.00">Migration version: 20170319010214</text>
<text text-anchor="start" x="43.8449" y="-309.6" font-family="Times,serif" font-size="13.00">Generated by RailRoady 1.5.2</text>
<text text-anchor="start" x="43.8449" y="-295.6" font-family="Times,serif" font-size="13.00">http://railroady.prestonlee.com</text>
</g>
<!-- UserNetwork -->
<g id="node2" class="node"><title>UserNetwork</title>
<ellipse fill="none" stroke="black" cx="57.8449" cy="-234" rx="57.6901" ry="18"/>
<text text-anchor="middle" x="57.8449" y="-230.3" font-family="Times,serif" font-size="14.00">UserNetwork</text>
</g>
<!-- UserLevel -->
<g id="node3" class="node"><title>UserLevel</title>
<ellipse fill="none" stroke="black" cx="143.845" cy="-162" rx="47.3916" ry="18"/>
<text text-anchor="middle" x="143.845" y="-158.3" font-family="Times,serif" font-size="14.00">UserLevel</text>
</g>
<!-- Level -->
<g id="node4" class="node"><title>Level</title>
<ellipse fill="none" stroke="black" cx="202.845" cy="-234" rx="30.5947" ry="18"/>
<text text-anchor="middle" x="202.845" y="-230.3" font-family="Times,serif" font-size="14.00">Level</text>
</g>
<!-- Level&#45;&gt;UserLevel -->
<g id="edge1" class="edge"><title>Level&#45;&gt;UserLevel</title>
<path fill="none" stroke="#639fec" d="M184.587,-211.338C178.226,-203.791 171.045,-195.271 164.503,-187.51"/>
<ellipse fill="none" stroke="#639fec" cx="187.173" cy="-214.406" rx="4.00002" ry="4.00002"/>
<polygon fill="#639fec" stroke="#639fec" points="164.169,-187.113 161.165,-176.567 160.947,-183.29 157.724,-179.467 157.724,-179.467 157.724,-179.467 160.947,-183.29 154.284,-182.367 164.169,-187.113 164.169,-187.113"/>
</g>
<!-- Material -->
<g id="node10" class="node"><title>Material</title>
<ellipse fill="none" stroke="black" cx="249.845" cy="-162" rx="40.8928" ry="18"/>
<text text-anchor="middle" x="249.845" y="-158.3" font-family="Times,serif" font-size="14.00">Material</text>
</g>
<!-- Level&#45;&gt;Material -->
<g id="edge2" class="edge"><title>Level&#45;&gt;Material</title>
<path fill="none" stroke="#e8a303" d="M218.14,-210.221C222.816,-203.255 227.989,-195.551 232.776,-188.422"/>
<ellipse fill="none" stroke="#e8a303" cx="215.74" cy="-213.795" rx="4.00002" ry="4.00002"/>
<polygon fill="#e8a303" stroke="#e8a303" points="232.992,-188.1 242.303,-182.306 235.779,-183.948 238.567,-179.797 238.567,-179.797 238.567,-179.797 235.779,-183.948 234.831,-177.289 232.992,-188.1 232.992,-188.1"/>
</g>
<!-- Comment -->
<g id="node5" class="node"><title>Comment</title>
<ellipse fill="none" stroke="black" cx="405.845" cy="-18" rx="46.2923" ry="18"/>
<text text-anchor="middle" x="405.845" y="-14.3" font-family="Times,serif" font-size="14.00">Comment</text>
</g>
<!-- ApplicationRecord -->
<g id="node6" class="node"><title>ApplicationRecord</title>
<ellipse fill="none" stroke="black" cx="417.845" cy="-327" rx="77.1866" ry="18"/>
<text text-anchor="middle" x="417.845" y="-323.3" font-family="Times,serif" font-size="14.00">ApplicationRecord</text>
</g>
<!-- UserMaterial -->
<g id="node7" class="node"><title>UserMaterial</title>
<ellipse fill="none" stroke="black" cx="405.845" cy="-90" rx="57.6901" ry="18"/>
<text text-anchor="middle" x="405.845" y="-86.3" font-family="Times,serif" font-size="14.00">UserMaterial</text>
</g>
<!-- UserMaterial&#45;&gt;Comment -->
<g id="edge3" class="edge"><title>UserMaterial&#45;&gt;Comment</title>
<path fill="none" stroke="#a08342" d="M405.845,-63.6398C405.845,-58.0629 405.845,-52.1319 405.845,-46.4761"/>
<ellipse fill="none" stroke="#a08342" cx="405.845" cy="-67.6966" rx="4" ry="4"/>
<polygon fill="#a08342" stroke="#a08342" points="405.845,-46.1043 410.345,-36.1043 405.845,-41.1043 405.845,-36.1043 405.845,-36.1043 405.845,-36.1043 405.845,-41.1043 401.345,-36.1044 405.845,-46.1043 405.845,-46.1043"/>
</g>
<!-- User -->
<g id="node8" class="node"><title>User</title>
<ellipse fill="none" stroke="black" cx="294.845" cy="-327" rx="27.0966" ry="18"/>
<text text-anchor="middle" x="294.845" y="-323.3" font-family="Times,serif" font-size="14.00">User</text>
</g>
<!-- User&#45;&gt;UserNetwork -->
<g id="edge6" class="edge"><title>User&#45;&gt;UserNetwork</title>
<path fill="none" stroke="#66827b" d="M277.865,-303.968C272.36,-298.052 265.849,-292.152 258.845,-288 252.365,-284.159 168.828,-262.781 111.511,-248.377"/>
<ellipse fill="none" stroke="#66827b" cx="280.784" cy="-307.303" rx="4.00002" ry="4.00002"/>
<polygon fill="#66827b" stroke="#66827b" points="111.192,-248.297 102.588,-241.499 106.342,-247.08 101.493,-245.863 101.493,-245.863 101.493,-245.863 106.342,-247.08 100.397,-250.228 111.192,-248.297 111.192,-248.297"/>
</g>
<!-- User&#45;&gt;UserLevel -->
<g id="edge5" class="edge"><title>User&#45;&gt;UserLevel</title>
<path fill="none" stroke="#ed736e" d="M277.588,-304.409C272.076,-298.505 265.63,-292.5 258.845,-288 220.869,-262.815 192.588,-286.522 162.845,-252 148.227,-235.033 143.972,-209.569 143.085,-190.219"/>
<ellipse fill="none" stroke="#ed736e" cx="280.519" cy="-307.711" rx="4.00002" ry="4.00002"/>
<polygon fill="#ed736e" stroke="#ed736e" points="143.085,-190.189 147.394,-180.106 142.99,-185.19 142.895,-180.191 142.895,-180.191 142.895,-180.191 142.99,-185.19 138.396,-180.277 143.085,-190.189 143.085,-190.189"/>
</g>
<!-- User&#45;&gt;Level -->
<g id="edge9" class="edge"><title>User&#45;&gt;Level</title>
<path fill="none" stroke="#7508c6" d="M274.094,-303.689C269.15,-298.487 263.854,-293.007 258.845,-288 248.282,-277.443 236.291,-266.022 226.122,-256.494"/>
<polygon fill="#7508c6" stroke="#7508c6" points="274.149,-303.747 277.737,-314.11 277.58,-307.385 281.011,-311.022 281.011,-311.022 281.011,-311.022 277.58,-307.385 284.284,-307.935 274.149,-303.747 274.149,-303.747"/>
<polygon fill="#7508c6" stroke="#7508c6" points="226.068,-256.444 221.823,-246.333 222.411,-253.034 218.754,-249.624 218.754,-249.624 218.754,-249.624 222.411,-253.034 215.685,-252.915 226.068,-256.444 226.068,-256.444"/>
</g>
<!-- User&#45;&gt;UserMaterial -->
<g id="edge7" class="edge"><title>User&#45;&gt;UserMaterial</title>
<path fill="none" stroke="#5259e1" d="M313.577,-304.999C319.192,-299.203 325.54,-293.109 331.845,-288 355.124,-269.136 368.617,-274.105 388.845,-252 413.133,-225.458 417.385,-214.969 425.845,-180 430.887,-159.155 424.998,-135.458 418.332,-117.761"/>
<ellipse fill="none" stroke="#5259e1" cx="310.554" cy="-308.202" rx="4.00002" ry="4.00002"/>
<polygon fill="#5259e1" stroke="#5259e1" points="418.169,-117.36 418.561,-106.402 416.282,-112.73 414.394,-108.1 414.394,-108.1 414.394,-108.1 416.282,-112.73 410.227,-109.799 418.169,-117.36 418.169,-117.36"/>
</g>
<!-- User&#45;&gt;Material -->
<g id="edge11" class="edge"><title>User&#45;&gt;Material</title>
<path fill="none" stroke="#5e10b0" d="M287.532,-299.511C279.196,-269.317 265.645,-220.231 257.265,-189.876"/>
<polygon fill="#5e10b0" stroke="#5e10b0" points="287.537,-299.531 285.861,-310.368 288.868,-304.35 290.199,-309.17 290.199,-309.17 290.199,-309.17 288.868,-304.35 294.536,-307.973 287.537,-299.531 287.537,-299.531"/>
<polygon fill="#5e10b0" stroke="#5e10b0" points="257.195,-189.622 258.871,-178.785 255.864,-184.802 254.533,-179.983 254.533,-179.983 254.533,-179.983 255.864,-184.802 250.196,-181.18 257.195,-189.622 257.195,-189.622"/>
</g>
<!-- UserSubject -->
<g id="node11" class="node"><title>UserSubject</title>
<ellipse fill="none" stroke="black" cx="362.845" cy="-162" rx="53.8905" ry="18"/>
<text text-anchor="middle" x="362.845" y="-158.3" font-family="Times,serif" font-size="14.00">UserSubject</text>
</g>
<!-- User&#45;&gt;UserSubject -->
<g id="edge4" class="edge"><title>User&#45;&gt;UserSubject</title>
<path fill="none" stroke="#cff81a" d="M314.401,-305.328C319.951,-299.624 326.059,-293.495 331.845,-288 349.428,-271.3 362.844,-274.091 372.845,-252 381.731,-232.371 378.067,-207.915 372.836,-189.609"/>
<ellipse fill="none" stroke="#cff81a" cx="311.417" cy="-308.422" rx="4.00002" ry="4.00002"/>
<polygon fill="#cff81a" stroke="#cff81a" points="372.774,-189.414 374.037,-178.521 371.261,-184.649 369.748,-179.883 369.748,-179.883 369.748,-179.883 371.261,-184.649 365.459,-181.245 372.774,-189.414 372.774,-189.414"/>
</g>
<!-- Subject -->
<g id="node13" class="node"><title>Subject</title>
<ellipse fill="none" stroke="black" cx="326.845" cy="-234" rx="37.0935" ry="18"/>
<text text-anchor="middle" x="326.845" y="-230.3" font-family="Times,serif" font-size="14.00">Subject</text>
</g>
<!-- User&#45;&gt;Subject -->
<g id="edge8" class="edge"><title>User&#45;&gt;Subject</title>
<path fill="none" stroke="#2200fb" d="M304.059,-299.797C308.295,-287.752 313.309,-273.493 317.554,-261.422"/>
<polygon fill="#2200fb" stroke="#2200fb" points="304.032,-299.875 296.469,-307.816 302.373,-304.592 300.714,-309.309 300.714,-309.309 300.714,-309.309 302.373,-304.592 304.959,-310.802 304.032,-299.875 304.032,-299.875"/>
<polygon fill="#2200fb" stroke="#2200fb" points="317.587,-261.327 325.15,-253.386 319.246,-256.61 320.904,-251.893 320.904,-251.893 320.904,-251.893 319.246,-256.61 316.659,-250.4 317.587,-261.327 317.587,-261.327"/>
</g>
<!-- Network -->
<g id="node14" class="node"><title>Network</title>
<ellipse fill="none" stroke="black" cx="514.845" cy="-234" rx="41.6928" ry="18"/>
<text text-anchor="middle" x="514.845" y="-230.3" font-family="Times,serif" font-size="14.00">Network</text>
</g>
<!-- User&#45;&gt;Network -->
<g id="edge10" class="edge"><title>User&#45;&gt;Network</title>
<path fill="none" stroke="#f93dc2" d="M313.535,-302.927C318.952,-297.396 325.211,-291.954 331.845,-288 382.241,-257.964 402.551,-268.522 458.845,-252 463.185,-250.726 467.709,-249.382 472.221,-248.029"/>
<polygon fill="#f93dc2" stroke="#f93dc2" points="313.459,-303.01 303.391,-307.357 310.086,-306.701 306.713,-310.392 306.713,-310.392 306.713,-310.392 310.086,-306.701 310.035,-313.428 313.459,-303.01 313.459,-303.01"/>
<polygon fill="#f93dc2" stroke="#f93dc2" points="472.432,-247.965 483.305,-249.388 477.219,-246.523 482.006,-245.08 482.006,-245.08 482.006,-245.08 477.219,-246.523 480.708,-240.771 472.432,-247.965 472.432,-247.965"/>
</g>
<!-- Alternative -->
<g id="node9" class="node"><title>Alternative</title>
<ellipse fill="none" stroke="black" cx="249.845" cy="-18" rx="50.0912" ry="18"/>
<text text-anchor="middle" x="249.845" y="-14.3" font-family="Times,serif" font-size="14.00">Alternative</text>
</g>
<!-- Material&#45;&gt;UserMaterial -->
<g id="edge12" class="edge"><title>Material&#45;&gt;UserMaterial</title>
<path fill="none" stroke="#9edcfb" d="M285.01,-145.221C308.784,-134.553 340.255,-120.431 365.119,-109.274"/>
<ellipse fill="none" stroke="#9edcfb" cx="281.025" cy="-147.009" rx="4.00002" ry="4.00002"/>
<polygon fill="#9edcfb" stroke="#9edcfb" points="365.171,-109.251 376.137,-109.263 369.733,-107.204 374.295,-105.157 374.295,-105.157 374.295,-105.157 369.733,-107.204 372.453,-101.051 365.171,-109.251 365.171,-109.251"/>
</g>
<!-- Question -->
<g id="node12" class="node"><title>Question</title>
<ellipse fill="none" stroke="black" cx="249.845" cy="-90" rx="42.4939" ry="18"/>
<text text-anchor="middle" x="249.845" y="-86.3" font-family="Times,serif" font-size="14.00">Question</text>
</g>
<!-- Material&#45;&gt;Question -->
<g id="edge13" class="edge"><title>Material&#45;&gt;Question</title>
<path fill="none" stroke="#afce34" d="M249.845,-135.64C249.845,-130.063 249.845,-124.132 249.845,-118.476"/>
<ellipse fill="none" stroke="#afce34" cx="249.845" cy="-139.697" rx="4" ry="4"/>
<polygon fill="#afce34" stroke="#afce34" points="249.845,-118.104 254.345,-108.104 249.845,-113.104 249.845,-108.104 249.845,-108.104 249.845,-108.104 249.845,-113.104 245.345,-108.104 249.845,-118.104 249.845,-118.104"/>
</g>
<!-- Question&#45;&gt;Alternative -->
<g id="edge14" class="edge"><title>Question&#45;&gt;Alternative</title>
<path fill="none" stroke="#ad55d6" d="M249.845,-63.6398C249.845,-58.0629 249.845,-52.1319 249.845,-46.4761"/>
<ellipse fill="none" stroke="#ad55d6" cx="249.845" cy="-67.6966" rx="4" ry="4"/>
<polygon fill="#ad55d6" stroke="#ad55d6" points="249.845,-46.1043 254.345,-36.1043 249.845,-41.1043 249.845,-36.1043 249.845,-36.1043 249.845,-36.1043 249.845,-41.1043 245.345,-36.1044 249.845,-46.1043 249.845,-46.1043"/>
</g>
<!-- Subject&#45;&gt;Material -->
<g id="edge16" class="edge"><title>Subject&#45;&gt;Material</title>
<path fill="none" stroke="#128698" d="M304.138,-212.358C294.794,-203.863 283.949,-194.004 274.42,-185.341"/>
<ellipse fill="none" stroke="#128698" cx="307.177" cy="-215.12" rx="4.00002" ry="4.00002"/>
<polygon fill="#128698" stroke="#128698" points="274.185,-185.128 269.813,-175.071 270.486,-181.764 266.786,-178.401 266.786,-178.401 266.786,-178.401 270.486,-181.764 263.759,-181.731 274.185,-185.128 274.185,-185.128"/>
</g>
<!-- Subject&#45;&gt;UserSubject -->
<g id="edge15" class="edge"><title>Subject&#45;&gt;UserSubject</title>
<path fill="none" stroke="#3cd3c4" d="M339.156,-209.062C342.462,-202.632 346.055,-195.647 349.419,-189.106"/>
<ellipse fill="none" stroke="#3cd3c4" cx="337.206" cy="-212.854" rx="4.00002" ry="4.00002"/>
<polygon fill="#3cd3c4" stroke="#3cd3c4" points="349.551,-188.849 358.126,-182.014 351.838,-184.403 354.125,-179.956 354.125,-179.956 354.125,-179.956 351.838,-184.403 350.123,-177.898 349.551,-188.849 349.551,-188.849"/>
</g>
</g>
</svg>
