<?xml version="1.0" encoding="UTF-8" standalone="no"?>
<!DOCTYPE svg PUBLIC "-//W3C//DTD SVG 1.1//EN"
 "http://www.w3.org/Graphics/SVG/1.1/DTD/svg11.dtd">
<!-- Generated by graphviz version 2.38.0 (20140413.2041)
 -->
<!-- Title: models_diagram Pages: 1 -->
<svg width="541pt" height="374pt"
 viewBox="0.00 0.00 540.50 374.00" xmlns="http://www.w3.org/2000/svg" xmlns:xlink="http://www.w3.org/1999/xlink">
<g id="graph0" class="graph" transform="scale(1 1) rotate(0) translate(4 370)">
<title>models_diagram</title>
<polygon fill="none" stroke="none" points="-4,4 -4,-370 536.5,-370 536.5,4 -4,4"/>
<!-- _diagram_info -->
<g id="node1" class="node"><title>_diagram_info</title>
<text text-anchor="start" x="8" y="-351.6" font-family="Times,serif" font-size="13.00">Models diagram</text>
<text text-anchor="start" x="8" y="-337.6" font-family="Times,serif" font-size="13.00">Date: Mar 18 2017 &#45; 17:12</text>
<text text-anchor="start" x="8" y="-323.6" font-family="Times,serif" font-size="13.00">Migration version: 20170318010345</text>
<text text-anchor="start" x="8" y="-309.6" font-family="Times,serif" font-size="13.00">Generated by RailRoady 1.5.2</text>
<text text-anchor="start" x="8" y="-295.6" font-family="Times,serif" font-size="13.00">http://railroady.prestonlee.com</text>
</g>
<!-- Comment -->
<g id="node2" class="node"><title>Comment</title>
<ellipse fill="none" stroke="black" cx="73" cy="-18" rx="46.2923" ry="18"/>
<text text-anchor="middle" x="73" y="-14.3" font-family="Times,serif" font-size="14.00">Comment</text>
</g>
<!-- ApplicationRecord -->
<g id="node3" class="node"><title>ApplicationRecord</title>
<ellipse fill="none" stroke="black" cx="382" cy="-327" rx="77.1866" ry="18"/>
<text text-anchor="middle" x="382" y="-323.3" font-family="Times,serif" font-size="14.00">ApplicationRecord</text>
</g>
<!-- User -->
<g id="node4" class="node"><title>User</title>
<ellipse fill="none" stroke="black" cx="259" cy="-327" rx="27.0966" ry="18"/>
<text text-anchor="middle" x="259" y="-323.3" font-family="Times,serif" font-size="14.00">User</text>
</g>
<!-- UserMaterial -->
<g id="node6" class="node"><title>UserMaterial</title>
<ellipse fill="none" stroke="black" cx="73" cy="-90" rx="57.6901" ry="18"/>
<text text-anchor="middle" x="73" y="-86.3" font-family="Times,serif" font-size="14.00">UserMaterial</text>
</g>
<!-- User&#45;&gt;UserMaterial -->
<g id="edge4" class="edge"><title>User&#45;&gt;UserMaterial</title>
<path fill="none" stroke="#5db46a" d="M241.924,-304.127C236.416,-298.215 229.928,-292.277 223,-288 175.982,-258.973 148.839,-284.291 104,-252 72.1786,-229.083 64.8936,-217.367 53,-180 46.3941,-159.245 52.6584,-135.104 59.8708,-117.205"/>
<ellipse fill="none" stroke="#5db46a" cx="244.847" cy="-307.449" rx="4.00002" ry="4.00002"/>
<polygon fill="#5db46a" stroke="#5db46a" points="59.903,-117.131 68.0246,-109.763 61.9013,-112.547 63.8996,-107.964 63.8996,-107.964 63.8996,-107.964 61.9013,-112.547 59.7746,-106.166 59.903,-117.131 59.903,-117.131"/>
</g>
<!-- Subject -->
<g id="node8" class="node"><title>Subject</title>
<ellipse fill="none" stroke="black" cx="164" cy="-234" rx="37.0935" ry="18"/>
<text text-anchor="middle" x="164" y="-230.3" font-family="Times,serif" font-size="14.00">Subject</text>
</g>
<!-- User&#45;&gt;Subject -->
<g id="edge5" class="edge"><title>User&#45;&gt;Subject</title>
<path fill="none" stroke="#b84a5d" d="M238.599,-303.862C233.579,-298.584 228.162,-293.027 223,-288 212.152,-277.436 199.737,-266.168 189.103,-256.75"/>
<polygon fill="#b84a5d" stroke="#b84a5d" points="238.742,-304.015 242.314,-314.383 242.167,-307.657 245.592,-311.3 245.592,-311.3 245.592,-311.3 242.167,-307.657 248.871,-308.217 238.742,-304.015 238.742,-304.015"/>
<polygon fill="#b84a5d" stroke="#b84a5d" points="188.882,-256.556 184.345,-246.572 185.128,-253.253 181.373,-249.951 181.373,-249.951 181.373,-249.951 185.128,-253.253 178.401,-253.33 188.882,-256.556 188.882,-256.556"/>
</g>
<!-- UserSubject -->
<g id="node10" class="node"><title>UserSubject</title>
<ellipse fill="none" stroke="black" cx="116" cy="-162" rx="53.8905" ry="18"/>
<text text-anchor="middle" x="116" y="-158.3" font-family="Times,serif" font-size="14.00">UserSubject</text>
</g>
<!-- User&#45;&gt;UserSubject -->
<g id="edge1" class="edge"><title>User&#45;&gt;UserSubject</title>
<path fill="none" stroke="#13502a" d="M241.823,-304.286C236.313,-298.378 229.849,-292.403 223,-288 181.502,-261.322 147.124,-291.82 118,-252 105.144,-234.422 105.834,-209.231 109.054,-190.134"/>
<ellipse fill="none" stroke="#13502a" cx="244.751" cy="-307.597" rx="4.00002" ry="4.00002"/>
<polygon fill="#13502a" stroke="#13502a" points="109.071,-190.043 115.445,-181.12 110.052,-185.141 111.032,-180.238 111.032,-180.238 111.032,-180.238 110.052,-185.141 106.62,-179.355 109.071,-190.043 109.071,-190.043"/>
</g>
<!-- UserLevel -->
<g id="node11" class="node"><title>UserLevel</title>
<ellipse fill="none" stroke="black" cx="335" cy="-162" rx="47.3916" ry="18"/>
<text text-anchor="middle" x="335" y="-158.3" font-family="Times,serif" font-size="14.00">UserLevel</text>
</g>
<!-- User&#45;&gt;UserLevel -->
<g id="edge2" class="edge"><title>User&#45;&gt;UserLevel</title>
<path fill="none" stroke="#bf8a54" d="M278.83,-305.41C298.699,-284.677 326.551,-255.293 328,-252 336.517,-232.642 337.943,-208.634 337.418,-190.434"/>
<ellipse fill="none" stroke="#bf8a54" cx="275.982" cy="-308.377" rx="4.00002" ry="4.00002"/>
<polygon fill="#bf8a54" stroke="#bf8a54" points="337.406,-190.194 341.398,-179.981 337.155,-185.201 336.904,-180.207 336.904,-180.207 336.904,-180.207 337.155,-185.201 332.409,-180.433 337.406,-190.194 337.406,-190.194"/>
</g>
<!-- Material -->
<g id="node12" class="node"><title>Material</title>
<ellipse fill="none" stroke="black" cx="229" cy="-162" rx="40.8928" ry="18"/>
<text text-anchor="middle" x="229" y="-158.3" font-family="Times,serif" font-size="14.00">Material</text>
</g>
<!-- User&#45;&gt;Material -->
<g id="edge8" class="edge"><title>User&#45;&gt;Material</title>
<path fill="none" stroke="#46aa07" d="M253.992,-298.791C248.447,-268.664 239.561,-220.382 234.014,-190.242"/>
<polygon fill="#46aa07" stroke="#46aa07" points="254.036,-299.029 251.421,-309.679 254.941,-303.947 255.846,-308.864 255.846,-308.864 255.846,-308.864 254.941,-303.947 260.272,-308.05 254.036,-299.029 254.036,-299.029"/>
<polygon fill="#46aa07" stroke="#46aa07" points="234.012,-190.232 236.628,-179.582 233.107,-185.314 232.202,-180.397 232.202,-180.397 232.202,-180.397 233.107,-185.314 227.776,-181.211 234.012,-190.232 234.012,-190.232"/>
</g>
<!-- UserNetwork -->
<g id="node13" class="node"><title>UserNetwork</title>
<ellipse fill="none" stroke="black" cx="458" cy="-162" rx="57.6901" ry="18"/>
<text text-anchor="middle" x="458" y="-158.3" font-family="Times,serif" font-size="14.00">UserNetwork</text>
</g>
<!-- User&#45;&gt;UserNetwork -->
<g id="edge3" class="edge"><title>User&#45;&gt;UserNetwork</title>
<path fill="none" stroke="#47659a" d="M278.217,-304.953C283.764,-299.246 289.956,-293.209 296,-288 316.742,-270.122 324.164,-268.523 346,-252 375.281,-229.844 408.096,-203.596 430.598,-185.371"/>
<ellipse fill="none" stroke="#47659a" cx="275.249" cy="-308.067" rx="4.00002" ry="4.00002"/>
<polygon fill="#47659a" stroke="#47659a" points="430.631,-185.344 441.231,-182.536 434.513,-182.193 438.395,-179.042 438.395,-179.042 438.395,-179.042 434.513,-182.193 435.559,-175.548 430.631,-185.344 430.631,-185.344"/>
</g>
<!-- Network -->
<g id="node14" class="node"><title>Network</title>
<ellipse fill="none" stroke="black" cx="457" cy="-234" rx="41.6928" ry="18"/>
<text text-anchor="middle" x="457" y="-230.3" font-family="Times,serif" font-size="14.00">Network</text>
</g>
<!-- User&#45;&gt;Network -->
<g id="edge7" class="edge"><title>User&#45;&gt;Network</title>
<path fill="none" stroke="#f86990" d="M277.804,-303.114C283.22,-297.581 289.45,-292.092 296,-288 306.267,-281.586 369.857,-261.519 413.977,-248.002"/>
<polygon fill="#f86990" stroke="#f86990" points="277.732,-303.192 267.654,-307.513 274.351,-306.874 270.969,-310.557 270.969,-310.557 270.969,-310.557 274.351,-306.874 274.283,-313.601 277.732,-303.192 277.732,-303.192"/>
<polygon fill="#f86990" stroke="#f86990" points="414.058,-247.977 424.936,-249.359 418.84,-246.516 423.622,-245.056 423.622,-245.056 423.622,-245.056 418.84,-246.516 422.307,-240.752 414.058,-247.977 414.058,-247.977"/>
</g>
<!-- Level -->
<g id="node15" class="node"><title>Level</title>
<ellipse fill="none" stroke="black" cx="288" cy="-234" rx="30.5947" ry="18"/>
<text text-anchor="middle" x="288" y="-230.3" font-family="Times,serif" font-size="14.00">Level</text>
</g>
<!-- User&#45;&gt;Level -->
<g id="edge6" class="edge"><title>User&#45;&gt;Level</title>
<path fill="none" stroke="#1299bd" d="M267.491,-299.356C271.272,-287.493 275.714,-273.552 279.496,-261.684"/>
<polygon fill="#1299bd" stroke="#1299bd" points="267.355,-299.781 260.031,-307.943 265.837,-304.545 264.319,-309.309 264.319,-309.309 264.319,-309.309 265.837,-304.545 268.607,-310.676 267.355,-299.781 267.355,-299.781"/>
<polygon fill="#1299bd" stroke="#1299bd" points="279.58,-261.421 286.904,-253.26 281.098,-256.657 282.616,-251.893 282.616,-251.893 282.616,-251.893 281.098,-256.657 278.329,-250.527 279.58,-261.421 279.58,-261.421"/>
</g>
<!-- Question -->
<g id="node5" class="node"><title>Question</title>
<ellipse fill="none" stroke="black" cx="229" cy="-90" rx="42.4939" ry="18"/>
<text text-anchor="middle" x="229" y="-86.3" font-family="Times,serif" font-size="14.00">Question</text>
</g>
<!-- Alternative -->
<g id="node9" class="node"><title>Alternative</title>
<ellipse fill="none" stroke="black" cx="229" cy="-18" rx="50.0912" ry="18"/>
<text text-anchor="middle" x="229" y="-14.3" font-family="Times,serif" font-size="14.00">Alternative</text>
</g>
<!-- Question&#45;&gt;Alternative -->
<g id="edge9" class="edge"><title>Question&#45;&gt;Alternative</title>
<path fill="none" stroke="#b08a21" d="M229,-63.6398C229,-58.0629 229,-52.1319 229,-46.4761"/>
<ellipse fill="none" stroke="#b08a21" cx="229" cy="-67.6966" rx="4" ry="4"/>
<polygon fill="#b08a21" stroke="#b08a21" points="229,-46.1043 233.5,-36.1043 229,-41.1043 229,-36.1043 229,-36.1043 229,-36.1043 229,-41.1043 224.5,-36.1044 229,-46.1043 229,-46.1043"/>
</g>
<!-- UserMaterial&#45;&gt;Comment -->
<g id="edge10" class="edge"><title>UserMaterial&#45;&gt;Comment</title>
<path fill="none" stroke="#725d6c" d="M73,-63.6398C73,-58.0629 73,-52.1319 73,-46.4761"/>
<ellipse fill="none" stroke="#725d6c" cx="73" cy="-67.6966" rx="4" ry="4"/>
<polygon fill="#725d6c" stroke="#725d6c" points="73.0001,-46.1043 77.5,-36.1043 73,-41.1043 73,-36.1043 73,-36.1043 73,-36.1043 73,-41.1043 68.5,-36.1044 73.0001,-46.1043 73.0001,-46.1043"/>
</g>
<!-- Ability -->
<g id="node7" class="node"><title>Ability</title>
<polygon fill="none" stroke="black" points="532.5,-345 477.5,-345 477.5,-309 532.5,-309 532.5,-345"/>
<text text-anchor="middle" x="505" y="-323.3" font-family="Times,serif" font-size="14.00">Ability</text>
</g>
<!-- Subject&#45;&gt;UserSubject -->
<g id="edge11" class="edge"><title>Subject&#45;&gt;UserSubject</title>
<path fill="none" stroke="#d2202c" d="M148.339,-210.161C143.541,-203.164 138.235,-195.426 133.332,-188.276"/>
<ellipse fill="none" stroke="#d2202c" cx="150.605" cy="-213.466" rx="4.00002" ry="4.00002"/>
<polygon fill="#d2202c" stroke="#d2202c" points="133.061,-187.881 131.117,-177.089 130.233,-183.757 127.406,-179.633 127.406,-179.633 127.406,-179.633 130.233,-183.757 123.694,-182.178 133.061,-187.881 133.061,-187.881"/>
</g>
<!-- Subject&#45;&gt;Material -->
<g id="edge12" class="edge"><title>Subject&#45;&gt;Material</title>
<path fill="none" stroke="#b72158" d="M184.248,-211.194C191.547,-203.334 199.811,-194.434 207.234,-186.441"/>
<ellipse fill="none" stroke="#b72158" cx="181.471" cy="-214.185" rx="4.00002" ry="4.00002"/>
<polygon fill="#b72158" stroke="#b72158" points="207.504,-186.149 217.606,-181.883 210.907,-182.485 214.309,-178.821 214.309,-178.821 214.309,-178.821 210.907,-182.485 211.011,-175.759 207.504,-186.149 207.504,-186.149"/>
</g>
<!-- Material&#45;&gt;Question -->
<g id="edge14" class="edge"><title>Material&#45;&gt;Question</title>
<path fill="none" stroke="#8da971" d="M229,-135.64C229,-130.063 229,-124.132 229,-118.476"/>
<ellipse fill="none" stroke="#8da971" cx="229" cy="-139.697" rx="4" ry="4"/>
<polygon fill="#8da971" stroke="#8da971" points="229,-118.104 233.5,-108.104 229,-113.104 229,-108.104 229,-108.104 229,-108.104 229,-113.104 224.5,-108.104 229,-118.104 229,-118.104"/>
</g>
<!-- Material&#45;&gt;UserMaterial -->
<g id="edge13" class="edge"><title>Material&#45;&gt;UserMaterial</title>
<path fill="none" stroke="#0d5b65" d="M193.835,-145.221C170.061,-134.553 138.59,-120.431 113.726,-109.274"/>
<ellipse fill="none" stroke="#0d5b65" cx="197.82" cy="-147.009" rx="4.00002" ry="4.00002"/>
<polygon fill="#0d5b65" stroke="#0d5b65" points="113.673,-109.251 106.392,-101.051 109.112,-107.204 104.55,-105.157 104.55,-105.157 104.55,-105.157 109.112,-107.204 102.708,-109.263 113.673,-109.251 113.673,-109.251"/>
</g>
<!-- Network&#45;&gt;UserNetwork -->
<g id="edge15" class="edge"><title>Network&#45;&gt;UserNetwork</title>
<path fill="none" stroke="#ee0fa4" d="M457.362,-207.64C457.442,-202.063 457.527,-196.132 457.607,-190.476"/>
<ellipse fill="none" stroke="#ee0fa4" cx="457.304" cy="-211.697" rx="4" ry="4"/>
<polygon fill="#ee0fa4" stroke="#ee0fa4" points="457.613,-190.103 462.255,-180.169 457.684,-185.104 457.756,-180.104 457.756,-180.104 457.756,-180.104 457.684,-185.104 453.256,-180.04 457.613,-190.103 457.613,-190.103"/>
</g>
<!-- Level&#45;&gt;UserLevel -->
<g id="edge16" class="edge"><title>Level&#45;&gt;UserLevel</title>
<path fill="none" stroke="#79bd68" d="M303.295,-210.221C307.972,-203.255 313.144,-195.551 317.931,-188.422"/>
<ellipse fill="none" stroke="#79bd68" cx="300.895" cy="-213.795" rx="4.00002" ry="4.00002"/>
<polygon fill="#79bd68" stroke="#79bd68" points="318.147,-188.1 327.458,-182.306 320.935,-183.948 323.722,-179.797 323.722,-179.797 323.722,-179.797 320.935,-183.948 319.986,-177.289 318.147,-188.1 318.147,-188.1"/>
</g>
<!-- Level&#45;&gt;Material -->
<g id="edge17" class="edge"><title>Level&#45;&gt;Material</title>
<path fill="none" stroke="#8bc852" d="M269.742,-211.338C263.381,-203.791 256.2,-195.271 249.658,-187.51"/>
<ellipse fill="none" stroke="#8bc852" cx="272.328" cy="-214.406" rx="4.00002" ry="4.00002"/>
<polygon fill="#8bc852" stroke="#8bc852" points="249.324,-187.113 246.32,-176.567 246.102,-183.29 242.879,-179.467 242.879,-179.467 242.879,-179.467 246.102,-183.29 239.439,-182.367 249.324,-187.113 249.324,-187.113"/>
</g>
</g>
</svg>
