<?xml version="1.0" encoding="UTF-8" standalone="no"?>
<!DOCTYPE svg PUBLIC "-//W3C//DTD SVG 1.1//EN"
 "http://www.w3.org/Graphics/SVG/1.1/DTD/svg11.dtd">
<!-- Generated by graphviz version 2.38.0 (20140413.2041)
 -->
<!-- Title: models_diagram Pages: 1 -->
<svg width="599pt" height="302pt"
 viewBox="0.00 0.00 598.79 302.00" xmlns="http://www.w3.org/2000/svg" xmlns:xlink="http://www.w3.org/1999/xlink">
<g id="graph0" class="graph" transform="scale(1 1) rotate(0) translate(4 298)">
<title>models_diagram</title>
<polygon fill="none" stroke="none" points="-4,4 -4,-298 594.79,-298 594.79,4 -4,4"/>
<!-- _diagram_info -->
<g id="node1" class="node"><title>_diagram_info</title>
<text text-anchor="start" x="59.9452" y="-279.6" font-family="Times,serif" font-size="13.00">Models diagram</text>
<text text-anchor="start" x="59.9452" y="-265.6" font-family="Times,serif" font-size="13.00">Date: Mar 16 2017 &#45; 17:37</text>
<text text-anchor="start" x="59.9452" y="-251.6" font-family="Times,serif" font-size="13.00">Migration version: 20170312040125</text>
<text text-anchor="start" x="59.9452" y="-237.6" font-family="Times,serif" font-size="13.00">Generated by RailRoady 1.5.2</text>
<text text-anchor="start" x="59.9452" y="-223.6" font-family="Times,serif" font-size="13.00">http://railroady.prestonlee.com</text>
</g>
<!-- Comment -->
<g id="node2" class="node"><title>Comment</title>
<ellipse fill="none" stroke="black" cx="183.945" cy="-18" rx="46.2923" ry="18"/>
<text text-anchor="middle" x="183.945" y="-14.3" font-family="Times,serif" font-size="14.00">Comment</text>
</g>
<!-- ApplicationRecord -->
<g id="node3" class="node"><title>ApplicationRecord</title>
<ellipse fill="none" stroke="black" cx="433.945" cy="-255" rx="77.1866" ry="18"/>
<text text-anchor="middle" x="433.945" y="-251.3" font-family="Times,serif" font-size="14.00">ApplicationRecord</text>
</g>
<!-- User -->
<g id="node4" class="node"><title>User</title>
<ellipse fill="none" stroke="black" cx="310.945" cy="-255" rx="27.0966" ry="18"/>
<text text-anchor="middle" x="310.945" y="-251.3" font-family="Times,serif" font-size="14.00">User</text>
</g>
<!-- UserMaterial -->
<g id="node6" class="node"><title>UserMaterial</title>
<ellipse fill="none" stroke="black" cx="183.945" cy="-90" rx="57.6901" ry="18"/>
<text text-anchor="middle" x="183.945" y="-86.3" font-family="Times,serif" font-size="14.00">UserMaterial</text>
</g>
<!-- User&#45;&gt;UserMaterial -->
<g id="edge4" class="edge"><title>User&#45;&gt;UserMaterial</title>
<path fill="none" stroke="#82b817" d="M292.279,-232.955C286.882,-227.248 280.85,-221.211 274.945,-216 254.683,-198.12 243.127,-200.858 225.945,-180 210.66,-161.444 199.489,-136.398 192.527,-117.603"/>
<ellipse fill="none" stroke="#82b817" cx="295.13" cy="-236.03" rx="4.00002" ry="4.00002"/>
<polygon fill="#82b817" stroke="#82b817" points="192.518,-117.576 193.424,-106.648 190.85,-112.862 189.182,-108.149 189.182,-108.149 189.182,-108.149 190.85,-112.862 184.94,-109.65 192.518,-117.576 192.518,-117.576"/>
</g>
<!-- Subject -->
<g id="node7" class="node"><title>Subject</title>
<ellipse fill="none" stroke="black" cx="60.9452" cy="-162" rx="37.0935" ry="18"/>
<text text-anchor="middle" x="60.9452" y="-158.3" font-family="Times,serif" font-size="14.00">Subject</text>
</g>
<!-- User&#45;&gt;Subject -->
<g id="edge5" class="edge"><title>User&#45;&gt;Subject</title>
<path fill="none" stroke="#2a73d0" d="M292.596,-230.36C287.405,-224.963 281.395,-219.727 274.945,-216 215.584,-181.697 191.414,-196.802 124.945,-180 117.583,-178.139 109.759,-176.107 102.202,-174.115"/>
<polygon fill="#2a73d0" stroke="#2a73d0" points="292.936,-230.743 296.204,-241.21 296.253,-234.484 299.571,-238.225 299.571,-238.225 299.571,-238.225 296.253,-234.484 302.938,-235.239 292.936,-230.743 292.936,-230.743"/>
<polygon fill="#2a73d0" stroke="#2a73d0" points="102.148,-174.101 93.6351,-167.189 97.3151,-172.82 92.482,-171.538 92.482,-171.538 92.482,-171.538 97.3151,-172.82 91.3289,-175.888 102.148,-174.101 102.148,-174.101"/>
</g>
<!-- UserSubject -->
<g id="node9" class="node"><title>UserSubject</title>
<ellipse fill="none" stroke="black" cx="53.9452" cy="-90" rx="53.8905" ry="18"/>
<text text-anchor="middle" x="53.9452" y="-86.3" font-family="Times,serif" font-size="14.00">UserSubject</text>
</g>
<!-- User&#45;&gt;UserSubject -->
<g id="edge1" class="edge"><title>User&#45;&gt;UserSubject</title>
<path fill="none" stroke="#e08fb1" d="M293.139,-232.517C287.682,-226.713 281.404,-220.735 274.945,-216 245.448,-194.376 233.067,-197.49 200.945,-180 160.697,-158.086 115.823,-130.426 86.3658,-111.806"/>
<ellipse fill="none" stroke="#e08fb1" cx="296.025" cy="-235.712" rx="4.00002" ry="4.00002"/>
<polygon fill="#e08fb1" stroke="#e08fb1" points="86.185,-111.692 80.1518,-102.535 81.963,-109.013 77.741,-106.334 77.741,-106.334 77.741,-106.334 81.963,-109.013 75.3303,-110.134 86.185,-111.692 86.185,-111.692"/>
</g>
<!-- UserLevel -->
<g id="node10" class="node"><title>UserLevel</title>
<ellipse fill="none" stroke="black" cx="409.945" cy="-90" rx="47.3916" ry="18"/>
<text text-anchor="middle" x="409.945" y="-86.3" font-family="Times,serif" font-size="14.00">UserLevel</text>
</g>
<!-- User&#45;&gt;UserLevel -->
<g id="edge2" class="edge"><title>User&#45;&gt;UserLevel</title>
<path fill="none" stroke="#fd167a" d="M320.47,-229.645C329.955,-206.673 345.707,-171.723 363.945,-144 370.61,-133.869 379.046,-123.604 386.868,-114.841"/>
<ellipse fill="none" stroke="#fd167a" cx="318.888" cy="-233.534" rx="4.00001" ry="4.00001"/>
<polygon fill="#fd167a" stroke="#fd167a" points="387.056,-114.636 397.129,-110.302 390.433,-110.949 393.811,-107.263 393.811,-107.263 393.811,-107.263 390.433,-110.949 390.493,-104.223 387.056,-114.636 387.056,-114.636"/>
</g>
<!-- Material -->
<g id="node11" class="node"><title>Material</title>
<ellipse fill="none" stroke="black" cx="275.945" cy="-162" rx="40.8928" ry="18"/>
<text text-anchor="middle" x="275.945" y="-158.3" font-family="Times,serif" font-size="14.00">Material</text>
</g>
<!-- User&#45;&gt;Material -->
<g id="edge8" class="edge"><title>User&#45;&gt;Material</title>
<path fill="none" stroke="#b31d15" d="M300.867,-227.797C296.235,-215.752 290.75,-201.493 286.107,-189.422"/>
<polygon fill="#b31d15" stroke="#b31d15" points="300.936,-227.976 300.326,-238.925 302.731,-232.642 304.526,-237.309 304.526,-237.309 304.526,-237.309 302.731,-232.642 308.726,-235.694 300.936,-227.976 300.936,-227.976"/>
<polygon fill="#b31d15" stroke="#b31d15" points="286.032,-189.227 286.643,-178.278 284.238,-184.56 282.443,-179.893 282.443,-179.893 282.443,-179.893 284.238,-184.56 278.243,-181.509 286.032,-189.227 286.032,-189.227"/>
</g>
<!-- UserNetwork -->
<g id="node12" class="node"><title>UserNetwork</title>
<ellipse fill="none" stroke="black" cx="532.945" cy="-90" rx="57.6901" ry="18"/>
<text text-anchor="middle" x="532.945" y="-86.3" font-family="Times,serif" font-size="14.00">UserNetwork</text>
</g>
<!-- User&#45;&gt;UserNetwork -->
<g id="edge3" class="edge"><title>User&#45;&gt;UserNetwork</title>
<path fill="none" stroke="#b4de95" d="M328.407,-232.802C334.154,-226.777 340.892,-220.608 347.945,-216 386.092,-191.075 405.633,-204.67 443.945,-180 451.521,-175.122 486.279,-139.585 510.049,-114.921"/>
<ellipse fill="none" stroke="#b4de95" cx="325.71" cy="-235.76" rx="4.00002" ry="4.00002"/>
<polygon fill="#b4de95" stroke="#b4de95" points="510.098,-114.869 520.274,-110.781 513.564,-111.265 517.03,-107.661 517.03,-107.661 517.03,-107.661 513.564,-111.265 513.787,-104.542 510.098,-114.869 510.098,-114.869"/>
</g>
<!-- Network -->
<g id="node13" class="node"><title>Network</title>
<ellipse fill="none" stroke="black" cx="532.945" cy="-162" rx="41.6928" ry="18"/>
<text text-anchor="middle" x="532.945" y="-158.3" font-family="Times,serif" font-size="14.00">Network</text>
</g>
<!-- User&#45;&gt;Network -->
<g id="edge7" class="edge"><title>User&#45;&gt;Network</title>
<path fill="none" stroke="#aea065" d="M329.624,-230.909C335.041,-225.378 341.303,-219.94 347.945,-216 399.139,-185.63 419.796,-196.646 476.945,-180 481.288,-178.735 485.813,-177.396 490.327,-176.047"/>
<polygon fill="#aea065" stroke="#aea065" points="329.548,-230.992 319.481,-235.341 326.176,-234.684 322.804,-238.376 322.804,-238.376 322.804,-238.376 326.176,-234.684 326.126,-241.411 329.548,-230.992 329.548,-230.992"/>
<polygon fill="#aea065" stroke="#aea065" points="490.537,-175.984 501.41,-177.411 495.325,-174.543 500.113,-173.102 500.113,-173.102 500.113,-173.102 495.325,-174.543 498.817,-168.793 490.537,-175.984 490.537,-175.984"/>
</g>
<!-- Level -->
<g id="node14" class="node"><title>Level</title>
<ellipse fill="none" stroke="black" cx="403.945" cy="-162" rx="30.5947" ry="18"/>
<text text-anchor="middle" x="403.945" y="-158.3" font-family="Times,serif" font-size="14.00">Level</text>
</g>
<!-- User&#45;&gt;Level -->
<g id="edge6" class="edge"><title>User&#45;&gt;Level</title>
<path fill="none" stroke="#e2b1b5" d="M332.066,-232.003C337.219,-226.721 342.747,-221.125 347.945,-216 358.58,-205.515 370.58,-194.103 380.737,-184.564"/>
<polygon fill="#e2b1b5" stroke="#e2b1b5" points="331.826,-232.25 321.634,-236.295 328.345,-235.839 324.864,-239.428 324.864,-239.428 324.864,-239.428 328.345,-235.839 328.094,-242.561 331.826,-232.25 331.826,-232.25"/>
<polygon fill="#e2b1b5" stroke="#e2b1b5" points="380.791,-184.514 391.167,-180.965 384.441,-181.097 388.091,-177.68 388.091,-177.68 388.091,-177.68 384.441,-181.097 385.016,-174.395 380.791,-184.514 380.791,-184.514"/>
</g>
<!-- Question -->
<g id="node5" class="node"><title>Question</title>
<ellipse fill="none" stroke="black" cx="301.945" cy="-90" rx="42.4939" ry="18"/>
<text text-anchor="middle" x="301.945" y="-86.3" font-family="Times,serif" font-size="14.00">Question</text>
</g>
<!-- Alternative -->
<g id="node8" class="node"><title>Alternative</title>
<ellipse fill="none" stroke="black" cx="301.945" cy="-18" rx="50.0912" ry="18"/>
<text text-anchor="middle" x="301.945" y="-14.3" font-family="Times,serif" font-size="14.00">Alternative</text>
</g>
<!-- Question&#45;&gt;Alternative -->
<g id="edge9" class="edge"><title>Question&#45;&gt;Alternative</title>
<path fill="none" stroke="#62080d" d="M301.945,-63.6398C301.945,-58.0629 301.945,-52.1319 301.945,-46.4761"/>
<ellipse fill="none" stroke="#62080d" cx="301.945" cy="-67.6966" rx="4" ry="4"/>
<polygon fill="#62080d" stroke="#62080d" points="301.945,-46.1043 306.445,-36.1043 301.945,-41.1043 301.945,-36.1043 301.945,-36.1043 301.945,-36.1043 301.945,-41.1043 297.445,-36.1044 301.945,-46.1043 301.945,-46.1043"/>
</g>
<!-- UserMaterial&#45;&gt;Comment -->
<g id="edge10" class="edge"><title>UserMaterial&#45;&gt;Comment</title>
<path fill="none" stroke="#99cc4a" d="M183.945,-63.6398C183.945,-58.0629 183.945,-52.1319 183.945,-46.4761"/>
<ellipse fill="none" stroke="#99cc4a" cx="183.945" cy="-67.6966" rx="4" ry="4"/>
<polygon fill="#99cc4a" stroke="#99cc4a" points="183.945,-46.1043 188.445,-36.1043 183.945,-41.1043 183.945,-36.1043 183.945,-36.1043 183.945,-36.1043 183.945,-41.1043 179.445,-36.1044 183.945,-46.1043 183.945,-46.1043"/>
</g>
<!-- Subject&#45;&gt;UserSubject -->
<g id="edge11" class="edge"><title>Subject&#45;&gt;UserSubject</title>
<path fill="none" stroke="#e45807" d="M58.4092,-135.64C57.8515,-130.063 57.2584,-124.132 56.6928,-118.476"/>
<ellipse fill="none" stroke="#e45807" cx="58.8168" cy="-139.716" rx="4" ry="4"/>
<polygon fill="#e45807" stroke="#e45807" points="56.6508,-118.055 60.1333,-107.657 56.1532,-113.08 55.6556,-108.104 55.6556,-108.104 55.6556,-108.104 56.1532,-113.08 51.178,-108.552 56.6508,-118.055 56.6508,-118.055"/>
</g>
<!-- Material&#45;&gt;Question -->
<g id="edge13" class="edge"><title>Material&#45;&gt;Question</title>
<path fill="none" stroke="#ca4692" d="M285.028,-136.548C287.246,-130.574 289.633,-124.148 291.894,-118.061"/>
<ellipse fill="none" stroke="#ca4692" cx="283.632" cy="-140.305" rx="4.00001" ry="4.00001"/>
<polygon fill="#ca4692" stroke="#ca4692" points="292.047,-117.65 299.747,-109.842 293.788,-112.962 295.529,-108.275 295.529,-108.275 295.529,-108.275 293.788,-112.962 291.31,-106.708 292.047,-117.65 292.047,-117.65"/>
</g>
<!-- Material&#45;&gt;UserMaterial -->
<g id="edge12" class="edge"><title>Material&#45;&gt;UserMaterial</title>
<path fill="none" stroke="#302cde" d="M249.759,-141.076C238.358,-132.401 224.95,-122.199 213.221,-113.275"/>
<ellipse fill="none" stroke="#302cde" cx="253.251" cy="-143.733" rx="4.00002" ry="4.00002"/>
<polygon fill="#302cde" stroke="#302cde" points="212.989,-113.098 207.755,-103.462 209.009,-110.071 205.03,-107.043 205.03,-107.043 205.03,-107.043 209.009,-110.071 202.305,-110.624 212.989,-113.098 212.989,-113.098"/>
</g>
<!-- Network&#45;&gt;UserNetwork -->
<g id="edge14" class="edge"><title>Network&#45;&gt;UserNetwork</title>
<path fill="none" stroke="#ad1626" d="M532.945,-135.64C532.945,-130.063 532.945,-124.132 532.945,-118.476"/>
<ellipse fill="none" stroke="#ad1626" cx="532.945" cy="-139.697" rx="4" ry="4"/>
<polygon fill="#ad1626" stroke="#ad1626" points="532.945,-118.104 537.445,-108.104 532.945,-113.104 532.945,-108.104 532.945,-108.104 532.945,-108.104 532.945,-113.104 528.445,-108.104 532.945,-118.104 532.945,-118.104"/>
</g>
<!-- Level&#45;&gt;UserLevel -->
<g id="edge15" class="edge"><title>Level&#45;&gt;UserLevel</title>
<path fill="none" stroke="#8a3efb" d="M406.119,-135.64C406.597,-130.063 407.105,-124.132 407.59,-118.476"/>
<ellipse fill="none" stroke="#8a3efb" cx="405.77" cy="-139.711" rx="4" ry="4"/>
<polygon fill="#8a3efb" stroke="#8a3efb" points="407.625,-118.068 412.963,-108.489 408.052,-113.086 408.479,-108.104 408.479,-108.104 408.479,-108.104 408.052,-113.086 403.996,-107.72 407.625,-118.068 407.625,-118.068"/>
</g>
</g>
</svg>
