<?xml version="1.0" encoding="UTF-8" standalone="no"?>
<!DOCTYPE svg PUBLIC "-//W3C//DTD SVG 1.1//EN"
 "http://www.w3.org/Graphics/SVG/1.1/DTD/svg11.dtd">
<!-- Generated by graphviz version 2.38.0 (20140413.2041)
 -->
<!-- Title: models_diagram Pages: 1 -->
<svg width="1114pt" height="1115pt"
 viewBox="0.00 0.00 1114.00 1115.00" xmlns="http://www.w3.org/2000/svg" xmlns:xlink="http://www.w3.org/1999/xlink">
<g id="graph0" class="graph" transform="scale(1 1) rotate(0) translate(4 1111)">
<title>models_diagram</title>
<polygon fill="none" stroke="none" points="-4,4 -4,-1111 1110,-1111 1110,4 -4,4"/>
<!-- _diagram_info -->
<g id="node1" class="node"><title>_diagram_info</title>
<text text-anchor="start" x="30" y="-1078.1" font-family="Times,serif" font-size="13.00">Models diagram</text>
<text text-anchor="start" x="30" y="-1064.1" font-family="Times,serif" font-size="13.00">Date: Mar 16 2017 &#45; 15:48</text>
<text text-anchor="start" x="30" y="-1050.1" font-family="Times,serif" font-size="13.00">Migration version: 20170316184620</text>
<text text-anchor="start" x="30" y="-1036.1" font-family="Times,serif" font-size="13.00">Generated by RailRoady 1.5.2</text>
<text text-anchor="start" x="30" y="-1022.1" font-family="Times,serif" font-size="13.00">http://railroady.prestonlee.com</text>
</g>
<!-- UserNetwork -->
<g id="node2" class="node"><title>UserNetwork</title>
<path fill="none" stroke="black" d="M12,-519.5C12,-519.5 232,-519.5 232,-519.5 238,-519.5 244,-525.5 244,-531.5 244,-531.5 244,-613.5 244,-613.5 244,-619.5 238,-625.5 232,-625.5 232,-625.5 12,-625.5 12,-625.5 6,-625.5 0,-619.5 0,-613.5 0,-613.5 0,-531.5 0,-531.5 0,-525.5 6,-519.5 12,-519.5"/>
<text text-anchor="middle" x="122" y="-610.3" font-family="Times,serif" font-size="14.00">UserNetwork</text>
<polyline fill="none" stroke="black" points="0,-602.5 244,-602.5 "/>
<text text-anchor="start" x="8" y="-587.3" font-family="Times,serif" font-size="14.00">id :integer</text>
<text text-anchor="start" x="8" y="-572.3" font-family="Times,serif" font-size="14.00">user_id :integer</text>
<text text-anchor="start" x="8" y="-557.3" font-family="Times,serif" font-size="14.00">network_id :integer</text>
<text text-anchor="start" x="8" y="-542.3" font-family="Times,serif" font-size="14.00">created_at :timestamp without time zone</text>
<text text-anchor="start" x="8" y="-527.3" font-family="Times,serif" font-size="14.00">updated_at :timestamp without time zone</text>
</g>
<!-- UserLevel -->
<g id="node3" class="node"><title>UserLevel</title>
<path fill="none" stroke="black" d="M237,-339C237,-339 457,-339 457,-339 463,-339 469,-345 469,-351 469,-351 469,-433 469,-433 469,-439 463,-445 457,-445 457,-445 237,-445 237,-445 231,-445 225,-439 225,-433 225,-433 225,-351 225,-351 225,-345 231,-339 237,-339"/>
<text text-anchor="middle" x="347" y="-429.8" font-family="Times,serif" font-size="14.00">UserLevel</text>
<polyline fill="none" stroke="black" points="225,-422 469,-422 "/>
<text text-anchor="start" x="233" y="-406.8" font-family="Times,serif" font-size="14.00">id :integer</text>
<text text-anchor="start" x="233" y="-391.8" font-family="Times,serif" font-size="14.00">user_id :integer</text>
<text text-anchor="start" x="233" y="-376.8" font-family="Times,serif" font-size="14.00">level_id :integer</text>
<text text-anchor="start" x="233" y="-361.8" font-family="Times,serif" font-size="14.00">created_at :timestamp without time zone</text>
<text text-anchor="start" x="233" y="-346.8" font-family="Times,serif" font-size="14.00">updated_at :timestamp without time zone</text>
</g>
<!-- Level -->
<g id="node4" class="node"><title>Level</title>
<path fill="none" stroke="black" d="M312,-527C312,-527 532,-527 532,-527 538,-527 544,-533 544,-539 544,-539 544,-606 544,-606 544,-612 538,-618 532,-618 532,-618 312,-618 312,-618 306,-618 300,-612 300,-606 300,-606 300,-539 300,-539 300,-533 306,-527 312,-527"/>
<text text-anchor="middle" x="422" y="-602.8" font-family="Times,serif" font-size="14.00">Level</text>
<polyline fill="none" stroke="black" points="300,-595 544,-595 "/>
<text text-anchor="start" x="308" y="-579.8" font-family="Times,serif" font-size="14.00">id :integer</text>
<text text-anchor="start" x="308" y="-564.8" font-family="Times,serif" font-size="14.00">name :character varying</text>
<text text-anchor="start" x="308" y="-549.8" font-family="Times,serif" font-size="14.00">created_at :timestamp without time zone</text>
<text text-anchor="start" x="308" y="-534.8" font-family="Times,serif" font-size="14.00">updated_at :timestamp without time zone</text>
</g>
<!-- Level&#45;&gt;UserLevel -->
<g id="edge1" class="edge"><title>Level&#45;&gt;UserLevel</title>
<path fill="none" stroke="#69cc75" d="M400.147,-519.49C391.598,-499.144 381.727,-475.651 372.83,-454.476"/>
<ellipse fill="none" stroke="#69cc75" cx="401.718" cy="-523.23" rx="4.00002" ry="4.00002"/>
<polygon fill="#69cc75" stroke="#69cc75" points="372.825,-454.464 373.1,-443.501 370.888,-449.854 368.952,-445.245 368.952,-445.245 368.952,-445.245 370.888,-449.854 364.803,-446.988 372.825,-454.464 372.825,-454.464"/>
</g>
<!-- Material -->
<g id="node11" class="node"><title>Material</title>
<path fill="none" stroke="black" d="M612,-301.5C612,-301.5 832,-301.5 832,-301.5 838,-301.5 844,-307.5 844,-313.5 844,-313.5 844,-470.5 844,-470.5 844,-476.5 838,-482.5 832,-482.5 832,-482.5 612,-482.5 612,-482.5 606,-482.5 600,-476.5 600,-470.5 600,-470.5 600,-313.5 600,-313.5 600,-307.5 606,-301.5 612,-301.5"/>
<text text-anchor="middle" x="722" y="-467.3" font-family="Times,serif" font-size="14.00">Material</text>
<polyline fill="none" stroke="black" points="600,-459.5 844,-459.5 "/>
<text text-anchor="start" x="608" y="-444.3" font-family="Times,serif" font-size="14.00">id :integer</text>
<text text-anchor="start" x="608" y="-429.3" font-family="Times,serif" font-size="14.00">title :character varying</text>
<text text-anchor="start" x="608" y="-414.3" font-family="Times,serif" font-size="14.00">description :text</text>
<text text-anchor="start" x="608" y="-399.3" font-family="Times,serif" font-size="14.00">created_at :timestamp without time zone</text>
<text text-anchor="start" x="608" y="-384.3" font-family="Times,serif" font-size="14.00">updated_at :timestamp without time zone</text>
<text text-anchor="start" x="608" y="-369.3" font-family="Times,serif" font-size="14.00">updated_by :integer</text>
<text text-anchor="start" x="608" y="-354.3" font-family="Times,serif" font-size="14.00">public_level :integer</text>
<text text-anchor="start" x="608" y="-339.3" font-family="Times,serif" font-size="14.00">owner :integer</text>
<text text-anchor="start" x="608" y="-324.3" font-family="Times,serif" font-size="14.00">subject_id :integer</text>
<text text-anchor="start" x="608" y="-309.3" font-family="Times,serif" font-size="14.00">level_id :integer</text>
</g>
<!-- Level&#45;&gt;Material -->
<g id="edge2" class="edge"><title>Level&#45;&gt;Material</title>
<path fill="none" stroke="#87a5d6" d="M503.958,-522.735C530.898,-506.705 561.554,-488.465 591.194,-470.83"/>
<ellipse fill="none" stroke="#87a5d6" cx="500.366" cy="-524.872" rx="4.00002" ry="4.00002"/>
<polygon fill="#87a5d6" stroke="#87a5d6" points="591.343,-470.741 602.238,-469.495 595.64,-468.184 599.937,-465.627 599.937,-465.627 599.937,-465.627 595.64,-468.184 597.636,-461.76 591.343,-470.741 591.343,-470.741"/>
</g>
<!-- Comment -->
<g id="node5" class="node"><title>Comment</title>
<path fill="none" stroke="black" d="M462,-0.5C462,-0.5 682,-0.5 682,-0.5 688,-0.5 694,-6.5 694,-12.5 694,-12.5 694,-94.5 694,-94.5 694,-100.5 688,-106.5 682,-106.5 682,-106.5 462,-106.5 462,-106.5 456,-106.5 450,-100.5 450,-94.5 450,-94.5 450,-12.5 450,-12.5 450,-6.5 456,-0.5 462,-0.5"/>
<text text-anchor="middle" x="572" y="-91.3" font-family="Times,serif" font-size="14.00">Comment</text>
<polyline fill="none" stroke="black" points="450,-83.5 694,-83.5 "/>
<text text-anchor="start" x="458" y="-68.3" font-family="Times,serif" font-size="14.00">id :integer</text>
<text text-anchor="start" x="458" y="-53.3" font-family="Times,serif" font-size="14.00">content :text</text>
<text text-anchor="start" x="458" y="-38.3" font-family="Times,serif" font-size="14.00">user_material_id :integer</text>
<text text-anchor="start" x="458" y="-23.3" font-family="Times,serif" font-size="14.00">created_at :timestamp without time zone</text>
<text text-anchor="start" x="458" y="-8.3" font-family="Times,serif" font-size="14.00">updated_at :timestamp without time zone</text>
</g>
<!-- ApplicationRecord -->
<g id="node6" class="node"><title>ApplicationRecord</title>
<ellipse fill="none" stroke="black" cx="593" cy="-1053.5" rx="77.1866" ry="18"/>
<text text-anchor="middle" x="593" y="-1049.8" font-family="Times,serif" font-size="14.00">ApplicationRecord</text>
</g>
<!-- UserMaterial -->
<g id="node7" class="node"><title>UserMaterial</title>
<path fill="none" stroke="black" d="M462,-143.5C462,-143.5 682,-143.5 682,-143.5 688,-143.5 694,-149.5 694,-155.5 694,-155.5 694,-252.5 694,-252.5 694,-258.5 688,-264.5 682,-264.5 682,-264.5 462,-264.5 462,-264.5 456,-264.5 450,-258.5 450,-252.5 450,-252.5 450,-155.5 450,-155.5 450,-149.5 456,-143.5 462,-143.5"/>
<text text-anchor="middle" x="572" y="-249.3" font-family="Times,serif" font-size="14.00">UserMaterial</text>
<polyline fill="none" stroke="black" points="450,-241.5 694,-241.5 "/>
<text text-anchor="start" x="458" y="-226.3" font-family="Times,serif" font-size="14.00">id :integer</text>
<text text-anchor="start" x="458" y="-211.3" font-family="Times,serif" font-size="14.00">role :character varying</text>
<text text-anchor="start" x="458" y="-196.3" font-family="Times,serif" font-size="14.00">material_id :integer</text>
<text text-anchor="start" x="458" y="-181.3" font-family="Times,serif" font-size="14.00">user_id :integer</text>
<text text-anchor="start" x="458" y="-166.3" font-family="Times,serif" font-size="14.00">created_at :timestamp without time zone</text>
<text text-anchor="start" x="458" y="-151.3" font-family="Times,serif" font-size="14.00">updated_at :timestamp without time zone</text>
</g>
<!-- UserMaterial&#45;&gt;Comment -->
<g id="edge3" class="edge"><title>UserMaterial&#45;&gt;Comment</title>
<path fill="none" stroke="#0435d3" d="M572,-135.448C572,-129.304 572,-123.098 572,-117.001"/>
<ellipse fill="none" stroke="#0435d3" cx="572" cy="-139.455" rx="4" ry="4"/>
<polygon fill="#0435d3" stroke="#0435d3" points="572,-116.872 576.5,-106.872 572,-111.872 572,-106.872 572,-106.872 572,-106.872 572,-111.872 567.5,-106.872 572,-116.872 572,-116.872"/>
</g>
<!-- Network -->
<g id="node8" class="node"><title>Network</title>
<path fill="none" stroke="black" d="M266,-1000.5C266,-1000.5 486,-1000.5 486,-1000.5 492,-1000.5 498,-1006.5 498,-1012.5 498,-1012.5 498,-1094.5 498,-1094.5 498,-1100.5 492,-1106.5 486,-1106.5 486,-1106.5 266,-1106.5 266,-1106.5 260,-1106.5 254,-1100.5 254,-1094.5 254,-1094.5 254,-1012.5 254,-1012.5 254,-1006.5 260,-1000.5 266,-1000.5"/>
<text text-anchor="middle" x="376" y="-1091.3" font-family="Times,serif" font-size="14.00">Network</text>
<polyline fill="none" stroke="black" points="254,-1083.5 498,-1083.5 "/>
<text text-anchor="start" x="262" y="-1068.3" font-family="Times,serif" font-size="14.00">id :integer</text>
<text text-anchor="start" x="262" y="-1053.3" font-family="Times,serif" font-size="14.00">name :character varying</text>
<text text-anchor="start" x="262" y="-1038.3" font-family="Times,serif" font-size="14.00">description :character varying</text>
<text text-anchor="start" x="262" y="-1023.3" font-family="Times,serif" font-size="14.00">created_at :timestamp without time zone</text>
<text text-anchor="start" x="262" y="-1008.3" font-family="Times,serif" font-size="14.00">updated_at :timestamp without time zone</text>
</g>
<!-- Network&#45;&gt;UserNetwork -->
<g id="edge4" class="edge"><title>Network&#45;&gt;UserNetwork</title>
<path fill="none" stroke="#0c35c1" d="M344.513,-993.121C295.995,-901.624 203.44,-727.081 154.384,-634.572"/>
<ellipse fill="none" stroke="#0c35c1" cx="346.46" cy="-996.793" rx="4.00002" ry="4.00002"/>
<polygon fill="#0c35c1" stroke="#0c35c1" points="154.317,-634.444 153.607,-623.501 151.974,-630.026 149.632,-625.609 149.632,-625.609 149.632,-625.609 151.974,-630.026 145.656,-627.717 154.317,-634.444 154.317,-634.444"/>
</g>
<!-- User -->
<g id="node9" class="node"><title>User</title>
<path fill="none" stroke="black" d="M352.5,-662.5C352.5,-662.5 641.5,-662.5 641.5,-662.5 647.5,-662.5 653.5,-668.5 653.5,-674.5 653.5,-674.5 653.5,-951.5 653.5,-951.5 653.5,-957.5 647.5,-963.5 641.5,-963.5 641.5,-963.5 352.5,-963.5 352.5,-963.5 346.5,-963.5 340.5,-957.5 340.5,-951.5 340.5,-951.5 340.5,-674.5 340.5,-674.5 340.5,-668.5 346.5,-662.5 352.5,-662.5"/>
<text text-anchor="middle" x="497" y="-948.3" font-family="Times,serif" font-size="14.00">User</text>
<polyline fill="none" stroke="black" points="340.5,-940.5 653.5,-940.5 "/>
<text text-anchor="start" x="348.5" y="-925.3" font-family="Times,serif" font-size="14.00">id :integer</text>
<text text-anchor="start" x="348.5" y="-910.3" font-family="Times,serif" font-size="14.00">email :character varying</text>
<text text-anchor="start" x="348.5" y="-895.3" font-family="Times,serif" font-size="14.00">encrypted_password :character varying</text>
<text text-anchor="start" x="348.5" y="-880.3" font-family="Times,serif" font-size="14.00">reset_password_token :character varying</text>
<text text-anchor="start" x="348.5" y="-865.3" font-family="Times,serif" font-size="14.00">reset_password_sent_at :timestamp without time zone</text>
<text text-anchor="start" x="348.5" y="-850.3" font-family="Times,serif" font-size="14.00">remember_created_at :timestamp without time zone</text>
<text text-anchor="start" x="348.5" y="-835.3" font-family="Times,serif" font-size="14.00">sign_in_count :integer</text>
<text text-anchor="start" x="348.5" y="-820.3" font-family="Times,serif" font-size="14.00">current_sign_in_at :timestamp without time zone</text>
<text text-anchor="start" x="348.5" y="-805.3" font-family="Times,serif" font-size="14.00">last_sign_in_at :timestamp without time zone</text>
<text text-anchor="start" x="348.5" y="-790.3" font-family="Times,serif" font-size="14.00">current_sign_in_ip :inet</text>
<text text-anchor="start" x="348.5" y="-775.3" font-family="Times,serif" font-size="14.00">last_sign_in_ip :inet</text>
<text text-anchor="start" x="348.5" y="-760.3" font-family="Times,serif" font-size="14.00">created_at :timestamp without time zone</text>
<text text-anchor="start" x="348.5" y="-745.3" font-family="Times,serif" font-size="14.00">updated_at :timestamp without time zone</text>
<text text-anchor="start" x="348.5" y="-730.3" font-family="Times,serif" font-size="14.00">photo :character varying</text>
<text text-anchor="start" x="348.5" y="-715.3" font-family="Times,serif" font-size="14.00">biography :character varying</text>
<text text-anchor="start" x="348.5" y="-700.3" font-family="Times,serif" font-size="14.00">city :character varying</text>
<text text-anchor="start" x="348.5" y="-685.3" font-family="Times,serif" font-size="14.00">first_name :character varying</text>
<text text-anchor="start" x="348.5" y="-670.3" font-family="Times,serif" font-size="14.00">last_name :character varying</text>
</g>
<!-- Network&#45;&gt;User -->
<g id="edge5" class="edge"><title>Network&#45;&gt;User</title>
<path fill="none" stroke="#b970ee" d="M407.069,-991.261C410.028,-985.429 413.111,-979.352 416.277,-973.11"/>
<polygon fill="#b970ee" stroke="#b970ee" points="406.929,-991.537 398.391,-998.419 404.667,-995.996 402.404,-1000.45 402.404,-1000.45 402.404,-1000.45 404.667,-995.996 406.418,-1002.49 406.929,-991.537 406.929,-991.537"/>
<polygon fill="#b970ee" stroke="#b970ee" points="416.447,-972.775 424.985,-965.893 418.71,-968.316 420.972,-963.857 420.972,-963.857 420.972,-963.857 418.71,-968.316 416.959,-961.821 416.447,-972.775 416.447,-972.775"/>
</g>
<!-- User&#45;&gt;UserNetwork -->
<g id="edge8" class="edge"><title>User&#45;&gt;UserNetwork</title>
<path fill="none" stroke="#286b08" d="M333.257,-703.15C311.729,-689.17 289.894,-675.155 269,-662 252.793,-651.796 235.454,-641.135 218.575,-630.89"/>
<ellipse fill="none" stroke="#286b08" cx="336.88" cy="-705.506" rx="4.00002" ry="4.00002"/>
<polygon fill="#286b08" stroke="#286b08" points="218.353,-630.756 212.13,-621.727 214.076,-628.166 209.799,-625.576 209.799,-625.576 209.799,-625.576 214.076,-628.166 207.468,-629.425 218.353,-630.756 218.353,-630.756"/>
</g>
<!-- User&#45;&gt;UserLevel -->
<g id="edge7" class="edge"><title>User&#45;&gt;UserLevel</title>
<path fill="none" stroke="#b8554b" d="M334.734,-692.165C317.054,-672.106 301.64,-649.943 291,-626 266.319,-570.461 288.041,-502.435 311.245,-454.259"/>
<ellipse fill="none" stroke="#b8554b" cx="337.61" cy="-695.353" rx="4.00002" ry="4.00002"/>
<polygon fill="#b8554b" stroke="#b8554b" points="311.294,-454.159 319.769,-447.2 313.516,-449.68 315.738,-445.2 315.738,-445.2 315.738,-445.2 313.516,-449.68 311.706,-443.201 311.294,-454.159 311.294,-454.159"/>
</g>
<!-- User&#45;&gt;Level -->
<g id="edge11" class="edge"><title>User&#45;&gt;Level</title>
<path fill="none" stroke="#f1f5d4" d="M446.912,-652.72C444.173,-644.01 441.535,-635.623 439.068,-627.776"/>
<polygon fill="#f1f5d4" stroke="#f1f5d4" points="446.927,-652.769 445.634,-663.659 448.427,-657.539 449.927,-662.309 449.927,-662.309 449.927,-662.309 448.427,-657.539 454.22,-660.959 446.927,-652.769 446.927,-652.769"/>
<polygon fill="#f1f5d4" stroke="#f1f5d4" points="439.038,-627.681 440.331,-616.791 437.538,-622.911 436.038,-618.141 436.038,-618.141 436.038,-618.141 437.538,-622.911 431.745,-619.491 439.038,-627.681 439.038,-627.681"/>
</g>
<!-- User&#45;&gt;UserMaterial -->
<g id="edge9" class="edge"><title>User&#45;&gt;UserMaterial</title>
<path fill="none" stroke="#5c6d80" d="M547.379,-654.267C549.514,-644.758 551.418,-635.285 553,-626 573.823,-503.796 575.405,-358.937 574.095,-274.942"/>
<ellipse fill="none" stroke="#5c6d80" cx="546.432" cy="-658.363" rx="4.00001" ry="4.00001"/>
<polygon fill="#5c6d80" stroke="#5c6d80" points="574.091,-274.754 578.416,-264.677 574.004,-269.755 573.917,-264.755 573.917,-264.755 573.917,-264.755 574.004,-269.755 569.417,-264.834 574.091,-274.754 574.091,-274.754"/>
</g>
<!-- User&#45;&gt;Material -->
<g id="edge12" class="edge"><title>User&#45;&gt;Material</title>
<path fill="none" stroke="#db9ed8" d="M573.814,-653.201C577.994,-644.025 582.083,-634.91 586,-626 606.627,-579.082 604.026,-563.755 629,-519 634.173,-509.729 639.932,-500.356 645.977,-491.126"/>
<polygon fill="#db9ed8" stroke="#db9ed8" points="573.769,-653.3 565.515,-660.519 571.688,-657.846 569.607,-662.392 569.607,-662.392 569.607,-662.392 571.688,-657.846 573.699,-664.265 573.769,-653.3 573.769,-653.3"/>
<polygon fill="#db9ed8" stroke="#db9ed8" points="646.051,-491.015 655.344,-485.194 648.826,-486.856 651.601,-482.697 651.601,-482.697 651.601,-482.697 648.826,-486.856 647.857,-480.199 646.051,-491.015 646.051,-491.015"/>
</g>
<!-- UserSubject -->
<g id="node12" class="node"><title>UserSubject</title>
<path fill="none" stroke="black" d="M874,-339C874,-339 1094,-339 1094,-339 1100,-339 1106,-345 1106,-351 1106,-351 1106,-433 1106,-433 1106,-439 1100,-445 1094,-445 1094,-445 874,-445 874,-445 868,-445 862,-439 862,-433 862,-433 862,-351 862,-351 862,-345 868,-339 874,-339"/>
<text text-anchor="middle" x="984" y="-429.8" font-family="Times,serif" font-size="14.00">UserSubject</text>
<polyline fill="none" stroke="black" points="862,-422 1106,-422 "/>
<text text-anchor="start" x="870" y="-406.8" font-family="Times,serif" font-size="14.00">id :integer</text>
<text text-anchor="start" x="870" y="-391.8" font-family="Times,serif" font-size="14.00">user_id :integer</text>
<text text-anchor="start" x="870" y="-376.8" font-family="Times,serif" font-size="14.00">subject_id :integer</text>
<text text-anchor="start" x="870" y="-361.8" font-family="Times,serif" font-size="14.00">created_at :timestamp without time zone</text>
<text text-anchor="start" x="870" y="-346.8" font-family="Times,serif" font-size="14.00">updated_at :timestamp without time zone</text>
</g>
<!-- User&#45;&gt;UserSubject -->
<g id="edge6" class="edge"><title>User&#45;&gt;UserSubject</title>
<path fill="none" stroke="#046a70" d="M661.451,-765.659C739.624,-736.489 829.25,-691.656 891,-626 935.759,-578.409 959.995,-506.595 972.392,-455.283"/>
<ellipse fill="none" stroke="#046a70" cx="657.676" cy="-767.05" rx="4.00001" ry="4.00001"/>
<polygon fill="#046a70" stroke="#046a70" points="972.447,-455.046 979.099,-446.328 973.581,-450.176 974.716,-445.307 974.716,-445.307 974.716,-445.307 973.581,-450.176 970.333,-444.286 972.447,-455.046 972.447,-455.046"/>
</g>
<!-- Subject -->
<g id="node14" class="node"><title>Subject</title>
<path fill="none" stroke="black" d="M650,-527C650,-527 870,-527 870,-527 876,-527 882,-533 882,-539 882,-539 882,-606 882,-606 882,-612 876,-618 870,-618 870,-618 650,-618 650,-618 644,-618 638,-612 638,-606 638,-606 638,-539 638,-539 638,-533 644,-527 650,-527"/>
<text text-anchor="middle" x="760" y="-602.8" font-family="Times,serif" font-size="14.00">Subject</text>
<polyline fill="none" stroke="black" points="638,-595 882,-595 "/>
<text text-anchor="start" x="646" y="-579.8" font-family="Times,serif" font-size="14.00">id :integer</text>
<text text-anchor="start" x="646" y="-564.8" font-family="Times,serif" font-size="14.00">name :character varying</text>
<text text-anchor="start" x="646" y="-549.8" font-family="Times,serif" font-size="14.00">created_at :timestamp without time zone</text>
<text text-anchor="start" x="646" y="-534.8" font-family="Times,serif" font-size="14.00">updated_at :timestamp without time zone</text>
</g>
<!-- User&#45;&gt;Subject -->
<g id="edge10" class="edge"><title>User&#45;&gt;Subject</title>
<path fill="none" stroke="#4484c7" d="M661.456,-662.864C676.182,-649.51 690.319,-636.689 703.061,-625.134"/>
<polygon fill="#4484c7" stroke="#4484c7" points="661.194,-663.102 650.763,-666.486 657.49,-666.461 653.786,-669.82 653.786,-669.82 653.786,-669.82 657.49,-666.461 656.809,-673.153 661.194,-663.102 661.194,-663.102"/>
<polygon fill="#4484c7" stroke="#4484c7" points="703.4,-624.827 713.831,-621.443 707.104,-621.469 710.808,-618.11 710.808,-618.11 710.808,-618.11 707.104,-621.469 707.785,-614.776 703.4,-624.827 703.4,-624.827"/>
</g>
<!-- Alternative -->
<g id="node10" class="node"><title>Alternative</title>
<path fill="none" stroke="black" d="M724,-0.5C724,-0.5 944,-0.5 944,-0.5 950,-0.5 956,-6.5 956,-12.5 956,-12.5 956,-94.5 956,-94.5 956,-100.5 950,-106.5 944,-106.5 944,-106.5 724,-106.5 724,-106.5 718,-106.5 712,-100.5 712,-94.5 712,-94.5 712,-12.5 712,-12.5 712,-6.5 718,-0.5 724,-0.5"/>
<text text-anchor="middle" x="834" y="-91.3" font-family="Times,serif" font-size="14.00">Alternative</text>
<polyline fill="none" stroke="black" points="712,-83.5 956,-83.5 "/>
<text text-anchor="start" x="720" y="-68.3" font-family="Times,serif" font-size="14.00">id :integer</text>
<text text-anchor="start" x="720" y="-53.3" font-family="Times,serif" font-size="14.00">content :text</text>
<text text-anchor="start" x="720" y="-38.3" font-family="Times,serif" font-size="14.00">question_id :integer</text>
<text text-anchor="start" x="720" y="-23.3" font-family="Times,serif" font-size="14.00">created_at :timestamp without time zone</text>
<text text-anchor="start" x="720" y="-8.3" font-family="Times,serif" font-size="14.00">updated_at :timestamp without time zone</text>
</g>
<!-- Material&#45;&gt;UserMaterial -->
<g id="edge13" class="edge"><title>Material&#45;&gt;UserMaterial</title>
<path fill="none" stroke="#133143" d="M644.458,-294.848C638.352,-287.277 632.27,-279.734 626.371,-272.42"/>
<ellipse fill="none" stroke="#133143" cx="647.125" cy="-298.155" rx="4.00002" ry="4.00002"/>
<polygon fill="#133143" stroke="#133143" points="626.328,-272.367 623.554,-261.758 623.19,-268.475 620.051,-264.583 620.051,-264.583 620.051,-264.583 623.19,-268.475 616.548,-267.408 626.328,-272.367 626.328,-272.367"/>
</g>
<!-- Question -->
<g id="node13" class="node"><title>Question</title>
<path fill="none" stroke="black" d="M724,-143.5C724,-143.5 944,-143.5 944,-143.5 950,-143.5 956,-149.5 956,-155.5 956,-155.5 956,-252.5 956,-252.5 956,-258.5 950,-264.5 944,-264.5 944,-264.5 724,-264.5 724,-264.5 718,-264.5 712,-258.5 712,-252.5 712,-252.5 712,-155.5 712,-155.5 712,-149.5 718,-143.5 724,-143.5"/>
<text text-anchor="middle" x="834" y="-249.3" font-family="Times,serif" font-size="14.00">Question</text>
<polyline fill="none" stroke="black" points="712,-241.5 956,-241.5 "/>
<text text-anchor="start" x="720" y="-226.3" font-family="Times,serif" font-size="14.00">id :integer</text>
<text text-anchor="start" x="720" y="-211.3" font-family="Times,serif" font-size="14.00">type :character varying</text>
<text text-anchor="start" x="720" y="-196.3" font-family="Times,serif" font-size="14.00">content :text</text>
<text text-anchor="start" x="720" y="-181.3" font-family="Times,serif" font-size="14.00">material_id :integer</text>
<text text-anchor="start" x="720" y="-166.3" font-family="Times,serif" font-size="14.00">created_at :timestamp without time zone</text>
<text text-anchor="start" x="720" y="-151.3" font-family="Times,serif" font-size="14.00">updated_at :timestamp without time zone</text>
</g>
<!-- Material&#45;&gt;Question -->
<g id="edge14" class="edge"><title>Material&#45;&gt;Question</title>
<path fill="none" stroke="#7d4f47" d="M780.249,-294.264C784.531,-287.154 788.795,-280.073 792.941,-273.187"/>
<ellipse fill="none" stroke="#7d4f47" cx="778.095" cy="-297.842" rx="4.00002" ry="4.00002"/>
<polygon fill="#7d4f47" stroke="#7d4f47" points="792.964,-273.15 801.977,-266.904 795.543,-268.866 798.122,-264.583 798.122,-264.583 798.122,-264.583 795.543,-268.866 794.267,-262.262 792.964,-273.15 792.964,-273.15"/>
</g>
<!-- Question&#45;&gt;Alternative -->
<g id="edge15" class="edge"><title>Question&#45;&gt;Alternative</title>
<path fill="none" stroke="#6f6709" d="M834,-135.448C834,-129.304 834,-123.098 834,-117.001"/>
<ellipse fill="none" stroke="#6f6709" cx="834" cy="-139.455" rx="4" ry="4"/>
<polygon fill="#6f6709" stroke="#6f6709" points="834,-116.872 838.5,-106.872 834,-111.872 834,-106.872 834,-106.872 834,-106.872 834,-111.872 829.5,-106.872 834,-116.872 834,-116.872"/>
</g>
<!-- Subject&#45;&gt;Material -->
<g id="edge17" class="edge"><title>Subject&#45;&gt;Material</title>
<path fill="none" stroke="#f9e0e6" d="M748.78,-518.794C746.996,-510.415 745.102,-501.517 743.177,-492.478"/>
<ellipse fill="none" stroke="#f9e0e6" cx="749.676" cy="-523.005" rx="4.00001" ry="4.00001"/>
<polygon fill="#f9e0e6" stroke="#f9e0e6" points="743.163,-492.412 745.482,-481.694 742.122,-487.521 741.081,-482.631 741.081,-482.631 741.081,-482.631 742.122,-487.521 736.68,-483.568 743.163,-492.412 743.163,-492.412"/>
</g>
<!-- Subject&#45;&gt;UserSubject -->
<g id="edge16" class="edge"><title>Subject&#45;&gt;UserSubject</title>
<path fill="none" stroke="#7164e1" d="M822.241,-521.902C849.608,-500.093 881.951,-474.32 910.495,-451.574"/>
<ellipse fill="none" stroke="#7164e1" cx="819.075" cy="-524.425" rx="4.00002" ry="4.00002"/>
<polygon fill="#7164e1" stroke="#7164e1" points="910.618,-451.477 921.243,-448.764 914.528,-448.361 918.438,-445.245 918.438,-445.245 918.438,-445.245 914.528,-448.361 915.634,-441.725 910.618,-451.477 910.618,-451.477"/>
</g>
</g>
</svg>
