<?xml version="1.0" encoding="UTF-8" standalone="no"?>
<!DOCTYPE svg PUBLIC "-//W3C//DTD SVG 1.1//EN"
 "http://www.w3.org/Graphics/SVG/1.1/DTD/svg11.dtd">
<!-- Generated by graphviz version 2.38.0 (20140413.2041)
 -->
<!-- Title: models_diagram Pages: 1 -->
<svg width="649pt" height="230pt"
 viewBox="0.00 0.00 648.84 230.00" xmlns="http://www.w3.org/2000/svg" xmlns:xlink="http://www.w3.org/1999/xlink">
<g id="graph0" class="graph" transform="scale(1 1) rotate(0) translate(4 226)">
<title>models_diagram</title>
<polygon fill="none" stroke="none" points="-4,4 -4,-226 644.845,-226 644.845,4 -4,4"/>
<!-- _diagram_info -->
<g id="node1" class="node"><title>_diagram_info</title>
<text text-anchor="start" x="8" y="-207.6" font-family="Times,serif" font-size="13.00">Models diagram</text>
<text text-anchor="start" x="8" y="-193.6" font-family="Times,serif" font-size="13.00">Date: Mar 11 2017 &#45; 19:56</text>
<text text-anchor="start" x="8" y="-179.6" font-family="Times,serif" font-size="13.00">Migration version: 20170310205314</text>
<text text-anchor="start" x="8" y="-165.6" font-family="Times,serif" font-size="13.00">Generated by RailRoady 1.5.2</text>
<text text-anchor="start" x="8" y="-151.6" font-family="Times,serif" font-size="13.00">http://railroady.prestonlee.com</text>
</g>
<!-- ApplicationRecord -->
<g id="node2" class="node"><title>ApplicationRecord</title>
<ellipse fill="none" stroke="black" cx="309" cy="-183" rx="77.1866" ry="18"/>
<text text-anchor="middle" x="309" y="-179.3" font-family="Times,serif" font-size="14.00">ApplicationRecord</text>
</g>
<!-- User -->
<g id="node3" class="node"><title>User</title>
<ellipse fill="none" stroke="black" cx="432" cy="-183" rx="27.0966" ry="18"/>
<text text-anchor="middle" x="432" y="-179.3" font-family="Times,serif" font-size="14.00">User</text>
</g>
<!-- Subject -->
<g id="node4" class="node"><title>Subject</title>
<ellipse fill="none" stroke="black" cx="299" cy="-90" rx="37.0935" ry="18"/>
<text text-anchor="middle" x="299" y="-86.3" font-family="Times,serif" font-size="14.00">Subject</text>
</g>
<!-- User&#45;&gt;Subject -->
<g id="edge4" class="edge"><title>User&#45;&gt;Subject</title>
<path fill="none" stroke="#eb056d" d="M412.009,-159.272C406.758,-153.938 400.903,-148.502 395,-144 376.223,-129.679 353.103,-116.792 334.258,-107.313"/>
<polygon fill="#eb056d" stroke="#eb056d" points="412.341,-159.624 415.935,-169.984 415.774,-163.259 419.207,-166.895 419.207,-166.895 419.207,-166.895 415.774,-163.259 422.478,-163.805 412.341,-159.624 412.341,-159.624"/>
<polygon fill="#eb056d" stroke="#eb056d" points="334.085,-107.228 327.102,-98.7727 329.6,-105.019 325.114,-102.81 325.114,-102.81 325.114,-102.81 329.6,-105.019 323.126,-106.847 334.085,-107.228 334.085,-107.228"/>
</g>
<!-- UserSubject -->
<g id="node5" class="node"><title>UserSubject</title>
<ellipse fill="none" stroke="black" cx="305" cy="-18" rx="53.8905" ry="18"/>
<text text-anchor="middle" x="305" y="-14.3" font-family="Times,serif" font-size="14.00">UserSubject</text>
</g>
<!-- User&#45;&gt;UserSubject -->
<g id="edge1" class="edge"><title>User&#45;&gt;UserSubject</title>
<path fill="none" stroke="#3ed06d" d="M414.931,-160.093C391.371,-129.854 349.005,-75.4782 324.313,-43.788"/>
<ellipse fill="none" stroke="#3ed06d" cx="417.594" cy="-163.51" rx="4.00002" ry="4.00002"/>
<polygon fill="#3ed06d" stroke="#3ed06d" points="324.29,-43.7576 321.693,-33.1035 321.217,-39.8134 318.144,-35.8692 318.144,-35.8692 318.144,-35.8692 321.217,-39.8134 314.594,-38.635 324.29,-43.7576 324.29,-43.7576"/>
</g>
<!-- UserLevel -->
<g id="node6" class="node"><title>UserLevel</title>
<ellipse fill="none" stroke="black" cx="436" cy="-18" rx="47.3916" ry="18"/>
<text text-anchor="middle" x="436" y="-14.3" font-family="Times,serif" font-size="14.00">UserLevel</text>
</g>
<!-- User&#45;&gt;UserLevel -->
<g id="edge2" class="edge"><title>User&#45;&gt;UserLevel</title>
<path fill="none" stroke="#e4dbd8" d="M426.166,-157.21C421.706,-134.873 416.953,-101.162 421,-72 422.215,-63.2458 424.508,-53.9046 426.942,-45.5413"/>
<ellipse fill="none" stroke="#e4dbd8" cx="427.018" cy="-161.266" rx="4.00001" ry="4.00001"/>
<polygon fill="#e4dbd8" stroke="#e4dbd8" points="426.96,-45.4826 434.216,-37.2611 428.439,-40.7064 429.918,-35.9301 429.918,-35.9301 429.918,-35.9301 428.439,-40.7064 425.619,-34.599 426.96,-45.4826 426.96,-45.4826"/>
</g>
<!-- UserNetwork -->
<g id="node8" class="node"><title>UserNetwork</title>
<ellipse fill="none" stroke="black" cx="583" cy="-18" rx="57.6901" ry="18"/>
<text text-anchor="middle" x="583" y="-14.3" font-family="Times,serif" font-size="14.00">UserNetwork</text>
</g>
<!-- User&#45;&gt;UserNetwork -->
<g id="edge3" class="edge"><title>User&#45;&gt;UserNetwork</title>
<path fill="none" stroke="#59f720" d="M451.365,-161.297C465.214,-146.476 484.283,-126.036 501,-108 521.312,-86.0857 544.363,-61.0522 560.841,-43.1286"/>
<ellipse fill="none" stroke="#59f720" cx="448.503" cy="-164.36" rx="4.00002" ry="4.00002"/>
<polygon fill="#59f720" stroke="#59f720" points="561.149,-42.7933 571.229,-38.4755 564.533,-39.1119 567.916,-35.4305 567.916,-35.4305 567.916,-35.4305 564.533,-39.1119 564.603,-32.3854 561.149,-42.7933 561.149,-42.7933"/>
</g>
<!-- Network -->
<g id="node9" class="node"><title>Network</title>
<ellipse fill="none" stroke="black" cx="590" cy="-90" rx="41.6928" ry="18"/>
<text text-anchor="middle" x="590" y="-86.3" font-family="Times,serif" font-size="14.00">Network</text>
</g>
<!-- User&#45;&gt;Network -->
<g id="edge6" class="edge"><title>User&#45;&gt;Network</title>
<path fill="none" stroke="#4bf47f" d="M451.088,-158.852C456.207,-153.529 461.999,-148.204 468,-144 492.269,-126.997 522.862,-113.723 547.34,-104.712"/>
<polygon fill="#4bf47f" stroke="#4bf47f" points="450.848,-159.117 440.793,-163.493 447.485,-162.818 444.123,-166.519 444.123,-166.519 444.123,-166.519 447.485,-162.818 447.454,-169.545 450.848,-159.117 450.848,-159.117"/>
<polygon fill="#4bf47f" stroke="#4bf47f" points="547.661,-104.598 558.592,-105.469 552.369,-102.915 557.077,-101.232 557.077,-101.232 557.077,-101.232 552.369,-102.915 555.563,-96.9941 547.661,-104.598 547.661,-104.598"/>
</g>
<!-- Level -->
<g id="node10" class="node"><title>Level</title>
<ellipse fill="none" stroke="black" cx="461" cy="-90" rx="30.5947" ry="18"/>
<text text-anchor="middle" x="461" y="-86.3" font-family="Times,serif" font-size="14.00">Level</text>
</g>
<!-- User&#45;&gt;Level -->
<g id="edge5" class="edge"><title>User&#45;&gt;Level</title>
<path fill="none" stroke="#7db2ad" d="M440.491,-155.356C444.272,-143.493 448.714,-129.552 452.496,-117.684"/>
<polygon fill="#7db2ad" stroke="#7db2ad" points="440.355,-155.781 433.031,-163.943 438.837,-160.545 437.319,-165.309 437.319,-165.309 437.319,-165.309 438.837,-160.545 441.607,-166.676 440.355,-155.781 440.355,-155.781"/>
<polygon fill="#7db2ad" stroke="#7db2ad" points="452.58,-117.421 459.904,-109.26 454.098,-112.657 455.616,-107.893 455.616,-107.893 455.616,-107.893 454.098,-112.657 451.329,-106.527 452.58,-117.421 452.58,-117.421"/>
</g>
<!-- Subject&#45;&gt;UserSubject -->
<g id="edge7" class="edge"><title>Subject&#45;&gt;UserSubject</title>
<path fill="none" stroke="#fd88a7" d="M301.174,-63.6398C301.652,-58.0629 302.16,-52.1319 302.645,-46.4761"/>
<ellipse fill="none" stroke="#fd88a7" cx="300.825" cy="-67.7112" rx="4" ry="4"/>
<polygon fill="#fd88a7" stroke="#fd88a7" points="302.68,-46.0678 308.017,-36.4887 303.107,-41.0861 303.534,-36.1043 303.534,-36.1043 303.534,-36.1043 303.107,-41.0861 299.05,-35.72 302.68,-46.0678 302.68,-46.0678"/>
</g>
<!-- Material -->
<g id="node7" class="node"><title>Material</title>
<ellipse fill="none" stroke="black" cx="518" cy="-183" rx="40.8928" ry="18"/>
<text text-anchor="middle" x="518" y="-179.3" font-family="Times,serif" font-size="14.00">Material</text>
</g>
<!-- Network&#45;&gt;UserNetwork -->
<g id="edge8" class="edge"><title>Network&#45;&gt;UserNetwork</title>
<path fill="none" stroke="#188cd3" d="M587.464,-63.6398C586.906,-58.0629 586.313,-52.1319 585.748,-46.4761"/>
<ellipse fill="none" stroke="#188cd3" cx="587.872" cy="-67.7165" rx="4" ry="4"/>
<polygon fill="#188cd3" stroke="#188cd3" points="585.706,-46.0547 589.188,-35.6565 585.208,-41.0795 584.71,-36.1043 584.71,-36.1043 584.71,-36.1043 585.208,-41.0795 580.233,-36.5521 585.706,-46.0547 585.706,-46.0547"/>
</g>
<!-- Level&#45;&gt;UserLevel -->
<g id="edge9" class="edge"><title>Level&#45;&gt;UserLevel</title>
<path fill="none" stroke="#0144fa" d="M452.167,-64.2675C450.05,-58.34 447.779,-51.9814 445.628,-45.9587"/>
<ellipse fill="none" stroke="#0144fa" cx="453.603" cy="-68.288" rx="4.00001" ry="4.00001"/>
<polygon fill="#0144fa" stroke="#0144fa" points="445.533,-45.6927 446.408,-34.7618 443.851,-40.984 442.17,-36.2753 442.17,-36.2753 442.17,-36.2753 443.851,-40.984 437.932,-37.7888 445.533,-45.6927 445.533,-45.6927"/>
</g>
</g>
</svg>
