<?xml version="1.0" encoding="UTF-8" standalone="no"?>
<!DOCTYPE svg PUBLIC "-//W3C//DTD SVG 1.1//EN"
 "http://www.w3.org/Graphics/SVG/1.1/DTD/svg11.dtd">
<!-- Generated by graphviz version 2.38.0 (20140413.2041)
 -->
<!-- Title: models_diagram Pages: 1 -->
<svg width="1066pt" height="581pt"
 viewBox="0.00 0.00 1066.00 581.00" xmlns="http://www.w3.org/2000/svg" xmlns:xlink="http://www.w3.org/1999/xlink">
<g id="graph0" class="graph" transform="scale(1 1) rotate(0) translate(4 577)">
<title>models_diagram</title>
<polygon fill="none" stroke="none" points="-4,4 -4,-577 1062,-577 1062,4 -4,4"/>
<!-- _diagram_info -->
<g id="node1" class="node"><title>_diagram_info</title>
<text text-anchor="start" x="8" y="-454.1" font-family="Times,serif" font-size="13.00">Models diagram</text>
<text text-anchor="start" x="8" y="-440.1" font-family="Times,serif" font-size="13.00">Date: Mar 10 2017 &#45; 17:54</text>
<text text-anchor="start" x="8" y="-426.1" font-family="Times,serif" font-size="13.00">Migration version: 20170310205314</text>
<text text-anchor="start" x="8" y="-412.1" font-family="Times,serif" font-size="13.00">Generated by RailRoady 1.5.2</text>
<text text-anchor="start" x="8" y="-398.1" font-family="Times,serif" font-size="13.00">http://railroady.prestonlee.com</text>
</g>
<!-- ApplicationRecord -->
<g id="node2" class="node"><title>ApplicationRecord</title>
<ellipse fill="none" stroke="black" cx="309" cy="-429.5" rx="77.1866" ry="18"/>
<text text-anchor="middle" x="309" y="-425.8" font-family="Times,serif" font-size="14.00">ApplicationRecord</text>
</g>
<!-- User -->
<g id="node3" class="node"><title>User</title>
<path fill="none" stroke="black" d="M416.5,-286.5C416.5,-286.5 705.5,-286.5 705.5,-286.5 711.5,-286.5 717.5,-292.5 717.5,-298.5 717.5,-298.5 717.5,-560.5 717.5,-560.5 717.5,-566.5 711.5,-572.5 705.5,-572.5 705.5,-572.5 416.5,-572.5 416.5,-572.5 410.5,-572.5 404.5,-566.5 404.5,-560.5 404.5,-560.5 404.5,-298.5 404.5,-298.5 404.5,-292.5 410.5,-286.5 416.5,-286.5"/>
<text text-anchor="middle" x="561" y="-557.3" font-family="Times,serif" font-size="14.00">User</text>
<polyline fill="none" stroke="black" points="404.5,-549.5 717.5,-549.5 "/>
<text text-anchor="start" x="412.5" y="-534.3" font-family="Times,serif" font-size="14.00">id :integer</text>
<text text-anchor="start" x="412.5" y="-519.3" font-family="Times,serif" font-size="14.00">email :character varying</text>
<text text-anchor="start" x="412.5" y="-504.3" font-family="Times,serif" font-size="14.00">encrypted_password :character varying</text>
<text text-anchor="start" x="412.5" y="-489.3" font-family="Times,serif" font-size="14.00">reset_password_token :character varying</text>
<text text-anchor="start" x="412.5" y="-474.3" font-family="Times,serif" font-size="14.00">reset_password_sent_at :timestamp without time zone</text>
<text text-anchor="start" x="412.5" y="-459.3" font-family="Times,serif" font-size="14.00">remember_created_at :timestamp without time zone</text>
<text text-anchor="start" x="412.5" y="-444.3" font-family="Times,serif" font-size="14.00">sign_in_count :integer</text>
<text text-anchor="start" x="412.5" y="-429.3" font-family="Times,serif" font-size="14.00">current_sign_in_at :timestamp without time zone</text>
<text text-anchor="start" x="412.5" y="-414.3" font-family="Times,serif" font-size="14.00">last_sign_in_at :timestamp without time zone</text>
<text text-anchor="start" x="412.5" y="-399.3" font-family="Times,serif" font-size="14.00">current_sign_in_ip :inet</text>
<text text-anchor="start" x="412.5" y="-384.3" font-family="Times,serif" font-size="14.00">last_sign_in_ip :inet</text>
<text text-anchor="start" x="412.5" y="-369.3" font-family="Times,serif" font-size="14.00">created_at :timestamp without time zone</text>
<text text-anchor="start" x="412.5" y="-354.3" font-family="Times,serif" font-size="14.00">updated_at :timestamp without time zone</text>
<text text-anchor="start" x="412.5" y="-339.3" font-family="Times,serif" font-size="14.00">name :character varying</text>
<text text-anchor="start" x="412.5" y="-324.3" font-family="Times,serif" font-size="14.00">photo :character varying</text>
<text text-anchor="start" x="412.5" y="-309.3" font-family="Times,serif" font-size="14.00">biography :character varying</text>
<text text-anchor="start" x="412.5" y="-294.3" font-family="Times,serif" font-size="14.00">city :character varying</text>
</g>
<!-- Subject -->
<g id="node4" class="node"><title>Subject</title>
<path fill="none" stroke="black" d="M188,-151C188,-151 408,-151 408,-151 414,-151 420,-157 420,-163 420,-163 420,-230 420,-230 420,-236 414,-242 408,-242 408,-242 188,-242 188,-242 182,-242 176,-236 176,-230 176,-230 176,-163 176,-163 176,-157 182,-151 188,-151"/>
<text text-anchor="middle" x="298" y="-226.8" font-family="Times,serif" font-size="14.00">Subject</text>
<polyline fill="none" stroke="black" points="176,-219 420,-219 "/>
<text text-anchor="start" x="184" y="-203.8" font-family="Times,serif" font-size="14.00">id :integer</text>
<text text-anchor="start" x="184" y="-188.8" font-family="Times,serif" font-size="14.00">name :character varying</text>
<text text-anchor="start" x="184" y="-173.8" font-family="Times,serif" font-size="14.00">created_at :timestamp without time zone</text>
<text text-anchor="start" x="184" y="-158.8" font-family="Times,serif" font-size="14.00">updated_at :timestamp without time zone</text>
</g>
<!-- User&#45;&gt;Subject -->
<g id="edge4" class="edge"><title>User&#45;&gt;Subject</title>
<path fill="none" stroke="#d3fd86" d="M396.328,-283.864C382.34,-271.578 368.888,-259.763 356.662,-249.025"/>
<polygon fill="#d3fd86" stroke="#d3fd86" points="396.701,-284.191 401.244,-294.172 400.457,-287.491 404.214,-290.791 404.214,-290.791 404.214,-290.791 400.457,-287.491 407.184,-287.41 396.701,-284.191 396.701,-284.191"/>
<polygon fill="#d3fd86" stroke="#d3fd86" points="356.326,-248.729 351.782,-238.749 352.569,-245.43 348.813,-242.13 348.813,-242.13 348.813,-242.13 352.569,-245.43 345.843,-245.511 356.326,-248.729 356.326,-248.729"/>
</g>
<!-- UserSubject -->
<g id="node5" class="node"><title>UserSubject</title>
<path fill="none" stroke="black" d="M202,-0.5C202,-0.5 422,-0.5 422,-0.5 428,-0.5 434,-6.5 434,-12.5 434,-12.5 434,-94.5 434,-94.5 434,-100.5 428,-106.5 422,-106.5 422,-106.5 202,-106.5 202,-106.5 196,-106.5 190,-100.5 190,-94.5 190,-94.5 190,-12.5 190,-12.5 190,-6.5 196,-0.5 202,-0.5"/>
<text text-anchor="middle" x="312" y="-91.3" font-family="Times,serif" font-size="14.00">UserSubject</text>
<polyline fill="none" stroke="black" points="190,-83.5 434,-83.5 "/>
<text text-anchor="start" x="198" y="-68.3" font-family="Times,serif" font-size="14.00">id :integer</text>
<text text-anchor="start" x="198" y="-53.3" font-family="Times,serif" font-size="14.00">user_id :integer</text>
<text text-anchor="start" x="198" y="-38.3" font-family="Times,serif" font-size="14.00">subject_id :integer</text>
<text text-anchor="start" x="198" y="-23.3" font-family="Times,serif" font-size="14.00">created_at :timestamp without time zone</text>
<text text-anchor="start" x="198" y="-8.3" font-family="Times,serif" font-size="14.00">updated_at :timestamp without time zone</text>
</g>
<!-- User&#45;&gt;UserSubject -->
<g id="edge1" class="edge"><title>User&#45;&gt;UserSubject</title>
<path fill="none" stroke="#00de5c" d="M499.595,-278.749C474.891,-222.45 447.852,-166.401 429,-143 420.45,-132.387 410.362,-122.343 399.753,-113.096"/>
<ellipse fill="none" stroke="#00de5c" cx="501.305" cy="-282.665" rx="4.00002" ry="4.00002"/>
<polygon fill="#00de5c" stroke="#00de5c" points="399.59,-112.958 394.854,-103.068 395.77,-109.732 391.951,-106.506 391.951,-106.506 391.951,-106.506 395.77,-109.732 389.047,-109.944 399.59,-112.958 399.59,-112.958"/>
</g>
<!-- UserLevel -->
<g id="node6" class="node"><title>UserLevel</title>
<path fill="none" stroke="black" d="M492,-0.5C492,-0.5 712,-0.5 712,-0.5 718,-0.5 724,-6.5 724,-12.5 724,-12.5 724,-94.5 724,-94.5 724,-100.5 718,-106.5 712,-106.5 712,-106.5 492,-106.5 492,-106.5 486,-106.5 480,-100.5 480,-94.5 480,-94.5 480,-12.5 480,-12.5 480,-6.5 486,-0.5 492,-0.5"/>
<text text-anchor="middle" x="602" y="-91.3" font-family="Times,serif" font-size="14.00">UserLevel</text>
<polyline fill="none" stroke="black" points="480,-83.5 724,-83.5 "/>
<text text-anchor="start" x="488" y="-68.3" font-family="Times,serif" font-size="14.00">id :integer</text>
<text text-anchor="start" x="488" y="-53.3" font-family="Times,serif" font-size="14.00">user_id :integer</text>
<text text-anchor="start" x="488" y="-38.3" font-family="Times,serif" font-size="14.00">level_id :integer</text>
<text text-anchor="start" x="488" y="-23.3" font-family="Times,serif" font-size="14.00">created_at :timestamp without time zone</text>
<text text-anchor="start" x="488" y="-8.3" font-family="Times,serif" font-size="14.00">updated_at :timestamp without time zone</text>
</g>
<!-- User&#45;&gt;UserLevel -->
<g id="edge2" class="edge"><title>User&#45;&gt;UserLevel</title>
<path fill="none" stroke="#e0f8f6" d="M498.159,-278.384C488.165,-233.569 486.388,-185.177 505,-143 509.556,-132.676 515.976,-123.036 523.37,-114.201"/>
<ellipse fill="none" stroke="#e0f8f6" cx="499.13" cy="-282.521" rx="4.00001" ry="4.00001"/>
<polygon fill="#e0f8f6" stroke="#e0f8f6" points="523.446,-114.116 533.457,-109.64 526.771,-110.382 530.096,-106.648 530.096,-106.648 530.096,-106.648 526.771,-110.382 526.735,-103.655 523.446,-114.116 523.446,-114.116"/>
</g>
<!-- UserNetwork -->
<g id="node8" class="node"><title>UserNetwork</title>
<path fill="none" stroke="black" d="M811,-0.5C811,-0.5 1031,-0.5 1031,-0.5 1037,-0.5 1043,-6.5 1043,-12.5 1043,-12.5 1043,-94.5 1043,-94.5 1043,-100.5 1037,-106.5 1031,-106.5 1031,-106.5 811,-106.5 811,-106.5 805,-106.5 799,-100.5 799,-94.5 799,-94.5 799,-12.5 799,-12.5 799,-6.5 805,-0.5 811,-0.5"/>
<text text-anchor="middle" x="921" y="-91.3" font-family="Times,serif" font-size="14.00">UserNetwork</text>
<polyline fill="none" stroke="black" points="799,-83.5 1043,-83.5 "/>
<text text-anchor="start" x="807" y="-68.3" font-family="Times,serif" font-size="14.00">id :integer</text>
<text text-anchor="start" x="807" y="-53.3" font-family="Times,serif" font-size="14.00">user_id :integer</text>
<text text-anchor="start" x="807" y="-38.3" font-family="Times,serif" font-size="14.00">network_id :integer</text>
<text text-anchor="start" x="807" y="-23.3" font-family="Times,serif" font-size="14.00">created_at :timestamp without time zone</text>
<text text-anchor="start" x="807" y="-8.3" font-family="Times,serif" font-size="14.00">updated_at :timestamp without time zone</text>
</g>
<!-- User&#45;&gt;UserNetwork -->
<g id="edge3" class="edge"><title>User&#45;&gt;UserNetwork</title>
<path fill="none" stroke="#5fcc3b" d="M723.92,-288.447C748.262,-267.282 765.774,-251.796 767,-250 795.454,-208.321 775.262,-183.773 805,-143 812.732,-132.399 822.083,-122.466 832.083,-113.363"/>
<ellipse fill="none" stroke="#5fcc3b" cx="720.609" cy="-291.323" rx="4.00002" ry="4.00002"/>
<polygon fill="#5fcc3b" stroke="#5fcc3b" points="832.319,-113.156 842.806,-109.951 836.079,-109.861 839.84,-106.566 839.84,-106.566 839.84,-106.566 836.079,-109.861 836.875,-103.181 832.319,-113.156 832.319,-113.156"/>
</g>
<!-- Network -->
<g id="node9" class="node"><title>Network</title>
<path fill="none" stroke="black" d="M826,-143.5C826,-143.5 1046,-143.5 1046,-143.5 1052,-143.5 1058,-149.5 1058,-155.5 1058,-155.5 1058,-237.5 1058,-237.5 1058,-243.5 1052,-249.5 1046,-249.5 1046,-249.5 826,-249.5 826,-249.5 820,-249.5 814,-243.5 814,-237.5 814,-237.5 814,-155.5 814,-155.5 814,-149.5 820,-143.5 826,-143.5"/>
<text text-anchor="middle" x="936" y="-234.3" font-family="Times,serif" font-size="14.00">Network</text>
<polyline fill="none" stroke="black" points="814,-226.5 1058,-226.5 "/>
<text text-anchor="start" x="822" y="-211.3" font-family="Times,serif" font-size="14.00">id :integer</text>
<text text-anchor="start" x="822" y="-196.3" font-family="Times,serif" font-size="14.00">name :character varying</text>
<text text-anchor="start" x="822" y="-181.3" font-family="Times,serif" font-size="14.00">description :character varying</text>
<text text-anchor="start" x="822" y="-166.3" font-family="Times,serif" font-size="14.00">created_at :timestamp without time zone</text>
<text text-anchor="start" x="822" y="-151.3" font-family="Times,serif" font-size="14.00">updated_at :timestamp without time zone</text>
</g>
<!-- User&#45;&gt;Network -->
<g id="edge6" class="edge"><title>User&#45;&gt;Network</title>
<path fill="none" stroke="#8c9eba" d="M726.425,-286.357C726.617,-286.238 726.808,-286.119 727,-286 741.962,-276.725 771.939,-263.143 804.628,-249.391"/>
<polygon fill="#8c9eba" stroke="#8c9eba" points="726.23,-286.482 715.38,-288.069 722.016,-289.172 717.801,-291.862 717.801,-291.862 717.801,-291.862 722.016,-289.172 720.223,-295.655 726.23,-286.482 726.23,-286.482"/>
<polygon fill="#8c9eba" stroke="#8c9eba" points="804.683,-249.368 815.645,-249.663 809.296,-247.44 813.909,-245.511 813.909,-245.511 813.909,-245.511 809.296,-247.44 812.174,-241.359 804.683,-249.368 804.683,-249.368"/>
</g>
<!-- Level -->
<g id="node10" class="node"><title>Level</title>
<path fill="none" stroke="black" d="M526,-151C526,-151 746,-151 746,-151 752,-151 758,-157 758,-163 758,-163 758,-230 758,-230 758,-236 752,-242 746,-242 746,-242 526,-242 526,-242 520,-242 514,-236 514,-230 514,-230 514,-163 514,-163 514,-157 520,-151 526,-151"/>
<text text-anchor="middle" x="636" y="-226.8" font-family="Times,serif" font-size="14.00">Level</text>
<polyline fill="none" stroke="black" points="514,-219 758,-219 "/>
<text text-anchor="start" x="522" y="-203.8" font-family="Times,serif" font-size="14.00">id :integer</text>
<text text-anchor="start" x="522" y="-188.8" font-family="Times,serif" font-size="14.00">name :character varying</text>
<text text-anchor="start" x="522" y="-173.8" font-family="Times,serif" font-size="14.00">created_at :timestamp without time zone</text>
<text text-anchor="start" x="522" y="-158.8" font-family="Times,serif" font-size="14.00">updated_at :timestamp without time zone</text>
</g>
<!-- User&#45;&gt;Level -->
<g id="edge5" class="edge"><title>User&#45;&gt;Level</title>
<path fill="none" stroke="#b4ef8b" d="M610.211,-276.931C613.029,-268.251 615.749,-259.873 618.298,-252.022"/>
<polygon fill="#b4ef8b" stroke="#b4ef8b" points="610.198,-276.969 602.83,-285.091 608.654,-281.725 607.11,-286.48 607.11,-286.48 607.11,-286.48 608.654,-281.725 611.39,-287.87 610.198,-276.969 610.198,-276.969"/>
<polygon fill="#b4ef8b" stroke="#b4ef8b" points="618.342,-251.887 625.71,-243.766 619.886,-247.132 621.43,-242.376 621.43,-242.376 621.43,-242.376 619.886,-247.132 617.15,-240.987 618.342,-251.887 618.342,-251.887"/>
</g>
<!-- Subject&#45;&gt;UserSubject -->
<g id="edge7" class="edge"><title>Subject&#45;&gt;UserSubject</title>
<path fill="none" stroke="#543c79" d="M303.229,-142.84C304.072,-134.349 304.951,-125.489 305.815,-116.797"/>
<ellipse fill="none" stroke="#543c79" cx="302.825" cy="-146.906" rx="4" ry="4"/>
<polygon fill="#543c79" stroke="#543c79" points="305.829,-116.654 311.295,-107.147 306.323,-111.678 306.817,-106.703 306.817,-106.703 306.817,-106.703 306.323,-111.678 302.339,-106.258 305.829,-116.654 305.829,-116.654"/>
</g>
<!-- Material -->
<g id="node7" class="node"><title>Material</title>
<path fill="none" stroke="black" d="M748,-369C748,-369 968,-369 968,-369 974,-369 980,-375 980,-381 980,-381 980,-478 980,-478 980,-484 974,-490 968,-490 968,-490 748,-490 748,-490 742,-490 736,-484 736,-478 736,-478 736,-381 736,-381 736,-375 742,-369 748,-369"/>
<text text-anchor="middle" x="858" y="-474.8" font-family="Times,serif" font-size="14.00">Material</text>
<polyline fill="none" stroke="black" points="736,-467 980,-467 "/>
<text text-anchor="start" x="744" y="-451.8" font-family="Times,serif" font-size="14.00">id :integer</text>
<text text-anchor="start" x="744" y="-436.8" font-family="Times,serif" font-size="14.00">created_at :timestamp without time zone</text>
<text text-anchor="start" x="744" y="-421.8" font-family="Times,serif" font-size="14.00">updated_at :timestamp without time zone</text>
<text text-anchor="start" x="744" y="-406.8" font-family="Times,serif" font-size="14.00">title :character varying</text>
<text text-anchor="start" x="744" y="-391.8" font-family="Times,serif" font-size="14.00">description :text</text>
<text text-anchor="start" x="744" y="-376.8" font-family="Times,serif" font-size="14.00">user_id :integer</text>
</g>
<!-- Network&#45;&gt;UserNetwork -->
<g id="edge8" class="edge"><title>Network&#45;&gt;UserNetwork</title>
<path fill="none" stroke="#3d1d36" d="M929.584,-135.194C928.942,-129.154 928.289,-123.013 927.644,-116.952"/>
<ellipse fill="none" stroke="#3d1d36" cx="930.034" cy="-139.42" rx="4" ry="4"/>
<polygon fill="#3d1d36" stroke="#3d1d36" points="927.628,-116.803 931.045,-106.383 927.099,-111.831 926.57,-106.859 926.57,-106.859 926.57,-106.859 927.099,-111.831 922.095,-107.335 927.628,-116.803 927.628,-116.803"/>
</g>
<!-- Level&#45;&gt;UserLevel -->
<g id="edge9" class="edge"><title>Level&#45;&gt;UserLevel</title>
<path fill="none" stroke="#837553" d="M623.302,-142.84C621.232,-134.257 619.071,-125.296 616.954,-116.513"/>
<ellipse fill="none" stroke="#837553" cx="624.304" cy="-146.998" rx="4.00001" ry="4.00001"/>
<polygon fill="#837553" stroke="#837553" points="616.932,-116.424 618.962,-105.648 615.76,-111.563 614.588,-106.703 614.588,-106.703 614.588,-106.703 615.76,-111.563 610.213,-107.758 616.932,-116.424 616.932,-116.424"/>
</g>
</g>
</svg>
