<?xml version="1.0" encoding="UTF-8" standalone="no"?>
<!DOCTYPE svg PUBLIC "-//W3C//DTD SVG 1.1//EN"
 "http://www.w3.org/Graphics/SVG/1.1/DTD/svg11.dtd">
<!-- Generated by graphviz version 2.38.0 (20140413.2041)
 -->
<!-- Title: models_diagram Pages: 1 -->
<svg width="667pt" height="374pt"
 viewBox="0.00 0.00 667.34 374.00" xmlns="http://www.w3.org/2000/svg" xmlns:xlink="http://www.w3.org/1999/xlink">
<g id="graph0" class="graph" transform="scale(1 1) rotate(0) translate(4 370)">
<title>models_diagram</title>
<polygon fill="none" stroke="none" points="-4,4 -4,-370 663.343,-370 663.343,4 -4,4"/>
<!-- _diagram_info -->
<g id="node1" class="node"><title>_diagram_info</title>
<text text-anchor="start" x="8" y="-351.6" font-family="Times,serif" font-size="13.00">Models diagram</text>
<text text-anchor="start" x="8" y="-337.6" font-family="Times,serif" font-size="13.00">Date: Mar 19 2017 &#45; 21:39</text>
<text text-anchor="start" x="8" y="-323.6" font-family="Times,serif" font-size="13.00">Migration version: 20170320003322</text>
<text text-anchor="start" x="8" y="-309.6" font-family="Times,serif" font-size="13.00">Generated by RailRoady 1.5.2</text>
<text text-anchor="start" x="8" y="-295.6" font-family="Times,serif" font-size="13.00">http://railroady.prestonlee.com</text>
</g>
<!-- UserNetwork -->
<g id="node2" class="node"><title>UserNetwork</title>
<ellipse fill="none" stroke="black" cx="273" cy="-162" rx="57.6901" ry="18"/>
<text text-anchor="middle" x="273" y="-158.3" font-family="Times,serif" font-size="14.00">UserNetwork</text>
</g>
<!-- Level -->
<g id="node3" class="node"><title>Level</title>
<ellipse fill="none" stroke="black" cx="364" cy="-327" rx="30.5947" ry="18"/>
<text text-anchor="middle" x="364" y="-323.3" font-family="Times,serif" font-size="14.00">Level</text>
</g>
<!-- User -->
<g id="node8" class="node"><title>User</title>
<ellipse fill="none" stroke="black" cx="358" cy="-234" rx="27.0966" ry="18"/>
<text text-anchor="middle" x="358" y="-230.3" font-family="Times,serif" font-size="14.00">User</text>
</g>
<!-- Level&#45;&gt;User -->
<g id="edge1" class="edge"><title>Level&#45;&gt;User</title>
<path fill="none" stroke="#a5a2c7" d="M362.334,-300.729C361.542,-288.725 360.595,-274.362 359.789,-262.129"/>
<ellipse fill="none" stroke="#a5a2c7" cx="362.608" cy="-304.892" rx="4" ry="4"/>
<polygon fill="#a5a2c7" stroke="#a5a2c7" points="359.781,-262.018 363.614,-251.744 359.452,-257.029 359.123,-252.04 359.123,-252.04 359.123,-252.04 359.452,-257.029 354.633,-252.336 359.781,-262.018 359.781,-262.018"/>
</g>
<!-- Material -->
<g id="node10" class="node"><title>Material</title>
<ellipse fill="none" stroke="black" cx="428" cy="-162" rx="40.8928" ry="18"/>
<text text-anchor="middle" x="428" y="-158.3" font-family="Times,serif" font-size="14.00">Material</text>
</g>
<!-- Level&#45;&gt;Material -->
<g id="edge2" class="edge"><title>Level&#45;&gt;Material</title>
<path fill="none" stroke="#d65089" d="M373.975,-301.751C379.872,-287.327 387.445,-268.652 394,-252 402.205,-231.157 411.244,-207.461 417.938,-189.762"/>
<ellipse fill="none" stroke="#d65089" cx="372.404" cy="-305.585" rx="4.00001" ry="4.00001"/>
<polygon fill="#d65089" stroke="#d65089" points="418.053,-189.457 425.794,-181.691 419.819,-184.779 421.584,-180.102 421.584,-180.102 421.584,-180.102 419.819,-184.779 417.374,-178.512 418.053,-189.457 418.053,-189.457"/>
</g>
<!-- Comment -->
<g id="node4" class="node"><title>Comment</title>
<ellipse fill="none" stroke="black" cx="359" cy="-18" rx="46.2923" ry="18"/>
<text text-anchor="middle" x="359" y="-14.3" font-family="Times,serif" font-size="14.00">Comment</text>
</g>
<!-- ApplicationRecord -->
<g id="node5" class="node"><title>ApplicationRecord</title>
<ellipse fill="none" stroke="black" cx="582" cy="-327" rx="77.1866" ry="18"/>
<text text-anchor="middle" x="582" y="-323.3" font-family="Times,serif" font-size="14.00">ApplicationRecord</text>
</g>
<!-- UserMaterial -->
<g id="node6" class="node"><title>UserMaterial</title>
<ellipse fill="none" stroke="black" cx="359" cy="-90" rx="57.6901" ry="18"/>
<text text-anchor="middle" x="359" y="-86.3" font-family="Times,serif" font-size="14.00">UserMaterial</text>
</g>
<!-- UserMaterial&#45;&gt;Comment -->
<g id="edge3" class="edge"><title>UserMaterial&#45;&gt;Comment</title>
<path fill="none" stroke="#a04546" d="M359,-63.6398C359,-58.0629 359,-52.1319 359,-46.4761"/>
<ellipse fill="none" stroke="#a04546" cx="359" cy="-67.6966" rx="4" ry="4"/>
<polygon fill="#a04546" stroke="#a04546" points="359,-46.1043 363.5,-36.1043 359,-41.1043 359,-36.1043 359,-36.1043 359,-36.1043 359,-41.1043 354.5,-36.1044 359,-46.1043 359,-46.1043"/>
</g>
<!-- Network -->
<g id="node7" class="node"><title>Network</title>
<ellipse fill="none" stroke="black" cx="274" cy="-327" rx="41.6928" ry="18"/>
<text text-anchor="middle" x="274" y="-323.3" font-family="Times,serif" font-size="14.00">Network</text>
</g>
<!-- Network&#45;&gt;UserNetwork -->
<g id="edge4" class="edge"><title>Network&#45;&gt;UserNetwork</title>
<path fill="none" stroke="#65b0dc" d="M273.844,-300.52C273.66,-270.6 273.357,-221.164 273.168,-190.427"/>
<ellipse fill="none" stroke="#65b0dc" cx="273.87" cy="-304.864" rx="4" ry="4"/>
<polygon fill="#65b0dc" stroke="#65b0dc" points="273.168,-190.397 277.607,-180.369 273.137,-185.397 273.107,-180.397 273.107,-180.397 273.107,-180.397 273.137,-185.397 268.607,-180.424 273.168,-190.397 273.168,-190.397"/>
</g>
<!-- Network&#45;&gt;User -->
<g id="edge5" class="edge"><title>Network&#45;&gt;User</title>
<path fill="none" stroke="#ee8af5" d="M295.74,-302.449C308.582,-288.537 324.746,-271.025 337.386,-257.331"/>
<polygon fill="#ee8af5" stroke="#ee8af5" points="295.415,-302.801 285.325,-307.097 292.023,-306.475 288.632,-310.149 288.632,-310.149 288.632,-310.149 292.023,-306.475 291.938,-313.201 295.415,-302.801 295.415,-302.801"/>
<polygon fill="#ee8af5" stroke="#ee8af5" points="337.587,-257.114 347.676,-252.818 340.978,-253.44 344.37,-249.766 344.37,-249.766 344.37,-249.766 340.978,-253.44 341.063,-246.714 337.587,-257.114 337.587,-257.114"/>
</g>
<!-- User&#45;&gt;UserNetwork -->
<g id="edge6" class="edge"><title>User&#45;&gt;UserNetwork</title>
<path fill="none" stroke="#ea7082" d="M335.375,-214.368C324.659,-205.543 311.766,-194.925 300.491,-185.64"/>
<ellipse fill="none" stroke="#ea7082" cx="338.523" cy="-216.96" rx="4.00002" ry="4.00002"/>
<polygon fill="#ea7082" stroke="#ea7082" points="300.34,-185.515 295.481,-175.685 296.48,-182.337 292.621,-179.158 292.621,-179.158 292.621,-179.158 296.48,-182.337 289.76,-182.632 300.34,-185.515 300.34,-185.515"/>
</g>
<!-- User&#45;&gt;UserMaterial -->
<g id="edge7" class="edge"><title>User&#45;&gt;UserMaterial</title>
<path fill="none" stroke="#7dc267" d="M358.179,-207.558C358.356,-182.444 358.626,-144.164 358.807,-118.393"/>
<ellipse fill="none" stroke="#7dc267" cx="358.149" cy="-211.872" rx="4" ry="4"/>
<polygon fill="#7dc267" stroke="#7dc267" points="358.808,-118.189 363.379,-108.221 358.844,-113.189 358.879,-108.189 358.879,-108.189 358.879,-108.189 358.844,-113.189 354.379,-108.158 358.808,-118.189 358.808,-118.189"/>
</g>
<!-- User&#45;&gt;Material -->
<g id="edge8" class="edge"><title>User&#45;&gt;Material</title>
<path fill="none" stroke="#2e35f4" d="M379.721,-211.279C387.723,-203.277 396.812,-194.188 404.928,-186.072"/>
<polygon fill="#2e35f4" stroke="#2e35f4" points="379.575,-211.425 369.322,-215.314 376.04,-214.96 372.504,-218.496 372.504,-218.496 372.504,-218.496 376.04,-214.96 375.686,-221.678 379.575,-211.425 379.575,-211.425"/>
<polygon fill="#2e35f4" stroke="#2e35f4" points="404.979,-186.021 415.232,-182.132 408.515,-182.485 412.05,-178.95 412.05,-178.95 412.05,-178.95 408.515,-182.485 408.868,-175.768 404.979,-186.021 404.979,-186.021"/>
</g>
<!-- Alternative -->
<g id="node9" class="node"><title>Alternative</title>
<ellipse fill="none" stroke="black" cx="477" cy="-18" rx="50.0912" ry="18"/>
<text text-anchor="middle" x="477" y="-14.3" font-family="Times,serif" font-size="14.00">Alternative</text>
</g>
<!-- Material&#45;&gt;UserMaterial -->
<g id="edge9" class="edge"><title>Material&#45;&gt;UserMaterial</title>
<path fill="none" stroke="#306419" d="M406.591,-139.281C398.96,-131.539 390.326,-122.78 382.527,-114.868"/>
<ellipse fill="none" stroke="#306419" cx="409.535" cy="-142.267" rx="4.00002" ry="4.00002"/>
<polygon fill="#306419" stroke="#306419" points="382.094,-114.429 378.279,-104.148 378.584,-110.868 375.074,-107.307 375.074,-107.307 375.074,-107.307 378.584,-110.868 371.869,-110.466 382.094,-114.429 382.094,-114.429"/>
</g>
<!-- Question -->
<g id="node11" class="node"><title>Question</title>
<ellipse fill="none" stroke="black" cx="477" cy="-90" rx="42.4939" ry="18"/>
<text text-anchor="middle" x="477" y="-86.3" font-family="Times,serif" font-size="14.00">Question</text>
</g>
<!-- Material&#45;&gt;Question -->
<g id="edge10" class="edge"><title>Material&#45;&gt;Question</title>
<path fill="none" stroke="#568680" d="M444.231,-137.812C449.119,-130.831 454.503,-123.138 459.471,-116.042"/>
<ellipse fill="none" stroke="#568680" cx="441.906" cy="-141.134" rx="4.00002" ry="4.00002"/>
<polygon fill="#568680" stroke="#568680" points="459.736,-115.662 469.158,-110.051 462.604,-111.566 465.471,-107.47 465.471,-107.47 465.471,-107.47 462.604,-111.566 461.784,-104.889 459.736,-115.662 459.736,-115.662"/>
</g>
<!-- Question&#45;&gt;Alternative -->
<g id="edge11" class="edge"><title>Question&#45;&gt;Alternative</title>
<path fill="none" stroke="#93f49e" d="M477,-63.6398C477,-58.0629 477,-52.1319 477,-46.4761"/>
<ellipse fill="none" stroke="#93f49e" cx="477" cy="-67.6966" rx="4" ry="4"/>
<polygon fill="#93f49e" stroke="#93f49e" points="477,-46.1043 481.5,-36.1043 477,-41.1043 477,-36.1043 477,-36.1043 477,-36.1043 477,-41.1043 472.5,-36.1044 477,-46.1043 477,-46.1043"/>
</g>
<!-- Subject -->
<g id="node12" class="node"><title>Subject</title>
<ellipse fill="none" stroke="black" cx="450" cy="-327" rx="37.0935" ry="18"/>
<text text-anchor="middle" x="450" y="-323.3" font-family="Times,serif" font-size="14.00">Subject</text>
</g>
<!-- Subject&#45;&gt;User -->
<g id="edge12" class="edge"><title>Subject&#45;&gt;User</title>
<path fill="none" stroke="#42b39d" d="M428.362,-304.597C413.686,-290.08 394.359,-270.964 379.675,-256.439"/>
<ellipse fill="none" stroke="#42b39d" cx="431.55" cy="-307.75" rx="4.00002" ry="4.00002"/>
<polygon fill="#42b39d" stroke="#42b39d" points="379.578,-256.343 375.633,-246.112 376.023,-252.827 372.468,-249.311 372.468,-249.311 372.468,-249.311 376.023,-252.827 369.304,-252.51 379.578,-256.343 379.578,-256.343"/>
</g>
<!-- Subject&#45;&gt;Material -->
<g id="edge13" class="edge"><title>Subject&#45;&gt;Material</title>
<path fill="none" stroke="#f56ea0" d="M446.561,-300.52C442.523,-270.6 435.85,-221.164 431.702,-190.427"/>
<ellipse fill="none" stroke="#f56ea0" cx="447.152" cy="-304.9" rx="4.00001" ry="4.00001"/>
<polygon fill="#f56ea0" stroke="#f56ea0" points="431.686,-190.307 434.808,-179.795 431.017,-185.352 430.348,-180.397 430.348,-180.397 430.348,-180.397 431.017,-185.352 425.888,-180.999 431.686,-190.307 431.686,-190.307"/>
</g>
</g>
</svg>
