<?xml version="1.0" encoding="UTF-8" standalone="no"?>
<!DOCTYPE svg PUBLIC "-//W3C//DTD SVG 1.1//EN"
 "http://www.w3.org/Graphics/SVG/1.1/DTD/svg11.dtd">
<!-- Generated by graphviz version 2.38.0 (20140413.2041)
 -->
<!-- Title: models_diagram Pages: 1 -->
<svg width="1066pt" height="912pt"
 viewBox="0.00 0.00 1065.60 912.00" xmlns="http://www.w3.org/2000/svg" xmlns:xlink="http://www.w3.org/1999/xlink">
<g id="graph0" class="graph" transform="scale(1 1) rotate(0) translate(4 908)">
<title>models_diagram</title>
<polygon fill="none" stroke="none" points="-4,4 -4,-908 1061.6,-908 1061.6,4 -4,4"/>
<!-- _diagram_info -->
<g id="node1" class="node"><title>_diagram_info</title>
<text text-anchor="start" x="266" y="-800.1" font-family="Times,serif" font-size="13.00">Models diagram</text>
<text text-anchor="start" x="266" y="-786.1" font-family="Times,serif" font-size="13.00">Date: Mar 18 2017 &#45; 22:31</text>
<text text-anchor="start" x="266" y="-772.1" font-family="Times,serif" font-size="13.00">Migration version: 20170319010214</text>
<text text-anchor="start" x="266" y="-758.1" font-family="Times,serif" font-size="13.00">Generated by RailRoady 1.5.2</text>
<text text-anchor="start" x="266" y="-744.1" font-family="Times,serif" font-size="13.00">http://railroady.prestonlee.com</text>
</g>
<!-- UserNetwork -->
<g id="node2" class="node"><title>UserNetwork</title>
<path fill="none" stroke="black" d="M12,-504.5C12,-504.5 232,-504.5 232,-504.5 238,-504.5 244,-510.5 244,-516.5 244,-516.5 244,-598.5 244,-598.5 244,-604.5 238,-610.5 232,-610.5 232,-610.5 12,-610.5 12,-610.5 6,-610.5 0,-604.5 0,-598.5 0,-598.5 0,-516.5 0,-516.5 0,-510.5 6,-504.5 12,-504.5"/>
<text text-anchor="middle" x="122" y="-595.3" font-family="Times,serif" font-size="14.00">UserNetwork</text>
<polyline fill="none" stroke="black" points="0,-587.5 244,-587.5 "/>
<text text-anchor="start" x="8" y="-572.3" font-family="Times,serif" font-size="14.00">id :integer</text>
<text text-anchor="start" x="8" y="-557.3" font-family="Times,serif" font-size="14.00">user_id :integer</text>
<text text-anchor="start" x="8" y="-542.3" font-family="Times,serif" font-size="14.00">network_id :integer</text>
<text text-anchor="start" x="8" y="-527.3" font-family="Times,serif" font-size="14.00">created_at :timestamp without time zone</text>
<text text-anchor="start" x="8" y="-512.3" font-family="Times,serif" font-size="14.00">updated_at :timestamp without time zone</text>
</g>
<!-- UserLevel -->
<g id="node3" class="node"><title>UserLevel</title>
<path fill="none" stroke="black" d="M162,-331.5C162,-331.5 382,-331.5 382,-331.5 388,-331.5 394,-337.5 394,-343.5 394,-343.5 394,-425.5 394,-425.5 394,-431.5 388,-437.5 382,-437.5 382,-437.5 162,-437.5 162,-437.5 156,-437.5 150,-431.5 150,-425.5 150,-425.5 150,-343.5 150,-343.5 150,-337.5 156,-331.5 162,-331.5"/>
<text text-anchor="middle" x="272" y="-422.3" font-family="Times,serif" font-size="14.00">UserLevel</text>
<polyline fill="none" stroke="black" points="150,-414.5 394,-414.5 "/>
<text text-anchor="start" x="158" y="-399.3" font-family="Times,serif" font-size="14.00">id :integer</text>
<text text-anchor="start" x="158" y="-384.3" font-family="Times,serif" font-size="14.00">user_id :integer</text>
<text text-anchor="start" x="158" y="-369.3" font-family="Times,serif" font-size="14.00">level_id :integer</text>
<text text-anchor="start" x="158" y="-354.3" font-family="Times,serif" font-size="14.00">created_at :timestamp without time zone</text>
<text text-anchor="start" x="158" y="-339.3" font-family="Times,serif" font-size="14.00">updated_at :timestamp without time zone</text>
</g>
<!-- Level -->
<g id="node4" class="node"><title>Level</title>
<path fill="none" stroke="black" d="M312,-512C312,-512 532,-512 532,-512 538,-512 544,-518 544,-524 544,-524 544,-591 544,-591 544,-597 538,-603 532,-603 532,-603 312,-603 312,-603 306,-603 300,-597 300,-591 300,-591 300,-524 300,-524 300,-518 306,-512 312,-512"/>
<text text-anchor="middle" x="422" y="-587.8" font-family="Times,serif" font-size="14.00">Level</text>
<polyline fill="none" stroke="black" points="300,-580 544,-580 "/>
<text text-anchor="start" x="308" y="-564.8" font-family="Times,serif" font-size="14.00">id :integer</text>
<text text-anchor="start" x="308" y="-549.8" font-family="Times,serif" font-size="14.00">name :character varying</text>
<text text-anchor="start" x="308" y="-534.8" font-family="Times,serif" font-size="14.00">created_at :timestamp without time zone</text>
<text text-anchor="start" x="308" y="-519.8" font-family="Times,serif" font-size="14.00">updated_at :timestamp without time zone</text>
</g>
<!-- Level&#45;&gt;UserLevel -->
<g id="edge1" class="edge"><title>Level&#45;&gt;UserLevel</title>
<path fill="none" stroke="#6d81c9" d="M377.132,-505.351C360.585,-486.487 341.69,-464.947 324.526,-445.379"/>
<ellipse fill="none" stroke="#6d81c9" cx="379.951" cy="-508.565" rx="4.00002" ry="4.00002"/>
<polygon fill="#6d81c9" stroke="#6d81c9" points="324.386,-445.22 321.174,-434.735 321.088,-441.461 317.791,-437.702 317.791,-437.702 317.791,-437.702 321.088,-441.461 314.408,-440.67 324.386,-445.22 324.386,-445.22"/>
</g>
<!-- Material -->
<g id="node10" class="node"><title>Material</title>
<path fill="none" stroke="black" d="M424,-301.5C424,-301.5 644,-301.5 644,-301.5 650,-301.5 656,-307.5 656,-313.5 656,-313.5 656,-455.5 656,-455.5 656,-461.5 650,-467.5 644,-467.5 644,-467.5 424,-467.5 424,-467.5 418,-467.5 412,-461.5 412,-455.5 412,-455.5 412,-313.5 412,-313.5 412,-307.5 418,-301.5 424,-301.5"/>
<text text-anchor="middle" x="534" y="-452.3" font-family="Times,serif" font-size="14.00">Material</text>
<polyline fill="none" stroke="black" points="412,-444.5 656,-444.5 "/>
<text text-anchor="start" x="420" y="-429.3" font-family="Times,serif" font-size="14.00">id :integer</text>
<text text-anchor="start" x="420" y="-414.3" font-family="Times,serif" font-size="14.00">title :character varying</text>
<text text-anchor="start" x="420" y="-399.3" font-family="Times,serif" font-size="14.00">description :text</text>
<text text-anchor="start" x="420" y="-384.3" font-family="Times,serif" font-size="14.00">created_at :timestamp without time zone</text>
<text text-anchor="start" x="420" y="-369.3" font-family="Times,serif" font-size="14.00">updated_at :timestamp without time zone</text>
<text text-anchor="start" x="420" y="-354.3" font-family="Times,serif" font-size="14.00">updated_by :integer</text>
<text text-anchor="start" x="420" y="-339.3" font-family="Times,serif" font-size="14.00">public_level :integer</text>
<text text-anchor="start" x="420" y="-324.3" font-family="Times,serif" font-size="14.00">subject_id :integer</text>
<text text-anchor="start" x="420" y="-309.3" font-family="Times,serif" font-size="14.00">level_id :integer</text>
</g>
<!-- Level&#45;&gt;Material -->
<g id="edge2" class="edge"><title>Level&#45;&gt;Material</title>
<path fill="none" stroke="#606d38" d="M455.885,-504.765C461.85,-495.657 468.214,-485.941 474.637,-476.134"/>
<ellipse fill="none" stroke="#606d38" cx="453.618" cy="-508.226" rx="4.00002" ry="4.00002"/>
<polygon fill="#606d38" stroke="#606d38" points="474.809,-475.871 484.053,-469.971 477.549,-471.688 480.289,-467.506 480.289,-467.506 480.289,-467.506 477.549,-471.688 476.524,-465.04 474.809,-475.871 474.809,-475.871"/>
</g>
<!-- Comment -->
<g id="node5" class="node"><title>Comment</title>
<path fill="none" stroke="black" d="M761,-0.5C761,-0.5 981,-0.5 981,-0.5 987,-0.5 993,-6.5 993,-12.5 993,-12.5 993,-94.5 993,-94.5 993,-100.5 987,-106.5 981,-106.5 981,-106.5 761,-106.5 761,-106.5 755,-106.5 749,-100.5 749,-94.5 749,-94.5 749,-12.5 749,-12.5 749,-6.5 755,-0.5 761,-0.5"/>
<text text-anchor="middle" x="871" y="-91.3" font-family="Times,serif" font-size="14.00">Comment</text>
<polyline fill="none" stroke="black" points="749,-83.5 993,-83.5 "/>
<text text-anchor="start" x="757" y="-68.3" font-family="Times,serif" font-size="14.00">id :integer</text>
<text text-anchor="start" x="757" y="-53.3" font-family="Times,serif" font-size="14.00">content :text</text>
<text text-anchor="start" x="757" y="-38.3" font-family="Times,serif" font-size="14.00">user_material_id :integer</text>
<text text-anchor="start" x="757" y="-23.3" font-family="Times,serif" font-size="14.00">created_at :timestamp without time zone</text>
<text text-anchor="start" x="757" y="-8.3" font-family="Times,serif" font-size="14.00">updated_at :timestamp without time zone</text>
</g>
<!-- ApplicationRecord -->
<g id="node6" class="node"><title>ApplicationRecord</title>
<ellipse fill="none" stroke="black" cx="899" cy="-775.5" rx="77.1866" ry="18"/>
<text text-anchor="middle" x="899" y="-771.8" font-family="Times,serif" font-size="14.00">ApplicationRecord</text>
</g>
<!-- UserMaterial -->
<g id="node7" class="node"><title>UserMaterial</title>
<path fill="none" stroke="black" d="M761,-143.5C761,-143.5 981,-143.5 981,-143.5 987,-143.5 993,-149.5 993,-155.5 993,-155.5 993,-252.5 993,-252.5 993,-258.5 987,-264.5 981,-264.5 981,-264.5 761,-264.5 761,-264.5 755,-264.5 749,-258.5 749,-252.5 749,-252.5 749,-155.5 749,-155.5 749,-149.5 755,-143.5 761,-143.5"/>
<text text-anchor="middle" x="871" y="-249.3" font-family="Times,serif" font-size="14.00">UserMaterial</text>
<polyline fill="none" stroke="black" points="749,-241.5 993,-241.5 "/>
<text text-anchor="start" x="757" y="-226.3" font-family="Times,serif" font-size="14.00">id :integer</text>
<text text-anchor="start" x="757" y="-211.3" font-family="Times,serif" font-size="14.00">material_id :integer</text>
<text text-anchor="start" x="757" y="-196.3" font-family="Times,serif" font-size="14.00">user_id :integer</text>
<text text-anchor="start" x="757" y="-181.3" font-family="Times,serif" font-size="14.00">created_at :timestamp without time zone</text>
<text text-anchor="start" x="757" y="-166.3" font-family="Times,serif" font-size="14.00">updated_at :timestamp without time zone</text>
<text text-anchor="start" x="757" y="-151.3" font-family="Times,serif" font-size="14.00">role :integer</text>
</g>
<!-- UserMaterial&#45;&gt;Comment -->
<g id="edge3" class="edge"><title>UserMaterial&#45;&gt;Comment</title>
<path fill="none" stroke="#b23265" d="M871,-135.448C871,-129.304 871,-123.098 871,-117.001"/>
<ellipse fill="none" stroke="#b23265" cx="871" cy="-139.455" rx="4" ry="4"/>
<polygon fill="#b23265" stroke="#b23265" points="871,-116.872 875.5,-106.872 871,-111.872 871,-106.872 871,-106.872 871,-106.872 871,-111.872 866.5,-106.872 871,-116.872 871,-116.872"/>
</g>
<!-- User -->
<g id="node8" class="node"><title>User</title>
<path fill="none" stroke="black" d="M502.5,-647.5C502.5,-647.5 791.5,-647.5 791.5,-647.5 797.5,-647.5 803.5,-653.5 803.5,-659.5 803.5,-659.5 803.5,-891.5 803.5,-891.5 803.5,-897.5 797.5,-903.5 791.5,-903.5 791.5,-903.5 502.5,-903.5 502.5,-903.5 496.5,-903.5 490.5,-897.5 490.5,-891.5 490.5,-891.5 490.5,-659.5 490.5,-659.5 490.5,-653.5 496.5,-647.5 502.5,-647.5"/>
<text text-anchor="middle" x="647" y="-888.3" font-family="Times,serif" font-size="14.00">User</text>
<polyline fill="none" stroke="black" points="490.5,-880.5 803.5,-880.5 "/>
<text text-anchor="start" x="498.5" y="-865.3" font-family="Times,serif" font-size="14.00">id :integer</text>
<text text-anchor="start" x="498.5" y="-850.3" font-family="Times,serif" font-size="14.00">email :character varying</text>
<text text-anchor="start" x="498.5" y="-835.3" font-family="Times,serif" font-size="14.00">encrypted_password :character varying</text>
<text text-anchor="start" x="498.5" y="-820.3" font-family="Times,serif" font-size="14.00">reset_password_token :character varying</text>
<text text-anchor="start" x="498.5" y="-805.3" font-family="Times,serif" font-size="14.00">reset_password_sent_at :timestamp without time zone</text>
<text text-anchor="start" x="498.5" y="-790.3" font-family="Times,serif" font-size="14.00">remember_created_at :timestamp without time zone</text>
<text text-anchor="start" x="498.5" y="-775.3" font-family="Times,serif" font-size="14.00">sign_in_count :integer</text>
<text text-anchor="start" x="498.5" y="-760.3" font-family="Times,serif" font-size="14.00">current_sign_in_at :timestamp without time zone</text>
<text text-anchor="start" x="498.5" y="-745.3" font-family="Times,serif" font-size="14.00">last_sign_in_at :timestamp without time zone</text>
<text text-anchor="start" x="498.5" y="-730.3" font-family="Times,serif" font-size="14.00">current_sign_in_ip :inet</text>
<text text-anchor="start" x="498.5" y="-715.3" font-family="Times,serif" font-size="14.00">last_sign_in_ip :inet</text>
<text text-anchor="start" x="498.5" y="-700.3" font-family="Times,serif" font-size="14.00">created_at :timestamp without time zone</text>
<text text-anchor="start" x="498.5" y="-685.3" font-family="Times,serif" font-size="14.00">updated_at :timestamp without time zone</text>
<text text-anchor="start" x="498.5" y="-670.3" font-family="Times,serif" font-size="14.00">first_name :character varying</text>
<text text-anchor="start" x="498.5" y="-655.3" font-family="Times,serif" font-size="14.00">last_name :character varying</text>
</g>
<!-- User&#45;&gt;UserNetwork -->
<g id="edge6" class="edge"><title>User&#45;&gt;UserNetwork</title>
<path fill="none" stroke="#0c552c" d="M483.079,-647.908C482.386,-647.602 481.693,-647.299 481,-647 388.827,-607.211 354.91,-637.22 258,-611 256.729,-610.656 255.453,-610.304 254.174,-609.946"/>
<ellipse fill="none" stroke="#0c552c" cx="486.852" cy="-649.646" rx="4.00002" ry="4.00002"/>
<polygon fill="#0c552c" stroke="#0c552c" points="253.9,-609.866 245.564,-602.74 249.101,-608.463 244.302,-607.06 244.302,-607.06 244.302,-607.06 249.101,-608.463 243.039,-611.379 253.9,-609.866 253.9,-609.866"/>
</g>
<!-- User&#45;&gt;UserLevel -->
<g id="edge5" class="edge"><title>User&#45;&gt;UserLevel</title>
<path fill="none" stroke="#6f960d" d="M483.067,-647.936C482.378,-647.621 481.689,-647.309 481,-647 402.562,-611.867 348.558,-674.827 291,-611 251.739,-567.463 251.792,-498.064 258.667,-447.745"/>
<ellipse fill="none" stroke="#6f960d" cx="486.82" cy="-649.721" rx="4.00002" ry="4.00002"/>
<polygon fill="#6f960d" stroke="#6f960d" points="258.7,-447.523 264.625,-438.295 259.437,-442.577 260.175,-437.632 260.175,-437.632 260.175,-437.632 259.437,-442.577 255.724,-436.968 258.7,-447.523 258.7,-447.523"/>
</g>
<!-- User&#45;&gt;Level -->
<g id="edge9" class="edge"><title>User&#45;&gt;Level</title>
<path fill="none" stroke="#ccd310" d="M507.227,-640.318C496.232,-629.762 485.607,-619.562 475.807,-610.155"/>
<polygon fill="#ccd310" stroke="#ccd310" points="507.276,-640.365 511.374,-650.537 510.883,-643.828 514.49,-647.291 514.49,-647.291 514.49,-647.291 510.883,-643.828 517.607,-644.044 507.276,-640.365 507.276,-640.365"/>
<polygon fill="#ccd310" stroke="#ccd310" points="475.695,-610.048 471.598,-599.876 472.088,-606.585 468.482,-603.122 468.482,-603.122 468.482,-603.122 472.088,-606.585 465.365,-606.369 475.695,-610.048 475.695,-610.048"/>
</g>
<!-- User&#45;&gt;UserMaterial -->
<g id="edge7" class="edge"><title>User&#45;&gt;UserMaterial</title>
<path fill="none" stroke="#76cc95" d="M810.341,-648.83C811.229,-648.217 812.115,-647.607 813,-647 838.328,-629.619 852.327,-634.592 872,-611 961.615,-503.531 963.519,-436.08 927,-301 924.515,-291.807 920.906,-282.59 916.7,-273.701"/>
<ellipse fill="none" stroke="#76cc95" cx="806.79" cy="-651.299" rx="4.00002" ry="4.00002"/>
<polygon fill="#76cc95" stroke="#76cc95" points="916.604,-273.51 916.145,-262.553 914.363,-269.04 912.122,-264.57 912.122,-264.57 912.122,-264.57 914.363,-269.04 908.099,-266.587 916.604,-273.51 916.604,-273.51"/>
</g>
<!-- User&#45;&gt;Material -->
<g id="edge11" class="edge"><title>User&#45;&gt;Material</title>
<path fill="none" stroke="#f382b3" d="M599.151,-637.481C596.315,-628.545 593.573,-619.66 591,-611 578.038,-567.37 565.44,-518.446 555.399,-477.347"/>
<polygon fill="#f382b3" stroke="#f382b3" points="599.211,-637.668 597.977,-648.564 600.737,-642.429 602.262,-647.191 602.262,-647.191 602.262,-647.191 600.737,-642.429 606.548,-645.818 599.211,-637.668 599.211,-637.668"/>
<polygon fill="#f382b3" stroke="#f382b3" points="555.397,-477.337 557.407,-466.557 554.216,-472.478 553.034,-467.62 553.034,-467.62 553.034,-467.62 554.216,-472.478 548.662,-468.683 555.397,-477.337 555.397,-477.337"/>
</g>
<!-- UserSubject -->
<g id="node11" class="node"><title>UserSubject</title>
<path fill="none" stroke="black" d="M686,-331.5C686,-331.5 906,-331.5 906,-331.5 912,-331.5 918,-337.5 918,-343.5 918,-343.5 918,-425.5 918,-425.5 918,-431.5 912,-437.5 906,-437.5 906,-437.5 686,-437.5 686,-437.5 680,-437.5 674,-431.5 674,-425.5 674,-425.5 674,-343.5 674,-343.5 674,-337.5 680,-331.5 686,-331.5"/>
<text text-anchor="middle" x="796" y="-422.3" font-family="Times,serif" font-size="14.00">UserSubject</text>
<polyline fill="none" stroke="black" points="674,-414.5 918,-414.5 "/>
<text text-anchor="start" x="682" y="-399.3" font-family="Times,serif" font-size="14.00">id :integer</text>
<text text-anchor="start" x="682" y="-384.3" font-family="Times,serif" font-size="14.00">user_id :integer</text>
<text text-anchor="start" x="682" y="-369.3" font-family="Times,serif" font-size="14.00">subject_id :integer</text>
<text text-anchor="start" x="682" y="-354.3" font-family="Times,serif" font-size="14.00">created_at :timestamp without time zone</text>
<text text-anchor="start" x="682" y="-339.3" font-family="Times,serif" font-size="14.00">updated_at :timestamp without time zone</text>
</g>
<!-- User&#45;&gt;UserSubject -->
<g id="edge4" class="edge"><title>User&#45;&gt;UserSubject</title>
<path fill="none" stroke="#ec3e57" d="M810.225,-648.489C833.998,-629.37 851.206,-614.715 853,-611 878.356,-558.503 856.983,-493.497 833.523,-446.789"/>
<ellipse fill="none" stroke="#ec3e57" cx="806.823" cy="-651.216" rx="4.00002" ry="4.00002"/>
<polygon fill="#ec3e57" stroke="#ec3e57" points="833.415,-446.58 832.813,-435.631 831.116,-442.14 828.817,-437.7 828.817,-437.7 828.817,-437.7 831.116,-442.14 824.821,-439.77 833.415,-446.58 833.415,-446.58"/>
</g>
<!-- Subject -->
<g id="node13" class="node"><title>Subject</title>
<path fill="none" stroke="black" d="M612,-512C612,-512 832,-512 832,-512 838,-512 844,-518 844,-524 844,-524 844,-591 844,-591 844,-597 838,-603 832,-603 832,-603 612,-603 612,-603 606,-603 600,-597 600,-591 600,-591 600,-524 600,-524 600,-518 606,-512 612,-512"/>
<text text-anchor="middle" x="722" y="-587.8" font-family="Times,serif" font-size="14.00">Subject</text>
<polyline fill="none" stroke="black" points="600,-580 844,-580 "/>
<text text-anchor="start" x="608" y="-564.8" font-family="Times,serif" font-size="14.00">id :integer</text>
<text text-anchor="start" x="608" y="-549.8" font-family="Times,serif" font-size="14.00">name :character varying</text>
<text text-anchor="start" x="608" y="-534.8" font-family="Times,serif" font-size="14.00">created_at :timestamp without time zone</text>
<text text-anchor="start" x="608" y="-519.8" font-family="Times,serif" font-size="14.00">updated_at :timestamp without time zone</text>
</g>
<!-- User&#45;&gt;Subject -->
<g id="edge8" class="edge"><title>User&#45;&gt;Subject</title>
<path fill="none" stroke="#73391f" d="M694.475,-637.773C697.484,-629.107 700.4,-620.708 703.139,-612.82"/>
<polygon fill="#73391f" stroke="#73391f" points="694.45,-637.844 686.919,-645.814 692.81,-642.567 691.17,-647.291 691.17,-647.291 691.17,-647.291 692.81,-642.567 695.421,-648.767 694.45,-637.844 694.45,-637.844"/>
<polygon fill="#73391f" stroke="#73391f" points="703.226,-612.569 710.757,-604.598 704.866,-607.846 706.506,-603.122 706.506,-603.122 706.506,-603.122 704.866,-607.846 702.255,-601.646 703.226,-612.569 703.226,-612.569"/>
</g>
<!-- Network -->
<g id="node14" class="node"><title>Network</title>
<ellipse fill="none" stroke="black" cx="1016" cy="-557.5" rx="41.6928" ry="18"/>
<text text-anchor="middle" x="1016" y="-553.8" font-family="Times,serif" font-size="14.00">Network</text>
</g>
<!-- User&#45;&gt;Network -->
<g id="edge10" class="edge"><title>User&#45;&gt;Network</title>
<path fill="none" stroke="#dbdf36" d="M812.708,-647.14C812.805,-647.093 812.903,-647.047 813,-647 873.639,-617.89 900.863,-643.051 960,-611 973.445,-603.713 986.088,-592.411 995.947,-582.156"/>
<polygon fill="#dbdf36" stroke="#dbdf36" points="812.614,-647.187 801.658,-647.647 808.144,-649.428 803.675,-651.669 803.675,-651.669 803.675,-651.669 808.144,-649.428 805.692,-655.692 812.614,-647.187 812.614,-647.187"/>
<polygon fill="#dbdf36" stroke="#dbdf36" points="996.132,-581.955 1006.22,-577.653 999.522,-578.279 1002.91,-574.603 1002.91,-574.603 1002.91,-574.603 999.522,-578.279 999.602,-571.553 996.132,-581.955 996.132,-581.955"/>
</g>
<!-- Alternative -->
<g id="node9" class="node"><title>Alternative</title>
<path fill="none" stroke="black" d="M424,-0.5C424,-0.5 644,-0.5 644,-0.5 650,-0.5 656,-6.5 656,-12.5 656,-12.5 656,-94.5 656,-94.5 656,-100.5 650,-106.5 644,-106.5 644,-106.5 424,-106.5 424,-106.5 418,-106.5 412,-100.5 412,-94.5 412,-94.5 412,-12.5 412,-12.5 412,-6.5 418,-0.5 424,-0.5"/>
<text text-anchor="middle" x="534" y="-91.3" font-family="Times,serif" font-size="14.00">Alternative</text>
<polyline fill="none" stroke="black" points="412,-83.5 656,-83.5 "/>
<text text-anchor="start" x="420" y="-68.3" font-family="Times,serif" font-size="14.00">id :integer</text>
<text text-anchor="start" x="420" y="-53.3" font-family="Times,serif" font-size="14.00">content :text</text>
<text text-anchor="start" x="420" y="-38.3" font-family="Times,serif" font-size="14.00">question_id :integer</text>
<text text-anchor="start" x="420" y="-23.3" font-family="Times,serif" font-size="14.00">created_at :timestamp without time zone</text>
<text text-anchor="start" x="420" y="-8.3" font-family="Times,serif" font-size="14.00">updated_at :timestamp without time zone</text>
</g>
<!-- Material&#45;&gt;UserMaterial -->
<g id="edge12" class="edge"><title>Material&#45;&gt;UserMaterial</title>
<path fill="none" stroke="#ab1e17" d="M663.338,-301.909C663.893,-301.604 664.447,-301.301 665,-301 688.758,-288.05 714.571,-275.149 739.632,-263.2"/>
<ellipse fill="none" stroke="#ab1e17" cx="659.584" cy="-303.993" rx="4.00002" ry="4.00002"/>
<polygon fill="#ab1e17" stroke="#ab1e17" points="739.789,-263.125 750.753,-262.909 744.307,-260.984 748.825,-258.842 748.825,-258.842 748.825,-258.842 744.307,-260.984 746.898,-254.776 739.789,-263.125 739.789,-263.125"/>
</g>
<!-- Question -->
<g id="node12" class="node"><title>Question</title>
<path fill="none" stroke="black" d="M424,-143.5C424,-143.5 644,-143.5 644,-143.5 650,-143.5 656,-149.5 656,-155.5 656,-155.5 656,-252.5 656,-252.5 656,-258.5 650,-264.5 644,-264.5 644,-264.5 424,-264.5 424,-264.5 418,-264.5 412,-258.5 412,-252.5 412,-252.5 412,-155.5 412,-155.5 412,-149.5 418,-143.5 424,-143.5"/>
<text text-anchor="middle" x="534" y="-249.3" font-family="Times,serif" font-size="14.00">Question</text>
<polyline fill="none" stroke="black" points="412,-241.5 656,-241.5 "/>
<text text-anchor="start" x="420" y="-226.3" font-family="Times,serif" font-size="14.00">id :integer</text>
<text text-anchor="start" x="420" y="-211.3" font-family="Times,serif" font-size="14.00">type :character varying</text>
<text text-anchor="start" x="420" y="-196.3" font-family="Times,serif" font-size="14.00">content :text</text>
<text text-anchor="start" x="420" y="-181.3" font-family="Times,serif" font-size="14.00">material_id :integer</text>
<text text-anchor="start" x="420" y="-166.3" font-family="Times,serif" font-size="14.00">created_at :timestamp without time zone</text>
<text text-anchor="start" x="420" y="-151.3" font-family="Times,serif" font-size="14.00">updated_at :timestamp without time zone</text>
</g>
<!-- Material&#45;&gt;Question -->
<g id="edge13" class="edge"><title>Material&#45;&gt;Question</title>
<path fill="none" stroke="#782d90" d="M534,-293.181C534,-286.982 534,-280.79 534,-274.724"/>
<ellipse fill="none" stroke="#782d90" cx="534" cy="-297.303" rx="4" ry="4"/>
<polygon fill="#782d90" stroke="#782d90" points="534,-274.657 538.5,-264.656 534,-269.657 534,-264.657 534,-264.657 534,-264.657 534,-269.657 529.5,-264.657 534,-274.657 534,-274.657"/>
</g>
<!-- Question&#45;&gt;Alternative -->
<g id="edge14" class="edge"><title>Question&#45;&gt;Alternative</title>
<path fill="none" stroke="#163ee3" d="M534,-135.448C534,-129.304 534,-123.098 534,-117.001"/>
<ellipse fill="none" stroke="#163ee3" cx="534" cy="-139.455" rx="4" ry="4"/>
<polygon fill="#163ee3" stroke="#163ee3" points="534,-116.872 538.5,-106.872 534,-111.872 534,-106.872 534,-106.872 534,-106.872 534,-111.872 529.5,-106.872 534,-116.872 534,-116.872"/>
</g>
<!-- Subject&#45;&gt;Material -->
<g id="edge16" class="edge"><title>Subject&#45;&gt;Material</title>
<path fill="none" stroke="#a456ee" d="M666.569,-506.081C655.52,-496.032 643.612,-485.2 631.625,-474.297"/>
<ellipse fill="none" stroke="#a456ee" cx="669.646" cy="-508.88" rx="4.00002" ry="4.00002"/>
<polygon fill="#a456ee" stroke="#a456ee" points="631.556,-474.234 627.186,-464.177 627.857,-470.87 624.158,-467.506 624.158,-467.506 624.158,-467.506 627.857,-470.87 621.13,-470.835 631.556,-474.234 631.556,-474.234"/>
</g>
<!-- Subject&#45;&gt;UserSubject -->
<g id="edge15" class="edge"><title>Subject&#45;&gt;UserSubject</title>
<path fill="none" stroke="#e84b52" d="M744.732,-503.97C752.525,-485.962 761.315,-465.649 769.388,-446.996"/>
<ellipse fill="none" stroke="#e84b52" cx="743.031" cy="-507.901" rx="4.00002" ry="4.00002"/>
<polygon fill="#e84b52" stroke="#e84b52" points="769.438,-446.88 777.54,-439.489 771.424,-442.291 773.41,-437.702 773.41,-437.702 773.41,-437.702 771.424,-442.291 769.28,-435.915 769.438,-446.88 769.438,-446.88"/>
</g>
</g>
</svg>
