<?xml version="1.0" encoding="UTF-8" standalone="no"?>
<!DOCTYPE svg PUBLIC "-//W3C//DTD SVG 1.1//EN"
 "http://www.w3.org/Graphics/SVG/1.1/DTD/svg11.dtd">
<!-- Generated by graphviz version 2.38.0 (20140413.2041)
 -->
<!-- Title: models_diagram Pages: 1 -->
<svg width="1114pt" height="1070pt"
 viewBox="0.00 0.00 1114.00 1070.00" xmlns="http://www.w3.org/2000/svg" xmlns:xlink="http://www.w3.org/1999/xlink">
<g id="graph0" class="graph" transform="scale(1 1) rotate(0) translate(4 1066)">
<title>models_diagram</title>
<polygon fill="none" stroke="none" points="-4,4 -4,-1066 1110,-1066 1110,4 -4,4"/>
<!-- _diagram_info -->
<g id="node1" class="node"><title>_diagram_info</title>
<text text-anchor="start" x="30" y="-1033.1" font-family="Times,serif" font-size="13.00">Models diagram</text>
<text text-anchor="start" x="30" y="-1019.1" font-family="Times,serif" font-size="13.00">Date: Mar 17 2017 &#45; 16:32</text>
<text text-anchor="start" x="30" y="-1005.1" font-family="Times,serif" font-size="13.00">Migration version: 20170316184620</text>
<text text-anchor="start" x="30" y="-991.1" font-family="Times,serif" font-size="13.00">Generated by RailRoady 1.5.2</text>
<text text-anchor="start" x="30" y="-977.1" font-family="Times,serif" font-size="13.00">http://railroady.prestonlee.com</text>
</g>
<!-- UserNetwork -->
<g id="node2" class="node"><title>UserNetwork</title>
<path fill="none" stroke="black" d="M12,-519.5C12,-519.5 232,-519.5 232,-519.5 238,-519.5 244,-525.5 244,-531.5 244,-531.5 244,-613.5 244,-613.5 244,-619.5 238,-625.5 232,-625.5 232,-625.5 12,-625.5 12,-625.5 6,-625.5 0,-619.5 0,-613.5 0,-613.5 0,-531.5 0,-531.5 0,-525.5 6,-519.5 12,-519.5"/>
<text text-anchor="middle" x="122" y="-610.3" font-family="Times,serif" font-size="14.00">UserNetwork</text>
<polyline fill="none" stroke="black" points="0,-602.5 244,-602.5 "/>
<text text-anchor="start" x="8" y="-587.3" font-family="Times,serif" font-size="14.00">id :integer</text>
<text text-anchor="start" x="8" y="-572.3" font-family="Times,serif" font-size="14.00">user_id :integer</text>
<text text-anchor="start" x="8" y="-557.3" font-family="Times,serif" font-size="14.00">network_id :integer</text>
<text text-anchor="start" x="8" y="-542.3" font-family="Times,serif" font-size="14.00">created_at :timestamp without time zone</text>
<text text-anchor="start" x="8" y="-527.3" font-family="Times,serif" font-size="14.00">updated_at :timestamp without time zone</text>
</g>
<!-- UserLevel -->
<g id="node3" class="node"><title>UserLevel</title>
<path fill="none" stroke="black" d="M237,-339C237,-339 457,-339 457,-339 463,-339 469,-345 469,-351 469,-351 469,-433 469,-433 469,-439 463,-445 457,-445 457,-445 237,-445 237,-445 231,-445 225,-439 225,-433 225,-433 225,-351 225,-351 225,-345 231,-339 237,-339"/>
<text text-anchor="middle" x="347" y="-429.8" font-family="Times,serif" font-size="14.00">UserLevel</text>
<polyline fill="none" stroke="black" points="225,-422 469,-422 "/>
<text text-anchor="start" x="233" y="-406.8" font-family="Times,serif" font-size="14.00">id :integer</text>
<text text-anchor="start" x="233" y="-391.8" font-family="Times,serif" font-size="14.00">user_id :integer</text>
<text text-anchor="start" x="233" y="-376.8" font-family="Times,serif" font-size="14.00">level_id :integer</text>
<text text-anchor="start" x="233" y="-361.8" font-family="Times,serif" font-size="14.00">created_at :timestamp without time zone</text>
<text text-anchor="start" x="233" y="-346.8" font-family="Times,serif" font-size="14.00">updated_at :timestamp without time zone</text>
</g>
<!-- Level -->
<g id="node4" class="node"><title>Level</title>
<path fill="none" stroke="black" d="M312,-527C312,-527 532,-527 532,-527 538,-527 544,-533 544,-539 544,-539 544,-606 544,-606 544,-612 538,-618 532,-618 532,-618 312,-618 312,-618 306,-618 300,-612 300,-606 300,-606 300,-539 300,-539 300,-533 306,-527 312,-527"/>
<text text-anchor="middle" x="422" y="-602.8" font-family="Times,serif" font-size="14.00">Level</text>
<polyline fill="none" stroke="black" points="300,-595 544,-595 "/>
<text text-anchor="start" x="308" y="-579.8" font-family="Times,serif" font-size="14.00">id :integer</text>
<text text-anchor="start" x="308" y="-564.8" font-family="Times,serif" font-size="14.00">name :character varying</text>
<text text-anchor="start" x="308" y="-549.8" font-family="Times,serif" font-size="14.00">created_at :timestamp without time zone</text>
<text text-anchor="start" x="308" y="-534.8" font-family="Times,serif" font-size="14.00">updated_at :timestamp without time zone</text>
</g>
<!-- Level&#45;&gt;UserLevel -->
<g id="edge1" class="edge"><title>Level&#45;&gt;UserLevel</title>
<path fill="none" stroke="#ed5a42" d="M400.147,-519.49C391.598,-499.144 381.727,-475.651 372.83,-454.476"/>
<ellipse fill="none" stroke="#ed5a42" cx="401.718" cy="-523.23" rx="4.00002" ry="4.00002"/>
<polygon fill="#ed5a42" stroke="#ed5a42" points="372.825,-454.464 373.1,-443.501 370.888,-449.854 368.952,-445.245 368.952,-445.245 368.952,-445.245 370.888,-449.854 364.803,-446.988 372.825,-454.464 372.825,-454.464"/>
</g>
<!-- Material -->
<g id="node11" class="node"><title>Material</title>
<path fill="none" stroke="black" d="M612,-301.5C612,-301.5 832,-301.5 832,-301.5 838,-301.5 844,-307.5 844,-313.5 844,-313.5 844,-470.5 844,-470.5 844,-476.5 838,-482.5 832,-482.5 832,-482.5 612,-482.5 612,-482.5 606,-482.5 600,-476.5 600,-470.5 600,-470.5 600,-313.5 600,-313.5 600,-307.5 606,-301.5 612,-301.5"/>
<text text-anchor="middle" x="722" y="-467.3" font-family="Times,serif" font-size="14.00">Material</text>
<polyline fill="none" stroke="black" points="600,-459.5 844,-459.5 "/>
<text text-anchor="start" x="608" y="-444.3" font-family="Times,serif" font-size="14.00">id :integer</text>
<text text-anchor="start" x="608" y="-429.3" font-family="Times,serif" font-size="14.00">title :character varying</text>
<text text-anchor="start" x="608" y="-414.3" font-family="Times,serif" font-size="14.00">description :text</text>
<text text-anchor="start" x="608" y="-399.3" font-family="Times,serif" font-size="14.00">created_at :timestamp without time zone</text>
<text text-anchor="start" x="608" y="-384.3" font-family="Times,serif" font-size="14.00">updated_at :timestamp without time zone</text>
<text text-anchor="start" x="608" y="-369.3" font-family="Times,serif" font-size="14.00">updated_by :integer</text>
<text text-anchor="start" x="608" y="-354.3" font-family="Times,serif" font-size="14.00">public_level :integer</text>
<text text-anchor="start" x="608" y="-339.3" font-family="Times,serif" font-size="14.00">owner :integer</text>
<text text-anchor="start" x="608" y="-324.3" font-family="Times,serif" font-size="14.00">subject_id :integer</text>
<text text-anchor="start" x="608" y="-309.3" font-family="Times,serif" font-size="14.00">level_id :integer</text>
</g>
<!-- Level&#45;&gt;Material -->
<g id="edge2" class="edge"><title>Level&#45;&gt;Material</title>
<path fill="none" stroke="#088853" d="M503.958,-522.735C530.898,-506.705 561.554,-488.465 591.194,-470.83"/>
<ellipse fill="none" stroke="#088853" cx="500.366" cy="-524.872" rx="4.00002" ry="4.00002"/>
<polygon fill="#088853" stroke="#088853" points="591.343,-470.741 602.238,-469.495 595.64,-468.184 599.937,-465.627 599.937,-465.627 599.937,-465.627 595.64,-468.184 597.636,-461.76 591.343,-470.741 591.343,-470.741"/>
</g>
<!-- Comment -->
<g id="node5" class="node"><title>Comment</title>
<path fill="none" stroke="black" d="M462,-0.5C462,-0.5 682,-0.5 682,-0.5 688,-0.5 694,-6.5 694,-12.5 694,-12.5 694,-94.5 694,-94.5 694,-100.5 688,-106.5 682,-106.5 682,-106.5 462,-106.5 462,-106.5 456,-106.5 450,-100.5 450,-94.5 450,-94.5 450,-12.5 450,-12.5 450,-6.5 456,-0.5 462,-0.5"/>
<text text-anchor="middle" x="572" y="-91.3" font-family="Times,serif" font-size="14.00">Comment</text>
<polyline fill="none" stroke="black" points="450,-83.5 694,-83.5 "/>
<text text-anchor="start" x="458" y="-68.3" font-family="Times,serif" font-size="14.00">id :integer</text>
<text text-anchor="start" x="458" y="-53.3" font-family="Times,serif" font-size="14.00">content :text</text>
<text text-anchor="start" x="458" y="-38.3" font-family="Times,serif" font-size="14.00">user_material_id :integer</text>
<text text-anchor="start" x="458" y="-23.3" font-family="Times,serif" font-size="14.00">created_at :timestamp without time zone</text>
<text text-anchor="start" x="458" y="-8.3" font-family="Times,serif" font-size="14.00">updated_at :timestamp without time zone</text>
</g>
<!-- ApplicationRecord -->
<g id="node6" class="node"><title>ApplicationRecord</title>
<ellipse fill="none" stroke="black" cx="593" cy="-1008.5" rx="77.1866" ry="18"/>
<text text-anchor="middle" x="593" y="-1004.8" font-family="Times,serif" font-size="14.00">ApplicationRecord</text>
</g>
<!-- UserMaterial -->
<g id="node7" class="node"><title>UserMaterial</title>
<path fill="none" stroke="black" d="M462,-143.5C462,-143.5 682,-143.5 682,-143.5 688,-143.5 694,-149.5 694,-155.5 694,-155.5 694,-252.5 694,-252.5 694,-258.5 688,-264.5 682,-264.5 682,-264.5 462,-264.5 462,-264.5 456,-264.5 450,-258.5 450,-252.5 450,-252.5 450,-155.5 450,-155.5 450,-149.5 456,-143.5 462,-143.5"/>
<text text-anchor="middle" x="572" y="-249.3" font-family="Times,serif" font-size="14.00">UserMaterial</text>
<polyline fill="none" stroke="black" points="450,-241.5 694,-241.5 "/>
<text text-anchor="start" x="458" y="-226.3" font-family="Times,serif" font-size="14.00">id :integer</text>
<text text-anchor="start" x="458" y="-211.3" font-family="Times,serif" font-size="14.00">role :character varying</text>
<text text-anchor="start" x="458" y="-196.3" font-family="Times,serif" font-size="14.00">material_id :integer</text>
<text text-anchor="start" x="458" y="-181.3" font-family="Times,serif" font-size="14.00">user_id :integer</text>
<text text-anchor="start" x="458" y="-166.3" font-family="Times,serif" font-size="14.00">created_at :timestamp without time zone</text>
<text text-anchor="start" x="458" y="-151.3" font-family="Times,serif" font-size="14.00">updated_at :timestamp without time zone</text>
</g>
<!-- UserMaterial&#45;&gt;Comment -->
<g id="edge3" class="edge"><title>UserMaterial&#45;&gt;Comment</title>
<path fill="none" stroke="#c0bb33" d="M572,-135.448C572,-129.304 572,-123.098 572,-117.001"/>
<ellipse fill="none" stroke="#c0bb33" cx="572" cy="-139.455" rx="4" ry="4"/>
<polygon fill="#c0bb33" stroke="#c0bb33" points="572,-116.872 576.5,-106.872 572,-111.872 572,-106.872 572,-106.872 572,-106.872 572,-111.872 567.5,-106.872 572,-116.872 572,-116.872"/>
</g>
<!-- Network -->
<g id="node8" class="node"><title>Network</title>
<path fill="none" stroke="black" d="M266,-955.5C266,-955.5 486,-955.5 486,-955.5 492,-955.5 498,-961.5 498,-967.5 498,-967.5 498,-1049.5 498,-1049.5 498,-1055.5 492,-1061.5 486,-1061.5 486,-1061.5 266,-1061.5 266,-1061.5 260,-1061.5 254,-1055.5 254,-1049.5 254,-1049.5 254,-967.5 254,-967.5 254,-961.5 260,-955.5 266,-955.5"/>
<text text-anchor="middle" x="376" y="-1046.3" font-family="Times,serif" font-size="14.00">Network</text>
<polyline fill="none" stroke="black" points="254,-1038.5 498,-1038.5 "/>
<text text-anchor="start" x="262" y="-1023.3" font-family="Times,serif" font-size="14.00">id :integer</text>
<text text-anchor="start" x="262" y="-1008.3" font-family="Times,serif" font-size="14.00">name :character varying</text>
<text text-anchor="start" x="262" y="-993.3" font-family="Times,serif" font-size="14.00">description :character varying</text>
<text text-anchor="start" x="262" y="-978.3" font-family="Times,serif" font-size="14.00">created_at :timestamp without time zone</text>
<text text-anchor="start" x="262" y="-963.3" font-family="Times,serif" font-size="14.00">updated_at :timestamp without time zone</text>
</g>
<!-- Network&#45;&gt;UserNetwork -->
<g id="edge4" class="edge"><title>Network&#45;&gt;UserNetwork</title>
<path fill="none" stroke="#0e9c15" d="M341.25,-948.124C293.065,-865.793 206.41,-717.727 157.717,-634.528"/>
<ellipse fill="none" stroke="#0e9c15" cx="343.341" cy="-951.697" rx="4.00002" ry="4.00002"/>
<polygon fill="#0e9c15" stroke="#0e9c15" points="157.6,-634.329 156.433,-623.425 155.075,-630.013 152.549,-625.698 152.549,-625.698 152.549,-625.698 155.075,-630.013 148.665,-627.971 157.6,-634.329 157.6,-634.329"/>
</g>
<!-- User -->
<g id="node9" class="node"><title>User</title>
<path fill="none" stroke="black" d="M352.5,-662.5C352.5,-662.5 641.5,-662.5 641.5,-662.5 647.5,-662.5 653.5,-668.5 653.5,-674.5 653.5,-674.5 653.5,-906.5 653.5,-906.5 653.5,-912.5 647.5,-918.5 641.5,-918.5 641.5,-918.5 352.5,-918.5 352.5,-918.5 346.5,-918.5 340.5,-912.5 340.5,-906.5 340.5,-906.5 340.5,-674.5 340.5,-674.5 340.5,-668.5 346.5,-662.5 352.5,-662.5"/>
<text text-anchor="middle" x="497" y="-903.3" font-family="Times,serif" font-size="14.00">User</text>
<polyline fill="none" stroke="black" points="340.5,-895.5 653.5,-895.5 "/>
<text text-anchor="start" x="348.5" y="-880.3" font-family="Times,serif" font-size="14.00">id :integer</text>
<text text-anchor="start" x="348.5" y="-865.3" font-family="Times,serif" font-size="14.00">email :character varying</text>
<text text-anchor="start" x="348.5" y="-850.3" font-family="Times,serif" font-size="14.00">encrypted_password :character varying</text>
<text text-anchor="start" x="348.5" y="-835.3" font-family="Times,serif" font-size="14.00">reset_password_token :character varying</text>
<text text-anchor="start" x="348.5" y="-820.3" font-family="Times,serif" font-size="14.00">reset_password_sent_at :timestamp without time zone</text>
<text text-anchor="start" x="348.5" y="-805.3" font-family="Times,serif" font-size="14.00">remember_created_at :timestamp without time zone</text>
<text text-anchor="start" x="348.5" y="-790.3" font-family="Times,serif" font-size="14.00">sign_in_count :integer</text>
<text text-anchor="start" x="348.5" y="-775.3" font-family="Times,serif" font-size="14.00">current_sign_in_at :timestamp without time zone</text>
<text text-anchor="start" x="348.5" y="-760.3" font-family="Times,serif" font-size="14.00">last_sign_in_at :timestamp without time zone</text>
<text text-anchor="start" x="348.5" y="-745.3" font-family="Times,serif" font-size="14.00">current_sign_in_ip :inet</text>
<text text-anchor="start" x="348.5" y="-730.3" font-family="Times,serif" font-size="14.00">last_sign_in_ip :inet</text>
<text text-anchor="start" x="348.5" y="-715.3" font-family="Times,serif" font-size="14.00">created_at :timestamp without time zone</text>
<text text-anchor="start" x="348.5" y="-700.3" font-family="Times,serif" font-size="14.00">updated_at :timestamp without time zone</text>
<text text-anchor="start" x="348.5" y="-685.3" font-family="Times,serif" font-size="14.00">first_name :character varying</text>
<text text-anchor="start" x="348.5" y="-670.3" font-family="Times,serif" font-size="14.00">last_name :character varying</text>
</g>
<!-- Network&#45;&gt;User -->
<g id="edge5" class="edge"><title>Network&#45;&gt;User</title>
<path fill="none" stroke="#a9f4a2" d="M410.179,-946.487C413.579,-940.416 417.118,-934.099 420.738,-927.638"/>
<polygon fill="#a9f4a2" stroke="#a9f4a2" points="410.024,-946.763 401.211,-953.288 407.58,-951.126 405.136,-955.488 405.136,-955.488 405.136,-955.488 407.58,-951.126 409.062,-957.687 410.024,-946.763 410.024,-946.763"/>
<polygon fill="#a9f4a2" stroke="#a9f4a2" points="420.831,-927.471 429.644,-920.946 423.275,-923.109 425.718,-918.747 425.718,-918.747 425.718,-918.747 423.275,-923.109 421.792,-916.547 420.831,-927.471 420.831,-927.471"/>
</g>
<!-- User&#45;&gt;UserNetwork -->
<g id="edge8" class="edge"><title>User&#45;&gt;UserNetwork</title>
<path fill="none" stroke="#8d9339" d="M333.225,-695.165C295.126,-673.221 255.7,-650.511 221.374,-630.739"/>
<ellipse fill="none" stroke="#8d9339" cx="336.944" cy="-697.308" rx="4.00002" ry="4.00002"/>
<polygon fill="#8d9339" stroke="#8d9339" points="220.964,-630.503 214.544,-621.612 216.631,-628.007 212.298,-625.512 212.298,-625.512 212.298,-625.512 216.631,-628.007 210.052,-629.411 220.964,-630.503 220.964,-630.503"/>
</g>
<!-- User&#45;&gt;UserLevel -->
<g id="edge7" class="edge"><title>User&#45;&gt;UserLevel</title>
<path fill="none" stroke="#c8a47c" d="M334.132,-685.685C316.781,-667.908 301.616,-647.979 291,-626 264.482,-571.097 286.679,-502.694 310.505,-454.241"/>
<ellipse fill="none" stroke="#c8a47c" cx="337.263" cy="-688.807" rx="4.00002" ry="4.00002"/>
<polygon fill="#c8a47c" stroke="#c8a47c" points="310.601,-454.052 319.134,-447.164 312.86,-449.591 315.12,-445.131 315.12,-445.131 315.12,-445.131 312.86,-449.591 311.105,-443.098 310.601,-454.052 310.601,-454.052"/>
</g>
<!-- User&#45;&gt;Level -->
<g id="edge11" class="edge"><title>User&#45;&gt;Level</title>
<path fill="none" stroke="#4a44e2" d="M449.525,-652.773C446.516,-644.107 443.6,-635.708 440.861,-627.82"/>
<polygon fill="#4a44e2" stroke="#4a44e2" points="449.55,-652.844 448.579,-663.767 451.19,-657.567 452.83,-662.291 452.83,-662.291 452.83,-662.291 451.19,-657.567 457.081,-660.814 449.55,-652.844 449.55,-652.844"/>
<polygon fill="#4a44e2" stroke="#4a44e2" points="440.774,-627.569 441.745,-616.646 439.134,-622.846 437.494,-618.122 437.494,-618.122 437.494,-618.122 439.134,-622.846 433.243,-619.598 440.774,-627.569 440.774,-627.569"/>
</g>
<!-- User&#45;&gt;UserMaterial -->
<g id="edge9" class="edge"><title>User&#45;&gt;UserMaterial</title>
<path fill="none" stroke="#3260d8" d="M546.567,-654.367C549.042,-644.846 551.23,-635.327 553,-626 576.145,-504.036 576.956,-358.805 574.871,-274.726"/>
<ellipse fill="none" stroke="#3260d8" cx="545.459" cy="-658.498" rx="4.00001" ry="4.00001"/>
<polygon fill="#3260d8" stroke="#3260d8" points="574.866,-274.527 579.095,-264.41 574.731,-269.529 574.597,-264.531 574.597,-264.531 574.597,-264.531 574.731,-269.529 570.098,-264.652 574.866,-274.527 574.866,-274.527"/>
</g>
<!-- User&#45;&gt;Material -->
<g id="edge12" class="edge"><title>User&#45;&gt;Material</title>
<path fill="none" stroke="#430f89" d="M572.788,-653.053C577.372,-643.955 581.816,-634.88 586,-626 607.844,-579.636 604.026,-563.755 629,-519 634.173,-509.729 639.932,-500.356 645.977,-491.126"/>
<polygon fill="#430f89" stroke="#430f89" points="572.694,-653.239 564.151,-660.114 570.428,-657.696 568.163,-662.153 568.163,-662.153 568.163,-662.153 570.428,-657.696 572.174,-664.192 572.694,-653.239 572.694,-653.239"/>
<polygon fill="#430f89" stroke="#430f89" points="646.051,-491.015 655.344,-485.194 648.826,-486.856 651.601,-482.697 651.601,-482.697 651.601,-482.697 648.826,-486.856 647.857,-480.199 646.051,-491.015 646.051,-491.015"/>
</g>
<!-- UserSubject -->
<g id="node12" class="node"><title>UserSubject</title>
<path fill="none" stroke="black" d="M874,-339C874,-339 1094,-339 1094,-339 1100,-339 1106,-345 1106,-351 1106,-351 1106,-433 1106,-433 1106,-439 1100,-445 1094,-445 1094,-445 874,-445 874,-445 868,-445 862,-439 862,-433 862,-433 862,-351 862,-351 862,-345 868,-339 874,-339"/>
<text text-anchor="middle" x="984" y="-429.8" font-family="Times,serif" font-size="14.00">UserSubject</text>
<polyline fill="none" stroke="black" points="862,-422 1106,-422 "/>
<text text-anchor="start" x="870" y="-406.8" font-family="Times,serif" font-size="14.00">id :integer</text>
<text text-anchor="start" x="870" y="-391.8" font-family="Times,serif" font-size="14.00">user_id :integer</text>
<text text-anchor="start" x="870" y="-376.8" font-family="Times,serif" font-size="14.00">subject_id :integer</text>
<text text-anchor="start" x="870" y="-361.8" font-family="Times,serif" font-size="14.00">created_at :timestamp without time zone</text>
<text text-anchor="start" x="870" y="-346.8" font-family="Times,serif" font-size="14.00">updated_at :timestamp without time zone</text>
</g>
<!-- User&#45;&gt;UserSubject -->
<g id="edge6" class="edge"><title>User&#45;&gt;UserSubject</title>
<path fill="none" stroke="#432031" d="M661.732,-752.994C739.747,-728.423 829.151,-688.695 891,-626 937.025,-579.345 961.075,-507.04 973.082,-455.355"/>
<ellipse fill="none" stroke="#432031" cx="657.557" cy="-754.288" rx="4.00001" ry="4.00001"/>
<polygon fill="#432031" stroke="#432031" points="973.146,-455.067 979.717,-446.288 974.236,-450.187 975.326,-445.307 975.326,-445.307 975.326,-445.307 974.236,-450.187 970.934,-444.326 973.146,-455.067 973.146,-455.067"/>
</g>
<!-- Subject -->
<g id="node14" class="node"><title>Subject</title>
<path fill="none" stroke="black" d="M650,-527C650,-527 870,-527 870,-527 876,-527 882,-533 882,-539 882,-539 882,-606 882,-606 882,-612 876,-618 870,-618 870,-618 650,-618 650,-618 644,-618 638,-612 638,-606 638,-606 638,-539 638,-539 638,-533 644,-527 650,-527"/>
<text text-anchor="middle" x="760" y="-602.8" font-family="Times,serif" font-size="14.00">Subject</text>
<polyline fill="none" stroke="black" points="638,-595 882,-595 "/>
<text text-anchor="start" x="646" y="-579.8" font-family="Times,serif" font-size="14.00">id :integer</text>
<text text-anchor="start" x="646" y="-564.8" font-family="Times,serif" font-size="14.00">name :character varying</text>
<text text-anchor="start" x="646" y="-549.8" font-family="Times,serif" font-size="14.00">created_at :timestamp without time zone</text>
<text text-anchor="start" x="646" y="-534.8" font-family="Times,serif" font-size="14.00">updated_at :timestamp without time zone</text>
</g>
<!-- User&#45;&gt;Subject -->
<g id="edge10" class="edge"><title>User&#45;&gt;Subject</title>
<path fill="none" stroke="#446d25" d="M659.935,-655.682C673.17,-644.813 685.953,-634.315 697.704,-624.663"/>
<polygon fill="#446d25" stroke="#446d25" points="659.617,-655.944 649.033,-658.813 655.753,-659.117 651.889,-662.291 651.889,-662.291 651.889,-662.291 655.753,-659.117 654.745,-665.768 659.617,-655.944 659.617,-655.944"/>
<polygon fill="#446d25" stroke="#446d25" points="697.94,-624.469 708.524,-621.6 701.804,-621.296 705.668,-618.122 705.668,-618.122 705.668,-618.122 701.804,-621.296 702.812,-614.645 697.94,-624.469 697.94,-624.469"/>
</g>
<!-- Alternative -->
<g id="node10" class="node"><title>Alternative</title>
<path fill="none" stroke="black" d="M724,-0.5C724,-0.5 944,-0.5 944,-0.5 950,-0.5 956,-6.5 956,-12.5 956,-12.5 956,-94.5 956,-94.5 956,-100.5 950,-106.5 944,-106.5 944,-106.5 724,-106.5 724,-106.5 718,-106.5 712,-100.5 712,-94.5 712,-94.5 712,-12.5 712,-12.5 712,-6.5 718,-0.5 724,-0.5"/>
<text text-anchor="middle" x="834" y="-91.3" font-family="Times,serif" font-size="14.00">Alternative</text>
<polyline fill="none" stroke="black" points="712,-83.5 956,-83.5 "/>
<text text-anchor="start" x="720" y="-68.3" font-family="Times,serif" font-size="14.00">id :integer</text>
<text text-anchor="start" x="720" y="-53.3" font-family="Times,serif" font-size="14.00">content :text</text>
<text text-anchor="start" x="720" y="-38.3" font-family="Times,serif" font-size="14.00">question_id :integer</text>
<text text-anchor="start" x="720" y="-23.3" font-family="Times,serif" font-size="14.00">created_at :timestamp without time zone</text>
<text text-anchor="start" x="720" y="-8.3" font-family="Times,serif" font-size="14.00">updated_at :timestamp without time zone</text>
</g>
<!-- Material&#45;&gt;UserMaterial -->
<g id="edge13" class="edge"><title>Material&#45;&gt;UserMaterial</title>
<path fill="none" stroke="#347ff8" d="M644.458,-294.848C638.352,-287.277 632.27,-279.734 626.371,-272.42"/>
<ellipse fill="none" stroke="#347ff8" cx="647.125" cy="-298.155" rx="4.00002" ry="4.00002"/>
<polygon fill="#347ff8" stroke="#347ff8" points="626.328,-272.367 623.554,-261.758 623.19,-268.475 620.051,-264.583 620.051,-264.583 620.051,-264.583 623.19,-268.475 616.548,-267.408 626.328,-272.367 626.328,-272.367"/>
</g>
<!-- Question -->
<g id="node13" class="node"><title>Question</title>
<path fill="none" stroke="black" d="M724,-143.5C724,-143.5 944,-143.5 944,-143.5 950,-143.5 956,-149.5 956,-155.5 956,-155.5 956,-252.5 956,-252.5 956,-258.5 950,-264.5 944,-264.5 944,-264.5 724,-264.5 724,-264.5 718,-264.5 712,-258.5 712,-252.5 712,-252.5 712,-155.5 712,-155.5 712,-149.5 718,-143.5 724,-143.5"/>
<text text-anchor="middle" x="834" y="-249.3" font-family="Times,serif" font-size="14.00">Question</text>
<polyline fill="none" stroke="black" points="712,-241.5 956,-241.5 "/>
<text text-anchor="start" x="720" y="-226.3" font-family="Times,serif" font-size="14.00">id :integer</text>
<text text-anchor="start" x="720" y="-211.3" font-family="Times,serif" font-size="14.00">type :character varying</text>
<text text-anchor="start" x="720" y="-196.3" font-family="Times,serif" font-size="14.00">content :text</text>
<text text-anchor="start" x="720" y="-181.3" font-family="Times,serif" font-size="14.00">material_id :integer</text>
<text text-anchor="start" x="720" y="-166.3" font-family="Times,serif" font-size="14.00">created_at :timestamp without time zone</text>
<text text-anchor="start" x="720" y="-151.3" font-family="Times,serif" font-size="14.00">updated_at :timestamp without time zone</text>
</g>
<!-- Material&#45;&gt;Question -->
<g id="edge14" class="edge"><title>Material&#45;&gt;Question</title>
<path fill="none" stroke="#07d6de" d="M780.249,-294.264C784.531,-287.154 788.795,-280.073 792.941,-273.187"/>
<ellipse fill="none" stroke="#07d6de" cx="778.095" cy="-297.842" rx="4.00002" ry="4.00002"/>
<polygon fill="#07d6de" stroke="#07d6de" points="792.964,-273.15 801.977,-266.904 795.543,-268.866 798.122,-264.583 798.122,-264.583 798.122,-264.583 795.543,-268.866 794.267,-262.262 792.964,-273.15 792.964,-273.15"/>
</g>
<!-- Question&#45;&gt;Alternative -->
<g id="edge15" class="edge"><title>Question&#45;&gt;Alternative</title>
<path fill="none" stroke="#f9254e" d="M834,-135.448C834,-129.304 834,-123.098 834,-117.001"/>
<ellipse fill="none" stroke="#f9254e" cx="834" cy="-139.455" rx="4" ry="4"/>
<polygon fill="#f9254e" stroke="#f9254e" points="834,-116.872 838.5,-106.872 834,-111.872 834,-106.872 834,-106.872 834,-106.872 834,-111.872 829.5,-106.872 834,-116.872 834,-116.872"/>
</g>
<!-- Subject&#45;&gt;Material -->
<g id="edge17" class="edge"><title>Subject&#45;&gt;Material</title>
<path fill="none" stroke="#94aba0" d="M748.78,-518.794C746.996,-510.415 745.102,-501.517 743.177,-492.478"/>
<ellipse fill="none" stroke="#94aba0" cx="749.676" cy="-523.005" rx="4.00001" ry="4.00001"/>
<polygon fill="#94aba0" stroke="#94aba0" points="743.163,-492.412 745.482,-481.694 742.122,-487.521 741.081,-482.631 741.081,-482.631 741.081,-482.631 742.122,-487.521 736.68,-483.568 743.163,-492.412 743.163,-492.412"/>
</g>
<!-- Subject&#45;&gt;UserSubject -->
<g id="edge16" class="edge"><title>Subject&#45;&gt;UserSubject</title>
<path fill="none" stroke="#8cd159" d="M822.241,-521.902C849.608,-500.093 881.951,-474.32 910.495,-451.574"/>
<ellipse fill="none" stroke="#8cd159" cx="819.075" cy="-524.425" rx="4.00002" ry="4.00002"/>
<polygon fill="#8cd159" stroke="#8cd159" points="910.618,-451.477 921.243,-448.764 914.528,-448.361 918.438,-445.245 918.438,-445.245 918.438,-445.245 914.528,-448.361 915.634,-441.725 910.618,-451.477 910.618,-451.477"/>
</g>
</g>
</svg>
