<?xml version="1.0" encoding="UTF-8" standalone="no"?>
<!DOCTYPE svg PUBLIC "-//W3C//DTD SVG 1.1//EN"
 "http://www.w3.org/Graphics/SVG/1.1/DTD/svg11.dtd">
<!-- Generated by graphviz version 2.38.0 (20140413.2041)
 -->
<!-- Title: models_diagram Pages: 1 -->
<svg width="648pt" height="374pt"
 viewBox="0.00 0.00 647.95 374.00" xmlns="http://www.w3.org/2000/svg" xmlns:xlink="http://www.w3.org/1999/xlink">
<g id="graph0" class="graph" transform="scale(1 1) rotate(0) translate(4 370)">
<title>models_diagram</title>
<polygon fill="none" stroke="none" points="-4,4 -4,-370 643.945,-370 643.945,4 -4,4"/>
<!-- _diagram_info -->
<g id="node1" class="node"><title>_diagram_info</title>
<text text-anchor="start" x="8" y="-351.6" font-family="Times,serif" font-size="13.00">Models diagram</text>
<text text-anchor="start" x="8" y="-337.6" font-family="Times,serif" font-size="13.00">Date: Mar 12 2017 &#45; 01:09</text>
<text text-anchor="start" x="8" y="-323.6" font-family="Times,serif" font-size="13.00">Migration version: 20170312040125</text>
<text text-anchor="start" x="8" y="-309.6" font-family="Times,serif" font-size="13.00">Generated by RailRoady 1.5.2</text>
<text text-anchor="start" x="8" y="-295.6" font-family="Times,serif" font-size="13.00">http://railroady.prestonlee.com</text>
</g>
<!-- UserNetwork -->
<g id="node2" class="node"><title>UserNetwork</title>
<ellipse fill="none" stroke="black" cx="150" cy="-162" rx="57.6901" ry="18"/>
<text text-anchor="middle" x="150" y="-158.3" font-family="Times,serif" font-size="14.00">UserNetwork</text>
</g>
<!-- UserLevel -->
<g id="node3" class="node"><title>UserLevel</title>
<ellipse fill="none" stroke="black" cx="231" cy="-90" rx="47.3916" ry="18"/>
<text text-anchor="middle" x="231" y="-86.3" font-family="Times,serif" font-size="14.00">UserLevel</text>
</g>
<!-- Level -->
<g id="node4" class="node"><title>Level</title>
<ellipse fill="none" stroke="black" cx="295" cy="-162" rx="30.5947" ry="18"/>
<text text-anchor="middle" x="295" y="-158.3" font-family="Times,serif" font-size="14.00">Level</text>
</g>
<!-- Level&#45;&gt;UserLevel -->
<g id="edge1" class="edge"><title>Level&#45;&gt;UserLevel</title>
<path fill="none" stroke="#b52303" d="M275.697,-139.888C268.413,-131.921 260.081,-122.808 252.601,-114.626"/>
<ellipse fill="none" stroke="#b52303" cx="278.414" cy="-142.859" rx="4.00002" ry="4.00002"/>
<polygon fill="#b52303" stroke="#b52303" points="252.498,-114.514 249.072,-104.097 249.125,-110.824 245.751,-107.134 245.751,-107.134 245.751,-107.134 249.125,-110.824 242.43,-110.17 252.498,-114.514 252.498,-114.514"/>
</g>
<!-- Comment -->
<g id="node5" class="node"><title>Comment</title>
<ellipse fill="none" stroke="black" cx="354" cy="-18" rx="46.2923" ry="18"/>
<text text-anchor="middle" x="354" y="-14.3" font-family="Times,serif" font-size="14.00">Comment</text>
</g>
<!-- ApplicationRecord -->
<g id="node6" class="node"><title>ApplicationRecord</title>
<ellipse fill="none" stroke="black" cx="411" cy="-327" rx="77.1866" ry="18"/>
<text text-anchor="middle" x="411" y="-323.3" font-family="Times,serif" font-size="14.00">ApplicationRecord</text>
</g>
<!-- UserMaterial -->
<g id="node7" class="node"><title>UserMaterial</title>
<ellipse fill="none" stroke="black" cx="354" cy="-90" rx="57.6901" ry="18"/>
<text text-anchor="middle" x="354" y="-86.3" font-family="Times,serif" font-size="14.00">UserMaterial</text>
</g>
<!-- UserMaterial&#45;&gt;Comment -->
<g id="edge2" class="edge"><title>UserMaterial&#45;&gt;Comment</title>
<path fill="none" stroke="#7026d1" d="M354,-63.6398C354,-58.0629 354,-52.1319 354,-46.4761"/>
<ellipse fill="none" stroke="#7026d1" cx="354" cy="-67.6966" rx="4" ry="4"/>
<polygon fill="#7026d1" stroke="#7026d1" points="354,-46.1043 358.5,-36.1043 354,-41.1043 354,-36.1043 354,-36.1043 354,-36.1043 354,-41.1043 349.5,-36.1044 354,-46.1043 354,-46.1043"/>
</g>
<!-- Network -->
<g id="node8" class="node"><title>Network</title>
<ellipse fill="none" stroke="black" cx="274" cy="-327" rx="41.6928" ry="18"/>
<text text-anchor="middle" x="274" y="-323.3" font-family="Times,serif" font-size="14.00">Network</text>
</g>
<!-- Network&#45;&gt;UserNetwork -->
<g id="edge3" class="edge"><title>Network&#45;&gt;UserNetwork</title>
<path fill="none" stroke="#4f86f5" d="M256.595,-303.12C233.473,-272.726 192.777,-219.231 168.917,-187.867"/>
<ellipse fill="none" stroke="#4f86f5" cx="259.235" cy="-306.591" rx="4.00002" ry="4.00002"/>
<polygon fill="#4f86f5" stroke="#4f86f5" points="168.717,-187.603 166.244,-176.92 165.689,-183.624 162.662,-179.645 162.662,-179.645 162.662,-179.645 165.689,-183.624 159.081,-182.369 168.717,-187.603 168.717,-187.603"/>
</g>
<!-- User -->
<g id="node9" class="node"><title>User</title>
<ellipse fill="none" stroke="black" cx="324" cy="-234" rx="27.0966" ry="18"/>
<text text-anchor="middle" x="324" y="-230.3" font-family="Times,serif" font-size="14.00">User</text>
</g>
<!-- Network&#45;&gt;User -->
<g id="edge4" class="edge"><title>Network&#45;&gt;User</title>
<path fill="none" stroke="#4ff531" d="M288.222,-300.115C295.1,-287.598 303.324,-272.631 310.152,-260.204"/>
<polygon fill="#4ff531" stroke="#4ff531" points="287.986,-300.545 279.227,-307.142 285.579,-304.927 283.171,-309.309 283.171,-309.309 283.171,-309.309 285.579,-304.927 287.115,-311.476 287.986,-300.545 287.986,-300.545"/>
<polygon fill="#4ff531" stroke="#4ff531" points="310.24,-260.043 318.999,-253.446 312.648,-255.661 315.056,-251.279 315.056,-251.279 315.056,-251.279 312.648,-255.661 311.112,-249.112 310.24,-260.043 310.24,-260.043"/>
</g>
<!-- User&#45;&gt;UserNetwork -->
<g id="edge7" class="edge"><title>User&#45;&gt;UserNetwork</title>
<path fill="none" stroke="#a2c706" d="M293.47,-220.718C265.758,-209.569 224.586,-193.006 193.446,-180.478"/>
<ellipse fill="none" stroke="#a2c706" cx="297.542" cy="-222.356" rx="4.00001" ry="4.00001"/>
<polygon fill="#a2c706" stroke="#a2c706" points="193.408,-180.463 185.81,-172.556 188.769,-178.597 184.13,-176.731 184.13,-176.731 184.13,-176.731 188.769,-178.597 182.451,-180.905 193.408,-180.463 193.408,-180.463"/>
</g>
<!-- User&#45;&gt;UserLevel -->
<g id="edge6" class="edge"><title>User&#45;&gt;UserLevel</title>
<path fill="none" stroke="#dd45b5" d="M296.009,-217.559C281.789,-208.38 265.371,-195.502 255,-180 242.595,-161.456 236.583,-136.715 233.68,-118.025"/>
<ellipse fill="none" stroke="#dd45b5" cx="299.801" cy="-219.909" rx="4.00002" ry="4.00002"/>
<polygon fill="#dd45b5" stroke="#dd45b5" points="233.676,-117.989 236.796,-107.476 233.006,-113.034 232.336,-108.079 232.336,-108.079 232.336,-108.079 233.006,-113.034 227.877,-108.681 233.676,-117.989 233.676,-117.989"/>
</g>
<!-- User&#45;&gt;Level -->
<g id="edge10" class="edge"><title>User&#45;&gt;Level</title>
<path fill="none" stroke="#56a0a8" d="M313.252,-207.056C310.85,-201.258 308.3,-195.104 305.892,-189.291"/>
<polygon fill="#56a0a8" stroke="#56a0a8" points="313.3,-207.172 312.97,-218.133 315.214,-211.792 317.127,-216.411 317.127,-216.411 317.127,-216.411 315.214,-211.792 321.285,-214.689 313.3,-207.172 313.3,-207.172"/>
<polygon fill="#56a0a8" stroke="#56a0a8" points="305.852,-189.195 306.182,-178.234 303.938,-184.575 302.025,-179.956 302.025,-179.956 302.025,-179.956 303.938,-184.575 297.867,-181.679 305.852,-189.195 305.852,-189.195"/>
</g>
<!-- User&#45;&gt;UserMaterial -->
<g id="edge8" class="edge"><title>User&#45;&gt;UserMaterial</title>
<path fill="none" stroke="#986c60" d="M329.232,-208.233C334.547,-183.076 342.757,-144.218 348.25,-118.214"/>
<ellipse fill="none" stroke="#986c60" cx="328.386" cy="-212.239" rx="4.00001" ry="4.00001"/>
<polygon fill="#986c60" stroke="#986c60" points="348.285,-118.052 354.755,-109.198 349.318,-113.16 350.352,-108.268 350.352,-108.268 350.352,-108.268 349.318,-113.16 345.949,-107.338 348.285,-118.052 348.285,-118.052"/>
</g>
<!-- Material -->
<g id="node11" class="node"><title>Material</title>
<ellipse fill="none" stroke="black" cx="423" cy="-162" rx="40.8928" ry="18"/>
<text text-anchor="middle" x="423" y="-158.3" font-family="Times,serif" font-size="14.00">Material</text>
</g>
<!-- User&#45;&gt;Material -->
<g id="edge11" class="edge"><title>User&#45;&gt;Material</title>
<path fill="none" stroke="#7b4e46" d="M350.663,-214.147C363.946,-204.755 380.038,-193.377 393.669,-183.739"/>
<polygon fill="#7b4e46" stroke="#7b4e46" points="350.323,-214.388 339.56,-216.487 346.241,-217.274 342.158,-220.161 342.158,-220.161 342.158,-220.161 346.241,-217.274 344.756,-223.835 350.323,-214.388 350.323,-214.388"/>
<polygon fill="#7b4e46" stroke="#7b4e46" points="394.051,-183.469 404.814,-181.37 398.134,-180.582 402.216,-177.696 402.216,-177.696 402.216,-177.696 398.134,-180.582 399.618,-174.021 394.051,-183.469 394.051,-183.469"/>
</g>
<!-- UserSubject -->
<g id="node12" class="node"><title>UserSubject</title>
<ellipse fill="none" stroke="black" cx="586" cy="-90" rx="53.8905" ry="18"/>
<text text-anchor="middle" x="586" y="-86.3" font-family="Times,serif" font-size="14.00">UserSubject</text>
</g>
<!-- User&#45;&gt;UserSubject -->
<g id="edge5" class="edge"><title>User&#45;&gt;UserSubject</title>
<path fill="none" stroke="#2654cf" d="M356.974,-224.618C388.066,-215.953 435.38,-200.769 473,-180 506.1,-161.726 539.574,-133.936 561.401,-114.279"/>
<ellipse fill="none" stroke="#2654cf" cx="352.904" cy="-225.73" rx="4.00001" ry="4.00001"/>
<polygon fill="#2654cf" stroke="#2654cf" points="561.509,-114.18 571.928,-110.76 565.201,-110.809 568.893,-107.437 568.893,-107.437 568.893,-107.437 565.201,-110.809 565.859,-104.114 561.509,-114.18 561.509,-114.18"/>
</g>
<!-- Subject -->
<g id="node14" class="node"><title>Subject</title>
<ellipse fill="none" stroke="black" cx="578" cy="-162" rx="37.0935" ry="18"/>
<text text-anchor="middle" x="578" y="-158.3" font-family="Times,serif" font-size="14.00">Subject</text>
</g>
<!-- User&#45;&gt;Subject -->
<g id="edge9" class="edge"><title>User&#45;&gt;Subject</title>
<path fill="none" stroke="#e2c80d" d="M358.746,-223.424C405.118,-210.645 487.126,-188.044 536.633,-174.4"/>
<polygon fill="#e2c80d" stroke="#e2c80d" points="358.458,-223.504 347.621,-221.822 353.637,-224.832 348.817,-226.161 348.817,-226.161 348.817,-226.161 353.637,-224.832 350.013,-230.499 358.458,-223.504 358.458,-223.504"/>
<polygon fill="#e2c80d" stroke="#e2c80d" points="536.74,-174.371 547.576,-176.052 541.56,-173.043 546.38,-171.714 546.38,-171.714 546.38,-171.714 541.56,-173.043 545.185,-167.376 536.74,-174.371 536.74,-174.371"/>
</g>
<!-- Alternative -->
<g id="node10" class="node"><title>Alternative</title>
<ellipse fill="none" stroke="black" cx="472" cy="-18" rx="50.0912" ry="18"/>
<text text-anchor="middle" x="472" y="-14.3" font-family="Times,serif" font-size="14.00">Alternative</text>
</g>
<!-- Material&#45;&gt;UserMaterial -->
<g id="edge12" class="edge"><title>Material&#45;&gt;UserMaterial</title>
<path fill="none" stroke="#3d0b2c" d="M401.591,-139.281C393.96,-131.539 385.326,-122.78 377.527,-114.868"/>
<ellipse fill="none" stroke="#3d0b2c" cx="404.535" cy="-142.267" rx="4.00002" ry="4.00002"/>
<polygon fill="#3d0b2c" stroke="#3d0b2c" points="377.094,-114.429 373.279,-104.148 373.584,-110.868 370.074,-107.307 370.074,-107.307 370.074,-107.307 373.584,-110.868 366.869,-110.466 377.094,-114.429 377.094,-114.429"/>
</g>
<!-- Question -->
<g id="node13" class="node"><title>Question</title>
<ellipse fill="none" stroke="black" cx="472" cy="-90" rx="42.4939" ry="18"/>
<text text-anchor="middle" x="472" y="-86.3" font-family="Times,serif" font-size="14.00">Question</text>
</g>
<!-- Material&#45;&gt;Question -->
<g id="edge13" class="edge"><title>Material&#45;&gt;Question</title>
<path fill="none" stroke="#d585f8" d="M439.231,-137.812C444.119,-130.831 449.503,-123.138 454.471,-116.042"/>
<ellipse fill="none" stroke="#d585f8" cx="436.906" cy="-141.134" rx="4.00002" ry="4.00002"/>
<polygon fill="#d585f8" stroke="#d585f8" points="454.736,-115.662 464.158,-110.051 457.604,-111.566 460.471,-107.47 460.471,-107.47 460.471,-107.47 457.604,-111.566 456.784,-104.889 454.736,-115.662 454.736,-115.662"/>
</g>
<!-- Question&#45;&gt;Alternative -->
<g id="edge14" class="edge"><title>Question&#45;&gt;Alternative</title>
<path fill="none" stroke="#962a6a" d="M472,-63.6398C472,-58.0629 472,-52.1319 472,-46.4761"/>
<ellipse fill="none" stroke="#962a6a" cx="472" cy="-67.6966" rx="4" ry="4"/>
<polygon fill="#962a6a" stroke="#962a6a" points="472,-46.1043 476.5,-36.1043 472,-41.1043 472,-36.1043 472,-36.1043 472,-36.1043 472,-41.1043 467.5,-36.1044 472,-46.1043 472,-46.1043"/>
</g>
<!-- Subject&#45;&gt;UserSubject -->
<g id="edge15" class="edge"><title>Subject&#45;&gt;UserSubject</title>
<path fill="none" stroke="#8f9ea1" d="M580.898,-135.64C581.552,-129.92 582.248,-123.828 582.91,-118.042"/>
<ellipse fill="none" stroke="#8f9ea1" cx="580.432" cy="-139.722" rx="4.00001" ry="4.00001"/>
<polygon fill="#8f9ea1" stroke="#8f9ea1" points="582.91,-118.04 588.516,-108.615 583.477,-113.072 584.045,-108.104 584.045,-108.104 584.045,-108.104 583.477,-113.072 579.574,-107.593 582.91,-118.04 582.91,-118.04"/>
</g>
</g>
</svg>
