<?xml version="1.0" encoding="UTF-8" standalone="no"?>
<!DOCTYPE svg PUBLIC "-//W3C//DTD SVG 1.1//EN"
 "http://www.w3.org/Graphics/SVG/1.1/DTD/svg11.dtd">
<!-- Generated by graphviz version 2.38.0 (20140413.2041)
 -->
<!-- Title: models_diagram Pages: 1 -->
<svg width="596pt" height="302pt"
 viewBox="0.00 0.00 595.95 302.00" xmlns="http://www.w3.org/2000/svg" xmlns:xlink="http://www.w3.org/1999/xlink">
<g id="graph0" class="graph" transform="scale(1 1) rotate(0) translate(4 298)">
<title>models_diagram</title>
<polygon fill="none" stroke="none" points="-4,4 -4,-298 591.946,-298 591.946,4 -4,4"/>
<!-- _diagram_info -->
<g id="node1" class="node"><title>_diagram_info</title>
<text text-anchor="start" x="8" y="-279.6" font-family="Times,serif" font-size="13.00">Models diagram</text>
<text text-anchor="start" x="8" y="-265.6" font-family="Times,serif" font-size="13.00">Date: Mar 12 2017 &#45; 00:31</text>
<text text-anchor="start" x="8" y="-251.6" font-family="Times,serif" font-size="13.00">Migration version: 20170312033133</text>
<text text-anchor="start" x="8" y="-237.6" font-family="Times,serif" font-size="13.00">Generated by RailRoady 1.5.2</text>
<text text-anchor="start" x="8" y="-223.6" font-family="Times,serif" font-size="13.00">http://railroady.prestonlee.com</text>
</g>
<!-- UserNetwork -->
<g id="node2" class="node"><title>UserNetwork</title>
<ellipse fill="none" stroke="black" cx="194" cy="-90" rx="57.6901" ry="18"/>
<text text-anchor="middle" x="194" y="-86.3" font-family="Times,serif" font-size="14.00">UserNetwork</text>
</g>
<!-- UserLevel -->
<g id="node3" class="node"><title>UserLevel</title>
<ellipse fill="none" stroke="black" cx="296" cy="-18" rx="47.3916" ry="18"/>
<text text-anchor="middle" x="296" y="-14.3" font-family="Times,serif" font-size="14.00">UserLevel</text>
</g>
<!-- Level -->
<g id="node4" class="node"><title>Level</title>
<ellipse fill="none" stroke="black" cx="339" cy="-90" rx="30.5947" ry="18"/>
<text text-anchor="middle" x="339" y="-86.3" font-family="Times,serif" font-size="14.00">Level</text>
</g>
<!-- Level&#45;&gt;UserLevel -->
<g id="edge1" class="edge"><title>Level&#45;&gt;UserLevel</title>
<path fill="none" stroke="#c9cbf4" d="M324.794,-65.8736C320.524,-58.9236 315.82,-51.265 311.473,-44.1885"/>
<ellipse fill="none" stroke="#c9cbf4" cx="326.933" cy="-69.3563" rx="4.00002" ry="4.00002"/>
<polygon fill="#c9cbf4" stroke="#c9cbf4" points="311.452,-44.1542 310.052,-33.278 308.835,-39.8938 306.218,-35.6334 306.218,-35.6334 306.218,-35.6334 308.835,-39.8938 302.383,-37.9888 311.452,-44.1542 311.452,-44.1542"/>
</g>
<!-- ApplicationRecord -->
<g id="node5" class="node"><title>ApplicationRecord</title>
<ellipse fill="none" stroke="black" cx="411" cy="-255" rx="77.1866" ry="18"/>
<text text-anchor="middle" x="411" y="-251.3" font-family="Times,serif" font-size="14.00">ApplicationRecord</text>
</g>
<!-- Network -->
<g id="node6" class="node"><title>Network</title>
<ellipse fill="none" stroke="black" cx="274" cy="-255" rx="41.6928" ry="18"/>
<text text-anchor="middle" x="274" y="-251.3" font-family="Times,serif" font-size="14.00">Network</text>
</g>
<!-- Network&#45;&gt;UserNetwork -->
<g id="edge2" class="edge"><title>Network&#45;&gt;UserNetwork</title>
<path fill="none" stroke="#724345" d="M262.054,-229.66C247.255,-199.507 222.137,-148.329 206.907,-117.298"/>
<ellipse fill="none" stroke="#724345" cx="263.978" cy="-233.579" rx="4.00002" ry="4.00002"/>
<polygon fill="#724345" stroke="#724345" points="206.741,-116.96 206.375,-106 204.538,-112.471 202.335,-107.983 202.335,-107.983 202.335,-107.983 204.538,-112.471 198.295,-109.965 206.741,-116.96 206.741,-116.96"/>
</g>
<!-- User -->
<g id="node7" class="node"><title>User</title>
<ellipse fill="none" stroke="black" cx="309" cy="-162" rx="27.0966" ry="18"/>
<text text-anchor="middle" x="309" y="-158.3" font-family="Times,serif" font-size="14.00">User</text>
</g>
<!-- Network&#45;&gt;User -->
<g id="edge3" class="edge"><title>Network&#45;&gt;User</title>
<path fill="none" stroke="#11209f" d="M284.245,-227.363C288.873,-215.33 294.323,-201.16 298.93,-189.182"/>
<polygon fill="#11209f" stroke="#11209f" points="284.173,-227.55 276.383,-235.268 282.378,-232.217 280.583,-236.884 280.583,-236.884 280.583,-236.884 282.378,-232.217 284.783,-238.499 284.173,-227.55 284.173,-227.55"/>
<polygon fill="#11209f" stroke="#11209f" points="298.975,-189.066 306.765,-181.348 300.77,-184.399 302.565,-179.732 302.565,-179.732 302.565,-179.732 300.77,-184.399 298.364,-178.117 298.975,-189.066 298.975,-189.066"/>
</g>
<!-- User&#45;&gt;UserNetwork -->
<g id="edge6" class="edge"><title>User&#45;&gt;UserNetwork</title>
<path fill="none" stroke="#22fec9" d="M282.542,-144.895C266.335,-135.03 245.429,-122.305 228.002,-111.697"/>
<ellipse fill="none" stroke="#22fec9" cx="286.075" cy="-147.046" rx="4.00002" ry="4.00002"/>
<polygon fill="#22fec9" stroke="#22fec9" points="227.79,-111.568 221.588,-102.525 223.519,-108.968 219.248,-106.369 219.248,-106.369 219.248,-106.369 223.519,-108.968 216.909,-110.212 227.79,-111.568 227.79,-111.568"/>
</g>
<!-- User&#45;&gt;UserLevel -->
<g id="edge5" class="edge"><title>User&#45;&gt;UserLevel</title>
<path fill="none" stroke="#1669d3" d="M303.454,-135.915C301.728,-127.13 300.014,-117.169 299,-108 296.721,-87.3848 296.007,-63.9346 295.843,-46.2822"/>
<ellipse fill="none" stroke="#1669d3" cx="304.288" cy="-139.995" rx="4.00001" ry="4.00001"/>
<polygon fill="#1669d3" stroke="#1669d3" points="295.843,-46.1174 300.303,-36.0998 295.823,-41.1174 295.803,-36.1175 295.803,-36.1175 295.803,-36.1175 295.823,-41.1174 291.303,-36.1352 295.843,-46.1174 295.843,-46.1174"/>
</g>
<!-- User&#45;&gt;Level -->
<g id="edge8" class="edge"><title>User&#45;&gt;Level</title>
<path fill="none" stroke="#7a795d" d="M320.119,-135.056C322.604,-129.258 325.241,-123.104 327.732,-117.291"/>
<polygon fill="#7a795d" stroke="#7a795d" points="320.049,-135.22 311.973,-142.638 318.079,-139.815 316.11,-144.411 316.11,-144.411 316.11,-144.411 318.079,-139.815 320.246,-146.184 320.049,-135.22 320.049,-135.22"/>
<polygon fill="#7a795d" stroke="#7a795d" points="327.794,-117.148 335.869,-109.729 329.763,-112.552 331.733,-107.956 331.733,-107.956 331.733,-107.956 329.763,-112.552 327.597,-106.184 327.794,-117.148 327.794,-117.148"/>
</g>
<!-- UserSubject -->
<g id="node9" class="node"><title>UserSubject</title>
<ellipse fill="none" stroke="black" cx="447" cy="-18" rx="53.8905" ry="18"/>
<text text-anchor="middle" x="447" y="-14.3" font-family="Times,serif" font-size="14.00">UserSubject</text>
</g>
<!-- User&#45;&gt;UserSubject -->
<g id="edge4" class="edge"><title>User&#45;&gt;UserSubject</title>
<path fill="none" stroke="#ac4cad" d="M334.847,-143.972C348.674,-134.256 365.57,-121.371 379,-108 398.747,-88.339 417.694,-62.8009 430.549,-44.1265"/>
<ellipse fill="none" stroke="#ac4cad" cx="331.221" cy="-146.477" rx="4.00002" ry="4.00002"/>
<polygon fill="#ac4cad" stroke="#ac4cad" points="430.568,-44.0995 439.903,-38.3455 433.373,-39.9603 436.177,-35.8211 436.177,-35.8211 436.177,-35.8211 433.373,-39.9603 432.452,-33.2967 430.568,-44.0995 430.568,-44.0995"/>
</g>
<!-- Subject -->
<g id="node10" class="node"><title>Subject</title>
<ellipse fill="none" stroke="black" cx="463" cy="-90" rx="37.0935" ry="18"/>
<text text-anchor="middle" x="463" y="-86.3" font-family="Times,serif" font-size="14.00">Subject</text>
</g>
<!-- User&#45;&gt;Subject -->
<g id="edge7" class="edge"><title>User&#45;&gt;Subject</title>
<path fill="none" stroke="#f003ec" d="M340.533,-146.667C365.841,-135.163 401.357,-119.019 427.629,-107.078"/>
<polygon fill="#f003ec" stroke="#f003ec" points="340.168,-146.833 329.202,-146.874 335.616,-148.902 331.064,-150.971 331.064,-150.971 331.064,-150.971 335.616,-148.902 332.927,-155.067 340.168,-146.833 340.168,-146.833"/>
<polygon fill="#f003ec" stroke="#f003ec" points="427.751,-107.023 438.716,-106.981 432.302,-104.953 436.854,-102.884 436.854,-102.884 436.854,-102.884 432.302,-104.953 434.992,-98.7878 427.751,-107.023 427.751,-107.023"/>
</g>
<!-- Material -->
<g id="node8" class="node"><title>Material</title>
<ellipse fill="none" stroke="black" cx="547" cy="-255" rx="40.8928" ry="18"/>
<text text-anchor="middle" x="547" y="-251.3" font-family="Times,serif" font-size="14.00">Material</text>
</g>
<!-- Subject&#45;&gt;UserSubject -->
<g id="edge9" class="edge"><title>Subject&#45;&gt;UserSubject</title>
<path fill="none" stroke="#b66fc0" d="M457.283,-63.9868C455.971,-58.2493 454.571,-52.1211 453.238,-46.2929"/>
<ellipse fill="none" stroke="#b66fc0" cx="458.236" cy="-68.1555" rx="4.00001" ry="4.00001"/>
<polygon fill="#b66fc0" stroke="#b66fc0" points="453.177,-46.0239 455.336,-35.2726 452.063,-41.1496 450.949,-36.2753 450.949,-36.2753 450.949,-36.2753 452.063,-41.1496 446.562,-37.278 453.177,-46.0239 453.177,-46.0239"/>
</g>
</g>
</svg>
